<svg width="59" height="60" viewBox="0 0 59 60" fill="none" xmlns="http://www.w3.org/2000/svg">
<path d="M29.4954 60C45.7626 60 59 46.5399 59 29.9988C59 13.4578 45.7614 0 29.4954 0C13.2305 0 0 13.4578 0 29.9988C0 46.5399 13.2305 60 29.4954 60ZM39.2125 23.2391H43.2522C44.9027 23.2391 46.2439 24.5908 46.2439 26.2618C46.2439 27.9328 44.9027 29.2845 43.2522 29.2845H39.2125C37.5574 29.2845 36.2186 27.9328 36.2186 26.2618C36.2186 24.5908 37.5586 23.2391 39.2125 23.2391ZM16.2579 23.2391H20.2999C21.9527 23.2391 23.2939 24.5908 23.2939 26.2618C23.2939 27.9328 21.9527 29.2845 20.2999 29.2845H16.2579C14.6005 29.2845 13.264 27.9328 13.264 26.2618C13.264 24.5908 14.6005 23.2391 16.2579 23.2391ZM15.2319 35.7961C16.7958 35.2612 18.4982 36.0991 19.0326 37.6757C20.5839 42.2575 24.7897 45.3339 29.4965 45.3339C34.1987 45.3339 38.4081 42.2564 39.9651 37.6733C40.5018 36.0956 42.1926 35.2566 43.7635 35.7984C45.3297 36.3403 46.1642 38.0579 45.6252 39.6357C43.2383 46.6588 36.7541 51.377 29.4954 51.377C22.2274 51.377 15.7466 46.6588 13.3679 39.631C12.8335 38.0532 13.6679 36.3356 15.2319 35.7961Z" fill="black"/>
</svg>
