<svg width="165" height="165" viewBox="0 0 165 165" fill="none" xmlns="http://www.w3.org/2000/svg">
<!-- Círculo -->
<path d="M164.75 82.5C164.75 127.925 127.925 164.75 82.5 164.75C37.0746 164.75 0.25 127.925 0.25 82.5C0.25 37.0746 37.0746 0.25 82.5 0.25C127.925 0.25 164.75 37.0746 164.75 82.5Z" fill="white" stroke="black" stroke-width="0.5"/> 

<!-- Notícias. Stats. Histórias. -->
<!-- N -->
<path d="M22.0195 122.937C21.8403 122.694 21.7681 122.457 21.8028 122.228C21.8496 122.001 21.998 121.795 22.2481 121.611L28.1879 117.234C28.4518 117.039 28.6994 116.953 28.9305 116.976C29.1667 117.005 29.3641 117.128 29.5228 117.343C29.6611 117.531 29.7278 117.701 29.7231 117.855C29.7304 118.01 29.6993 118.215 29.6298 118.47L27.6672 125.56L27.4599 125.279L31.8157 122.069C32.0588 121.89 32.2925 121.814 32.5166 121.842C32.7528 121.872 32.9605 122.008 33.1397 122.251C33.3189 122.494 33.3851 122.73 33.3383 122.957C33.3036 123.186 33.1646 123.391 32.9215 123.57L26.9088 128.001C26.6796 128.17 26.452 128.246 26.226 128.23C26.007 128.21 25.8232 128.098 25.6748 127.897C25.5314 127.702 25.4544 127.518 25.4438 127.344C25.4383 127.176 25.4703 126.965 25.5398 126.71L27.5101 119.63L27.7097 119.901L23.3539 123.111C23.1038 123.295 22.8633 123.376 22.6322 123.354C22.408 123.326 22.2038 123.187 22.0195 122.937Z" fill="black"/>
<!-- o -->
<path d="M29.515 132.276C29.0475 131.78 28.7365 131.255 28.5821 130.701C28.4336 130.153 28.4468 129.607 28.6218 129.063C28.7967 128.518 29.1323 128.013 29.6285 127.545C29.999 127.196 30.3852 126.939 30.7869 126.774C31.1887 126.609 31.5938 126.535 32.0022 126.554C32.4229 126.572 32.8286 126.682 33.2195 126.883C33.6166 127.078 33.9897 127.361 34.3388 127.731C34.8063 128.227 35.1143 128.749 35.2628 129.297C35.4173 129.851 35.4101 130.397 35.2415 130.936C35.0788 131.48 34.7493 131.986 34.2531 132.454C33.8762 132.809 33.484 133.066 33.0763 133.225C32.6746 133.39 32.2664 133.466 31.8516 133.454C31.4368 133.441 31.028 133.334 30.6249 133.133C30.2341 132.932 29.8641 132.647 29.515 132.276ZM30.5796 131.273C30.7749 131.48 30.9938 131.612 31.2363 131.668C31.4788 131.724 31.7389 131.704 32.0164 131.609C32.3003 131.507 32.5961 131.312 32.9039 131.022C33.3624 130.59 33.6097 130.179 33.6457 129.789C33.688 129.394 33.5642 129.042 33.2742 128.734C33.0848 128.533 32.8691 128.399 32.6269 128.33C32.3907 128.268 32.1306 128.288 31.8468 128.39C31.5752 128.491 31.2855 128.687 30.9777 128.977C30.5192 129.409 30.2656 129.826 30.217 130.227C30.1747 130.623 30.2956 130.971 30.5796 131.273Z" fill="black"/>
<!-- t -->
<path d="M35.0688 137.609C34.6244 137.213 34.3168 136.806 34.1461 136.388C33.9819 135.975 33.952 135.562 34.0565 135.146C34.1675 134.736 34.4153 134.316 34.8001 133.884L36.4194 132.067L36.0136 131.706C35.8332 131.545 35.7346 131.37 35.7177 131.182C35.7072 130.999 35.7766 130.824 35.9259 130.656C36.0867 130.476 36.2556 130.384 36.4326 130.38C36.6218 130.375 36.8066 130.453 36.987 130.614L37.3928 130.976L38.0474 130.241C38.2656 129.996 38.4937 129.87 38.7316 129.863C38.9753 129.849 39.2131 129.945 39.445 130.152C39.6833 130.364 39.8063 130.59 39.8138 130.827C39.8271 131.059 39.7246 131.297 39.5064 131.542L38.8518 132.276L39.7697 133.095C39.9501 133.255 40.0455 133.427 40.056 133.61C40.0722 133.786 40 133.965 39.8392 134.145C39.6899 134.312 39.5238 134.401 39.3411 134.412C39.1583 134.422 38.9767 134.347 38.7964 134.186L37.8785 133.368L36.3108 135.127C36.0696 135.397 35.9499 135.655 35.9517 135.899C35.9599 136.149 36.1026 136.398 36.3795 136.645C36.4762 136.731 36.575 136.801 36.6759 136.857C36.7769 136.912 36.8657 136.968 36.9423 137.025C37.0382 137.099 37.0864 137.194 37.087 137.31C37.0933 137.42 37.0046 137.578 36.8208 137.784C36.683 137.938 36.5366 138.051 36.3817 138.121C36.2268 138.191 36.062 138.194 35.8872 138.131C35.7748 138.088 35.6359 138.011 35.4705 137.898C35.3058 137.797 35.1719 137.701 35.0688 137.609Z" fill="black"/>
<!-- í -->
<path d="M37.4296 139.495C37.179 139.297 37.0422 139.074 37.019 138.825C37.008 138.574 37.1068 138.317 37.3154 138.053L40.0593 134.579C40.2732 134.308 40.5007 134.152 40.7417 134.111C40.9948 134.069 41.2466 134.147 41.4972 134.345C41.741 134.538 41.8684 134.759 41.8794 135.01C41.9025 135.259 41.8071 135.519 41.5932 135.79L38.8493 139.264C38.6407 139.528 38.4133 139.684 38.1669 139.731C37.9259 139.772 37.6802 139.693 37.4296 139.495ZM42.5613 134.146C42.3945 134.191 42.2482 134.174 42.1223 134.097C42.0033 134.025 41.9144 133.921 41.8556 133.787C41.7968 133.653 41.7838 133.516 41.8166 133.377C41.8616 133.236 41.9626 133.129 42.1199 133.056L43.9723 132.193C44.1577 132.097 44.324 132.075 44.4712 132.125C44.6252 132.181 44.7498 132.274 44.845 132.404C44.9469 132.539 45.0071 132.686 45.0256 132.843C45.0562 132.999 45.0336 133.146 44.9576 133.284C44.8817 133.422 44.7455 133.518 44.549 133.572L42.5613 134.146Z" fill="black"/>
<!-- c -->
<path d="M41.9692 142.863C41.3991 142.473 40.9758 142.022 40.6992 141.509C40.4346 140.994 40.3295 140.452 40.3839 139.883C40.4382 139.314 40.6577 138.748 41.0423 138.185C41.3296 137.764 41.6517 137.43 42.0088 137.183C42.3658 136.936 42.7458 136.777 43.1488 136.708C43.5588 136.643 43.9798 136.669 44.4117 136.787C44.8484 136.897 45.2806 137.098 45.7081 137.391C45.929 137.541 46.1446 137.731 46.3551 137.958C46.5704 138.178 46.7553 138.435 46.9099 138.729C47.0086 138.891 47.0415 139.049 47.0087 139.204C46.9878 139.357 46.9264 139.493 46.8245 139.611C46.7275 139.723 46.6057 139.802 46.4592 139.848C46.3246 139.892 46.1882 139.892 46.0498 139.85C45.9164 139.801 45.8027 139.692 45.7089 139.523C45.6271 139.352 45.5235 139.198 45.3982 139.06C45.2801 138.927 45.1569 138.817 45.0286 138.729C44.8148 138.583 44.6017 138.49 44.3891 138.449C44.1814 138.401 43.9768 138.402 43.7751 138.453C43.5855 138.501 43.3953 138.596 43.2046 138.737C43.021 138.883 42.8465 139.078 42.681 139.32C42.3596 139.79 42.2205 140.239 42.2635 140.665C42.3185 141.089 42.5562 141.445 42.9766 141.732C43.1048 141.82 43.2499 141.898 43.4119 141.967C43.5788 142.029 43.7602 142.069 43.9563 142.088C44.1475 142.114 44.2879 142.184 44.3776 142.298C44.4672 142.411 44.51 142.54 44.506 142.683C44.514 142.825 44.4777 142.962 44.3972 143.095C44.3287 143.226 44.2245 143.332 44.0848 143.415C43.957 143.495 43.8035 143.52 43.6243 143.492C43.2993 143.448 42.9986 143.367 42.7223 143.252C42.4411 143.143 42.19 143.014 41.9692 142.863Z" fill="black"/>
<!-- i -->
<path d="M45.7155 145.174C45.4401 145.012 45.2738 144.81 45.2166 144.566C45.1712 144.319 45.2336 144.051 45.4039 143.761L47.6435 139.942C47.8181 139.644 48.022 139.459 48.2551 139.385C48.5 139.309 48.7602 139.351 49.0356 139.513C49.3036 139.67 49.4603 139.872 49.5057 140.119C49.5629 140.362 49.5041 140.633 49.3295 140.931L47.0899 144.749C46.9196 145.04 46.7158 145.225 46.4783 145.306C46.2452 145.379 45.9909 145.335 45.7155 145.174ZM49.5726 138.597C49.26 138.414 49.0595 138.201 48.9712 137.959C48.8948 137.715 48.9352 137.458 49.0923 137.19C49.2538 136.915 49.458 136.754 49.7047 136.709C49.9632 136.66 50.2488 136.728 50.5614 136.911C50.8741 137.095 51.0686 137.309 51.1451 137.554C51.2259 137.791 51.1855 138.048 51.024 138.323C50.8668 138.591 50.6627 138.751 50.4116 138.804C50.1649 138.85 49.8852 138.781 49.5726 138.597Z" fill="black"/>
<!-- a -->
<path d="M49.8135 147.459C49.395 147.254 49.0589 146.989 48.8052 146.663C48.5516 146.337 48.4 145.989 48.3505 145.619C48.3011 145.249 48.3617 144.89 48.5324 144.541C48.7372 144.122 49.007 143.846 49.3416 143.712C49.68 143.57 50.118 143.568 50.6557 143.706C51.1971 143.837 51.8709 144.099 52.677 144.494L53.2932 144.795L52.8494 145.702L52.2448 145.406C51.8495 145.213 51.5164 145.079 51.2456 145.004C50.9864 144.925 50.7779 144.91 50.62 144.957C50.4699 145.009 50.3513 145.124 50.264 145.302C50.1578 145.519 50.1442 145.733 50.2232 145.945C50.31 146.16 50.4967 146.338 50.7835 146.478C51.0083 146.588 51.2306 146.635 51.4504 146.617C51.6818 146.596 51.8915 146.521 52.0795 146.392C52.2713 146.255 52.4241 146.071 52.5379 145.838L53.1923 144.501C53.3592 144.16 53.3993 143.882 53.3125 143.666C53.2296 143.443 53.0021 143.241 52.63 143.059C52.4207 142.956 52.1788 142.871 51.9042 142.804C51.6412 142.733 51.3339 142.684 50.9825 142.656C50.774 142.65 50.6134 142.595 50.5006 142.492C50.3916 142.381 50.3287 142.254 50.3121 142.112C50.2992 141.961 50.325 141.82 50.3895 141.688C50.4578 141.549 50.561 141.436 50.6993 141.35C50.8412 141.256 51.0166 141.222 51.2252 141.247C51.6616 141.278 52.0519 141.344 52.3963 141.445C52.7484 141.551 53.0601 141.669 53.3314 141.802C53.9282 142.094 54.3729 142.422 54.6655 142.787C54.9696 143.147 55.1294 143.556 55.1449 144.016C55.1642 144.467 55.0353 144.976 54.7584 145.541L53.4953 148.122C53.3549 148.409 53.177 148.596 52.9617 148.683C52.7463 148.77 52.5068 148.748 52.2433 148.619C51.9797 148.49 51.8122 148.312 51.7408 148.085C51.6772 147.862 51.7155 147.607 51.8559 147.32L52.0664 146.89L52.1137 147C51.9382 147.24 51.7255 147.42 51.4757 147.538C51.2374 147.652 50.9754 147.706 50.6897 147.701C50.4079 147.688 50.1158 147.607 49.8135 147.459Z" fill="black"/>
<!-- s -->
<path d="M56.7995 150.526C56.4439 150.392 56.0883 150.222 55.7326 150.016C55.3851 149.812 55.0865 149.576 54.8369 149.307C54.7055 149.166 54.6262 149.021 54.5988 148.872C54.5826 148.719 54.6027 148.579 54.6592 148.453C54.7157 148.326 54.8 148.224 54.9121 148.146C55.0322 148.072 55.159 148.041 55.2923 148.054C55.4367 148.062 55.5736 148.127 55.703 148.249C55.9829 148.51 56.2496 148.721 56.5032 148.88C56.7568 149.04 57.017 149.17 57.2837 149.269C57.6312 149.399 57.9014 149.441 58.0943 149.393C58.2982 149.341 58.4335 149.225 58.5001 149.048C58.5606 148.886 58.5535 148.745 58.4787 148.625C58.4039 148.505 58.2715 148.391 58.0816 148.283L56.895 147.576C56.4272 147.299 56.1073 146.972 55.9354 146.595C55.7747 146.212 55.776 145.802 55.9394 145.366C56.0907 144.962 56.3339 144.657 56.6692 144.45C57.0074 144.236 57.4033 144.126 57.8568 144.121C58.3214 144.111 58.8082 144.201 59.3174 144.391C59.6811 144.528 60.0044 144.686 60.2872 144.865C60.5701 145.045 60.8258 145.26 61.0542 145.512C61.1724 145.639 61.2371 145.774 61.2483 145.916C61.2676 146.062 61.2409 146.194 61.1682 146.315C61.1036 146.438 61.0113 146.537 60.8911 146.612C60.7709 146.687 60.6402 146.716 60.4988 146.7C60.3654 146.687 60.2301 146.618 60.0926 146.492C59.8794 146.274 59.6728 146.1 59.4727 145.97C59.2757 145.832 59.0762 145.725 58.8741 145.649C58.5104 145.513 58.2251 145.475 58.0181 145.536C57.8141 145.589 57.6788 145.704 57.6122 145.882C57.5608 146.019 57.5614 146.153 57.6139 146.283C57.6776 146.408 57.8004 146.523 57.9823 146.628L59.1689 147.335C59.6609 147.621 59.9944 147.948 60.1693 148.318C60.3472 148.679 60.3515 149.087 60.182 149.539C59.9521 150.153 59.528 150.547 58.91 150.721C58.3031 150.89 57.5996 150.825 56.7995 150.526Z" fill="black"/>
<!-- . -->
<path d="M61.7466 152.112C61.4156 152.014 61.1803 151.837 61.0404 151.579C60.9089 151.324 60.8897 151.04 60.9828 150.725C61.0734 150.419 61.242 150.199 61.4887 150.065C61.746 149.925 62.0402 149.904 62.3712 150.002C62.7022 150.1 62.9293 150.275 63.0526 150.528C63.1866 150.775 63.2082 151.051 63.1176 151.357C63.0245 151.672 62.8535 151.9 62.6044 152.042C62.3635 152.187 62.0776 152.21 61.7466 152.112Z" fill="black"/>
<!-- S -->
<path d="M71.3601 154.35C71.0018 154.296 70.6394 154.21 70.2731 154.093C69.9141 153.986 69.5717 153.856 69.246 153.701C68.9289 153.548 68.6498 153.375 68.4086 153.181C68.2365 153.05 68.1244 152.898 68.0723 152.724C68.0215 152.542 68.0176 152.366 68.0606 152.198C68.1121 152.032 68.1989 151.892 68.3207 151.78C68.4524 151.66 68.6019 151.596 68.7691 151.586C68.9463 151.569 69.1294 151.628 69.3186 151.761C69.6385 152.011 69.9961 152.214 70.3913 152.37C70.7951 152.527 71.2017 152.637 71.6112 152.699C72.234 152.794 72.6919 152.768 72.985 152.62C73.2793 152.464 73.4485 152.241 73.4927 151.951C73.5303 151.704 73.4663 151.493 73.3007 151.32C73.1351 151.146 72.8254 150.972 72.3718 150.799L70.9724 150.272C70.1794 149.976 69.6135 149.593 69.2748 149.123C68.946 148.645 68.8328 148.069 68.9354 147.395C69.0003 146.969 69.1489 146.594 69.3813 146.272C69.6137 145.949 69.9114 145.685 70.2746 145.478C70.6377 145.271 71.0515 145.134 71.5159 145.065C71.9888 144.997 72.494 145.004 73.0315 145.086C73.5092 145.158 73.9694 145.289 74.4119 145.479C74.8557 145.66 75.2357 145.888 75.5517 146.163C75.7068 146.291 75.8018 146.441 75.8369 146.612C75.8818 146.776 75.8791 146.937 75.8288 147.096C75.7884 147.246 75.7036 147.373 75.5746 147.476C75.454 147.58 75.3101 147.636 75.1428 147.646C74.9755 147.655 74.7851 147.587 74.5717 147.441C74.3122 147.253 74.0298 147.101 73.7245 146.985C73.4193 146.869 73.1003 146.785 72.7675 146.735C72.4092 146.68 72.0949 146.68 71.8247 146.735C71.563 146.791 71.351 146.894 71.1885 147.044C71.0346 147.195 70.9407 147.382 70.907 147.604C70.8693 147.851 70.9284 148.065 71.0842 148.246C71.24 148.427 71.5326 148.598 71.9619 148.759L73.3613 149.286C74.1701 149.593 74.7488 149.978 75.0973 150.441C75.4471 150.896 75.5726 151.447 75.474 152.096C75.4091 152.522 75.2647 152.897 75.0409 153.221C74.8183 153.536 74.5261 153.793 74.1643 153.991C73.8024 154.189 73.3851 154.322 72.9121 154.39C72.4405 154.449 71.9231 154.436 71.3601 154.35Z" fill="black"/>
<!-- t -->
<path d="M79.4287 155.145C78.8343 155.11 78.3405 154.982 77.9473 154.76C77.5627 154.538 77.2825 154.232 77.1067 153.842C76.9395 153.451 76.873 152.968 76.907 152.39L77.0502 149.961L76.5075 149.929C76.2663 149.915 76.0806 149.839 75.9504 149.702C75.8288 149.565 75.7746 149.385 75.7878 149.161C75.802 148.919 75.8773 148.742 76.0136 148.629C76.159 148.508 76.3524 148.455 76.5936 148.469L77.1363 148.501L77.1942 147.519C77.2135 147.192 77.3141 146.951 77.4961 146.798C77.6785 146.635 77.9248 146.564 78.2349 146.582C78.5537 146.601 78.7898 146.701 78.9433 146.883C79.0973 147.056 79.1647 147.307 79.1454 147.634L79.0875 148.616L80.3151 148.688C80.5563 148.703 80.7377 148.778 80.8593 148.915C80.9814 149.043 81.0354 149.228 81.0211 149.469C81.0079 149.693 80.9329 149.866 80.7961 149.987C80.6592 150.109 80.4702 150.163 80.229 150.149L79.0014 150.076L78.8628 152.428C78.8415 152.79 78.9073 153.066 79.0603 153.257C79.2219 153.448 79.488 153.554 79.8584 153.576C79.9876 153.583 80.109 153.578 80.2225 153.558C80.336 153.539 80.4404 153.528 80.5357 153.525C80.6568 153.524 80.7536 153.568 80.826 153.659C80.899 153.741 80.9273 153.92 80.9111 154.196C80.8989 154.402 80.8538 154.581 80.7757 154.732C80.6976 154.883 80.5704 154.988 80.3941 155.047C80.2796 155.083 80.1225 155.109 79.9228 155.123C79.7312 155.146 79.5666 155.154 79.4287 155.145Z" fill="black"/>
<!-- a -->
<path d="M83.5276 155.196C83.0617 155.208 82.641 155.128 82.2654 154.956C81.8899 154.784 81.5946 154.546 81.3797 154.241C81.1647 153.935 81.0523 153.589 81.0424 153.2C81.0305 152.735 81.142 152.365 81.3767 152.091C81.6112 151.809 81.9988 151.605 82.5394 151.479C83.0798 151.344 83.7986 151.266 84.6958 151.243L85.3817 151.225L85.4074 152.235L84.7345 152.252C84.2945 152.263 83.9372 152.298 83.6624 152.357C83.3961 152.407 83.204 152.489 83.086 152.605C82.9768 152.72 82.9246 152.876 82.9297 153.075C82.9358 153.316 83.0228 153.513 83.1907 153.664C83.3672 153.815 83.615 153.886 83.9342 153.878C84.1844 153.871 84.403 153.81 84.5899 153.693C84.7852 153.567 84.9365 153.403 85.0436 153.202C85.1504 152.992 85.2006 152.758 85.194 152.499L85.1561 151.011C85.1464 150.631 85.0533 150.366 84.8768 150.215C84.7001 150.056 84.4047 149.981 83.9906 149.992C83.7577 149.998 83.504 150.034 83.2295 150.102C82.9634 150.16 82.668 150.259 82.3435 150.396C82.1559 150.487 81.9883 150.513 81.8405 150.474C81.6925 150.426 81.5782 150.342 81.4975 150.224C81.4165 150.096 81.3742 149.959 81.3705 149.812C81.3665 149.657 81.4059 149.509 81.4886 149.369C81.5712 149.22 81.7108 149.109 81.9074 149.035C82.3087 148.861 82.6854 148.739 83.0376 148.669C83.3984 148.6 83.7297 148.561 84.0317 148.553C84.6959 148.536 85.242 148.622 85.6697 148.81C86.1059 148.988 86.437 149.278 86.663 149.678C86.8888 150.069 87.0097 150.58 87.0257 151.209L87.0989 154.082C87.107 154.401 87.0356 154.649 86.8848 154.826C86.7339 155.002 86.5118 155.094 86.2185 155.101C85.9251 155.109 85.6943 155.029 85.526 154.86C85.3664 154.692 85.2825 154.448 85.2743 154.128L85.2621 153.65L85.3547 153.725C85.3104 154.02 85.2047 154.277 85.0377 154.497C84.8791 154.708 84.6719 154.878 84.4161 155.005C84.1602 155.124 83.864 155.187 83.5276 155.196Z" fill="black"/>
<!-- t -->
<path d="M91.8341 154.616C91.2422 154.681 90.7338 154.637 90.3089 154.485C89.8926 154.331 89.565 154.076 89.326 153.72C89.0957 153.364 88.9488 152.898 88.8854 152.324L88.6186 149.905L88.0782 149.964C87.8381 149.991 87.6423 149.947 87.4908 149.834C87.348 149.719 87.2642 149.551 87.2396 149.328C87.2131 149.087 87.2576 148.9 87.373 148.766C87.4961 148.622 87.6777 148.537 87.9179 148.51L88.4582 148.451L88.3504 147.473C88.3144 147.147 88.3732 146.893 88.5268 146.711C88.6794 146.521 88.9101 146.408 89.2189 146.374C89.5363 146.339 89.7859 146.399 89.9678 146.552C90.1488 146.697 90.2572 146.933 90.2932 147.259L90.4011 148.236L91.6234 148.102C91.8635 148.075 92.055 148.119 92.1979 148.234C92.3398 148.34 92.424 148.513 92.4505 148.753C92.4751 148.976 92.4302 149.159 92.3157 149.302C92.2012 149.444 92.0239 149.529 91.7837 149.556L90.5614 149.69L90.8197 152.032C90.8595 152.392 90.9708 152.654 91.1536 152.816C91.345 152.977 91.6252 153.037 91.994 152.996C92.1227 152.982 92.2413 152.956 92.35 152.918C92.4587 152.88 92.5597 152.852 92.6531 152.833C92.7723 152.811 92.8752 152.838 92.9618 152.916C93.0475 152.984 93.1055 153.156 93.1358 153.43C93.1585 153.636 93.1441 153.82 93.0925 153.982C93.0409 154.144 92.9331 154.269 92.7691 154.356C92.6624 154.412 92.5117 154.463 92.3173 154.511C92.1324 154.566 91.9713 154.601 91.8341 154.616Z" fill="black"/>
<!-- s -->
<path d="M96.1342 153.922C95.7614 153.994 95.3693 154.035 94.958 154.044C94.5551 154.051 94.1772 154.005 93.8241 153.907C93.6383 153.855 93.495 153.772 93.3942 153.66C93.3003 153.537 93.2445 153.408 93.2268 153.27C93.2091 153.133 93.2277 153.002 93.2828 152.877C93.3462 152.751 93.4382 152.658 93.5588 152.6C93.6862 152.531 93.8369 152.516 94.011 152.552C94.3862 152.629 94.7236 152.67 95.0231 152.673C95.3227 152.677 95.6122 152.652 95.8918 152.598C96.2562 152.528 96.5082 152.422 96.648 152.281C96.7946 152.129 96.8499 151.961 96.8139 151.774C96.7812 151.605 96.7016 151.488 96.5751 151.425C96.4486 151.361 96.2762 151.333 96.0578 151.34L94.6766 151.356C94.1333 151.364 93.6898 151.252 93.3461 151.019C93.0093 150.777 92.7967 150.427 92.7085 149.969C92.6267 149.546 92.675 149.158 92.8534 148.807C93.0302 148.448 93.3106 148.148 93.6948 147.907C94.0857 147.656 94.5481 147.479 95.0819 147.376C95.4632 147.302 95.8214 147.268 96.1565 147.274C96.4915 147.279 96.8221 147.33 97.1481 147.425C97.3153 147.472 97.4408 147.553 97.5247 147.669C97.617 147.783 97.6635 147.91 97.6642 148.051C97.6735 148.189 97.6463 148.322 97.5828 148.449C97.5194 148.575 97.4231 148.668 97.2941 148.728C97.1735 148.787 97.022 148.799 96.8394 148.763C96.5438 148.689 96.2766 148.648 96.038 148.641C95.7978 148.626 95.5718 148.639 95.36 148.68C94.9787 148.753 94.7155 148.87 94.5706 149.03C94.424 149.181 94.3687 149.35 94.4047 149.536C94.4325 149.68 94.5028 149.794 94.6156 149.878C94.7353 149.952 94.9 149.986 95.1099 149.98L96.4911 149.964C97.0598 149.951 97.5152 150.057 97.8573 150.281C98.1977 150.496 98.4137 150.841 98.5052 151.316C98.6295 151.96 98.4734 152.517 98.0369 152.988C97.6073 153.449 96.973 153.76 96.1342 153.922Z" fill="black"/>
<!-- . -->
<path d="M101.224 152.684C100.891 152.773 100.597 152.745 100.344 152.598C100.099 152.449 99.9335 152.217 99.8487 151.9C99.7661 151.592 99.795 151.316 99.9354 151.073C100.082 150.819 100.322 150.648 100.655 150.558C100.989 150.469 101.274 150.5 101.511 150.651C101.754 150.791 101.917 151.016 101.999 151.324C102.084 151.641 102.057 151.925 101.919 152.176C101.79 152.426 101.558 152.595 101.224 152.684Z" fill="black"/>
<!-- H -->
<path d="M108.452 150.484C108.151 150.615 107.886 150.632 107.655 150.535C107.424 150.437 107.243 150.239 107.112 149.938L104.202 143.257C104.071 142.956 104.048 142.688 104.134 142.453C104.22 142.218 104.413 142.035 104.713 141.904C105.006 141.777 105.268 141.761 105.498 141.859C105.729 141.956 105.91 142.155 106.041 142.455L107.137 144.971L111.029 143.275L109.933 140.759C109.802 140.459 109.78 140.191 109.865 139.956C109.951 139.721 110.141 139.54 110.433 139.412C110.734 139.281 111 139.264 111.23 139.361C111.461 139.459 111.642 139.657 111.773 139.958L114.684 146.639C114.815 146.94 114.837 147.208 114.751 147.443C114.665 147.678 114.472 147.861 114.172 147.992C113.879 148.119 113.617 148.134 113.387 148.037C113.156 147.94 112.975 147.741 112.844 147.441L111.696 144.806L107.804 146.502L108.952 149.136C109.083 149.437 109.105 149.705 109.02 149.94C108.942 150.172 108.752 150.353 108.452 150.484Z" fill="black"/>
<!-- i -->
<path d="M117.628 146.119C117.349 146.274 117.09 146.314 116.851 146.24C116.615 146.153 116.416 145.963 116.252 145.669L114.104 141.798C113.936 141.496 113.88 141.226 113.936 140.988C113.995 140.738 114.164 140.536 114.443 140.381C114.714 140.23 114.968 140.198 115.203 140.285C115.442 140.359 115.645 140.548 115.813 140.849L117.961 144.72C118.125 145.014 118.181 145.284 118.13 145.53C118.074 145.768 117.907 145.964 117.628 146.119ZM113.928 139.453C113.611 139.629 113.326 139.693 113.073 139.646C112.823 139.588 112.623 139.422 112.472 139.151C112.317 138.872 112.283 138.614 112.369 138.379C112.459 138.132 112.662 137.92 112.979 137.744C113.296 137.568 113.579 137.51 113.829 137.568C114.075 137.62 114.275 137.785 114.43 138.064C114.581 138.336 114.615 138.593 114.533 138.836C114.446 139.072 114.245 139.277 113.928 139.453Z" fill="black"/>
<!-- s -->
<path d="M121.912 143.599C121.594 143.806 121.246 143.991 120.869 144.154C120.498 144.313 120.131 144.413 119.767 144.455C119.575 144.476 119.411 144.454 119.275 144.388C119.142 144.31 119.042 144.211 118.974 144.09C118.905 143.97 118.873 143.842 118.877 143.705C118.888 143.564 118.939 143.444 119.028 143.344C119.121 143.233 119.254 143.161 119.429 143.13C119.806 143.06 120.134 142.97 120.412 142.86C120.691 142.751 120.95 142.619 121.189 142.463C121.5 142.261 121.693 142.068 121.77 141.884C121.848 141.689 121.836 141.512 121.732 141.353C121.638 141.208 121.521 141.13 121.38 141.119C121.238 141.108 121.068 141.147 120.868 141.235L119.595 141.771C119.095 141.983 118.642 142.046 118.236 141.96C117.832 141.863 117.504 141.618 117.249 141.228C117.014 140.866 116.913 140.489 116.946 140.097C116.974 139.698 117.121 139.314 117.386 138.946C117.653 138.566 118.015 138.228 118.471 137.931C118.796 137.719 119.115 137.553 119.428 137.432C119.74 137.311 120.065 137.233 120.403 137.198C120.576 137.179 120.723 137.207 120.844 137.282C120.972 137.353 121.063 137.453 121.117 137.583C121.178 137.708 121.203 137.841 121.192 137.983C121.18 138.124 121.126 138.246 121.03 138.351C120.94 138.45 120.804 138.518 120.622 138.554C120.32 138.596 120.057 138.659 119.833 138.743C119.605 138.82 119.4 138.917 119.22 139.034C118.894 139.246 118.694 139.453 118.62 139.656C118.542 139.851 118.554 140.029 118.658 140.188C118.738 140.311 118.846 140.39 118.982 140.425C119.12 140.448 119.286 140.417 119.478 140.333L120.751 139.798C121.273 139.572 121.735 139.498 122.136 139.576C122.533 139.648 122.863 139.886 123.126 140.291C123.484 140.841 123.55 141.416 123.323 142.016C123.098 142.605 122.628 143.133 121.912 143.599Z" fill="black"/>
<!-- t -->
<path d="M127.898 139.299C127.426 139.663 126.969 139.89 126.527 139.981C126.091 140.066 125.679 140.019 125.29 139.84C124.908 139.655 124.54 139.334 124.187 138.876L122.701 136.949L122.27 137.281C122.079 137.428 121.889 137.493 121.701 137.475C121.519 137.451 121.36 137.351 121.223 137.173C121.075 136.982 121.016 136.799 121.044 136.624C121.075 136.437 121.186 136.27 121.377 136.123L121.807 135.791L121.207 135.012C121.006 134.752 120.924 134.504 120.961 134.269C120.992 134.027 121.131 133.811 121.377 133.621C121.63 133.426 121.874 133.347 122.109 133.384C122.339 133.413 122.554 133.558 122.754 133.818L123.355 134.597L124.329 133.846C124.52 133.698 124.707 133.636 124.888 133.66C125.064 133.676 125.226 133.78 125.374 133.971C125.511 134.149 125.568 134.329 125.544 134.51C125.521 134.692 125.413 134.856 125.222 135.004L124.248 135.755L125.687 137.62C125.909 137.907 126.14 138.073 126.38 138.116C126.627 138.154 126.898 138.06 127.192 137.833C127.294 137.754 127.382 137.67 127.455 137.581C127.528 137.492 127.6 137.415 127.669 137.35C127.76 137.27 127.862 137.24 127.976 137.261C128.085 137.275 128.224 137.391 128.393 137.61C128.519 137.774 128.603 137.938 128.643 138.104C128.683 138.269 128.656 138.431 128.561 138.591C128.499 138.694 128.397 138.816 128.256 138.958C128.126 139.101 128.007 139.215 127.898 139.299Z" fill="black"/>
<!-- ó -->
<path d="M131.614 136.099C131.112 136.561 130.584 136.866 130.028 137.014C129.478 137.156 128.933 137.136 128.39 136.954C127.848 136.773 127.347 136.431 126.885 135.93C126.54 135.555 126.288 135.166 126.127 134.762C125.967 134.358 125.899 133.953 125.922 133.544C125.945 133.124 126.06 132.719 126.265 132.331C126.465 131.936 126.752 131.567 127.127 131.222C127.629 130.76 128.154 130.459 128.704 130.317C129.26 130.169 129.806 130.182 130.342 130.357C130.885 130.527 131.387 130.862 131.848 131.364C132.199 131.745 132.451 132.14 132.605 132.55C132.765 132.953 132.837 133.362 132.819 133.777C132.802 134.192 132.69 134.599 132.484 135C132.279 135.388 131.989 135.755 131.614 136.099ZM130.624 135.023C130.833 134.83 130.968 134.613 131.027 134.371C131.086 134.129 131.069 133.869 130.977 133.59C130.879 133.305 130.687 133.007 130.4 132.696C129.974 132.232 129.566 131.98 129.177 131.939C128.782 131.892 128.429 132.012 128.117 132.298C127.914 132.485 127.777 132.699 127.706 132.941C127.641 133.176 127.658 133.437 127.756 133.722C127.854 133.994 128.047 134.286 128.333 134.598C128.759 135.061 129.173 135.32 129.574 135.373C129.969 135.42 130.319 135.303 130.624 135.023ZM127.116 130.159C127.134 130.33 127.094 130.472 126.998 130.584C126.908 130.691 126.792 130.762 126.65 130.799C126.508 130.836 126.371 130.827 126.239 130.773C126.107 130.706 126.018 130.589 125.969 130.422L125.41 128.457C125.345 128.259 125.349 128.091 125.422 127.954C125.501 127.81 125.613 127.702 125.756 127.629C125.906 127.549 126.06 127.513 126.219 127.52C126.378 127.514 126.519 127.56 126.644 127.656C126.768 127.753 126.841 127.903 126.863 128.105L127.116 130.159Z" fill="black"/>
<!-- r -->
<path d="M135.617 132.105C135.396 132.347 135.164 132.474 134.92 132.485C134.676 132.497 134.436 132.395 134.2 132.18L130.805 129.083C130.569 128.868 130.445 128.645 130.435 128.413C130.423 128.169 130.52 127.936 130.723 127.713C130.932 127.483 131.156 127.366 131.394 127.361C131.626 127.35 131.859 127.453 132.095 127.668L132.593 128.121L132.506 128.217C132.193 127.792 132.05 127.352 132.078 126.899C132.106 126.446 132.296 126 132.649 125.562C132.781 125.391 132.933 125.308 133.105 125.312C133.275 125.304 133.469 125.393 133.685 125.579C133.894 125.746 134.013 125.93 134.04 126.13C134.074 126.324 134.004 126.541 133.832 126.781L133.651 127.019C133.351 127.411 133.209 127.778 133.225 128.12C133.246 128.455 133.426 128.776 133.764 129.084L135.543 130.707C135.779 130.922 135.903 131.151 135.914 131.395C135.931 131.633 135.832 131.869 135.617 132.105Z" fill="black"/>
<!-- i -->
<path d="M138.991 128.2C138.79 128.449 138.565 128.583 138.316 128.603C138.065 128.611 137.809 128.51 137.547 128.298L134.104 125.516C133.835 125.299 133.682 125.07 133.644 124.829C133.605 124.575 133.685 124.324 133.886 124.076C134.081 123.834 134.304 123.709 134.555 123.701C134.804 123.681 135.063 123.779 135.332 123.996L138.775 126.778C139.037 126.989 139.19 127.219 139.235 127.465C139.273 127.707 139.192 127.952 138.991 128.2ZM133.06 123.409C132.833 123.691 132.593 123.857 132.34 123.909C132.087 123.948 131.839 123.87 131.598 123.675C131.349 123.474 131.221 123.248 131.213 122.998C131.203 122.735 131.312 122.462 131.54 122.18C131.768 121.899 132.008 121.738 132.262 121.699C132.509 121.654 132.756 121.732 133.005 121.933C133.246 122.128 133.375 122.354 133.39 122.61C133.398 122.861 133.288 123.127 133.06 123.409Z" fill="black"/>
<!-- a -->
<path d="M141.864 124.483C141.599 124.867 141.286 125.159 140.926 125.362C140.566 125.564 140.2 125.662 139.826 125.656C139.453 125.65 139.106 125.536 138.787 125.315C138.404 125.05 138.171 124.743 138.088 124.392C137.998 124.036 138.061 123.603 138.278 123.091C138.488 122.576 138.848 121.948 139.358 121.21L139.748 120.646L140.579 121.22L140.196 121.773C139.946 122.135 139.764 122.445 139.649 122.701C139.533 122.946 139.486 123.15 139.51 123.313C139.538 123.469 139.634 123.604 139.797 123.716C139.996 123.854 140.206 123.899 140.427 123.853C140.653 123.799 140.857 123.641 141.038 123.378C141.18 123.172 141.259 122.959 141.275 122.739C141.288 122.507 141.245 122.289 141.146 122.084C141.039 121.874 140.88 121.695 140.667 121.548L139.442 120.702C139.129 120.486 138.86 120.405 138.634 120.458C138.401 120.507 138.167 120.702 137.932 121.043C137.799 121.234 137.679 121.461 137.572 121.722C137.463 121.972 137.368 122.268 137.288 122.612C137.251 122.817 137.173 122.968 137.054 123.064C136.928 123.155 136.794 123.198 136.65 123.194C136.499 123.184 136.364 123.137 136.243 123.054C136.115 122.966 136.019 122.847 135.954 122.697C135.883 122.543 135.875 122.365 135.931 122.162C136.027 121.735 136.15 121.359 136.302 121.034C136.458 120.701 136.622 120.41 136.794 120.162C137.171 119.615 137.562 119.224 137.966 118.989C138.367 118.742 138.796 118.645 139.253 118.698C139.702 118.747 140.186 118.95 140.704 119.308L143.068 120.941C143.331 121.123 143.489 121.327 143.543 121.552C143.596 121.778 143.54 122.012 143.373 122.253C143.206 122.495 143.005 122.634 142.77 122.671C142.54 122.7 142.293 122.624 142.03 122.443L141.636 122.171L141.752 122.14C141.964 122.35 142.109 122.587 142.189 122.851C142.266 123.104 142.281 123.371 142.233 123.653C142.178 123.93 142.055 124.206 141.864 124.483Z" fill="black"/>
<!-- s -->
<path d="M145.934 118.041C145.749 118.372 145.528 118.699 145.27 119.019C145.016 119.332 144.738 119.592 144.435 119.799C144.276 119.908 144.121 119.964 143.97 119.969C143.816 119.962 143.68 119.921 143.564 119.847C143.447 119.772 143.359 119.673 143.299 119.551C143.243 119.421 143.231 119.291 143.264 119.161C143.294 119.019 143.379 118.894 143.519 118.784C143.819 118.547 144.067 118.314 144.263 118.087C144.458 117.861 144.626 117.623 144.764 117.374C144.945 117.05 145.026 116.789 145.008 116.591C144.987 116.381 144.893 116.23 144.727 116.138C144.576 116.054 144.436 116.04 144.306 116.096C144.176 116.152 144.043 116.266 143.908 116.437L143.032 117.505C142.688 117.926 142.317 118.193 141.918 118.307C141.515 118.408 141.111 118.346 140.703 118.119C140.327 117.909 140.061 117.623 139.908 117.26C139.746 116.894 139.697 116.486 139.76 116.037C139.819 115.576 139.981 115.108 140.246 114.633C140.435 114.294 140.639 113.998 140.859 113.745C141.079 113.492 141.331 113.272 141.613 113.083C141.757 112.986 141.9 112.942 142.042 112.952C142.189 112.955 142.316 113.001 142.424 113.091C142.537 113.173 142.621 113.279 142.677 113.409C142.733 113.539 142.742 113.673 142.705 113.81C142.672 113.94 142.583 114.064 142.439 114.181C142.192 114.359 141.988 114.537 141.83 114.716C141.664 114.89 141.528 115.071 141.423 115.26C141.234 115.599 141.154 115.875 141.183 116.089C141.204 116.299 141.298 116.45 141.464 116.542C141.592 116.613 141.724 116.633 141.861 116.6C141.994 116.556 142.127 116.452 142.258 116.288L143.134 115.22C143.49 114.777 143.864 114.496 144.256 114.378C144.64 114.257 145.043 114.313 145.465 114.549C146.038 114.868 146.364 115.346 146.443 115.983C146.52 116.609 146.35 117.295 145.934 118.041Z" fill="black"/>
<!-- . -->
<path d="M148.253 113.368C148.106 113.681 147.896 113.887 147.62 113.987C147.348 114.079 147.064 114.055 146.767 113.916C146.478 113.781 146.286 113.581 146.19 113.317C146.09 113.042 146.114 112.748 146.26 112.435C146.407 112.122 146.614 111.924 146.882 111.84C147.146 111.744 147.422 111.764 147.712 111.9C148.008 112.039 148.209 112.242 148.312 112.51C148.419 112.77 148.399 113.056 148.253 113.368Z" fill="black"/>

<!-- E-WAY -->
<path d="M26.32 94C25.41 94 24.71 93.755 24.22 93.265C23.73 92.775 23.485 92.075 23.485 91.165V72.16C23.485 71.25 23.73 70.55 24.22 70.06C24.71 69.57 25.41 69.325 26.32 69.325H38.535C39.235 69.325 39.76 69.5117 40.11 69.885C40.4833 70.235 40.67 70.7483 40.67 71.425C40.67 72.125 40.4833 72.6617 40.11 73.035C39.76 73.385 39.235 73.56 38.535 73.56H28.665V79.335H37.73C38.4533 79.335 38.99 79.5217 39.34 79.895C39.7133 80.245 39.9 80.77 39.9 81.47C39.9 82.17 39.7133 82.7067 39.34 83.08C38.99 83.43 38.4533 83.605 37.73 83.605H28.665V89.765H38.535C39.235 89.765 39.76 89.9517 40.11 90.325C40.4833 90.675 40.67 91.1883 40.67 91.865C40.67 92.565 40.4833 93.1017 40.11 93.475C39.76 93.825 39.235 94 38.535 94H26.32ZM47.5839 86.685C47.0005 86.685 46.4989 86.4867 46.0789 86.09C45.6822 85.6933 45.4839 85.2033 45.4839 84.62C45.4839 84.0133 45.6822 83.5117 46.0789 83.115C46.4989 82.7183 47.0005 82.52 47.5839 82.52H54.7939C55.3772 82.52 55.8672 82.7183 56.2639 83.115C56.6839 83.5117 56.8939 84.0133 56.8939 84.62C56.8939 85.2033 56.6839 85.6933 56.2639 86.09C55.8672 86.4867 55.3772 86.685 54.7939 86.685H47.5839ZM70.1124 94.315C69.3657 94.315 68.759 94.14 68.2924 93.79C67.8257 93.4167 67.4524 92.8567 67.1724 92.11L60.1024 72.23C59.799 71.3433 59.8574 70.585 60.2774 69.955C60.7207 69.325 61.479 69.01 62.5524 69.01C63.299 69.01 63.8707 69.185 64.2674 69.535C64.6874 69.885 65.0257 70.4333 65.2824 71.18L71.0574 88.365H69.5524L75.6424 71.215C75.9224 70.4683 76.2607 69.92 76.6574 69.57C77.0774 69.1967 77.6257 69.01 78.3024 69.01C78.9557 69.01 79.4807 69.1967 79.8774 69.57C80.274 69.92 80.6124 70.48 80.8924 71.25L86.7024 88.365H85.4074L91.2874 71.18C91.5207 70.4567 91.8474 69.92 92.2674 69.57C92.6874 69.1967 93.2591 69.01 93.9824 69.01C94.8924 69.01 95.5574 69.325 95.9774 69.955C96.3974 70.585 96.4441 71.3433 96.1174 72.23L88.9774 92.145C88.7207 92.8683 88.3707 93.4167 87.9274 93.79C87.484 94.14 86.8774 94.315 86.1074 94.315C85.3607 94.315 84.7657 94.14 84.3224 93.79C83.8791 93.4167 83.5174 92.8567 83.2374 92.11L77.7074 76.465H78.5474L72.9474 92.145C72.6674 92.8683 72.3057 93.4167 71.8624 93.79C71.4424 94.14 70.859 94.315 70.1124 94.315ZM100.094 94.315C99.4406 94.315 98.904 94.1633 98.484 93.86C98.0873 93.5567 97.8306 93.1483 97.714 92.635C97.6206 92.1217 97.7256 91.55 98.029 90.92L106.989 71.285C107.362 70.4917 107.806 69.92 108.319 69.57C108.832 69.1967 109.427 69.01 110.104 69.01C110.781 69.01 111.376 69.1967 111.889 69.57C112.402 69.92 112.834 70.4917 113.184 71.285L122.214 90.92C122.517 91.55 122.622 92.1333 122.529 92.67C122.459 93.1833 122.226 93.5917 121.829 93.895C121.432 94.175 120.919 94.315 120.289 94.315C119.496 94.315 118.877 94.1283 118.434 93.755C118.014 93.3817 117.641 92.7983 117.314 92.005L115.214 87.14L117.384 88.645H102.789L104.959 87.14L102.894 92.005C102.544 92.8217 102.171 93.4167 101.774 93.79C101.401 94.14 100.841 94.315 100.094 94.315ZM110.034 75.1L105.554 85.775L104.609 84.41H115.564L114.619 85.775L110.104 75.1H110.034ZM133.431 94.315C132.545 94.315 131.868 94.07 131.401 93.58C130.935 93.09 130.701 92.39 130.701 91.48V81.33L131.821 84.445L123.561 72.72C123.235 72.23 123.095 71.705 123.141 71.145C123.188 70.5617 123.421 70.06 123.841 69.64C124.261 69.22 124.856 69.01 125.626 69.01C126.186 69.01 126.688 69.15 127.131 69.43C127.598 69.71 128.041 70.1533 128.461 70.76L134.061 78.845H132.941L138.541 70.76C138.985 70.13 139.416 69.6867 139.836 69.43C140.28 69.15 140.793 69.01 141.376 69.01C142.123 69.01 142.706 69.2083 143.126 69.605C143.546 69.9783 143.768 70.4567 143.791 71.04C143.815 71.6 143.616 72.1833 143.196 72.79L135.041 84.445L136.126 81.33V91.48C136.126 93.37 135.228 94.315 133.431 94.315Z" fill="#27C1B8"/>
</svg>
