<svg width="46" height="46" viewBox="0 0 46 46" fill="none" xmlns="http://www.w3.org/2000/svg">
<path fill-rule="evenodd" clip-rule="evenodd" d="M24.6544 0.673416C24.223 0.242228 23.6381 0 23.0283 0C22.4184 0 21.8335 0.242228 21.4022 0.673416L5.30216 16.7736L0.702163 21.3736C0.482489 21.5858 0.30727 21.8396 0.18673 22.1202C0.0661891 22.4008 0.00274062 22.7026 8.68404e-05 23.008C-0.00256694 23.3134 0.055627 23.6163 0.171273 23.899C0.286919 24.1816 0.457701 24.4384 0.673654 24.6544C0.889608 24.8703 1.14641 25.0411 1.42907 25.1568C1.71173 25.2724 2.01459 25.3306 2.31999 25.328C2.62538 25.3253 2.92718 25.2619 3.20779 25.1413C3.4884 25.0208 3.7422 24.8455 3.95436 24.6259L4.62826 23.952V39.0999C4.62826 40.9299 5.35523 42.685 6.64923 43.979C7.94323 45.273 9.69827 46 11.5283 46H34.5283C36.3583 46 38.1133 45.273 39.4073 43.979C40.7013 42.685 41.4283 40.9299 41.4283 39.0999V23.952L42.1022 24.6259C42.5359 25.0448 43.1169 25.2767 43.72 25.2714C44.323 25.2662 44.8999 25.0243 45.3263 24.5979C45.7528 24.1714 45.9947 23.5945 45.9999 22.9915C46.0052 22.3884 45.7733 21.8074 45.3544 21.3736L24.6544 0.673416Z" fill="black"/>
</svg>
