<svg width="55" height="43" viewBox="0 0 55 43" fill="none" xmlns="http://www.w3.org/2000/svg">
<path d="M9.6875 11.625C9.17364 11.625 8.68083 11.8291 8.31748 12.1925C7.95413 12.5558 7.75 13.0486 7.75 13.5625C7.75 14.0764 7.95413 14.5692 8.31748 14.9325C8.68083 15.2959 9.17364 15.5 9.6875 15.5H36.8125C37.3264 15.5 37.8192 15.2959 38.1825 14.9325C38.5459 14.5692 38.75 14.0764 38.75 13.5625C38.75 13.0486 38.5459 12.5558 38.1825 12.1925C37.8192 11.8291 37.3264 11.625 36.8125 11.625H9.6875ZM9.6875 19.375C9.17364 19.375 8.68083 19.5791 8.31748 19.9425C7.95413 20.3058 7.75 20.7986 7.75 21.3125V29.0625C7.75 29.5764 7.95413 30.0692 8.31748 30.4325C8.68083 30.7959 9.17364 31 9.6875 31H17.4375C17.9514 31 18.4442 30.7959 18.8075 30.4325C19.1709 30.0692 19.375 29.5764 19.375 29.0625V21.3125C19.375 20.7986 19.1709 20.3058 18.8075 19.9425C18.4442 19.5791 17.9514 19.375 17.4375 19.375H9.6875ZM11.625 27.125V23.25H15.5V27.125H11.625ZM25.1875 19.375C24.6736 19.375 24.1808 19.5791 23.8175 19.9425C23.4541 20.3058 23.25 20.7986 23.25 21.3125C23.25 21.8264 23.4541 22.3192 23.8175 22.6825C24.1808 23.0459 24.6736 23.25 25.1875 23.25H36.8125C37.3264 23.25 37.8192 23.0459 38.1825 22.6825C38.5459 22.3192 38.75 21.8264 38.75 21.3125C38.75 20.7986 38.5459 20.3058 38.1825 19.9425C37.8192 19.5791 37.3264 19.375 36.8125 19.375H25.1875ZM25.1875 27.125C24.6736 27.125 24.1808 27.3291 23.8175 27.6925C23.4541 28.0558 23.25 28.5486 23.25 29.0625C23.25 29.5764 23.4541 30.0692 23.8175 30.4325C24.1808 30.7959 24.6736 31 25.1875 31H36.8125C37.3264 31 37.8192 30.7959 38.1825 30.4325C38.5459 30.0692 38.75 29.5764 38.75 29.0625C38.75 28.5486 38.5459 28.0558 38.1825 27.6925C37.8192 27.3291 37.3264 27.125 36.8125 27.125H25.1875ZM0 7.75C0 5.69457 0.816516 3.72333 2.26992 2.26992C3.72333 0.816515 5.69457 0 7.75 0H38.75C40.8054 0 42.7767 0.816515 44.2301 2.26992C45.6835 3.72333 46.5 5.69457 46.5 7.75C48.5554 7.75 50.5267 8.56651 51.9801 10.0199C53.4335 11.4733 54.25 13.4446 54.25 15.5V32.9375C54.25 35.5068 53.2294 37.9708 51.4126 39.7876C49.5958 41.6044 47.1318 42.625 44.5625 42.625H9.6875C7.11822 42.625 4.65416 41.6044 2.8374 39.7876C1.02064 37.9708 0 35.5068 0 32.9375V7.75ZM44.5625 32.9375C44.0486 32.9375 43.5558 32.7334 43.1925 32.37C42.8291 32.0067 42.625 31.5139 42.625 31V7.75C42.625 6.72229 42.2167 5.73666 41.49 5.00996C40.7633 4.28326 39.7777 3.875 38.75 3.875H7.75C6.72229 3.875 5.73666 4.28326 5.00996 5.00996C4.28326 5.73666 3.875 6.72229 3.875 7.75V32.9375C3.875 34.4791 4.48739 35.9575 5.57744 37.0476C6.6675 38.1376 8.14593 38.75 9.6875 38.75H44.5625C46.1041 38.75 47.5825 38.1376 48.6726 37.0476C49.7626 35.9575 50.375 34.4791 50.375 32.9375V15.5C50.375 14.4723 49.9667 13.4867 49.24 12.76C48.5133 12.0333 47.5277 11.625 46.5 11.625V31C46.5 31.5139 46.2959 32.0067 45.9325 32.37C45.5692 32.7334 45.0764 32.9375 44.5625 32.9375Z" fill="black"/>
</svg>
