<svg width="54" height="43" viewBox="0 0 54 43" fill="none" xmlns="http://www.w3.org/2000/svg">
<path d="M0.0906755 19.3996C-0.451127 25.8361 1.44518 31.1998 5.5087 36.0271C9.57221 40.8545 14.9902 43 21.4919 43H48.582C49.9365 43 51.291 42.4636 52.3746 41.3909C53.4582 40.3181 54 38.9772 54 37.6363V35.4908C54 33.8817 53.7291 32.0043 53.4582 29.5907H31.2443C28.5353 29.5907 26.3681 28.5179 24.4718 26.6406C22.5755 24.7633 21.4919 22.3496 21.4919 19.936C21.4919 15.645 23.3882 12.6949 27.4517 11.0858L40.4549 5.45388C35.8496 2.23564 30.4316 0.358332 24.2009 0.0901453C18.2411 -0.446228 12.823 1.43108 7.94681 5.18569C3.07059 8.9403 0.632478 13.4995 0.0906755 19.3996ZM26.9099 19.936C26.9099 21.0087 27.4517 22.0814 28.2644 22.886C29.0771 23.6906 30.1607 24.2269 31.2443 24.2269H52.3746C50.7492 18.3268 48.3111 13.4995 44.7894 9.74486L29.6189 15.9132C27.7226 16.4495 26.9099 17.7905 26.9099 19.936Z" fill="black"/>
</svg>
