<svg width="50" height="52" viewBox="0 0 50 52" fill="none" xmlns="http://www.w3.org/2000/svg">
<path fill-rule="evenodd" clip-rule="evenodd" d="M29.1382 0.392667C28.1824 -1.15484e-07 26.9682 0 24.5425 0C22.1167 0 20.9051 -1.15484e-07 19.9467 0.392667C19.3161 0.650342 18.7427 1.03019 18.2594 1.51034C17.7762 1.99049 17.3926 2.56147 17.1309 3.19042C16.8881 3.7665 16.7951 4.44075 16.7563 5.41983C16.7379 6.12896 16.5395 6.82176 16.1798 7.43317C15.8201 8.04457 15.3109 8.55451 14.7 8.91508C14.0767 9.26152 13.3761 9.44504 12.6631 9.44866C11.95 9.45227 11.2476 9.27585 10.6209 8.93575C9.74773 8.47592 9.11481 8.22275 8.48965 8.14008C7.12199 7.96164 5.73909 8.32917 4.64048 9.16308C3.81898 9.78825 3.2119 10.8319 2.00031 12.9167C0.786148 15.0014 0.181648 16.0425 0.0447318 17.0629C-0.136102 18.4217 0.235899 19.7961 1.07807 20.8837C1.4604 21.3797 2.00032 21.7956 2.83473 22.3174C4.06698 23.0847 4.85748 24.3918 4.85748 25.8333C4.85748 27.2748 4.06698 28.582 2.83732 29.3467C2.00032 29.8711 1.4604 30.287 1.07548 30.783C0.661028 31.3209 0.356668 31.9352 0.179803 32.5908C0.00293857 33.2464 -0.0429603 33.9304 0.0447318 34.6038C0.181648 35.6216 0.786148 36.6653 2.00031 38.75C3.21448 40.8348 3.81898 41.8758 4.64048 42.5036C5.73582 43.338 7.12048 43.7048 8.48965 43.5266C9.11481 43.4439 9.74773 43.1908 10.6209 42.7309C11.2479 42.3904 11.9508 42.2137 12.6644 42.2173C13.3779 42.2209 14.079 42.4047 14.7026 42.7516C15.9581 43.4749 16.7021 44.8053 16.7563 46.2468C16.7951 47.2285 16.8881 47.9002 17.1309 48.4762C17.6579 49.7421 18.6706 50.7496 19.9467 51.274C20.9026 51.6667 22.1167 51.6667 24.5425 51.6667C26.9682 51.6667 28.1824 51.6667 29.1382 51.274C29.7689 51.0163 30.3423 50.6365 30.8255 50.1563C31.3088 49.6762 31.6923 49.1052 31.9541 48.4762C32.1969 47.9002 32.2899 47.2285 32.3286 46.2468C32.3803 44.8053 33.1269 43.4723 34.385 42.7516C35.0082 42.4052 35.7088 42.2216 36.4219 42.218C37.1349 42.2144 37.8373 42.3908 38.4641 42.7309C39.3372 43.1908 39.9701 43.4439 40.5953 43.5266C41.9645 43.7074 43.3491 43.338 44.4445 42.5036C45.266 41.8784 45.8731 40.8348 47.0846 38.75C48.2988 36.6653 48.9033 35.6242 49.0402 34.6038C49.1276 33.9302 49.0812 33.2461 48.9039 32.5905C48.7266 31.9349 48.4218 31.3207 48.0069 30.783C47.6246 30.287 47.0846 29.8711 46.2502 29.3493C45.018 28.582 44.2275 27.2748 44.2275 25.8333C44.2275 24.3918 45.018 23.0847 46.2476 22.32C47.0846 21.7956 47.6246 21.3797 48.0095 20.8837C48.4239 20.3458 48.7283 19.7315 48.9052 19.0759C49.082 18.4203 49.1279 17.7363 49.0402 17.0629C48.9033 16.0451 48.2988 15.0014 47.0846 12.9167C45.8705 10.8319 45.266 9.79083 44.4445 9.16308C43.3459 8.32917 41.963 7.96164 40.5953 8.14008C39.9701 8.22275 39.3372 8.47592 38.4641 8.93575C37.837 9.27631 37.1341 9.45298 36.4206 9.44936C35.707 9.44575 35.006 9.26198 34.3824 8.91508C33.772 8.55419 33.2633 8.04412 32.9041 7.43274C32.5448 6.82135 32.3468 6.12871 32.3286 5.41983C32.2899 4.43817 32.1969 3.7665 31.9541 3.19042C31.6923 2.56147 31.3088 1.99049 30.8255 1.51034C30.3423 1.03019 29.7689 0.650342 29.1382 0.392667ZM24.5425 33.5833C28.8566 33.5833 32.3519 30.1139 32.3519 25.8333C32.3519 21.5528 28.8541 18.0833 24.5425 18.0833C20.2309 18.0833 16.7331 21.5528 16.7331 25.8333C16.7331 30.1139 20.2309 33.5833 24.5425 33.5833Z" fill="black"/>
</svg>
