<svg width="45" height="59" viewBox="0 0 45 59" fill="none" xmlns="http://www.w3.org/2000/svg">
<path d="M1.9047 26.9622C3.81531 25.4723 28.8449 3.00885 31.4047 1.46215C33.9645 -0.0845392 37.4047 2.46256 36.4047 5.96215C35.4047 9.46174 27.9047 25.9622 27.9047 25.9622C27.9047 25.9622 38.9047 25.9615 41.4047 25.9622C43.9047 25.9628 44.9034 30.0138 43.4047 31.4622C41.906 32.9105 14.6001 56.5676 12.9047 57.4622C11.2093 58.3567 7.22762 56.3345 8.4047 52.9622C9.58178 49.5898 17.4047 32.9622 17.4047 32.9622C17.4047 32.9622 5.40463 33.4615 3.4047 32.9622C1.40477 32.4628 -0.00590873 28.452 1.9047 26.9622Z" fill="black" stroke="black"/>
</svg>
