<svg width="94" height="22" viewBox="0 0 94 22" fill="none" xmlns="http://www.w3.org/2000/svg">
<path d="M22.6586 6.03202H27.4005C28.1776 6.03202 28.5736 5.66092 28.5736 4.92952C28.5736 3.98356 27.823 3.84187 27.3752 3.84187H22.6552V6.03337L22.6575 6.03067L22.6586 6.03202ZM14.3756 9.44342H16.9866V4.70686L14.3756 9.44342ZM22.6667 12.6173H28.1707C28.9535 12.6173 29.46 12.037 29.46 11.1356C29.46 10.2598 28.9397 9.62424 28.2225 9.62424H22.6667V12.6173ZM0.5 21.9986L12.9447 0H42.8913V16.2379H37.2987V4.08342H34.5703C34.5194 4.55485 34.4256 5.01855 34.2905 5.4666C34.0799 6.15482 33.9337 6.39907 33.4651 7.06434C34.0269 7.789 34.2479 8.19653 34.5242 9.02374C34.8063 9.82126 34.9571 10.6741 34.9697 11.5364C34.9697 12.6929 34.6704 13.6766 34.0292 14.6347C33.7388 15.0862 33.3788 15.4697 32.9678 15.7656C32.4578 16.1205 31.9777 16.2379 31.0591 16.2379H16.9866V13.373H11.9005L7.00438 22H0.5V21.9986ZM43.5152 4.08342V0H48.5V4.08342H43.5152Z" fill="white"/>
<path d="M58.5 22V0" stroke="white" stroke-width="0.193"/>
<path d="M88.2881 4.53251L84.2322 6.80618C85.0571 7.16781 85.8808 7.52944 86.7032 7.89377C87.2135 8.11911 87.818 8.40248 88.0419 9.092C88.2705 9.80177 87.9334 10.4319 87.6365 10.9703L86.2861 13.3911C84.6835 16.2625 83.081 19.1326 81.4749 22C81.4749 21.1148 81.4737 20.2296 81.4702 19.3445C82.259 16.5021 83.0191 13.6493 83.7503 10.7868C83.8469 10.4049 83.7845 10.1769 83.4639 9.99473C82.645 9.53189 81.8249 9.07041 81.0035 8.60893L78.5431 9.99473C78.2226 10.1769 78.159 10.4049 78.2556 10.7868C78.9842 13.6504 79.7447 16.5031 80.5369 19.3445C80.5369 20.2296 80.5346 21.1148 80.531 22C78.9237 19.133 77.3199 16.2633 75.7198 13.3911L74.3706 10.9703C74.0724 10.436 73.7331 9.80446 73.9652 9.092C74.1879 8.40248 74.7936 8.12046 75.3026 7.89377L77.7748 6.80618L73.7189 4.53251L74.9833 6.96001L72.887 7.88162C71.4238 5.25547 69.9615 2.62871 68.5 0.00134991C72.662 1.69075 76.8192 3.395 81 5.02907C85.1796 3.395 89.3369 1.6894 93.5 0C92.0417 2.63 90.579 5.25676 89.1118 7.88028L87.0214 6.96001L88.2846 4.53251" fill="white"/>
</svg>
