<svg width="35" height="42" viewBox="0 0 35 42" fill="none" xmlns="http://www.w3.org/2000/svg">
<path d="M17.4996 11.6541L23.8902 38.5762L29.6659 36.3455L21.3749 1.1494C21.3749 1.1494 18.9714 0.954468 17.5368 0.954468C16.1021 0.954468 13.6428 1.1494 13.6428 1.1494L5.33301 36.3455L11.1087 38.5762L17.4996 11.6541Z" fill="white"/>
<path d="M6.97303 2.3407C5.07265 2.9255 2.70643 3.81351 2.20332 4.05176C2.05422 4.11674 1.96114 4.29001 1.96114 4.46329L0.172363 34.0497C0.172363 34.2444 0.284191 34.3962 0.433291 34.4612L4.08518 35.8689L5.81793 3.92181C5.87374 3.14209 6.33957 2.51397 6.97303 2.3407Z" fill="#14377D"/>
<path d="M6.97282 2.34066C6.32061 2.51394 5.85478 3.16371 5.81771 3.92178L4.08496 35.8689L5.33314 36.3454L13.6429 1.14941C11.0903 1.38766 8.76138 1.8425 6.97282 2.34066Z" fill="#EE3124"/>
<path d="M28.0269 2.3407C29.9272 2.9255 32.2935 3.81351 32.7966 4.05176C32.9457 4.11674 33.0387 4.29001 33.0387 4.46329L34.8273 34.0497C34.8273 34.2444 34.7342 34.3962 34.5666 34.4612L30.9147 35.8689L29.182 3.92181C29.1447 3.14209 28.6788 2.51397 28.0269 2.3407Z" fill="#14377D"/>
<path d="M28.0266 2.34066C28.6788 2.51394 29.1446 3.16371 29.1817 3.92178L30.9144 35.8689L29.6662 36.3454L21.375 1.14941C23.9091 1.38766 26.238 1.8425 28.0266 2.34066Z" fill="#EE3124"/>
<path d="M17.5 11.6541L11.1094 38.5762L17.5 41.0454L23.8907 38.5762L17.5 11.6541Z" fill="#EE3124"/>
</svg>
