<svg width="25" height="34" viewBox="0 0 25 34" fill="none" xmlns="http://www.w3.org/2000/svg">
<path d="M18.3962 16.729C18.3787 16.5873 18.3306 16.4533 18.256 16.34C17.4924 15.376 16.8206 14.3169 16.2523 13.1815C15.8715 12.3212 15.611 11.4962 14.8996 11.4962H13.0411C12.7506 11.4962 13.0411 11.8085 13.1715 11.9264C13.6022 12.3389 16.0568 14.7903 18.3461 16.7761C18.4264 16.8409 18.4413 16.8174 18.4213 16.729M17.5597 28.5675C20.1095 26.2105 22.0131 24.366 23.2905 23.3112C23.4409 23.1874 23.7563 22.8221 23.4257 22.8221H21.2467C20.4401 22.8221 20.33 23.4703 19.8991 24.4426C19.265 25.8103 18.4743 27.0693 17.5497 28.1845C17.5229 28.2468 17.5075 28.315 17.5045 28.3848C17.5045 28.4438 17.5045 28.6323 17.5597 28.5675ZM6.67903 16.5993C8.93832 14.5251 10.6317 12.8751 11.7486 11.944C11.8839 11.838 12.1644 11.5139 11.869 11.5139H9.95029C9.24398 11.5139 9.14387 12.1032 8.76814 12.9399C8.21753 14.1367 7.52783 15.2374 6.71928 16.2104C6.68542 16.2794 6.66327 16.3555 6.65411 16.4343C6.65411 16.4815 6.65411 16.6406 6.67903 16.5993ZM7.21515 13.3171C6.1231 16.5463 2.35598 19.9346 1.39918 20.9482C1.37639 21.0072 1.36596 21.072 1.36915 21.1367C1.36915 21.2016 1.36915 21.3135 1.40919 21.2782C1.86501 20.8657 2.51637 20.2293 3.41289 19.4337C4.33901 18.5797 5.21423 17.6524 6.033 16.6583C7.41559 14.9847 8.47249 13.1638 8.47249 11.3548C8.47249 9.54569 7.41559 7.73074 6.033 6.05129C5.21295 5.05684 4.33773 4.12767 3.41289 3.26994C2.54129 2.47441 1.91017 1.84978 1.44434 1.43729C1.40409 1.40193 1.39407 1.508 1.39407 1.57282C1.39194 1.63945 1.40216 1.70584 1.4241 1.76728C2.38111 2.77494 6.14802 6.16327 7.24029 9.38659C7.46074 10.007 7.5796 10.6707 7.59088 11.343C7.57981 12.0134 7.46074 12.6752 7.24029 13.2935M17.4345 17.2829C17.1039 16.8233 16.7782 16.3872 16.4576 15.9806C16.2973 15.7743 16.0118 15.4208 15.9867 15.3913C15.9271 15.3332 15.8536 15.2982 15.7763 15.2911C15.7413 15.2911 15.7462 15.3206 15.7763 15.3618C15.8063 15.4031 16.0719 15.7861 16.3273 16.1338C17.3663 17.4611 18.1989 18.993 18.787 20.6594C18.9777 21.3017 19.0758 21.9768 19.0775 22.6571C19.0631 23.2833 18.944 23.9 18.7269 24.472C18.226 25.8628 16.8983 27.601 15.5458 29.1863C15.4908 29.251 15.4908 29.416 15.4808 29.522C15.4708 29.6283 15.5609 29.522 15.671 29.422C16.4625 28.6028 17.0788 27.9135 17.4144 27.5185C18.737 25.9805 19.7438 24.3365 19.7438 22.6748C19.7438 20.848 18.6667 18.9859 17.4394 17.2947M22.8798 2.36833C22.9105 2.32682 22.9333 2.27787 22.9463 2.22493C22.9593 2.17199 22.962 2.11635 22.9548 2.06192C22.9548 2.06192 22.9548 1.98531 22.9247 2.01477L22.5041 2.39191C22.2135 2.65119 21.9079 2.93994 21.5573 3.26994C20.6361 4.13049 19.7611 5.05742 18.9372 6.04542C17.5546 7.71894 16.4977 9.58107 16.4977 11.3489C16.4977 13.1167 17.4996 15.0495 18.9023 16.6995C19.1977 17.0472 19.4333 17.3241 19.6186 17.5245L19.779 17.6836C19.779 17.6836 19.8139 17.6836 19.809 17.6836C19.7977 17.5121 19.7476 17.3472 19.6637 17.2063C19.4984 16.9352 19.3881 16.7702 19.1627 16.3695C18.5953 15.4274 18.1231 14.4109 17.755 13.3406C17.5239 12.7201 17.4044 12.05 17.4044 11.3725C17.4044 10.695 17.5239 10.0248 17.755 9.40427C18.5917 6.92344 21.0712 4.23634 22.6093 2.69833C22.7695 2.53334 22.8447 2.45673 22.9047 2.38602M24.0419 22.6748C24.0289 22.8307 23.9863 22.9811 23.9169 23.1148C23.8475 23.2485 23.7531 23.362 23.6411 23.4467L12.4249 33.6883V33.2818C12.4249 33.0838 12.4415 32.8863 12.4752 32.6925C12.5203 32.4705 12.6155 32.267 12.7506 32.1033C13.3717 31.3725 15.2553 29.1568 15.681 28.6205C16.7109 27.4353 17.5465 26.0368 18.1459 24.4956C18.344 23.9123 18.4492 23.2911 18.4564 22.663C18.4505 21.9408 18.3457 21.2245 18.1459 20.5416C17.1439 17.0059 13.472 12.881 12.6605 11.9853C12.551 11.8655 12.4684 11.7157 12.42 11.5492C12.3527 11.787 12.223 11.9934 12.0492 12.1385L0.90332 22.3742V0.311768L12.0995 10.571C12.2716 10.7178 12.4011 10.9237 12.4701 11.1603C12.5421 10.9239 12.6731 10.7186 12.8458 10.571L24.0468 0.311768V0.730148C24.0456 0.92796 24.0287 1.12521 23.9968 1.31942C23.9527 1.54189 23.8575 1.74578 23.7214 1.9087C23.1 2.6394 21.2165 4.85507 20.7907 5.38542C19.7587 6.56987 18.9214 7.96827 18.3212 9.51034C18.1227 10.0935 18.0172 10.7148 18.0106 11.343C18.0164 12.0652 18.1214 12.7815 18.3212 13.4644C19.3229 17 22.995 21.125 23.8315 22.0148C23.9866 22.1786 24.0818 22.4067 24.0971 22.6512" fill="white"/>
</svg>
