<svg width="37" height="44" viewBox="0 0 37 44" fill="none" xmlns="http://www.w3.org/2000/svg">
<path fill-rule="evenodd" clip-rule="evenodd" d="M35.6775 29.1676C31.2706 34.9676 21.1403 32.9626 13.4616 30.3276C8.97159 28.8201 8.63718 31.3726 9.68514 34.0276C10.7331 36.6851 14.2412 40.8851 20.6653 41.5226C24.147 41.9135 27.6371 40.885 30.5485 38.6101C30.7466 38.4351 30.6294 38.1601 30.4122 38.2976C25.8646 41.0351 17.6897 39.9476 15.8728 36.2551C15.6257 35.7551 15.7919 35.4326 17.0379 35.7701C26.0414 38.2051 32.5443 35.6301 35.8884 29.1801V29.0301C35.863 29.0312 35.8382 29.039 35.8157 29.0528C35.7932 29.0667 35.7737 29.0862 35.7585 29.1101L35.6775 29.1676ZM6.56043 5.35257C6.35382 5.52757 6.48162 5.80257 6.69888 5.67757C11.2358 2.91507 19.3596 3.99507 21.1786 7.67257C21.4172 8.17257 21.2489 8.49507 20.0135 8.15757C10.9994 5.72257 4.49433 8.29757 1.15449 14.7476C1.07568 14.9101 1.21413 14.9801 1.33341 14.8176C5.74251 9.01757 15.86 11.0251 23.5408 13.6001C28.0394 15.1076 28.3652 12.5551 27.3173 9.90007C26.2693 7.24257 22.7314 3.03007 16.3478 2.41507C15.9005 2.41507 15.4574 2.34757 15.0208 2.34757C12.0059 2.31618 9.05459 3.36446 6.56043 5.35257ZM18.5012 0.202567C23.2255 0.190189 27.7634 2.36436 31.1308 6.2535C34.4982 10.1426 36.4235 15.4332 36.4891 20.9776C36.4891 25.2351 33.4645 28.3901 27.5047 28.3901C20.1903 28.3901 12.6799 24.5051 7.9641 24.5051C7.24485 24.4829 6.54749 24.7966 6.02514 25.3774C5.50278 25.9581 5.19813 26.7584 5.17806 27.6026V27.8801C5.17806 34.4801 11.108 42.3576 18.5012 43.3801C18.7866 43.3801 18.7866 43.7976 18.5012 43.7976C13.7784 43.8022 9.24369 41.6252 5.87735 37.7372C2.511 33.8493 0.583414 28.5627 0.51123 23.0201C0.51123 18.7626 3.54648 15.6076 9.49557 15.6076C16.7717 15.6076 24.1734 19.4926 29.0362 19.4926C29.7558 19.5154 30.4537 19.202 30.9765 18.6212C31.4993 18.0404 31.8043 17.2397 31.8244 16.3951V16.1176C31.8244 9.51757 25.9839 1.74257 18.5012 0.617568C18.1945 0.572568 18.203 0.202567 18.5012 0.202567Z" fill="white"/>
</svg>
