<svg width="103" height="24" viewBox="0 0 103 24" fill="none" xmlns="http://www.w3.org/2000/svg">
<path d="M8.44787 9L0.5 0H11.75L19.5 9H8.44787Z" fill="#EAFF1B"/>
<path d="M14.5 0L22.2727 9H33.7008V3.65397C33.7008 2.46051 34.1523 1.32835 34.9386 0.553824L35.5 0H14.5Z" fill="#B4B4B4"/>
<path d="M19.5 15L11.7234 24H0.5L8.50282 15H19.5Z" fill="#EAFF1B"/>
<path d="M22.2864 15L14.5 24H35.5C34.3894 23.2766 33.7033 21.9196 33.7033 20.4462V15H22.2864Z" fill="#B4B4B4"/>
<path d="M56.5 14H41.5V17H56.5V14Z" fill="#B4B4B4"/>
<path d="M56.5 7H41.5V10H56.5V7Z" fill="#B4B4B4"/>
<path d="M102.5 0H82.5V3H102.5V0Z" fill="#B4B4B4"/>
<path d="M90.5 24H88.3383V9.64749H82.5V7H90.5V24Z" fill="#B4B4B4"/>
<path d="M96.6608 24H94.5V7H102.5V9.64749H96.6608V24Z" fill="#B4B4B4"/>
<path d="M56.4926 24L39.8902 23.9373C37.4697 23.9373 35.5 21.6876 35.5 18.9235V5.01367C35.5 2.24758 37.4716 0 39.8939 0L56.5 0.0627326L56.4926 2.68246L39.8902 2.61975C38.7377 2.61975 37.796 3.6944 37.796 5.01367V18.9235C37.796 20.2429 38.7376 21.3174 39.8939 21.3174L56.5 21.3802L56.4926 24Z" fill="#B4B4B4"/>
<path d="M72.5 7H59.5V10H72.5V7Z" fill="#B4B4B4"/>
<path d="M73.5 21H64.5V24H73.5V21Z" fill="#B4B4B4"/>
<path d="M79.5 11.7036V5.03467C79.5 2.25859 77.617 0 75.3026 0H59.5V2.62523H75.3026C76.4101 2.62523 77.3114 3.70634 77.3114 5.03467V11.7036C77.3114 13.032 76.4101 14.1129 75.3026 14.1129H65.7952H59.5035V24H61.6922V16.7383H65.7952H75.3026C76.4101 16.7383 77.3114 17.8194 77.3114 19.1477V24H79.5V19.1477C79.5 17.6748 78.9691 16.3485 78.1271 15.4266C78.9707 14.5049 79.5 13.1765 79.5 11.7036Z" fill="#B4B4B4"/>
</svg>
