<svg width="49" height="36" viewBox="0 0 49 36" fill="none" xmlns="http://www.w3.org/2000/svg">
<path d="M34.5326 32.3023C34.5326 33.088 34.8911 33.7276 35.8036 34.2209C37.0746 34.9153 39.1441 35.5 40.9854 35.5C43.3156 35.5 45.2547 34.7143 46.6072 33.3256C47.0472 32.887 47.422 32.2841 47.4871 31.4983C47.6664 29.7076 45.9717 26.711 42.4683 24.5C44.0815 25.6694 44.5703 26.6744 44.5703 28.0997C44.5703 30.2193 43.0712 31.6445 40.9202 31.6445C38.7693 31.6445 37.0909 30.4568 36.1295 30.4568C35.1681 30.4568 34.5 31.1877 34.5 32.2841L34.5326 32.3023Z" fill="url(#paint0_linear_301_172)"/>
<path d="M10.6038 35.2664C12.3213 34.4906 13.6412 33.0166 14.5 30.8832L12.5757 26.6552C11.717 29.7971 10.2221 31.465 8.15468 31.465C6.08728 31.465 4.5924 29.9523 4.5924 26.5L4.54469 28.4783C4.16301 32.6869 6.23041 36.4495 10.5879 35.2858L10.6038 35.2664Z" fill="url(#paint1_linear_301_172)"/>
<path d="M15.5 21.9006C15.5 30.8689 18.6076 35.8636 28.4588 34.174C31.6144 32.2801 33.857 28.4179 35.4108 22.5134L36.3238 19.0412C35.4588 17.7415 35.4748 16.2746 35.4748 14.7149C35.4748 13.0624 35.635 11.5955 36.5 10.5C35.2025 12.0968 34.1293 14.4549 33.2643 17.76L32.2712 21.5664C30.4931 28.2694 27.6899 31.4816 23.333 31.4816C18.5435 31.4816 15.516 27.6195 15.516 21.9192L15.5 21.9006Z" fill="url(#paint2_linear_301_172)"/>
<path d="M28.7097 34.0543C18.7903 35.8043 15.6613 29.5462 15.6613 21.5C15.6613 15.6603 18.7097 11.6467 23.0968 11.6467C24.5323 11.6467 25.9677 12.0082 27.2742 12.731C27.8387 13.0353 28.3226 13.1495 28.7581 13.1495C29.8065 13.1495 30.5 12.3315 30.5 11.0951C30.5 10.3342 30.1129 9.55435 29.1936 9.04076C27.5484 8.07065 25.4032 7.5 23.1129 7.5C16.2419 7.5 11.5 13.2446 11.5 21.5951C11.5 29.9457 16.0645 35.5 23.4194 35.5C25.4194 35.5 27.1613 35.0435 28.7258 34.0734L28.7097 34.0543Z" fill="url(#paint3_linear_301_172)"/>
<path d="M11.5161 22.5C11.5161 13.6134 16.254 7.5 23.1192 7.5C25.4237 7.5 27.5509 8.10729 29.1947 9.13968C30.1132 9.68624 30.5 10.496 30.5 11.3259C30.5 12.6417 29.807 13.5121 28.7595 13.5121C28.3244 13.5121 27.841 13.4109 27.2769 13.0668C25.9716 12.2976 24.5534 11.913 23.1031 11.913C17.0598 11.913 11.5 16.7105 11.5 22.5H11.5161Z" fill="url(#paint4_linear_301_172)"/>
<path d="M37.5283 9.5C37.145 9.93533 36.9214 10.541 36.9214 11.1845C36.9214 12.8691 38.2629 15.3675 41.3612 17.9227L44.8907 20.8375C47.4779 22.9763 48.5 25.0205 48.5 28.0868C48.5 30.2823 47.7654 32.1751 46.5676 33.5C46.9988 33.0457 47.2543 32.4211 47.2543 31.6073C47.2543 29.8281 45.7531 27.0079 42.5111 24.358L39.285 21.7082C36.57 19.4558 35.5 17.3738 35.5 14.5158C35.5 12.8312 36.0111 11.2981 36.8735 10.1814C37.0811 9.95426 37.2887 9.72713 37.5283 9.51893V9.5Z" fill="url(#paint5_linear_301_172)"/>
<path d="M40.9482 18.5C39.5672 17.2156 38.9569 16.0348 38.9569 14.6469C38.9569 12.8653 40.081 11.7467 41.6869 11.7467C43.7263 11.7467 44.6737 12.9689 45.8942 12.9689C46.8416 12.9689 47.5 12.1403 47.5 10.8974C47.5 10.0066 47.1467 9.28154 46.2474 8.72222C44.8182 7.83145 43.2606 7.5 41.5745 7.5C39.792 7.5 38.2343 8.1629 37.1102 9.28154C36.7248 9.758 36.5 10.4209 36.5 11.1252C36.5 12.9689 37.8489 15.7034 40.9642 18.5H40.9482Z" fill="url(#paint6_linear_301_172)"/>
<path d="M0.5 13.5C0.5 10.352 2.12162 8.48655 4.5 8.48655V3.12332C4.5 1.54933 3.66602 0.5 2.50772 0.5C1.34942 0.5 0.515447 1.54933 0.515447 3.12332V13.5H0.5Z" fill="url(#paint7_linear_301_172)"/>
<path d="M7.74892 35.5C8.71439 35.5 9.66403 35.3143 10.5662 34.9429C6.26115 35.7971 4.63094 32.3061 4.59928 28.425V12.3996H9.58489C10.7403 12.3996 11.5 11.6011 11.5 10.4498C11.5 9.29849 10.7403 8.5 9.58489 8.5H4.59928C2.16187 8.5 0.5 10.3012 0.5 13.3095V27.0695C0.5 32.5846 3.19065 35.4814 7.74892 35.4814V35.5Z" fill="url(#paint8_linear_301_172)"/>
<defs>
<linearGradient id="paint0_linear_301_172" x1="46.2487" y1="28.8671" x2="34.1744" y2="31.7247" gradientUnits="userSpaceOnUse">
<stop stop-color="#EE3984"/>
<stop offset="1" stop-color="#7800DA"/>
</linearGradient>
<linearGradient id="paint1_linear_301_172" x1="3.89266" y1="32.299" x2="16.1547" y2="29.1133" gradientUnits="userSpaceOnUse">
<stop stop-color="#EE3984"/>
<stop offset="1" stop-color="#7800DA"/>
</linearGradient>
<linearGradient id="paint2_linear_301_172" x1="22.0515" y1="29.6249" x2="31.9695" y2="15.6531" gradientUnits="userSpaceOnUse">
<stop stop-color="#EE3984"/>
<stop offset="1" stop-color="#7800DA"/>
</linearGradient>
<linearGradient id="paint3_linear_301_172" x1="20.2903" y1="14.481" x2="26.1108" y2="31.8934" gradientUnits="userSpaceOnUse">
<stop stop-color="#FF0000"/>
<stop offset="1" stop-color="#EE3984"/>
</linearGradient>
<linearGradient id="paint4_linear_301_172" x1="11.5161" y1="14.9899" x2="30.5161" y2="14.9899" gradientUnits="userSpaceOnUse">
<stop stop-color="#FFC708"/>
<stop offset="1" stop-color="#FA3B00"/>
</linearGradient>
<linearGradient id="paint5_linear_301_172" x1="35.5" y1="21.4811" x2="48.5" y2="21.4811" gradientUnits="userSpaceOnUse">
<stop stop-color="#FF0000"/>
<stop offset="1" stop-color="#EE3984"/>
</linearGradient>
<linearGradient id="paint6_linear_301_172" x1="36.4839" y1="12.9896" x2="47.4839" y2="12.9896" gradientUnits="userSpaceOnUse">
<stop stop-color="#FFC708"/>
<stop offset="1" stop-color="#F05731"/>
</linearGradient>
<linearGradient id="paint7_linear_301_172" x1="2.49228" y1="1.8991" x2="2.49228" y2="12.2758" gradientUnits="userSpaceOnUse">
<stop stop-color="#FFC708"/>
<stop offset="1" stop-color="#F05731"/>
</linearGradient>
<linearGradient id="paint8_linear_301_172" x1="7.19496" y1="9.837" x2="4.16633" y2="28.46" gradientUnits="userSpaceOnUse">
<stop stop-color="#F80000"/>
<stop offset="1" stop-color="#EE3984"/>
</linearGradient>
</defs>
</svg>
