<svg width="64" height="52" viewBox="0 0 64 52" fill="none" xmlns="http://www.w3.org/2000/svg">
<path d="M33.6511 30.152L33.5024 30.2991L33.5028 30.5083L33.5177 39.3183L33.518 39.5158L33.6532 39.6597L33.7682 39.7822L33.77 39.7841C37.072 43.2647 40.4038 46.7601 43.761 50.2705L43.7614 50.2709L43.8573 50.3709L44.0049 50.525H44.2182H49.7371H50.1092L50.216 50.1685L50.297 49.8985L50.2971 49.8979C51.4073 46.1771 52.499 42.4487 53.5724 38.713L53.5736 38.7089L58.3022 21.6964L58.3022 21.6964L58.3046 21.6874L60.5283 13.0674L60.5283 13.0674L60.5298 13.0613L62.6449 4.41882L62.6455 4.41651L62.8798 3.43901L62.8801 3.43739L63.2167 2.01238L62.3551 1.56669L61.0473 3.04919L61.0412 3.05609L33.6511 30.152ZM1.81521 2.20514L2.87192 6.66523L2.87189 6.66524L2.87318 6.67043L5.01809 15.3104L5.01804 15.3104L5.0199 15.3175L7.86132 26.0875L7.86126 26.0875L7.8634 26.0951L11.4269 38.7851L11.4275 38.7875C12.4292 42.2893 13.5329 46.0557 14.7004 49.9741C14.7005 49.9745 14.7007 49.9749 14.7008 49.9752L14.7788 50.2426L14.8838 50.6025H15.2588H20.7797H20.9931L21.1407 50.4484L21.2365 50.3485L21.2373 50.3477C24.5943 46.83 27.9259 43.3347 31.2278 39.8594L31.2295 39.8576L31.3423 39.7376L31.4778 39.5935L31.4782 39.3958L31.4931 30.5833L31.4934 30.3742L31.3448 30.2271L3.97147 3.13905L2.73065 1.73139L2.66753 1.46496H2.27215H2.27002H1.16276L1.81521 2.20514ZM57.497 15.674L57.4951 15.6813L54.6589 26.3494L48.4485 48.04H44.9224C41.8813 44.8473 38.8432 41.6508 35.8081 38.4502L35.796 31.3957L59.4053 8.03171L57.497 15.674ZM5.59914 8.11925L29.2129 31.4861V38.542C26.1651 41.731 23.12 44.9237 20.0776 48.12H16.5476L13.3182 37.0392L7.50795 15.761L5.59914 8.11925Z" fill="white" stroke="white"/>
</svg>
