<svg width="47" height="50" viewBox="0 0 47 50" fill="none" xmlns="http://www.w3.org/2000/svg">
<path d="M21.4473 23.5171V22.5732H23.5009H25.5539V23.5171H23.5009H21.4473Z" fill="white"/>
<path d="M23.4988 25.4717H24.7938V24.0052H23.4988H22.2046V25.4717H23.4988Z" fill="white"/>
<path d="M22.2067 22.086C22.2028 21.2764 22.0243 20.4853 21.4736 19.9476H25.5283C24.9784 20.4853 24.7991 21.2764 24.7959 22.086H22.2067Z" fill="white"/>
<path d="M18.7759 18.3896V17.6927H23.4988H28.2225V18.3896H23.4996H18.7759Z" fill="white"/>
<path d="M19.1982 20.9034C19.7757 20.7504 20.3077 20.4211 20.7397 19.9493H19.0981C19.1326 20.2671 19.1662 20.5857 19.1998 20.9034" fill="white"/>
<path d="M27.7998 20.9034C27.2222 20.7508 26.69 20.4214 26.2583 19.9493H27.9007L27.7998 20.9034Z" fill="white"/>
<path d="M18.6172 16.1657C18.0993 12.5553 17.0965 8.79752 16 6.32471C17.1808 7.0794 18.4499 8.27668 19.8073 9.91653C19.2513 9.73944 18.6872 9.59853 18.1177 9.49446C18.888 11.6773 19.5636 13.9039 20.1418 16.1657H18.6172Z" fill="white"/>
<path d="M28.3828 16.1657C28.9006 12.5553 29.8995 8.79752 30.9999 6.32471C29.8186 7.0794 28.5493 8.27668 27.1919 9.91653C27.7481 9.73941 28.3124 9.5985 28.8821 9.49446C28.1119 11.6772 27.4365 13.9038 26.8589 16.1657H28.3828Z" fill="white"/>
<path d="M18.2759 17.3304V16.6243H23.4999H28.7245V17.3304H23.5006H18.2759Z" fill="white"/>
<path d="M21.7396 5.94357C22.5455 4.3093 23.2379 2.45235 23.5003 0.52832C23.7621 2.45235 24.4544 4.3093 25.2611 5.94357C24.9738 5.79075 24.6697 5.62956 24.3319 5.45347C24.0407 5.30067 23.9166 5.39105 23.9262 5.74511C24.0231 9.21488 24.4569 13.1608 25.9951 16.1656H24.1824C23.9071 15.3965 23.679 14.6057 23.4996 13.799C23.3205 14.6057 23.0926 15.3965 22.8177 16.1656H21.0049C22.5439 13.1608 22.977 9.21488 23.0738 5.74511C23.0842 5.39105 22.9601 5.30067 22.668 5.45347C22.3311 5.62956 22.0277 5.79075 21.7396 5.94357Z" fill="white"/>
<path d="M18.2759 19.4593V18.7531H23.4999H28.7245V19.4593H23.5006H18.2759Z" fill="white"/>
<path d="M47 30.4718H0V29.4718H47V30.4718Z" fill="white"/>
<path d="M38.5957 38.6977C38.1646 38.3786 37.782 38.0338 37.3751 37.7955C36.7727 37.4361 36.0922 37.2691 35.4094 37.313C34.3977 37.3566 33.4353 37.8097 32.7047 38.587C32.088 39.201 31.6683 40.0206 31.5083 40.9222C31.3342 41.7586 31.3752 42.6324 31.6265 43.4443C31.8778 44.2561 32.3295 44.9737 32.93 45.5153C33.5307 46.0568 34.2562 46.4007 35.0243 46.508C35.7924 46.6153 36.5721 46.4816 37.2751 46.1223C37.4184 46.0427 37.4184 45.9632 37.4184 45.8042V41.961H39.9082V47.4802C39.9098 47.546 39.8978 47.6113 39.873 47.6712C39.848 47.7309 39.811 47.7837 39.7649 47.825C38.8835 48.6272 37.8268 49.1578 36.7016 49.3632C35.4243 49.6097 34.1099 49.4345 32.9216 48.8594C31.9403 48.4116 31.1266 47.6917 30.4089 46.8163C30.1863 46.5198 29.9787 46.2101 29.7869 45.8882C29.6194 46.3125 29.4516 46.7368 29.2599 47.1611C28.7097 48.2224 27.8726 48.8324 26.8196 49.1515C26.5217 49.2281 26.2168 49.2656 25.911 49.2635H17.4869V39.0425C17.4869 38.2467 17.1517 37.716 16.5529 37.5033C15.7161 37.2111 14.8306 37.7955 14.8306 38.9094C14.8064 42.2532 14.8306 45.5691 14.8306 48.9132V49.258H12.245V39.0425C12.245 38.1134 11.5989 37.3712 10.7619 37.4507C10.2349 37.5033 9.68467 38.0877 9.63722 38.6708C9.61299 39.0425 9.58875 39.4399 9.58875 39.8116V49.2837H7.00618V48.9658C7.00618 45.5691 6.98196 42.147 7.02941 38.7503C7.05364 37.1316 7.77146 35.9382 9.03953 35.1153C9.6061 34.7488 10.2503 34.5556 10.9063 34.5556C11.8149 34.5556 12.6529 34.8478 13.3465 35.5117C13.5141 35.6707 13.61 35.6707 13.7776 35.5117C14.3616 34.9801 15.0812 34.6645 15.8352 34.6094C16.5793 34.5379 17.3264 34.7033 17.9886 35.0863C18.7547 35.5188 19.3631 36.2302 19.712 37.1014C19.7259 37.1148 19.7346 37.1337 19.7363 37.154C20.0231 36.7823 20.2865 36.358 20.6207 35.9863C21.1828 35.3283 21.9382 34.9143 22.751 34.8188C22.9732 34.7884 23.1965 34.7709 23.4203 34.7662H29.2831V37.6578H23.4445C22.7509 37.6578 22.1523 38.0832 22.009 38.8791C21.8897 39.5687 22.2966 40.3647 22.9418 40.5505C23.0979 40.5953 23.2594 40.613 23.4203 40.6031H26.0534C26.9378 40.63 27.7284 40.9222 28.3977 41.5581C28.541 41.6912 28.6612 41.7977 28.8016 41.9298C29.0407 38.3743 30.6188 35.9068 33.7304 34.8188C36.004 34.0228 38.1101 34.6329 40 36.274C39.4899 37.05 39.0181 37.8562 38.5865 38.6889M20.0705 46.3394C20.1189 46.3651 20.1189 46.3651 20.1422 46.3651H25.8141C26.0259 46.3726 26.2362 46.324 26.4275 46.2229C26.6188 46.1221 26.7856 45.9721 26.914 45.7851C27.0424 45.5983 27.1288 45.3801 27.1657 45.1488C27.2027 44.9174 27.1893 44.6797 27.1266 44.4553C26.9833 43.8709 26.4087 43.4197 25.8141 43.4197H22.9871C22.3809 43.4183 21.7891 43.2152 21.2881 42.8365C20.8337 42.4918 20.4269 42.0932 20.0442 41.7484V46.3382L20.0705 46.3394Z" fill="white"/>
</svg>
