<svg width="76" height="22" viewBox="0 0 76 22" fill="none" xmlns="http://www.w3.org/2000/svg">
<path d="M4.46086 12.1922H4.35395C2.75057 12.2534 0.969177 12.7294 0.5 12C0.725669 12.498 1.27793 13.7471 1.7471 14.8784C2.21615 16.0096 2.54873 17.0622 2.99408 17.3199C4.35981 18.0493 7.10924 17.3723 8.73632 18.2414C10.3634 19.1106 9.92391 21.871 11.3432 21.9933C12.7624 22.1156 12.6555 20.5388 13.1247 19.2984C13.6157 17.9142 14.4187 16.6003 15.5 15.4112C14.8151 14.751 13.9982 14.1707 13.0772 13.6904C12.1855 13.2367 11.1985 12.8945 10.1556 12.6771C8.3079 12.2812 6.38262 12.1172 4.46086 12.1922Z" fill="#036291"/>
<path d="M13.9184 19.1342V19.2123C13.5132 20.4012 13.5826 21.8611 12.5 21.9667H16.5119C18.069 21.9667 19.5278 22.0953 19.9852 21.8474C21.3225 21.076 21.2992 18.8358 22.8797 17.9222C24.46 17.0086 27.8118 18.2252 28.3965 17.2244C28.9812 16.2236 26.9609 15.7828 25.5425 15.03C23.942 14.2161 22.5286 13.1914 21.363 12C20.3267 12.2922 19.3511 12.7054 18.4685 13.2258C17.6254 13.7388 16.8957 14.3594 16.3091 15.0621C15.2286 16.3029 14.4203 17.6797 13.9184 19.1342Z" fill="#FDE8D2"/>
<path d="M26.0502 15.1275L26.1414 15.1669C27.5098 15.8056 29.3648 16.1863 29.1824 17C29.4074 16.4969 29.973 15.25 30.5022 14.1256C31.0313 13.0013 31.6456 11.9951 31.4691 11.6101C30.9339 10.4245 28.0998 9.7814 27.4672 8.37267C26.8591 7.0602 29.4499 4.9165 28.3735 4.20338C27.2969 3.49027 26.0867 4.82025 24.6757 5.60773C23.1283 6.51585 21.3784 7.22884 19.5 7.71643C19.5323 8.54887 19.7373 9.37316 20.1082 10.162C20.4729 10.917 21.0115 11.6224 21.7017 12.2488C22.9165 13.377 24.3865 14.3502 26.0502 15.1275Z" fill="#C0DEC1"/>
<path d="M11.3128 3.18007C11.2961 3.15484 11.2818 3.12859 11.2702 3.10155C10.6917 1.87467 9.49801 0.647793 10.3201 0C9.71115 0.353342 8.23733 1.22687 6.89145 1.96301C5.54557 2.69913 4.23014 3.35674 4.05346 3.7886C3.51767 5.11854 5.27154 7.04719 4.66257 8.6225C4.05346 10.0947 0.228958 10.8211 0.515282 11.9743C0.801472 13.1276 2.85996 12.5043 4.65642 12.4651C6.65094 12.3725 8.65039 12.5534 10.5699 13C11.2176 12.2309 11.7165 11.387 12.0497 10.4972C12.3819 9.63522 12.5322 8.73444 12.4943 7.8324C12.4228 6.23959 12.0236 4.66741 11.3128 3.18007Z" fill="#FACEB2"/>
<path d="M24.1888 5.31002L24.2706 5.25449C25.491 4.47688 26.5305 3.25957 27.5 3.66688C26.916 3.33825 25.4969 2.51437 24.2414 1.76454C22.9857 1.01471 21.9054 0.246371 21.3214 0.246371C19.6569 0.246371 17.9983 2.0978 16.0245 2.0978C14.1497 2.0978 12.2226 -0.466428 11.002 0.0751141C9.78144 0.616661 11.0955 1.92654 11.6911 3.20403C12.3929 4.61938 12.7878 6.11855 12.8591 7.6382C13.924 7.88923 15.0304 8.01096 16.1413 7.99923C17.2061 7.98438 18.2602 7.82792 19.2598 7.53637C21.0487 7.0187 22.715 6.26608 24.1888 5.31002Z" fill="#17162B"/>
<path d="M12.5 7.46301C12.4969 7.49579 12.4969 7.52868 12.5 7.56146V7.82254C12.295 7.88571 12.1176 7.98566 11.9856 8.11229C11.8535 8.23892 11.7717 8.38774 11.7481 8.54368C11.7245 8.69963 11.7601 8.85716 11.8514 9.00035C11.9426 9.14353 12.0863 9.2673 12.2678 9.35913C12.2311 9.47894 12.1945 9.59025 12.1456 9.70577C11.8806 9.59716 11.6602 9.44227 11.5061 9.25626C11.3519 9.07024 11.2691 8.85942 11.2657 8.64433C11.2643 8.38088 11.3832 8.12402 11.6054 7.91142C11.8275 7.69883 12.1411 7.54168 12.5 7.46301ZM10.2576 8.64861V8.83265L10.3431 8.85833C10.4051 8.87542 10.4645 8.89693 10.5204 8.92254L10.612 8.95678L10.6731 8.98246L10.7708 9.02526C10.7216 8.8983 10.697 8.76731 10.6975 8.63577C10.6963 8.27607 10.8663 7.92635 11.1805 7.64188C11.4948 7.3574 11.9354 7.1544 12.4327 7.06496C12.4327 6.94939 12.4022 6.83811 12.39 6.72682C11.7763 6.83055 11.2312 7.07719 10.8437 7.42634C10.4563 7.77548 10.2497 8.20643 10.2576 8.64861ZM9.24335 8.57584C9.40212 8.60581 9.56103 8.63577 9.71994 8.67429C9.71525 8.13725 9.97639 7.61567 10.4586 7.19821C10.9409 6.78077 11.6148 6.4932 12.3655 6.38442C12.3655 6.27313 12.3227 6.16185 12.2984 6.05485C11.4584 6.17295 10.7 6.48606 10.1456 6.94354C9.59118 7.40102 9.27337 7.97612 9.24335 8.57584ZM8.22908 8.47312H8.41238C8.51019 8.47312 8.61402 8.47312 8.70567 8.4988C8.74948 7.81863 9.11861 7.16854 9.75357 6.65307C10.3885 6.1376 11.2526 5.7867 12.2067 5.65679C12.1762 5.54123 12.1456 5.43422 12.1089 5.32722C11.054 5.47333 10.0991 5.86233 9.3961 6.43238C8.69307 7.00241 8.28227 7.72073 8.22908 8.47312ZM8.11908 2.05291C9.21187 2.08404 10.246 2.40722 11.0091 2.95602C10.8502 2.71634 10.6791 2.48092 10.5264 2.25408C9.85379 1.94974 9.0827 1.7687 8.28402 1.72762L8.15579 1.79182V1.83462C8.15579 1.84746 8.13127 1.98014 8.11908 2.07003V2.05291ZM7.67921 8.82838H7.53865C7.42597 8.82428 7.31383 8.81571 7.20262 8.80269C7.16216 9.45608 6.82143 10.0827 6.23136 10.5895C5.64116 11.0961 4.83322 11.4558 3.92762 11.6147C4.15981 11.6147 4.39817 11.5805 4.63023 11.5762C4.86243 11.5719 5.09463 11.5762 5.33902 11.5762C6.02342 11.2897 6.5954 10.8887 7.00392 10.4091C7.41231 9.92942 7.64437 9.38628 7.67921 8.82838ZM9.66487 1.55214C9.66433 1.54501 9.66433 1.53786 9.66487 1.53073C9.66447 1.35187 9.69528 1.17364 9.75652 1L9.2128 1.2782C9.2065 1.33805 9.2065 1.39813 9.2128 1.45797C9.34719 1.48793 9.5061 1.52217 9.66487 1.55214ZM7.9725 10.9685C7.67077 10.9708 7.37493 11.0271 7.11298 11.1319C6.85091 11.2367 6.63157 11.3868 6.47548 11.5677L7.04988 11.5934C7.18962 11.4881 7.3634 11.4081 7.55674 11.3599C7.74995 11.3117 7.95696 11.2968 8.16021 11.3166C8.36334 11.3363 8.55681 11.3901 8.72402 11.4733C8.89137 11.5564 9.0275 11.6666 9.12116 11.7945C9.30445 11.8202 9.49377 11.8459 9.68323 11.8801C9.581 11.6174 9.35804 11.3858 9.04867 11.2209C8.73943 11.0561 8.36106 10.9674 7.9725 10.9685ZM8.21689 8.82838V8.94822C8.21689 8.98674 8.21689 9.09375 8.18018 9.16222C8.88842 9.18556 9.57791 9.33002 10.1881 9.58288C10.7984 9.83584 11.311 10.1896 11.6812 10.6132C11.7545 10.4891 11.8278 10.365 11.8951 10.2323C11.4694 9.82324 10.9176 9.48659 10.2809 9.24726C9.64424 9.00794 8.9388 8.87209 8.21689 8.84978V8.82838ZM8.07634 9.53884C8.0336 9.65445 7.99072 9.76576 7.93579 9.87269H7.96634C8.65435 9.87157 9.32589 10.0199 9.88849 10.2974C10.451 10.575 10.8766 10.9679 11.1068 11.4221C11.2046 11.3023 11.3024 11.1739 11.3941 11.0412C11.0882 10.6049 10.6168 10.236 10.0317 9.97477C9.44647 9.7136 8.76998 9.57019 8.07634 9.5603V9.53884ZM7.9725 10.2494H7.70975L7.67304 10.3093L7.5814 10.4292L7.53249 10.4934L7.49592 10.5362L7.43482 10.6046C7.61663 10.5723 7.80314 10.555 7.99072 10.5533C8.54797 10.5525 9.08686 10.6929 9.50784 10.9485C9.92895 11.2042 10.2039 11.5578 10.282 11.9443L10.5815 12C10.6364 11.9529 10.6853 11.8973 10.7402 11.8416C10.6134 11.3945 10.2671 10.9928 9.76147 10.7058C9.25595 10.4189 8.623 10.265 7.9725 10.2707V10.2494ZM2.59567 10.5404L2.63238 10.5961H2.89499C3.63084 10.5915 4.33413 10.3834 4.85158 10.0169C5.3689 9.65043 5.65844 9.15548 5.6567 8.64005C5.6567 8.57585 5.6567 8.51592 5.6567 8.456L5.57738 8.43032H5.54067L5.33902 8.40036L5.24134 8.35756H5.19244L5.0886 8.31048C5.13174 8.43824 5.15626 8.56873 5.16189 8.69997C5.15398 9.1198 4.91281 9.52092 4.48955 9.8182C4.06629 10.1155 3.49431 10.2856 2.89499 10.2922C2.70781 10.2915 2.52117 10.2757 2.33908 10.2451C2.36159 10.2669 2.38196 10.2898 2.40018 10.3136L2.43676 10.3564L2.49183 10.4206L2.58347 10.5404H2.59567ZM2.89499 10.9685C2.95207 11.0769 3.00097 11.1881 3.0417 11.3022C4.00948 11.2786 4.92782 10.9969 5.60913 10.5148C6.29045 10.0327 6.68343 9.38665 6.70768 8.70854C6.54274 8.67858 6.38384 8.64861 6.23109 8.61009C6.24342 8.92194 6.16611 9.23234 6.00372 9.52288C5.84146 9.81335 5.59747 10.0781 5.28636 10.3013C4.97511 10.5244 4.60317 10.7015 4.19237 10.822C3.78157 10.9426 3.34036 11.0039 2.89499 11.0027V10.9685ZM6.16383 5.07469C6.16142 4.82986 6.26285 4.59005 6.45512 4.3856C6.64739 4.18116 6.92192 4.02128 7.24402 3.92622C7.56612 3.83116 7.92118 3.80519 8.26432 3.8516C8.60759 3.89802 8.92326 4.01472 9.17167 4.18694C9.42008 4.35916 9.58997 4.57914 9.65978 4.81903C9.72959 5.05892 9.69622 5.30794 9.56398 5.53454C9.4316 5.76113 9.20624 5.95512 8.91643 6.09194C8.62662 6.22875 8.28522 6.30224 7.93579 6.30309C7.47675 6.3044 7.03514 6.18046 6.70433 5.95755C6.37365 5.73463 6.17977 5.43026 6.16383 5.10894V5.07469ZM6.64042 5.07469C6.64042 5.25367 6.71639 5.42862 6.85868 5.57731C7.00084 5.726 7.20289 5.84175 7.43924 5.90985C7.67545 5.97794 7.93525 5.99532 8.18567 5.95977C8.43609 5.92423 8.66587 5.83736 8.84568 5.7102C9.02536 5.58304 9.14728 5.42132 9.19565 5.24557C9.24389 5.06983 9.21669 4.88798 9.11727 4.72311C9.01772 4.55825 8.85064 4.4178 8.63707 4.3196C8.42336 4.22141 8.17294 4.16988 7.91743 4.17158C7.74553 4.17266 7.57564 4.19781 7.4178 4.24557C7.25997 4.29333 7.11741 4.36271 6.99829 4.44966C6.87931 4.5366 6.78646 4.63934 6.72496 4.75182C6.66346 4.86431 6.63479 4.98428 6.64042 5.10465V5.07469ZM8.24127 6.95367V6.92799C8.24127 6.88947 8.29634 6.84667 8.32689 6.80815C8.34498 6.78439 8.36535 6.76151 8.38799 6.73966V6.70543L8.45511 6.63266C8.27544 6.665 8.09081 6.68224 7.90524 6.68402C7.6027 6.68515 7.30284 6.64453 7.02281 6.56448C6.74278 6.48442 6.48794 6.36651 6.27289 6.21747C6.05785 6.06842 5.88675 5.89117 5.76951 5.69583C5.65227 5.50048 5.59118 5.29087 5.58957 5.07897C5.59011 4.94916 5.61261 4.81984 5.6567 4.69376L5.55902 4.73656L5.49792 4.76224L5.40628 4.80076L5.23518 4.86497L5.1497 4.89493C5.1434 4.95476 5.1434 5.01485 5.1497 5.07469C5.15452 5.59045 5.45116 6.0838 5.97464 6.44649C6.49813 6.80918 7.2057 7.01159 7.94195 7.00931H8.19853C8.21073 7.01788 8.22908 7.00076 8.24127 6.98363V6.95367ZM2.58347 11.7474C2.45605 11.1472 2.09925 10.5822 1.55085 10.1124C1.417 10.1725 1.28837 10.2383 1.16591 10.3093C1.65964 10.7263 1.98268 11.2292 2.10072 11.7646C2.28402 11.7731 2.4184 11.7646 2.58347 11.7474ZM6.19438 2.75914C5.12518 3.26419 4.1842 3.70505 4.03762 4.01321V4.06458C4.96721 3.84644 5.74004 3.38475 6.19438 2.77626V2.75914ZM1.55085 11.7474C1.43669 11.3099 1.16778 10.8994 0.768774 10.5533C0.650599 10.6424 0.559222 10.7472 0.5 10.8615C0.766497 11.1084 0.957829 11.391 1.06207 11.6918C1.21789 11.7375 1.3827 11.7665 1.55085 11.7774V11.7474ZM7.83798 7.75834C7.87469 7.64509 7.92172 7.53358 7.97853 7.42449H7.94798C7.51226 7.42618 7.08043 7.36774 6.677 7.2525C6.27357 7.13726 5.90644 6.96748 5.59667 6.75286C5.2869 6.53824 5.0405 6.28297 4.87154 6.00164C4.70259 5.72031 4.61429 5.41842 4.61201 5.11321V5.09181C4.46128 5.13176 4.30237 5.166 4.13543 5.19454C4.14708 5.35864 4.17777 5.52183 4.22707 5.68247L4.33694 5.95212C4.58602 6.46824 5.05537 6.9183 5.68162 7.24137C6.30773 7.56443 7.0606 7.74491 7.83798 7.75834ZM7.9114 3.4782C8.21488 3.47707 8.51568 3.51798 8.79664 3.59856C9.07748 3.67914 9.33285 3.79783 9.54803 3.94778C9.76322 4.09773 9.93405 4.27599 10.0505 4.47232C10.167 4.66866 10.2271 4.87919 10.2271 5.09181C10.2285 5.22287 10.208 5.3536 10.166 5.48131L10.2698 5.43422H10.3126L10.4164 5.39142L10.5815 5.32722H10.618L10.6975 5.30154C10.7035 5.24169 10.7035 5.18162 10.6975 5.12178C10.6959 4.86603 10.6225 4.61301 10.4812 4.37716C10.34 4.14131 10.134 3.92726 9.87456 3.74721C9.6153 3.56717 9.30793 3.42466 8.97002 3.32783C8.63211 3.231 8.27035 3.18174 7.90524 3.18287C7.81976 3.17866 7.73401 3.17866 7.64866 3.18287L7.60578 3.23851V3.25991L7.51414 3.37976L7.4592 3.44395L7.42249 3.48676L7.36756 3.55524C7.54455 3.51886 7.72704 3.49731 7.9114 3.49104V3.4782ZM7.56304 2.09143L6.98262 2.3782C6.77641 2.88369 6.38652 3.34305 5.85111 3.7114C5.31557 4.07975 4.65288 4.34449 3.92762 4.47975C3.92788 4.59437 3.94021 4.70881 3.96433 4.82217C4.87717 4.66435 5.70426 4.32296 6.34364 3.84006C6.98302 3.35715 7.40695 2.75379 7.56304 2.10427V2.09143ZM7.70359 8.34044C7.70949 8.26722 7.72168 8.19432 7.7403 8.12215C7.17113 8.10663 6.61201 8.01242 6.0951 7.84494C5.57805 7.67747 5.11352 7.44002 4.72804 7.14628C4.75832 7.30944 4.77065 7.47401 4.76476 7.63849C5.57738 8.13727 6.60625 8.42978 7.68523 8.46884C7.69756 8.43032 7.69756 8.40036 7.70359 8.35328V8.34044ZM4.64859 8.66145C4.64511 8.55432 4.6226 8.44792 4.58146 8.34472C4.46717 8.52335 4.31014 8.68694 4.11707 8.82838C4.06897 9.03313 3.92078 9.21982 3.69783 9.35642C3.47501 9.49312 3.1911 9.57122 2.89499 9.57737H2.79115L2.22908 9.82996C2.44333 9.88846 2.6711 9.91897 2.90115 9.91981C3.36729 9.91533 3.81212 9.78181 4.13824 9.54845C4.46449 9.31518 4.64578 9.00089 4.64256 8.67429L4.64859 8.66145ZM7.91743 2.76341C8.79638 2.76113 9.64062 3.00324 10.2649 3.43657C10.8892 3.86989 11.2425 4.45904 11.2474 5.07469L11.724 4.97197C11.6901 4.29403 11.288 3.65073 10.5998 3.17346C9.91167 2.69617 8.98945 2.42092 8.02127 2.40388C7.98376 2.51839 7.93686 2.63129 7.88086 2.74202H7.91743V2.76341Z" fill="#E00C19"/>
<path d="M25.4301 16.2204C25.3445 15.6708 25.2134 15.1363 25.0394 14.6268L25.0003 14.5312C24.8361 14.3718 24.6681 14.1965 24.5 14L24.543 14.1062C24.8298 14.7942 25.0417 15.535 25.1722 16.3054C25.2504 16.8653 25.2504 17.4402 25.1722 18H25.4535C25.5225 17.4095 25.5146 16.8072 25.4301 16.2204Z" fill="#C86D14"/>
<path d="M17.0195 20.0454L17.1525 19.9583C17.7359 19.5614 18.1704 19.0728 18.4185 18.5347C18.5071 18.352 18.5641 18.1473 18.3678 18.0429C18.1715 17.9384 17.8614 18.0429 17.5449 18.1647L17.4373 18.2083C16.86 18.523 16.3393 18.884 15.8864 19.2835L15.5699 19.5317C15.1867 19.8038 14.9045 20.1353 14.747 20.4981C14.7313 20.518 14.7221 20.5399 14.7199 20.5625C14.7178 20.585 14.7228 20.6076 14.7345 20.6287C14.7463 20.6498 14.7644 20.6689 14.7879 20.6847C14.8114 20.7005 14.8395 20.7126 14.8705 20.7202C14.9015 20.7278 14.9344 20.7308 14.9671 20.7289C14.9999 20.7269 15.0315 20.7201 15.0601 20.7089C15.0886 20.6977 15.1133 20.6825 15.1324 20.6641C15.1516 20.6457 15.1648 20.6248 15.171 20.6026C15.308 20.2752 15.5603 19.9762 15.9054 19.7319L16.2219 19.4838C16.6523 19.116 17.1336 18.7778 17.6589 18.4738L17.7729 18.426L18.0323 18.3301C18.0323 18.3563 18.0323 18.3911 17.988 18.4346C17.7633 18.9297 17.3631 19.3785 16.8232 19.7407L16.6966 19.8233C15.7152 20.4136 14.9607 21.1613 14.5 22H14.9811C15.4302 21.2483 16.1282 20.579 17.0195 20.0454Z" fill="#2D2A66"/>
<path d="M17.8855 20.32C18.1965 20.071 18.4873 19.809 18.7565 19.5353C19.7188 18.5291 19.5727 17.8332 19.2803 17.4253C19.2139 17.3184 19.1136 17.2244 18.9877 17.1512C18.8616 17.0779 18.7134 17.0276 18.5554 17.0043C18.3622 16.9907 18.1672 17.0095 17.9855 17.0595C17.8039 17.1094 17.6404 17.1892 17.5078 17.2924C17.319 17.421 17.0693 17.5716 16.7586 17.7623C16.3505 18.0017 15.8511 18.3075 15.2725 18.6932C14.9007 18.9199 14.597 19.1997 14.3802 19.5154C14.1633 19.8311 14.0379 20.1758 14.0117 20.5284V20.6347C13.9146 21.1028 13.7428 21.5609 13.5 22H13.9629C14.1666 21.5683 14.3094 21.1228 14.3893 20.6701V20.5637C14.4109 20.2466 14.522 19.9361 14.7158 19.6516C14.9098 19.3671 15.1823 19.1148 15.5162 18.9103C16.0886 18.5335 16.582 18.2321 16.984 17.9883C17.3859 17.7445 17.5565 17.6426 17.7575 17.5096C17.841 17.4399 17.9454 17.3852 18.0627 17.3499C18.18 17.3145 18.307 17.2994 18.4336 17.3057C18.5247 17.3217 18.6095 17.353 18.6814 17.3967C18.7531 17.4406 18.8101 17.4959 18.8478 17.5584C19.1828 18.0327 19.0122 18.6488 18.3484 19.3314C18.0901 19.5966 17.8093 19.8498 17.5078 20.0894C17.0144 20.4687 16.6035 20.9008 16.2896 21.3705C16.1495 21.5922 16.0277 21.8138 15.9121 21.9956H16.381C16.4724 21.8404 16.5759 21.6719 16.6855 21.499C16.9979 21.0626 17.4029 20.6647 17.8855 20.32Z" fill="#E00C19"/>
<path d="M19.3228 20.0065C19.2921 20.0007 19.26 19.9988 19.2281 20.0007C19.1963 20.0027 19.1654 20.0085 19.1373 20.018C19.1092 20.0274 19.0845 20.0401 19.0645 20.0555C19.0446 20.0709 19.0299 20.0886 19.0212 20.1074C18.5959 20.7618 18.0873 21.3947 17.5 22H18.0482C18.6081 21.4255 19.0894 20.8234 19.4872 20.2C19.4977 20.1806 19.5019 20.1603 19.4992 20.1399C19.4966 20.1196 19.4875 20.0998 19.472 20.0818C19.4567 20.0637 19.4355 20.0478 19.4099 20.0348C19.3842 20.0219 19.3546 20.0123 19.3228 20.0065Z" fill="#C86D14"/>
<path d="M20.3964 18C20.5609 17.3395 20.634 16.711 19.787 16.2707C19.4249 16.086 18.995 15.9915 18.5577 16.0006C18.1205 16.0096 17.698 16.1217 17.3499 16.3211C16.7142 16.6428 16.1039 16.992 15.522 17.367C14.9488 17.7112 14.4279 18.102 13.9684 18.5321C13.4099 19.0783 13.0924 19.7424 13.0605 20.4312L13.0179 20.656C12.9537 21.1019 12.778 21.5346 12.5 21.9312H12.9813C13.2375 21.5459 13.4025 21.1299 13.4687 20.7018L13.5053 20.4771C13.5311 19.8514 13.8142 19.2471 14.3156 18.7477C14.7588 18.3298 15.2637 17.9512 15.8206 17.6193C16.4032 17.2521 17.0135 16.9105 17.6484 16.5963C17.9222 16.4423 18.2513 16.3541 18.5928 16.3435C18.9342 16.3328 19.2719 16.4002 19.5616 16.5367C20.1709 16.844 20.1709 17.234 20.0004 17.9404C19.8298 18.6468 19.7565 18.9266 19.6408 19.5918C19.4295 20.416 19.1112 21.2226 18.6903 22C18.8523 21.9925 19.0131 21.9756 19.1717 21.9496C19.5624 21.2087 19.8542 20.4403 20.043 19.656C20.1709 18.9771 20.2258 18.6973 20.3964 18Z" fill="#F5A507"/>
<path d="M21.4166 18.1442C21.6159 17.2991 21.4596 16.7264 20.9317 16.3378C20.4038 15.9493 20.0429 15.9813 19.1918 16.0254H18.7447C18.2995 16.0188 17.859 16.0945 17.4627 16.2457C16.8221 16.4199 16.2304 16.6806 15.7174 17.0147L15.3726 17.2309L14.8771 17.5354C14.737 17.7837 14.6077 18.02 14.5 18.2483C14.8414 17.959 15.2143 17.691 15.615 17.4472L15.9651 17.2309C16.4515 16.9145 17.0122 16.6674 17.6189 16.502C17.9718 16.3673 18.3642 16.2999 18.7609 16.3058H19.2187C20.0806 16.2617 20.296 16.2777 20.6624 16.5381C21.0287 16.7984 21.2657 17.1269 21.0394 18.0921C20.9802 18.3605 20.9047 18.6529 20.8239 18.9573C20.657 19.5981 20.4738 20.3111 20.3608 21C20.5983 20.6375 20.8053 20.2642 20.9802 19.8825C21.0503 19.5861 21.1256 19.2897 21.201 19.0133C21.2765 18.737 21.3519 18.4126 21.4166 18.1442Z" fill="#036291"/>
<path d="M22.4843 16.8524C22.3925 15.7557 21.7847 15.3794 21.2973 15.2602C20.6901 15.0693 20.0397 14.9818 19.3879 15.0032C18.4716 15.0601 17.5648 15.1907 16.6812 15.3932C16.4212 15.4706 16.1666 15.5595 15.9186 15.6594C15.7696 15.843 15.6319 16.0264 15.5 16.2054C15.9142 16.0046 16.3522 15.8371 16.8075 15.7052C17.6598 15.5123 18.5336 15.3863 19.4165 15.329C20.0153 15.315 20.6117 15.3961 21.1712 15.5676C21.7101 15.7052 22.014 16.1412 22.0772 16.8754C22.119 17.5889 22.0399 18.3035 21.842 19C21.9906 18.8037 22.1698 18.6233 22.3753 18.4631C22.4878 17.9313 22.5243 17.3909 22.4843 16.8524Z" fill="#18152C"/>
<path d="M23.2256 15.5845C23.0988 15.2711 22.8916 14.9854 22.6189 14.7478C22.3461 14.5103 22.0147 14.3267 21.6482 14.2104C20.9028 13.8925 20.0304 13.9952 18.9268 14.1272H18.7418C18.3374 14.1762 18.0311 14.1957 17.7538 14.2152C17.4764 14.2348 17.2049 14.2543 16.9044 14.2934C16.7657 14.4304 16.6329 14.5722 16.5 14.7189C16.9238 14.6387 17.3548 14.588 17.7885 14.5673C18.0658 14.5673 18.3663 14.5233 18.7939 14.4744L18.9846 14.4499C20.0188 14.3278 20.8335 14.2299 21.4634 14.4988C21.7794 14.5988 22.0657 14.7561 22.3024 14.9597C22.539 15.1633 22.7199 15.4082 22.8327 15.6773C23.0415 16.4382 23.1251 17.2198 23.0812 18C23.2133 17.9501 23.3507 17.9108 23.4914 17.8826C23.5296 17.1098 23.4401 16.3363 23.2256 15.5845Z" fill="#E00C19"/>
<path d="M24.402 16.218C24.2797 15.643 23.9696 15.1048 23.5035 14.6587C23.4154 14.5593 23.3274 14.4645 23.251 14.3697C22.6188 13.7945 21.8227 13.3521 20.9314 13.0806L19.2459 13C19.0051 13.1138 18.7525 13.2465 18.5 13.3934H18.7408C19.4182 13.3015 20.1107 13.3095 20.7846 13.4171C21.5871 13.6564 22.3078 14.0463 22.8869 14.5545C22.9691 14.6541 23.0631 14.7536 23.1571 14.8578C23.5793 15.2662 23.8626 15.7562 23.9792 16.2796C24.0736 16.8497 24.1011 17.4258 24.0614 18C24.1965 18 24.3375 18 24.4784 17.9762C24.5235 17.3896 24.498 16.8007 24.402 16.218Z" fill="#406F43"/>
<path d="M28.3405 16.4313V16.3558C28.0778 16.221 27.7964 16.102 27.5 16V16.0702C27.858 16.6861 27.9621 17.3507 27.8027 18C28.0355 17.9706 28.2561 17.91 28.4498 17.8221C28.5431 17.358 28.5062 16.887 28.3405 16.4313Z" fill="#18152C"/>
<path d="M26.4226 16.5026C26.3688 16.1318 26.2688 15.7676 26.1245 15.4169V15.355C25.9642 15.2727 25.8094 15.1852 25.6661 15.0978L25.5 15L25.5343 15.072C25.6088 15.2419 25.6661 15.3499 25.712 15.4425C25.8889 15.7999 26.001 16.1803 26.0444 16.5695C26.1274 17.0435 26.1274 17.526 26.0444 18H26.4512C26.5248 17.5024 26.5151 16.9977 26.4226 16.5026Z" fill="#036291"/>
<path d="M27.1735 16.2494V16.1987L26.5 16V16.0507V16.0972C26.8159 16.5615 26.9701 17.0553 26.954 17.5518C26.954 17.7125 26.9087 17.8604 26.8783 18H27.4232C27.4232 17.8647 27.4685 17.7294 27.4912 17.5772C27.533 17.1274 27.4252 16.6772 27.1735 16.2494Z" fill="#2D2A66"/>
<path d="M26.9853 4.15431C27.1834 4.04513 27.4294 3.99082 27.6786 4.00127C27.9276 4.01172 28.1633 4.08624 28.3424 4.21125L28.4215 4.27694C28.5615 4.42913 28.6178 4.61332 28.5797 4.79376L26.9853 4.15431ZM28.2024 5.80108C27.5147 5.36311 26.8088 4.96018 26.176 4.60104C25.9873 4.72368 25.7986 4.85944 25.6039 4.99084C26.3585 5.38939 27.2043 5.77481 28.0381 6.13394L28.2024 5.80108ZM25.1596 12.0553C25.1596 12.0553 25.1596 12.0247 25.1596 12.0115C24.6849 11.3546 23.62 10.1545 23.2487 9.54574L22.7253 8.74425C22.8148 9.72927 23.1835 10.6906 23.8087 11.5691C23.8451 11.6305 23.8817 11.6874 23.9181 11.7356C24.3928 12.4013 25.1353 13.3167 25.4579 13.9561C25.6406 14.3155 25.7851 14.6846 25.8898 15.0598L26.0298 15.1299L26.0847 15.1517C26.26 14.0745 25.9348 12.9856 25.1596 12.0553ZM22.3359 8.81871C22.2021 8.18803 22.1168 7.50479 22.05 6.88288L21.8065 6.97923V8.39825C21.7345 9.94772 21.9847 11.4963 22.5489 12.9926C22.6645 13.0889 22.7862 13.1765 22.9019 13.2641C22.9019 12.9532 22.9019 12.6422 22.8532 12.3312C23.4617 13.0889 23.9973 13.7196 24.4355 14.2802C24.7215 14.4466 24.9953 14.5956 25.257 14.7182C24.9466 13.724 23.9851 12.6334 22.7741 11.4816C22.6585 10.5049 22.5002 9.5764 22.3359 8.81871ZM27.959 15.9095C28.4824 15.8482 29.0726 15.7999 29.7238 15.7606C29.8029 15.581 29.8941 15.3882 29.9794 15.1956C29.089 15.253 28.2176 15.4142 27.3992 15.673L27.959 15.9095ZM29.176 16.9168C29.1791 16.9445 29.1791 16.9723 29.176 17C29.2552 16.8248 29.3769 16.562 29.5169 16.2467C29.2309 16.2467 28.957 16.2467 28.6892 16.2467C28.8367 16.3233 28.9565 16.424 29.0391 16.5405C29.1217 16.657 29.1644 16.786 29.1639 16.9168H29.176ZM30.9226 10.9867C30.8133 10.8977 30.6975 10.8129 30.5758 10.7326C30.5332 10.7809 30.4662 10.8509 30.4297 10.8991C29.9794 11.4509 29.4804 12.0115 28.9692 12.5327C28.0807 13.4436 27.2409 14.3678 26.4498 15.3182L26.7053 15.419C27.0462 14.9809 27.393 14.543 27.7521 14.105C28.6879 13.0045 29.7484 11.9615 30.9226 10.9867ZM26.9123 15.5021L26.9913 15.5328C27.9942 15.1765 29.0646 14.9285 30.1681 14.797C30.2654 14.5956 30.3567 14.3941 30.4479 14.197C29.113 14.3644 27.8801 14.8196 26.9123 15.5021ZM20.8268 7.32523C20.5406 7.42158 20.2181 7.51356 19.9138 7.60553L19.5 8.0435C19.5224 8.30923 19.565 8.57387 19.6278 8.83623C20.1039 8.3761 20.5118 7.88142 20.8449 7.36027L20.8268 7.32523ZM26.8453 10.194C27.2845 11.3453 27.5035 12.5344 27.4964 13.7284C27.8729 12.8243 27.9835 11.8736 27.8211 10.9371C27.6587 10.0005 27.2269 9.09854 26.5532 8.28877C26.9549 8.50775 27.4052 8.72673 27.8068 8.90193C27.6754 8.76499 27.5653 8.61813 27.4782 8.46395C26.4802 7.70626 25.2144 6.7909 24.1738 5.89744C23.9851 6.00255 23.7843 6.10766 23.5651 6.21278C24.2674 6.88463 25.0853 7.48951 25.9994 8.01284C26.2368 8.59535 26.4315 9.11215 26.6079 9.5764L26.3768 9.30924C25.2805 8.36129 24.2643 7.36677 23.334 6.33103C23.1879 6.40111 23.0479 6.47119 22.8958 6.53688C23.7612 7.97674 25.1201 9.23502 26.8453 10.194ZM24.5511 10.483C25.2507 11.1775 25.8349 11.9287 26.2915 12.7211C26.5795 13.2851 26.7617 13.8742 26.8332 14.4729C27.3869 13.0671 26.7296 11.6086 25.616 10.3035V10.2815C25.5913 10.2465 25.5628 10.2128 25.5309 10.1808C24.7945 9.30486 23.62 8.27125 23.2183 7.72816C22.9323 7.34275 22.6768 6.97923 22.4881 6.69455L22.3055 6.77338C22.6523 8.11539 23.4203 9.38268 24.5511 10.4786V10.483ZM19.8104 9.49318C19.8895 9.70779 19.9747 9.93111 20.0782 10.1677L20.1087 10.2202C20.7578 9.39316 21.2142 8.49509 21.4596 7.56173C20.8244 8.16477 20.2739 8.81177 19.8165 9.49318H19.8104ZM21.4474 8.83185C21.4474 8.83185 21.0032 9.81291 20.5042 10.9122C20.6259 11.0874 20.7536 11.2625 20.8998 11.4334C21.3033 10.5978 21.4911 9.71609 21.4536 8.83185H21.4474ZM28.9813 9.79104C28.7215 9.63742 28.4756 9.47216 28.245 9.2961C28.2815 10.067 28.3241 11.1706 28.4154 12.7298C28.8663 11.7857 29.0606 10.7879 28.9875 9.79104H28.9813ZM27.5939 6.99674C26.7723 6.40549 25.9385 5.84488 25.1596 5.31494C25.0015 5.42005 24.8371 5.52078 24.6728 5.61714L24.5572 5.68284C25.4513 6.30037 26.4208 6.85884 27.4539 7.3515C27.4904 7.2245 27.533 7.11062 27.5939 6.99674ZM29.5656 11.4553C29.7435 11.115 29.8977 10.7685 30.0281 10.4173L29.5047 10.1151C29.4886 10.5621 29.5049 11.0094 29.5534 11.4553H29.5656ZM27.4113 14.8233C28.4142 14.3839 29.5007 14.0519 30.6366 13.8379C30.7401 13.6188 30.8496 13.3999 30.947 13.2071C29.5625 13.4721 28.3242 14.0362 27.3992 14.8233H27.4113ZM28.1233 14.0437C29.0534 13.5224 30.0768 13.0937 31.166 12.7692C31.2593 12.5722 31.3386 12.372 31.4034 12.1692C30.1206 12.6039 28.9941 13.2453 28.1111 14.0437H28.1233ZM29.2552 12.8262C29.6751 12.6116 30.5028 12.2612 31.4826 11.8714C31.5058 11.7861 31.5058 11.6983 31.4826 11.613C31.4506 11.5349 31.4056 11.4599 31.3486 11.3896C30.5484 11.7878 29.8382 12.2723 29.243 12.8262H29.2552Z" fill="#084022"/>
<path d="M25.4162 2.53565C25.4176 2.44612 25.4491 2.35848 25.5075 2.28161C25.8546 2.48772 26.1955 2.67945 26.5 2.8568C26.4427 2.90941 26.3718 2.95166 26.292 2.98061C26.212 3.00958 26.1252 3.02457 26.0373 3.02456C25.9553 3.02587 25.8737 3.01411 25.7976 2.99001C25.7215 2.9659 25.6525 2.92993 25.5944 2.88427C25.5365 2.83861 25.4908 2.7842 25.4601 2.72428C25.4295 2.66437 25.4146 2.60021 25.4162 2.53565ZM13.7572 2.58837H15.2305L15.8942 3.10606H17.5258L17.8242 3.34093C17.7867 3.40558 17.768 3.47599 17.7693 3.54703C17.7693 3.64184 17.8051 3.73451 17.872 3.81333C17.9389 3.89216 18.0339 3.9536 18.1453 3.98988C18.2565 4.02616 18.3789 4.03565 18.4969 4.01716C18.6151 3.99866 18.7235 3.95301 18.8087 3.88597C18.8939 3.81893 18.9518 3.73353 18.9753 3.64054C18.9988 3.54756 18.9868 3.45119 18.9407 3.3636C18.8947 3.27602 18.8166 3.20116 18.7164 3.14849C18.6163 3.09582 18.4987 3.06771 18.3782 3.06771C18.29 3.06733 18.2028 3.08205 18.1224 3.11084L17.6963 2.77531H16.0708L15.4133 2.24805H13.9399L13.0267 1.52906H11.0113L10.5609 1.88376C10.6218 1.99401 10.6948 2.09946 10.7618 2.20971L11.188 1.87418H12.85L13.7572 2.58837ZM15.6811 5.58897C15.5928 5.58861 15.5057 5.60332 15.4254 5.63212L14.4878 4.89874H13.4893L13.1606 5.15758H12.0342C12.0342 5.26782 12.0952 5.38287 12.1195 5.49791H13.3371L13.6659 5.23907H14.2747L15.0844 5.87657C15.0479 5.93976 15.0292 6.00845 15.0297 6.07789C15.0297 6.1727 15.0653 6.26537 15.1322 6.34419C15.1991 6.42302 15.2942 6.48445 15.4055 6.52073C15.5167 6.55701 15.6392 6.5665 15.7572 6.54801C15.8753 6.52951 15.9839 6.48387 16.0689 6.41683C16.1541 6.34979 16.2121 6.26439 16.2356 6.1714C16.259 6.07842 16.247 5.98205 16.201 5.89446C16.1549 5.80688 16.0768 5.73202 15.9767 5.67934C15.8765 5.62668 15.7589 5.59857 15.6385 5.59857L15.6811 5.58897ZM22.5974 4.60156V0.551227C22.4452 0.460161 22.299 0.383463 22.159 0.311561V4.62552C22.0459 4.66209 21.9493 4.72464 21.8821 4.805C21.8148 4.88537 21.7797 4.97984 21.7815 5.0761C21.7815 5.20323 21.8457 5.32514 21.9599 5.41503C22.074 5.50492 22.2289 5.55542 22.3903 5.55542C22.5519 5.55542 22.7067 5.50492 22.8209 5.41503C22.935 5.32514 22.9991 5.20323 22.9991 5.0761C23.0055 4.97355 22.97 4.87208 22.8977 4.78666C22.8253 4.70123 22.7201 4.63635 22.5974 4.60156ZM14.3539 6.47574C14.3539 6.38093 14.3181 6.28826 14.2512 6.20944C14.1843 6.13061 14.0893 6.06918 13.978 6.0329C13.8667 5.99661 13.7444 5.98713 13.6263 6.00562C13.5081 6.02411 13.3997 6.06976 13.3145 6.1368C13.2293 6.20384 13.1714 6.28924 13.1479 6.38223C13.1244 6.47521 13.1364 6.57158 13.1826 6.65917C13.2287 6.74675 13.3066 6.82161 13.4068 6.87428C13.5069 6.92695 13.6246 6.95506 13.7451 6.95506C13.8201 6.95461 13.8943 6.94323 13.9642 6.92151L14.5182 7.35291V7.95686C14.6583 7.95686 14.7983 7.98083 14.9505 7.98562V7.22349L14.293 6.70102C14.3349 6.63059 14.3557 6.55351 14.3539 6.47574ZM19.8334 5.48352C19.7064 5.48292 19.5825 5.51355 19.4788 5.57114C19.375 5.62871 19.2968 5.71036 19.2549 5.80467H18.2199L16.4482 7.19953V8L16.8805 7.96645V7.33852L18.3964 6.145H19.2489C19.2902 6.22374 19.3577 6.29236 19.444 6.34378C19.5304 6.3952 19.6326 6.42755 19.7402 6.43751C19.8476 6.44746 19.9566 6.43466 20.0558 6.40042C20.155 6.36619 20.2407 6.31175 20.3042 6.24272C20.3678 6.17369 20.4068 6.09257 20.4172 6.00772C20.4277 5.92288 20.4092 5.83738 20.3637 5.76002C20.3183 5.68267 20.2474 5.61627 20.1583 5.56767C20.0694 5.51907 19.9657 5.49002 19.8577 5.48352H19.8334ZM12.1682 3.25943C12.2886 3.25943 12.4062 3.23132 12.5064 3.17866C12.6065 3.12598 12.6846 3.05112 12.7307 2.96354C12.7767 2.87595 12.7887 2.77958 12.7652 2.6866C12.7418 2.59362 12.6838 2.50821 12.5986 2.44117C12.5136 2.37414 12.405 2.32849 12.2869 2.30999C12.1689 2.2915 12.0464 2.30099 11.9352 2.33727C11.8239 2.37355 11.7288 2.43498 11.6619 2.51381C11.595 2.59264 11.5594 2.6853 11.5594 2.78011C11.5606 2.84226 11.575 2.90382 11.602 2.96225L11.2976 3.18754C11.3523 3.29778 11.4011 3.41282 11.4558 3.53265L11.8942 3.2163C11.9806 3.24582 12.0739 3.26053 12.1682 3.25943ZM16.9474 5.33973C17.0338 5.33195 17.1171 5.3097 17.1916 5.27448C17.2661 5.23927 17.3302 5.19189 17.3796 5.13554C17.4289 5.07919 17.4622 5.01518 17.4776 4.94781C17.4929 4.88044 17.4896 4.81128 17.4682 4.74497C17.4467 4.67867 17.4074 4.61674 17.353 4.56339C17.2986 4.51002 17.2302 4.46646 17.1526 4.43561C17.0751 4.40477 16.99 4.38737 16.9031 4.38457C16.8163 4.38178 16.7297 4.39366 16.6492 4.41942L15.3524 3.39844H13.1606L12.2534 4.10785H11.6872C11.7298 4.22289 11.7725 4.33314 11.8089 4.45297H12.4177L13.3188 3.73877H15.1453L16.3629 4.69742C16.3354 4.75239 16.321 4.81088 16.3203 4.86998C16.3219 4.93335 16.3394 4.99584 16.3719 5.05383C16.4043 5.11184 16.451 5.16419 16.5094 5.20788C16.5677 5.25156 16.6365 5.28571 16.7116 5.30834C16.7868 5.33097 16.867 5.34164 16.9474 5.33973ZM20.5335 1.24626V0.105453C20.3721 0.146216 20.2152 0.197527 20.0646 0.258833L20.1012 0.905931H19.2853L19.0601 0.728585L18.6765 0.905931L19.0967 1.23667L20.5335 1.24626ZM19.3706 2.4302C19.414 2.52852 19.4969 2.61303 19.6068 2.67097C19.7165 2.72891 19.8474 2.75712 19.9794 2.75135C20.145 2.75135 20.3037 2.69959 20.4207 2.60744C20.5378 2.51531 20.6034 2.39034 20.6034 2.26003C20.6034 2.12973 20.5378 2.00477 20.4207 1.91262C20.3037 1.82049 20.145 1.76873 19.9794 1.76873C19.8474 1.76295 19.7165 1.79116 19.6068 1.8491C19.4969 1.90704 19.414 1.99156 19.3706 2.08988H18.5243L17.678 1.4236L17.2763 1.59137L18.3417 2.4302H19.3706ZM21.1544 0.00479412V3.17316L20.0769 4.02636C19.9627 3.98372 19.8347 3.97003 19.7104 3.98721C19.5861 4.00439 19.4715 4.05157 19.3828 4.12223C19.3229 4.16701 19.2752 4.22091 19.2426 4.28065C19.21 4.34039 19.1933 4.40473 19.1933 4.46974C19.1933 4.53476 19.21 4.5991 19.2426 4.65883C19.2752 4.71858 19.3229 4.77248 19.3828 4.81726C19.4395 4.86365 19.5076 4.90055 19.583 4.92575C19.6583 4.95096 19.7392 4.96395 19.8211 4.96395C19.9029 4.96395 19.984 4.95096 20.0593 4.92575C20.1346 4.90055 20.2026 4.86365 20.2595 4.81726C20.3506 4.74698 20.4113 4.65598 20.4331 4.55708C20.455 4.45819 20.4368 4.35638 20.3813 4.26603L21.5989 3.30737V0.0623127C21.4989 0.0268444 21.3917 0.00574089 21.2823 0L21.1544 0.00479412ZM11.1392 1.17435C11.2713 1.18013 11.4021 1.15192 11.5119 1.09398C11.6217 1.03604 11.7047 0.951522 11.748 0.853204H13.197L12.6674 0.512878H11.7176C11.6742 0.414571 11.5913 0.330045 11.4814 0.272114C11.3717 0.214172 11.2408 0.185957 11.1088 0.191727C10.9474 0.191727 10.7925 0.242229 10.6782 0.332125C10.5641 0.422021 10.5 0.543934 10.5 0.671061C10.5 0.798188 10.5641 0.920101 10.6782 1.01C10.7925 1.09989 10.9474 1.15039 11.1088 1.15039L11.1392 1.17435ZM23.6141 1.17435L23.1819 0.905931V3.82025L24.6492 4.98023L24.9719 4.75015L23.6141 3.68124V1.17435ZM24.5943 1.76393L24.296 1.58658L24.156 1.49551V2.90953L25.7876 4.12223C25.8972 4.04074 26.0128 3.96405 26.1224 3.89215L24.5883 2.76573L24.5943 1.76393Z" fill="#62C1D8"/>
<path d="M13.5114 14.4077H14.9538C14.8249 14.3142 14.6837 14.2207 14.5365 14.1228H13.5114V13.5265C13.4133 13.4731 13.3088 13.4241 13.1985 13.3751V14.1228H12.9161L12.3024 13.6778V13.0058L11.9217 12.8767V13.6911L11.308 14.1361H11.0441V12.632L10.7741 12.5518V14.1228H9.06165V12.2537L8.74859 12.2092V14.1228H8.46635L7.85248 13.6778V12.0934L7.47818 12.0578V13.6911L6.86444 14.1361H6.60656V12.0089H6.29363V14.1228H4.6364V12H4.45228H4.29884V14.1228H4.02266L3.40892 13.6778V12.0846L3.02829 12.1202V13.6911L2.41455 14.1361H2.18131V12.1958H1.86838V14.1228H1.5C1.53688 14.2207 1.57981 14.3142 1.62275 14.4077H1.86838V14.9996C1.97875 15.2666 2.08319 15.5291 2.18131 15.7784V14.4077H2.44524L3.05898 14.8527V16.6328L2.72761 16.8731C2.79828 17.0076 2.91429 17.1269 3.06517 17.2202C3.30515 17.3406 3.57353 17.4281 3.85698 17.4784L4.03491 17.3449H4.31728V17.5496L4.6364 17.5941V17.3582H6.33657V17.6653H6.64949V17.3449H6.90737L7.43511 17.7321C7.58868 17.7321 7.74211 17.7722 7.88317 17.7988L8.49704 17.3538H8.77928V18.0392C8.85909 18.0748 8.93891 18.1059 9.01253 18.146C9.04187 18.1598 9.06865 18.1762 9.09234 18.1949V17.3449H10.7741V20.0151H10.2708C10.3076 20.113 10.3383 20.2064 10.3751 20.3H10.7741V21.2924C10.8525 21.4495 10.9577 21.599 11.0871 21.7374V20.2866H11.3509L11.9648 20.7316V22C12.0986 21.992 12.2283 21.9632 12.3453 21.9154V20.7094L12.959 20.2644H13.2414V20.3934C13.3335 20.0284 13.4193 19.6368 13.5605 19.2719V17.3449H14.4566C14.5118 17.2515 14.5732 17.1579 14.6347 17.0645H13.5298L13.5114 14.4077ZM4.30503 17.0779H4.02266L3.40892 16.6328V14.8527L4.02266 14.4077H4.30503V17.0779ZM6.32432 17.0779H4.6364V14.4077H6.33657L6.32432 17.0779ZM7.49662 16.6328L6.88274 17.0779H6.625V14.4077H6.88274L7.49662 14.8527V16.6328ZM8.75478 17.0779H8.47241L7.85867 16.6328V14.8527L8.47241 14.4077H8.75478V17.0779ZM10.7679 17.0779H9.06165V14.4077H10.7741L10.7679 17.0779ZM11.9402 19.5834L11.3264 20.0284H11.0625V17.3582H11.3264L11.9402 17.8033V19.5834ZM11.9402 16.6462L11.3264 17.0912H11.0625V14.421H11.3264L11.9402 14.866V16.6462ZM13.1678 20.0151H12.8854L12.2717 19.5701V17.7899L12.8854 17.3449H13.1678V20.0151ZM13.1678 17.0779H12.8854L12.2717 16.6328V14.8527L12.8854 14.4077H13.1678V17.0779ZM15.5 14.8527V15.814C15.3896 15.943 15.2852 16.0765 15.1871 16.2012V14.5945L15.5 14.8527Z" fill="#BAE1F7"/>
<path d="M24.1888 5.31002L24.2706 5.25449C25.491 4.47688 26.5305 3.25957 27.5 3.66688C26.916 3.33825 25.4969 2.51437 24.2414 1.76454C22.9857 1.01471 21.9054 0.246371 21.3214 0.246371C19.6569 0.246371 17.9983 2.0978 16.0245 2.0978C14.1497 2.0978 12.2226 -0.466428 11.002 0.0751141C9.78144 0.616661 11.0955 1.92654 11.6911 3.20403C12.3929 4.61938 12.7878 6.11855 12.8591 7.6382C13.924 7.88923 15.0304 8.01096 16.1413 7.99923C17.2061 7.98438 18.2602 7.82792 19.2598 7.53637C21.0487 7.0187 22.715 6.26608 24.1888 5.31002Z" fill="url(#paint0_linear_301_201)"/>
<path d="M11.3128 3.18007C11.2961 3.15484 11.2818 3.12859 11.2702 3.10155C10.6917 1.87467 9.49801 0.647793 10.3201 0C9.71115 0.353342 8.23733 1.22687 6.89145 1.96301C5.54557 2.69913 4.23014 3.35674 4.05346 3.7886C3.51767 5.11854 5.27154 7.04719 4.66257 8.6225C4.05346 10.0947 0.228958 10.8211 0.515282 11.9743C0.801472 13.1276 2.85996 12.5043 4.65642 12.4651C6.65094 12.3725 8.65039 12.5534 10.5699 13C11.2176 12.2309 11.7165 11.387 12.0497 10.4972C12.3819 9.63522 12.5322 8.73444 12.4943 7.8324C12.4228 6.23959 12.0236 4.66741 11.3128 3.18007Z" fill="url(#paint1_linear_301_201)"/>
<path d="M4.46086 12.1922H4.35395C2.75057 12.2534 0.969177 12.7294 0.5 12C0.725669 12.498 1.27793 13.7471 1.7471 14.8784C2.21615 16.0096 2.54873 17.0622 2.99408 17.3199C4.35981 18.0493 7.10924 17.3723 8.73632 18.2414C10.3634 19.1106 9.92391 21.871 11.3432 21.9933C12.7624 22.1156 12.6555 20.5388 13.1247 19.2984C13.6157 17.9142 14.4187 16.6003 15.5 15.4112C14.8151 14.751 13.9982 14.1707 13.0772 13.6904C12.1855 13.2367 11.1985 12.8945 10.1556 12.6771C8.3079 12.2812 6.38262 12.1172 4.46086 12.1922Z" fill="url(#paint2_linear_301_201)"/>
<path d="M13.9184 19.1342V19.2123C13.5132 20.4012 13.5826 21.8611 12.5 21.9667H16.5119C18.069 21.9667 19.5278 22.0953 19.9852 21.8474C21.3225 21.076 21.2992 18.8358 22.8797 17.9222C24.46 17.0086 27.8118 18.2252 28.3965 17.2244C28.9812 16.2236 26.9609 15.7828 25.5425 15.03C23.942 14.2161 22.5286 13.1914 21.363 12C20.3267 12.2922 19.3511 12.7054 18.4685 13.2258C17.6254 13.7388 16.8957 14.3594 16.3091 15.0621C15.2286 16.3029 14.4203 17.6797 13.9184 19.1342Z" fill="url(#paint3_linear_301_201)"/>
<path d="M26.0502 15.1275L26.1414 15.1669C27.5098 15.8056 29.3648 16.1863 29.1824 17C29.4074 16.4969 29.973 15.25 30.5022 14.1256C31.0313 13.0013 31.6456 11.9951 31.4691 11.6101C30.9339 10.4245 28.0998 9.7814 27.4672 8.37267C26.8591 7.0602 29.4499 4.9165 28.3735 4.20338C27.2969 3.49027 26.0867 4.82025 24.6757 5.60773C23.1283 6.51585 21.3784 7.22884 19.5 7.71643C19.5323 8.54887 19.7373 9.37316 20.1082 10.162C20.4729 10.917 21.0115 11.6224 21.7017 12.2488C22.9165 13.377 24.3865 14.3502 26.0502 15.1275Z" fill="url(#paint4_linear_301_201)"/>
<path d="M35.5 0.5H36.5V21.5H35.5V0.5Z" fill="white"/>
<path d="M69.9101 4C66.1594 4 60.8647 4.82144 55.1321 6.35331C50.0091 7.71634 45.1032 9.48054 40.5 11.615C44.9148 10.4258 49.5705 9.78351 54.275 9.71459C60.8525 9.71459 65.5333 11.5528 58.6154 18C79.0165 8.24484 78.4511 4 69.9101 4Z" fill="white"/>
<defs>
<linearGradient id="paint0_linear_301_201" x1="10.0209" y1="1.41277" x2="24.2704" y2="9.41908" gradientUnits="userSpaceOnUse">
<stop offset="0.09" stop-opacity="0.8"/>
<stop offset="0.42" stop-opacity="0"/>
</linearGradient>
<linearGradient id="paint1_linear_301_201" x1="1.87331" y1="13.2307" x2="11.0773" y2="0.54577" gradientUnits="userSpaceOnUse">
<stop offset="0.09" stop-opacity="0.85"/>
<stop offset="0.42" stop-opacity="0"/>
</linearGradient>
<linearGradient id="paint2_linear_301_201" x1="13.1841" y1="21.3905" x2="7.86391" y2="8.86332" gradientUnits="userSpaceOnUse">
<stop offset="0.09" stop-opacity="0.8"/>
<stop offset="0.42" stop-opacity="0"/>
</linearGradient>
<linearGradient id="paint3_linear_301_201" x1="28.1475" y1="15.7095" x2="11.9583" y2="20.0513" gradientUnits="userSpaceOnUse">
<stop offset="0.09" stop-opacity="0.85"/>
<stop offset="0.42" stop-opacity="0"/>
</linearGradient>
<linearGradient id="paint4_linear_301_201" x1="26.3543" y1="3.89276" x2="25.3862" y2="16.7174" gradientUnits="userSpaceOnUse">
<stop offset="0.09" stop-opacity="0.8"/>
<stop offset="0.42" stop-opacity="0"/>
</linearGradient>
</defs>
</svg>
