<svg width="77" height="24" viewBox="0 0 77 24" fill="none" xmlns="http://www.w3.org/2000/svg">
<path d="M9.77438 15.6657L1.87264 3.28479V15.6657H0V0.279923H2.17987L9.50257 11.7794V0.279923H11.3744V15.6657H9.77438ZM16.2447 15.6657V0.279923H18.1173V15.6657H16.2447ZM32.0459 0.800816V2.92424C30.3442 2.32363 29.22 2.00385 27.8917 2.00385C26.1892 2.00385 24.4521 2.48398 24.4521 4.207C24.4521 5.3285 25.2699 5.96988 26.3586 6.33043L29.6619 7.45193C31.262 7.97282 32.5902 9.13509 32.5902 11.4587C32.5902 14.3032 30.5474 15.9466 27.0401 15.9466C25.3376 15.9466 23.8384 15.586 22.34 14.9048V12.6618C23.8723 13.2624 25.303 13.9037 27.0401 13.9037C29.2192 13.9037 30.6498 12.9824 30.6498 11.5394C30.6498 10.2974 29.8321 9.65689 28.7079 9.29634L25.6433 8.29442C23.9755 7.77352 22.5441 6.65202 22.5441 4.2079C22.5448 1.20122 24.9619 0 27.8917 0C29.4918 0 30.82 0.359642 32.0459 0.800816ZM45.8735 0.800816V2.92424C44.171 2.32363 43.0476 2.00385 41.7186 2.00385C40.0169 2.00385 38.279 2.48398 38.279 4.207C38.279 5.3285 39.0967 5.96988 40.1863 6.33043L43.4896 7.45193C45.0897 7.97282 46.4179 9.13509 46.4179 11.4587C46.4179 14.3032 44.3743 15.9466 40.867 15.9466C39.1653 15.9466 37.6661 15.586 36.1669 14.9048V12.6618C37.6992 13.2624 39.1299 13.9037 40.867 13.9037C43.0468 13.9037 44.4775 12.9824 44.4775 11.5394C44.4775 10.2974 43.6598 9.65689 42.5356 9.29634L39.471 8.29442C37.8024 7.77352 36.3717 6.65202 36.3717 4.2079C36.3717 1.20304 38.7895 0.000906266 41.7178 0.000906266C43.3525 0.000906266 44.6469 0.360548 45.8727 0.801721L45.8735 0.800816ZM60.4496 15.6657C60.0854 14.3297 59.6879 13.0065 59.2577 11.6979H52.1398C51.6293 13.2615 51.1865 14.6638 50.9478 15.6657H48.905C50.8801 8.65406 53.6729 1.96308 54.5583 0.279923H56.7721C57.3165 1.28185 60.11 7.45193 62.4254 15.6657H60.4496ZM58.5762 9.69584C57.6568 6.9709 56.6012 4.20609 55.681 2.28287C54.864 4.08561 53.7398 6.9709 52.8205 9.69584H58.5762ZM75.3992 15.6657L67.4982 3.28479V15.6657H65.6256V0.279923H67.8047L75.1274 11.7794V0.279923H77V15.6657H75.3992ZM0.81774 20.8348V21.7969H2.45245V22.5977H0.81774V23.9601H0.03388V20.0738H2.62185V20.8756H0.81774V20.8348ZM9.05905 21.9563C9.05905 23.4392 8.17355 24 7.25417 24C6.33479 24 5.48317 23.4383 5.48317 21.9563C5.48317 20.5938 6.40255 19.9533 7.28805 19.9533C8.10579 19.9932 9.05905 20.5938 9.05905 21.9563ZM6.30014 21.9563C6.30014 22.8377 6.81142 23.1983 7.25417 23.1983C7.7308 23.1983 8.20743 22.8785 8.20743 21.9563C8.20743 21.1953 7.76468 20.7949 7.25417 20.7949C6.74366 20.7949 6.30014 21.2352 6.30014 21.9563ZM14.168 23.9592C13.8954 23.4383 13.6228 22.9972 13.3841 22.7172H12.8397V23.9592H12.0567V20.0729H13.6236C14.2704 20.0729 15.0196 20.3139 15.0196 21.3955C15.0196 21.9961 14.6793 22.4373 14.2019 22.5569C14.6108 23.0778 14.985 23.6793 15.1551 23.9991H14.168V23.9592ZM13.4865 21.9155C13.9293 21.9155 14.1672 21.7552 14.1672 21.3539C14.1672 20.9942 13.9285 20.8339 13.4527 20.8339H12.839V21.9155H13.4865ZM21.7279 20.0331C21.9319 21.3955 22.0682 22.6375 22.1706 23.9194H21.3875C21.3188 22.9266 21.2166 21.9375 21.0811 20.9544C20.8085 21.8358 20.6044 22.7182 20.4004 23.5588H19.6512C19.4464 22.6774 19.2084 21.8367 18.9697 20.9544C18.8681 21.7561 18.7657 22.5578 18.6633 23.9194H17.8809C17.9826 22.5968 18.1196 21.3548 18.3237 20.0331H19.481C19.5834 20.4742 19.9237 21.6764 20.0262 22.2371C20.1278 21.6755 20.4689 20.4733 20.5705 20.0331H21.7279ZM28.2328 22.1565C28.2328 23.3179 27.7901 23.9991 26.6659 23.9991C25.5417 23.9991 25.1336 23.278 25.1336 22.1565V20.0322H25.9167V22.1565C25.9167 22.8776 26.2224 23.1983 26.6651 23.1983C27.1425 23.1983 27.4143 22.8776 27.4143 22.1565V20.0322H28.1974V22.1565H28.2328ZM33.7152 23.1575V23.9592H31.3659V20.0729H32.149V23.1983H33.7152V23.1575ZM38.721 23.2381H37.1202C37.0524 23.4782 36.9839 23.7183 36.95 23.9592H36.1322C36.4726 22.5968 36.95 21.1147 37.3927 20.0729H38.4823C38.978 21.3374 39.4102 22.6351 39.7767 23.9592H38.8912L38.721 23.2381ZM38.4823 22.4772C38.3074 21.8946 38.1143 21.3199 37.9032 20.7542C37.6984 21.3149 37.5283 21.8757 37.3589 22.4763H38.4831L38.4823 22.4772ZM46.9969 20.8348V21.5957H48.6317V22.3567H46.9969V23.1992H48.8365V24H46.2146V20.1137H48.8018V20.9154H46.9969V20.8348ZM57.1109 20.8348V23.9601H56.3286V20.8348H55.2383V20.0331H58.2012V20.8348H57.1109ZM61.9134 20.8348V21.5957H63.5481V22.3567H61.9134V23.1992H63.7521V24H61.1303V20.1137H63.7183V20.9154H61.9134V20.8348ZM68.895 23.2381H67.3288C67.261 23.4782 67.1925 23.7183 67.1594 23.9592H66.3409C66.6812 22.5968 67.1586 21.1147 67.6014 20.0729H68.6917C69.1871 21.3375 69.6191 22.6351 69.9853 23.9592H69.0998L68.895 23.2381ZM68.6909 22.4772C68.5158 21.8946 68.3224 21.3199 68.1111 20.7542C67.9071 21.3149 67.7361 21.8757 67.5667 22.4763L68.6909 22.4772ZM76.3532 20.0331C76.5573 21.3955 76.6928 22.6375 76.796 23.9194H76.0129C75.9442 22.9266 75.842 21.9375 75.7064 20.9544C75.4338 21.8358 75.229 22.7182 75.0249 23.5588H74.2765C74.0717 22.6774 73.8338 21.8367 73.5951 20.9544C73.4934 21.7561 73.3902 22.5578 73.2886 23.9194H72.5394C72.6418 22.5968 72.7781 21.3548 72.9829 20.0331H74.1402C74.2419 20.4742 74.583 21.6764 74.6846 22.2371C74.787 21.6755 75.1281 20.4733 75.2298 20.0331H76.3532Z" fill="white"/>
</svg>
