<svg width="45" height="48" viewBox="0 0 45 48" fill="none" xmlns="http://www.w3.org/2000/svg">
<path d="M44.2247 7.54407L0.774902 7.54647V33.0704L22.5111 48L44.2257 33.0776L44.2247 7.54407Z" fill="black"/>
<path d="M25.5023 28.4243V30.0346C25.5021 30.2034 25.5578 30.3656 25.6577 30.487C25.7068 30.5463 25.7654 30.5937 25.8302 30.6262C25.8949 30.6588 25.9645 30.6759 26.035 30.6766H29.8811V30.0406H26.1086C26.0907 30.0403 26.0736 30.0322 26.0605 30.0178C26.0478 30.0035 26.0398 29.9844 26.0381 29.9638V28.5131C26.0411 28.4884 26.0516 28.4658 26.0677 28.4495C26.0836 28.4335 26.104 28.4249 26.125 28.4255H29.8821V27.7895H26.0513C25.9806 27.7893 25.9105 27.8057 25.8453 27.8376C25.78 27.8695 25.7207 27.9164 25.671 27.9755C25.5694 28.0964 25.5121 28.2592 25.5115 28.4291M24.3348 28.9607H20.9457C20.9285 28.9618 20.9114 28.9566 20.8968 28.9458C20.8821 28.9351 20.8707 28.9193 20.864 28.9007C20.8595 28.8885 20.8571 28.8755 20.8568 28.8623V28.4303C20.8569 28.4097 20.8622 28.3896 20.872 28.3725C20.8818 28.3554 20.8958 28.3421 20.912 28.3343C20.9227 28.3292 20.9342 28.3268 20.9457 28.3271H24.7898V27.7871H20.8558C20.7858 27.7881 20.7167 27.8056 20.6526 27.8386C20.5884 27.8715 20.5307 27.9193 20.4826 27.9791C20.3835 28.0997 20.329 28.2615 20.3313 28.4291V28.8611C20.3293 29.0294 20.3832 29.1921 20.4816 29.3146C20.5298 29.3747 20.5878 29.4229 20.652 29.4564C20.7162 29.49 20.7855 29.5083 20.8558 29.5102H24.2449C24.2562 29.5099 24.2675 29.5123 24.278 29.5172C24.2886 29.5222 24.2982 29.5296 24.3062 29.539C24.3146 29.5483 24.3214 29.5594 24.3262 29.5718C24.3309 29.5841 24.3335 29.5975 24.3338 29.611V30.0454C24.3331 30.0727 24.3232 30.0986 24.3062 30.1174C24.2981 30.1266 24.2885 30.1338 24.2779 30.1385C24.2674 30.1433 24.2561 30.1455 24.2449 30.145H20.3957V30.6838H24.3348C24.4053 30.684 24.475 30.6677 24.54 30.6358C24.605 30.6038 24.6639 30.5569 24.7131 30.4978C24.8147 30.3774 24.8717 30.2148 24.8716 30.0454V29.611C24.8714 29.4419 24.8149 29.2795 24.7141 29.1586C24.6648 29.0994 24.606 29.0523 24.5411 29.0199C24.4761 28.9876 24.4064 28.9707 24.3358 28.9703M19.1699 29.1706C19.1703 29.1971 19.1623 29.2227 19.1474 29.2426C19.1327 29.262 19.1122 29.274 19.0902 29.2762H15.6806V28.4111H19.082C19.0941 28.4114 19.106 28.4146 19.1171 28.4204C19.1281 28.4261 19.1381 28.4344 19.1464 28.4447C19.1628 28.4651 19.172 28.4927 19.173 28.5215L19.1699 29.1706ZM19.1883 29.6866C19.3272 29.6804 19.4583 29.6101 19.5533 29.491C19.6494 29.3709 19.7025 29.2119 19.7015 29.0471V28.4195C19.7011 28.2514 19.645 28.09 19.5451 27.9695C19.4958 27.9108 19.4371 27.8641 19.3724 27.8322C19.3076 27.8003 19.2381 27.7837 19.1679 27.7835H15.15V30.6694H15.6817V29.9098H18.6414C18.7119 29.9102 18.7817 29.927 18.8466 29.9594C18.9116 29.9917 18.9704 30.0389 19.0196 30.0982C19.1207 30.2194 19.1772 30.3822 19.1771 30.5518V30.6658H19.7107C19.7107 30.4621 19.6618 30.2625 19.5697 30.0898C19.4784 29.9181 19.3471 29.7807 19.1914 29.6938M13.9815 29.9302C13.9808 29.9571 13.9717 29.9827 13.9559 30.0022C13.9407 30.0222 13.9195 30.0347 13.8966 30.037H10.6476C10.63 30.0361 10.6132 30.0275 10.6006 30.013C10.5876 29.9984 10.5796 29.9788 10.5781 29.9578V28.5083C10.5807 28.4837 10.5908 28.461 10.6067 28.4447C10.6225 28.4285 10.643 28.4199 10.664 28.4207H13.8834C13.9076 28.4211 13.9308 28.4327 13.9478 28.4531C13.9651 28.4735 13.9743 28.5011 13.9754 28.5299L13.9815 29.9302ZM13.9815 27.7835H10.5863C10.5154 27.7831 10.4452 27.7995 10.3799 27.8317C10.3146 27.8638 10.2554 27.9111 10.206 27.9707C10.1043 28.0915 10.0473 28.2545 10.0475 28.4243V30.0346C10.0486 30.2036 10.1058 30.3655 10.207 30.4858C10.2566 30.5443 10.3155 30.5907 10.3804 30.6224C10.4454 30.6541 10.515 30.6705 10.5853 30.6706H13.9784C14.0486 30.6709 14.1181 30.6546 14.1827 30.6226C14.2473 30.5906 14.3058 30.5437 14.3547 30.4846C14.4554 30.3643 14.5113 30.202 14.5101 30.0334V28.4219C14.5107 28.2546 14.4557 28.0935 14.3567 27.9731C14.3084 27.9142 14.2507 27.8671 14.1868 27.8346C14.1229 27.802 14.0542 27.7847 13.9846 27.7835M8.88816 29.1706C8.88852 29.1971 8.8805 29.2227 8.86567 29.2426C8.85092 29.262 8.83045 29.274 8.80841 29.2762H5.40809V28.4111H8.79717C8.82108 28.4118 8.84382 28.4234 8.86056 28.4435C8.87794 28.4651 8.88714 28.4915 8.88714 28.5203V29.1694L8.88816 29.1706ZM8.88816 27.7835H4.87646V30.6706H5.40809V29.9098H8.88407C8.95452 29.9102 9.02432 29.8939 9.0893 29.8619C9.15428 29.83 9.21313 29.783 9.26234 29.7238C9.36351 29.6037 9.42012 29.4415 9.41978 29.2726V28.4207C9.41961 28.2516 9.36311 28.0892 9.26234 27.9683C9.21294 27.9095 9.15404 27.8629 9.08908 27.8311C9.02413 27.7994 8.95443 27.7832 8.88407 27.7835M40.125 28.3247V27.7847H35.4161V30.673H40.124V30.133H35.9477V29.497H40.124V28.9595H35.9477V28.3247H40.125ZM34.2588 28.9547H31.0322V27.7799H30.5016V30.667H31.0322V29.5894H34.2588V30.667H34.7904V27.7799H34.2588V28.9559V28.9547ZM30.3411 17.626C30.2593 17.8648 30.1183 18.0676 29.9393 18.2116C29.7594 18.3544 29.5478 18.43 29.3321 18.4276C28.6287 18.4276 28.5234 17.7784 28.5234 17.3896V14.847H27.9202V17.29C27.9202 18.94 28.9548 19.0624 29.2728 19.0624C29.6694 19.072 30.0549 18.8944 30.3462 18.5716V18.964H30.9586V14.847H30.3554L30.3411 17.626ZM37.8247 15.2885C37.8094 15.2669 37.4352 14.7702 36.9527 14.7702C36.5274 14.7702 36.1123 15.2597 35.8792 15.6005V14.847H35.2658V18.9712H35.8782V16.5077C36.0315 16.1921 36.4691 15.4733 36.831 15.4733C37.1377 15.4733 37.4444 15.8825 37.4546 15.8861L37.8247 15.2885ZM25.7937 14.7702C24.846 14.7702 24.1314 15.6149 24.1314 16.9001C24.1314 17.7856 24.6323 19.054 25.9716 19.054C26.4766 19.06 26.9674 18.8548 27.36 18.4744L27.3947 18.4336V17.596L27.2076 17.8108C26.879 18.1605 26.4567 18.3646 26.0135 18.388C25.2733 18.388 24.756 17.872 24.756 16.9217H27.4622V16.7717C27.4622 15.7565 26.9408 14.7702 25.7937 14.7702ZM24.8419 16.2641C24.8943 16.0189 25.0179 15.8029 25.1916 15.6533C25.3637 15.5058 25.575 15.4352 25.7876 15.4541C26.5094 15.4541 26.7077 15.9737 26.767 16.2641H24.8419ZM33.1188 14.7702C32.1711 14.7702 31.4565 15.6149 31.4565 16.9001C31.4565 17.7856 31.9564 19.054 33.2967 19.054C33.8018 19.06 34.2925 18.8548 34.6851 18.4744L34.7198 18.4336V17.596L34.5328 17.8108C34.2041 18.1605 33.7818 18.3646 33.3387 18.388C32.5985 18.388 32.0822 17.872 32.0822 16.9217H34.7843V16.7717C34.7843 15.7565 34.2618 14.7702 33.1148 14.7702M32.1681 16.2641C32.2202 16.0185 32.3439 15.802 32.5177 15.6521C32.69 15.5049 32.9013 15.4347 33.1137 15.4541C33.8355 15.4541 34.0338 15.9737 34.0931 16.2641H32.1681ZM23.0559 16.2617H20.8036V14.2194H20.1984V18.9628H20.8036V16.9013H23.0559L23.0538 18.9628H23.6601V14.2194H23.0538L23.0559 16.2629V16.2617ZM12.5032 17.1808L13.0747 15.3965L13.6881 17.1725L12.5032 17.1808ZM13.6359 14.2254H12.4746L10.848 18.9784H11.9215L12.2282 18.046H13.9999L14.326 18.9784H15.3995L13.6349 14.2266L13.6359 14.2254ZM9.61812 18.9496V15.0834H11.0474V14.1834H7.17777V15.0834H8.60497V18.9496H9.61812ZM19.1587 18.9016C18.3796 19.108 17.3798 19.1704 16.659 18.7732C16.0456 18.4504 15.6622 17.674 15.5856 16.9277C15.5375 16.4933 15.5886 16.0517 15.7338 15.6509C15.879 15.2489 16.1121 14.9022 16.4106 14.6478C17.1334 14.0298 18.2805 14.0478 19.0687 14.4786V15.4205C18.4717 15.093 17.5761 14.8998 17.0036 15.4205C16.8267 15.591 16.6912 15.8133 16.611 16.0649C16.5302 16.3177 16.507 16.5909 16.5435 16.8575C16.5801 17.1241 16.6752 17.3749 16.8195 17.5852C16.9647 17.794 17.1528 17.9524 17.3655 18.046C17.6548 18.1492 17.9584 18.1804 18.259 18.1348V17.3668H17.8664V16.4513H19.1556V18.9064L19.1587 18.9016Z" fill="white"/>
<path d="M22.0254 22.9729H14.2739V23.8296H22.0254V22.9717V22.9729Z" fill="#007E53"/>
<path d="M30.7276 22.9729H22.9741V23.8296H30.7266V22.9717L30.7276 22.9729Z" fill="#D5001C"/>
<path d="M44.2247 0L0.774902 0.00239988V6.40048L44.2247 6.40768V0Z" fill="black"/>
<path d="M9.21338 1.76148H10.6201V2.26425H9.67753V2.96622H10.5383V3.43419H9.67753V4.64613H9.21747L9.2144 1.76148H9.21338ZM10.9248 3.19661C10.9248 2.01586 11.1426 1.71228 11.8572 1.71228C12.5708 1.71228 12.7885 2.01586 12.7885 3.19661C12.7885 4.33175 12.6066 4.69653 11.8572 4.69653C11.1078 4.69653 10.9248 4.33175 10.9248 3.19661ZM12.305 3.18701C12.305 2.35305 12.2477 2.21505 11.8572 2.21505C11.4656 2.21505 11.4094 2.35305 11.4094 3.18701C11.4094 4.14096 11.4677 4.24895 11.8572 4.24895C12.2457 4.24895 12.305 4.14096 12.305 3.18701ZM13.1924 1.76148H14.0624C14.5674 1.76148 14.7985 1.97627 14.7985 2.68903C14.7985 3.2242 14.6615 3.47139 14.3906 3.54819L14.869 4.64853H14.3578L13.9428 3.64778H13.6514V4.64853H13.1913L13.1924 1.76148ZM13.6524 2.26425V3.17981H13.998C14.2331 3.17981 14.3169 3.13781 14.3169 2.71183C14.3169 2.32425 14.2352 2.26785 13.9847 2.26785L13.6524 2.26425ZM15.2013 4.64613L15.3107 1.76148H15.8586L16.3698 3.68138L16.8585 1.76148H17.4075L17.5302 4.64613H17.0824L17.0078 2.75023L16.5089 4.64973H16.193L15.6889 2.74903L15.6215 4.64973L15.2013 4.64613ZM17.9718 1.76148H18.4319V3.72938C18.4319 4.12416 18.5505 4.24895 18.8347 4.24895C19.1179 4.24895 19.2385 4.12416 19.2385 3.73058V1.76148H19.6986V3.71858C19.6986 4.36295 19.4686 4.69653 18.8347 4.69653C18.1998 4.69653 17.9667 4.36295 17.9667 3.71858L17.9718 1.76148ZM20.1985 1.76148H20.6586V4.20096H21.5869V4.64613H20.1944L20.1985 1.76148ZM22.6021 1.76148H23.1746L23.8728 4.64613H23.3944L23.2656 4.09656H22.4569L22.3311 4.64613H21.9028L22.6021 1.76148ZM22.5653 3.63818H23.1552L22.8566 2.35425L22.5653 3.63818ZM24.9678 1.76148H26.397V2.26425H25.4319V2.96622H26.3163V3.43419H25.4319V4.20216H26.397V4.64613H24.9678V1.76148ZM27.3979 1.76148H29.0848V2.26425H28.4714V4.64613H28.0113V2.26425H27.3979V1.76148ZM29.4692 1.76148H30.8994V2.26425H29.9333V2.96622H30.8197V3.43419H29.9354V4.20216H30.9005V4.64613H29.4702L29.4692 1.76148ZM31.9218 1.76148H32.4943L33.1926 4.64613H32.7141L32.5853 4.09656H31.7766L31.6509 4.64613H31.2225L31.9218 1.76148ZM31.8829 3.63818H32.481L32.1743 2.35425L31.8829 3.63818ZM33.5115 4.64613L33.6189 1.76148H34.1638L34.676 3.68138L35.1657 1.76148H35.7137L35.8353 4.64613H35.3876L35.3129 2.75023L34.814 4.64973H34.4981L33.9941 2.74903L33.9266 4.64973L33.5115 4.64613Z" fill="white"/>
</svg>
