<svg width="36" height="36" viewBox="0 0 36 36" fill="none" xmlns="http://www.w3.org/2000/svg">
<path d="M10.125 11.25C10.125 13.3386 10.9547 15.3416 12.4315 16.8185C13.9084 18.2953 15.9114 19.125 18 19.125C20.0886 19.125 22.0916 18.2953 23.5685 16.8185C25.0453 15.3416 25.875 13.3386 25.875 11.25C25.875 9.16142 25.0453 7.15838 23.5685 5.68153C22.0916 4.20469 20.0886 3.375 18 3.375C15.9114 3.375 13.9084 4.20469 12.4315 5.68153C10.9547 7.15838 10.125 9.16142 10.125 11.25ZM29.25 32.625H5.625C5.32663 32.625 5.04048 32.5065 4.82951 32.2955C4.61853 32.0845 4.5 31.7984 4.5 31.5V28.125C4.5 26.6332 5.09263 25.2024 6.14752 24.1475C7.20242 23.0926 8.63316 22.5 10.125 22.5H25.875C27.3668 22.5 28.7976 23.0926 29.8525 24.1475C30.9074 25.2024 31.5 26.6332 31.5 28.125V31.5C31.5 31.7984 31.3815 32.0845 31.1705 32.2955C30.9595 32.5065 30.6734 32.625 30.375 32.625H29.25Z" fill="black"/>
</svg>
