<svg width="32" height="30" viewBox="0 0 32 30" fill="none" xmlns="http://www.w3.org/2000/svg">
<g clip-path="url(#clip0_317_1054)">
<path fill-rule="evenodd" clip-rule="evenodd" d="M0 0H32V30H0V0Z" fill="#229E45"/>
<path fill-rule="evenodd" clip-rule="evenodd" d="M16.07 27.25L31.145 15.0188L15.98 2.75L0.85498 15.0437L16.07 27.25Z" fill="#F8E509"/>
<path fill-rule="evenodd" clip-rule="evenodd" d="M22.6399 15C22.6399 19.3937 19.7849 22.9562 16.2599 22.9562C15.0003 22.9538 13.7695 22.4845 12.7231 21.6078C11.6768 20.7311 10.8619 19.4863 10.3814 18.0308C9.901 16.5752 9.77657 14.9743 10.0239 13.4304C10.2712 11.8865 10.8792 10.4689 11.7709 9.35679C12.6627 8.24472 13.7982 7.4881 15.0339 7.18258C16.2696 6.87706 17.5501 7.03637 18.7134 7.64035C19.8767 8.24434 20.8706 9.26589 21.5695 10.5759C22.2684 11.8858 22.6409 13.4254 22.6399 15Z" fill="#2B49A3"/>
<path fill-rule="evenodd" clip-rule="evenodd" d="M14.1651 19.7687L13.9651 19.6249L13.7651 19.7499L13.8101 19.4687L13.6501 19.2562L13.8751 19.2249L13.9851 18.9749L14.0801 19.2374L14.3001 19.2874L14.1351 19.4749M18.4351 21.1187L18.2401 20.9749L18.0401 21.0999L18.0801 20.8187L17.9251 20.6124L18.1501 20.5812L18.2551 20.3249L18.3551 20.5874L18.5751 20.6374L18.4051 20.8312M16.5951 18.9562L16.4251 18.8312L16.2501 18.9437L16.2901 18.6999L16.1501 18.5187L16.3501 18.4937L16.4401 18.2687L16.5201 18.4999L16.7151 18.5437L16.5651 18.7124M20.9151 18.1812L20.7451 18.0562L20.5701 18.1687L20.6101 17.9249L20.4751 17.7499L20.6701 17.7249L20.7601 17.5062L20.8401 17.7312L21.0301 17.7749L20.8851 17.9374M16.5201 16.5624L16.3201 16.4249L16.1201 16.5499L16.1601 16.2624L16.0051 16.0562L16.2301 16.0249L16.3351 15.7687L16.4351 16.0312L16.6551 16.0812L16.4851 16.2812M11.2551 14.0937L11.0551 13.9562L10.8551 14.0812L10.9051 13.7937L10.7401 13.5874L10.9701 13.5562L11.0701 13.2999L11.1701 13.5624L11.3901 13.6124L11.2251 13.8062M11.8901 17.3812L11.6901 17.2374L11.4901 17.3624L11.5351 17.0812L11.3751 16.8749L11.6001 16.8374L11.7051 16.5874L11.8051 16.8499L12.0251 16.8999L11.8601 17.0937M18.4601 12.8874L18.2801 12.7624L18.1001 12.8749L18.1401 12.6249L18.0001 12.4374L18.2001 12.4062L18.2951 12.1812L18.3801 12.4187L18.5801 12.4624L18.4301 12.6312M18.0951 15.0249L17.9601 14.9249L17.8151 15.0124L17.8451 14.8124L17.7351 14.6687L17.8951 14.6437L17.9701 14.4687L18.0351 14.6562L18.1851 14.6874L18.0751 14.8249M10.9651 17.9749L10.8301 17.8812L10.6951 17.9624L10.7251 17.7749L10.6201 17.6374L10.7701 17.6124L10.8401 17.4437L10.9051 17.6187L11.0551 17.6562L10.9401 17.7812M20.9501 18.7374L20.8401 18.6687L20.7301 18.7312L20.7551 18.5874L20.6701 18.4874L20.7901 18.4687L20.8501 18.3437L20.9001 18.4687L21.0251 18.4999L20.9301 18.5937" fill="#FFFFEF"/>
<path fill-rule="evenodd" clip-rule="evenodd" d="M10.9651 17.9751L10.8301 17.8813L10.6951 17.9626L10.7251 17.7751L10.6201 17.6376L10.7701 17.6126L10.8401 17.4438L10.9051 17.6188L11.0551 17.6563L10.9401 17.7813" fill="#FFFFEF"/>
<path fill-rule="evenodd" clip-rule="evenodd" d="M10.9651 17.9749L10.8301 17.8812L10.6951 17.9624L10.7251 17.7749L10.6201 17.6374L10.7701 17.6124L10.8401 17.4437L10.9051 17.6187L11.0551 17.6562L10.9401 17.7812M13.0551 17.9687L12.9251 17.8812L12.7901 17.9624L12.8201 17.7749L12.7151 17.6374L12.8651 17.6124L12.9351 17.4437L13.0001 17.6187L13.1501 17.6499L13.0351 17.7812M12.7951 18.8437L12.6651 18.7499L12.5301 18.8374L12.5601 18.6499L12.4551 18.5062L12.6051 18.4812L12.6751 18.3124L12.7401 18.4874L12.8901 18.5249L12.7751 18.6499M17.1451 17.2624L17.0151 17.1624L16.8751 17.2499L16.9051 17.0624L16.8051 16.9187L16.9551 16.8999L17.0251 16.7312L17.0851 16.9062L17.2351 16.9374L17.1251 17.0687M15.8701 17.2562L15.7351 17.1624L15.6001 17.2499L15.6301 17.0624L15.5301 16.9187L15.6801 16.8999L15.7501 16.7249L15.8101 16.9062L15.9601 16.9374L15.8501 17.0687M12.4101 16.7062L12.3251 16.6437L12.2401 16.6937L12.2601 16.5749L12.1951 16.4874L12.2901 16.4749L12.3301 16.3687L12.3701 16.4812L12.4651 16.4999L12.3951 16.5812M20.7851 19.4187L20.6551 19.3249L20.5201 19.4124L20.5501 19.2249L20.4451 19.0812L20.5951 19.0562L20.6651 18.8874L20.7301 19.0624L20.8801 19.0999L20.7651 19.2249M19.7251 19.5999L19.6151 19.5124L19.5001 19.5874L19.5251 19.4249L19.4401 19.3124L19.5651 19.2937L19.6251 19.1499L19.6751 19.2999L19.8001 19.3249L19.7051 19.4374M20.2251 19.5812L20.1251 19.5062L20.0201 19.5687L20.0401 19.4249L19.9601 19.3187L20.0751 19.2999L20.1301 19.1749L20.1801 19.2999L20.2951 19.3312L20.2101 19.4312M21.6651 18.0062L21.5651 17.9437L21.4651 18.0062L21.4901 17.8624L21.4101 17.7562L21.5251 17.7374L21.5751 17.6124L21.6251 17.7437L21.7301 17.7687L21.6501 17.8687M19.7101 20.4812L19.5851 20.3937L19.4501 20.4687L19.4801 20.2937L19.3801 20.1687L19.5301 20.1499L19.5951 19.9937L19.6551 20.1562L19.8051 20.1874L19.6901 20.3062M19.7201 21.1937L19.6001 21.1062L19.4801 21.1874L19.5101 21.0124L19.4151 20.8874L19.5501 20.8624L19.6101 20.7062L19.6651 20.8687L19.8001 20.8999L19.7001 21.0249M18.7501 19.5812L18.6551 19.5062L18.5551 19.5687L18.5751 19.4312L18.5001 19.3249L18.6101 19.3124L18.6601 19.1874L18.7101 19.3124L18.8201 19.3374L18.7401 19.4374M17.8501 19.5812L17.7501 19.5062L17.6501 19.5687L17.6751 19.4312L17.5951 19.3249L17.7101 19.3124L17.7601 19.1874L17.8101 19.3124L17.9151 19.3374L17.8351 19.4374M16.3151 17.8999L16.2151 17.8312L16.1151 17.8937L16.1401 17.7499L16.0601 17.6499L16.1701 17.6312L16.2201 17.5062L16.2701 17.6312L16.3801 17.6624L16.3001 17.7562M16.4851 21.3187L16.4051 21.2624L16.3151 21.3187L16.3351 21.1937L16.2701 21.1062L16.3651 21.0937L16.4101 20.9874L16.4501 21.0999L16.5451 21.1187L16.4751 21.1999M14.1651 15.7874L13.9651 15.6437L13.7651 15.7687L13.8101 15.4874L13.6501 15.2812L13.8751 15.2437L13.9851 14.9937L14.0801 15.2562L14.3001 15.3062L14.1351 15.4999" fill="#FFFFEF"/>
<path fill-rule="evenodd" clip-rule="evenodd" d="M22.2199 17.8624C22.3438 17.4606 22.4408 17.0467 22.5099 16.6249C19.1199 12.9061 15.3449 10.9999 10.5749 11.3936C10.4019 11.8121 10.2596 12.2493 10.1499 12.6999C15.7999 12.0249 19.9499 15.1499 22.2199 17.8624Z" fill="white"/>
<path d="M20.6999 15.775L20.8149 15.8562C20.7977 15.8987 20.7925 15.9471 20.7999 15.9937C20.8116 16.039 20.8366 16.077 20.8699 16.1C20.9049 16.1313 20.9399 16.15 20.9699 16.1437C20.9999 16.1437 21.0199 16.125 21.0349 16.1C21.0436 16.0834 21.0472 16.0634 21.0449 16.0438C21.0408 16.0207 21.0322 15.9992 21.0199 15.9812C21.0099 15.9625 20.9849 15.9187 20.9449 15.8687C20.9038 15.8157 20.873 15.7516 20.8549 15.6812C20.8424 15.628 20.8457 15.571 20.864 15.5205C20.8824 15.47 20.9146 15.4295 20.9549 15.4062C20.9913 15.3873 21.0315 15.3829 21.0699 15.3938C21.1169 15.4073 21.1612 15.4328 21.1999 15.4688C21.2699 15.5312 21.3149 15.5937 21.3299 15.6687C21.3368 15.7038 21.3377 15.7403 21.3326 15.7759C21.3274 15.8114 21.3163 15.8452 21.2999 15.875L21.1799 15.7812C21.1949 15.7438 21.1999 15.7063 21.1899 15.675C21.1849 15.6438 21.1649 15.6125 21.1299 15.5875C21.1042 15.5617 21.0728 15.5464 21.0399 15.5437C21.0308 15.5434 21.0219 15.5461 21.0139 15.5516C21.006 15.5571 20.9994 15.5652 20.9949 15.575C20.9849 15.5937 20.9849 15.6125 20.9899 15.6375C20.9949 15.6625 21.0199 15.7125 21.0699 15.775C21.1199 15.8375 21.1499 15.8937 21.1699 15.9312C21.1878 15.9722 21.1958 16.0187 21.1932 16.0652C21.1905 16.1118 21.1772 16.1564 21.1549 16.1938C21.1315 16.2362 21.0984 16.2689 21.0599 16.2875C21.0224 16.3091 20.9805 16.3156 20.9399 16.3062C20.8949 16.2937 20.8499 16.2688 20.7999 16.225C20.7249 16.1625 20.6799 16.0937 20.6649 16.0187C20.6486 15.9337 20.6594 15.8441 20.6949 15.7688L20.6999 15.775ZM20.1199 15.3L20.2449 15.3813C20.2294 15.4244 20.2259 15.4728 20.2349 15.5188C20.2477 15.5616 20.2726 15.5972 20.3049 15.6187C20.3449 15.65 20.3749 15.6625 20.4049 15.6562C20.4349 15.6562 20.4549 15.6375 20.4699 15.6062C20.4775 15.5914 20.481 15.5738 20.4799 15.5562C20.4799 15.5375 20.4699 15.5125 20.4549 15.4937C20.4293 15.4551 20.4026 15.4176 20.3749 15.3813C20.3199 15.3125 20.2849 15.2563 20.2749 15.2063C20.2667 15.1741 20.2643 15.1401 20.2677 15.1066C20.2712 15.0731 20.2805 15.041 20.2949 15.0125C20.3139 14.9739 20.3418 14.9434 20.3749 14.925C20.4093 14.9052 20.4476 14.8987 20.4849 14.9062C20.5312 14.916 20.5754 14.9372 20.6149 14.9688C20.6899 15.0312 20.7349 15.0938 20.7499 15.1625C20.759 15.1976 20.762 15.2348 20.7585 15.2715C20.7551 15.3082 20.7453 15.3435 20.7299 15.375L20.6049 15.2875C20.6199 15.2438 20.6249 15.2125 20.6149 15.1812C20.6049 15.15 20.5849 15.1188 20.5499 15.0938C20.5222 15.0689 20.489 15.0558 20.4549 15.0562C20.4467 15.0569 20.4388 15.0602 20.4318 15.0656C20.4248 15.0711 20.419 15.0786 20.4149 15.0875C20.4049 15.1062 20.4049 15.125 20.4099 15.15C20.4149 15.175 20.4449 15.225 20.4949 15.2875C20.5449 15.35 20.5799 15.4 20.5949 15.4375C20.6149 15.4767 20.6256 15.5222 20.6256 15.5688C20.6256 15.6153 20.6149 15.6608 20.5949 15.7C20.5734 15.7436 20.5421 15.7784 20.5049 15.8C20.4674 15.8216 20.4255 15.8281 20.3849 15.8188C20.3335 15.8079 20.2842 15.7845 20.2399 15.75C20.1753 15.7069 20.1255 15.6358 20.0999 15.55C20.0806 15.4666 20.0878 15.377 20.1199 15.3ZM19.4099 15.0625L19.7749 14.3125L20.2149 14.6562L20.1549 14.7812L19.8349 14.5312L19.7549 14.7L20.0549 14.9312L19.9899 15.0562L19.6899 14.825L19.5899 15.0312L19.9249 15.2812L19.8649 15.4062L19.4149 15.0625H19.4099ZM18.3749 14L18.4299 13.875L18.6999 14.0437L18.5749 14.3562C18.5349 14.3687 18.4849 14.375 18.4249 14.3687C18.3673 14.3608 18.3114 14.3396 18.2599 14.3062C18.1994 14.2694 18.1477 14.2134 18.1099 14.1438C18.0755 14.0791 18.0581 14.0026 18.0599 13.925C18.0625 13.8442 18.0795 13.7652 18.1099 13.6938C18.14 13.6186 18.1847 13.5541 18.2399 13.5063C18.2928 13.4606 18.3557 13.4365 18.4199 13.4375C18.4699 13.4375 18.5199 13.4562 18.5799 13.5C18.6599 13.5438 18.7099 13.6063 18.7349 13.675C18.7609 13.7432 18.7662 13.821 18.7499 13.8938L18.6149 13.8438C18.6232 13.8019 18.6196 13.7577 18.6049 13.7188C18.5899 13.6813 18.5649 13.6563 18.5249 13.6313C18.5016 13.6146 18.4757 13.6043 18.449 13.6011C18.4223 13.5979 18.3953 13.6018 18.3699 13.6125C18.3199 13.6313 18.2749 13.6875 18.2399 13.775C18.2049 13.8625 18.1899 13.9437 18.2049 14.0125C18.2118 14.0451 18.2243 14.0754 18.2416 14.1013C18.2589 14.1273 18.2805 14.1481 18.3049 14.1625C18.3299 14.1813 18.3599 14.1938 18.3899 14.1938C18.4197 14.1994 18.4501 14.1994 18.4799 14.1938L18.5199 14.0938L18.3749 14ZM13.8649 12.6062L13.9649 11.7312L14.1749 11.775L14.2299 12.3875L14.4249 11.825L14.6349 11.8625L14.5349 12.725L14.3999 12.7L14.4849 12.0188L14.2649 12.675L14.1299 12.65L14.0749 11.9438L13.9949 12.6313L13.8649 12.6062ZM13.1599 12.5L13.2249 11.625L13.7399 11.6875L13.7299 11.8375L13.3549 11.7937L13.3399 11.9812L13.6899 12.025L13.6749 12.175L13.3249 12.1313L13.3099 12.3687L13.6999 12.4125L13.6899 12.5625L13.1599 12.5Z" fill="#309E3A"/>
<path d="M10.8249 11.9563C10.8249 11.8626 10.8399 11.7938 10.8599 11.7313C10.8774 11.6869 10.9011 11.6467 10.9299 11.6126C10.9556 11.5803 10.9862 11.5548 11.0199 11.5376C11.0699 11.5188 11.1199 11.5063 11.1699 11.5063C11.2749 11.5063 11.3549 11.5563 11.4199 11.6313C11.4509 11.6791 11.4739 11.7341 11.4876 11.7932C11.5013 11.8522 11.5055 11.914 11.4999 11.9751C11.4999 12.1126 11.4649 12.2251 11.3999 12.3063C11.3665 12.3449 11.327 12.3743 11.2839 12.3926C11.2409 12.4109 11.1952 12.4177 11.1499 12.4126C11.1052 12.4132 11.0609 12.4024 11.0197 12.3809C10.9784 12.3594 10.9411 12.3277 10.9099 12.2876C10.8477 12.1955 10.8171 12.0765 10.8249 11.9563Z" fill="#309E3A"/>
<path d="M10.97 11.9564C10.97 12.0501 10.985 12.1251 11.02 12.1814C11.055 12.2314 11.1 12.2626 11.16 12.2626C11.1859 12.2649 11.212 12.2599 11.2362 12.248C11.2604 12.2361 11.2822 12.2176 11.3 12.1939C11.335 12.1439 11.35 12.0689 11.355 11.9626C11.355 11.8626 11.345 11.7876 11.305 11.7376C11.2887 11.7124 11.2681 11.6921 11.2448 11.678C11.2214 11.664 11.1959 11.6566 11.17 11.6564C11.1437 11.6553 11.1175 11.6615 11.0933 11.6744C11.0691 11.6874 11.0475 11.7068 11.03 11.7314C10.99 11.7814 10.975 11.8564 10.97 11.9564Z" fill="#F7FFFF"/>
<path d="M11.6499 12.4062L11.6599 11.5312H11.9599C12.0349 11.5312 12.0849 11.5437 12.1199 11.5625C12.1549 11.575 12.1799 11.6063 12.1999 11.6438C12.2199 11.6813 12.2299 11.7313 12.2299 11.7875C12.2303 11.8476 12.2124 11.9057 12.1799 11.95C12.1429 11.9933 12.0954 12.0197 12.0449 12.025L12.1199 12.1C12.1399 12.125 12.1649 12.175 12.1949 12.2437L12.2799 12.4187H12.1099L12.0099 12.2188L11.9399 12.0938C11.9278 12.0766 11.9123 12.0636 11.8949 12.0562C11.8722 12.048 11.8486 12.0437 11.8249 12.0437H11.7949V12.4062H11.6499Z" fill="#309E3A"/>
<path d="M11.7998 11.9062H11.8998C11.9698 11.9062 12.0148 11.9062 12.0298 11.8937C12.0448 11.8937 12.0598 11.8749 12.0698 11.8624C12.0798 11.8499 12.0848 11.8187 12.0848 11.7999C12.0848 11.7624 12.0798 11.7374 12.0648 11.7249C12.0548 11.7062 12.0348 11.6937 12.0148 11.6874H11.9148L11.7998 11.6812V11.8999V11.9062Z" fill="white"/>
<path d="M12.45 11.575L12.71 11.5937C12.765 11.5937 12.81 11.6 12.84 11.6125C12.879 11.6301 12.9135 11.6603 12.94 11.7C12.9688 11.7436 12.9894 11.7949 13 11.85C13.015 11.9062 13.02 11.975 13.015 12.0562C13.015 12.12 13.0065 12.1833 12.99 12.2437C12.97 12.3062 12.94 12.3562 12.905 12.3937C12.8759 12.4237 12.8417 12.4451 12.805 12.4562C12.775 12.4687 12.73 12.4687 12.68 12.4687L12.415 12.45L12.45 11.575Z" fill="#309E3A"/>
<path d="M12.5851 11.7312L12.5601 12.3125H12.7501C12.7751 12.3125 12.7951 12.3 12.8101 12.2812C12.8251 12.2625 12.8401 12.2375 12.8501 12.2C12.8601 12.1625 12.8701 12.1062 12.8701 12.0375L12.8651 11.8812C12.8579 11.8482 12.8441 11.8181 12.8251 11.7937C12.8085 11.7728 12.7878 11.7577 12.7651 11.75C12.7272 11.7394 12.6888 11.7332 12.6501 11.7312H12.5851Z" fill="white"/>
<path d="M15.8799 13.1376L16.0449 12.2876L16.2649 12.3501L16.4249 12.4126C16.4599 12.4376 16.4899 12.4751 16.5049 12.5313C16.5249 12.5813 16.5249 12.6376 16.5149 12.7063C16.5049 12.7563 16.4899 12.8001 16.4649 12.8313C16.4465 12.8588 16.4236 12.8809 16.3977 12.896C16.3718 12.9111 16.3435 12.9189 16.3149 12.9188C16.2799 12.9188 16.2299 12.9063 16.1649 12.8876L16.0799 12.8563L16.0199 13.1813L15.8799 13.1376Z" fill="#309E3A"/>
<path d="M16.1499 12.4751L16.1099 12.7126L16.1849 12.7376C16.2349 12.7501 16.2749 12.7626 16.2949 12.7563C16.3143 12.753 16.3324 12.7421 16.3468 12.7254C16.3611 12.7086 16.3709 12.6866 16.3749 12.6626C16.3749 12.6313 16.3749 12.6063 16.3649 12.5813C16.3539 12.5559 16.3362 12.5361 16.3149 12.5251L16.2199 12.4938L16.1549 12.4751H16.1499Z" fill="white"/>
<path d="M16.53 13.3812L16.765 12.5562L17.04 12.6812C17.115 12.7124 17.16 12.7437 17.19 12.7687C17.215 12.7999 17.235 12.8312 17.24 12.8812C17.245 12.9312 17.25 12.9749 17.24 13.0249C17.22 13.0874 17.19 13.1312 17.15 13.1624C17.11 13.1874 17.06 13.1937 17 13.1812C17.02 13.2124 17.04 13.2437 17.05 13.2812L17.09 13.4499L17.12 13.6437L16.965 13.5749L16.915 13.3499C16.9059 13.299 16.8943 13.2489 16.88 13.1999C16.8734 13.1805 16.8631 13.1633 16.85 13.1499C16.84 13.1312 16.82 13.1187 16.785 13.1062L16.76 13.0937L16.66 13.4437L16.53 13.3812Z" fill="#309E3A"/>
<path d="M16.7999 12.9624L16.8949 13.0061C16.9599 13.0374 16.9999 13.0499 17.0199 13.0499C17.0349 13.0499 17.0499 13.0499 17.0649 13.0311C17.0799 13.0186 17.0899 12.9999 17.0949 12.9749C17.1049 12.9499 17.1049 12.9249 17.0949 12.8999C17.0875 12.8756 17.0733 12.8556 17.0549 12.8436L16.9549 12.7999L16.8549 12.7561L16.7949 12.9624H16.7999Z" fill="white"/>
<path d="M17.3501 13.35C17.3673 13.2768 17.3962 13.2087 17.4351 13.15C17.4604 13.1122 17.4908 13.0805 17.5251 13.0562C17.5561 13.0343 17.5899 13.0195 17.6251 13.0125C17.6751 13.0125 17.7251 13.0125 17.7801 13.0375C17.8248 13.0513 17.8666 13.0768 17.9028 13.1124C17.939 13.1479 17.9688 13.1927 17.9901 13.2437C18.0301 13.3437 18.0301 13.4625 18.0001 13.6C17.9753 13.7181 17.9142 13.8192 17.8301 13.8812C17.7551 13.9375 17.6651 13.9437 17.5701 13.9062C17.5255 13.892 17.4838 13.8663 17.4476 13.8308C17.4115 13.7953 17.3816 13.7507 17.3601 13.7C17.34 13.6453 17.3289 13.5863 17.3271 13.5262C17.3254 13.4661 17.3332 13.4062 17.3501 13.35Z" fill="#309E3A"/>
<path d="M17.4901 13.4C17.4701 13.4938 17.4651 13.575 17.4901 13.6375C17.5151 13.7 17.5501 13.7375 17.6051 13.7625C17.6551 13.7813 17.7051 13.775 17.7551 13.7375C17.8051 13.7063 17.8351 13.6375 17.8601 13.5375C17.8851 13.4438 17.8851 13.3688 17.8601 13.3063C17.8502 13.2766 17.8352 13.25 17.8162 13.2284C17.7972 13.2068 17.7746 13.1907 17.7501 13.1813C17.7255 13.1706 17.6993 13.1668 17.6734 13.1701C17.6475 13.1733 17.6225 13.1835 17.6001 13.2C17.5501 13.2375 17.5151 13.3 17.4901 13.4Z" fill="white"/>
<path d="M18.7151 14.5687L19.0351 13.7937L19.3001 13.9625C19.35 13.9924 19.3957 14.0325 19.4351 14.0812C19.4601 14.1125 19.4751 14.15 19.4751 14.2C19.4751 14.25 19.4751 14.2937 19.4551 14.3375C19.4359 14.3936 19.4 14.4384 19.3551 14.4625C19.3051 14.475 19.2551 14.475 19.2001 14.45C19.2201 14.4875 19.2301 14.525 19.2401 14.5562C19.2501 14.5937 19.2551 14.65 19.2601 14.7312L19.2701 14.9312L19.1201 14.8375L19.1001 14.6062C19.0977 14.5538 19.0927 14.5016 19.0851 14.45C19.0817 14.4266 19.073 14.4049 19.0601 14.3875L19.0001 14.3437L18.9751 14.325L18.8401 14.65L18.7151 14.5687Z" fill="#309E3A"/>
<path d="M19.0251 14.2L19.1201 14.2625C19.1801 14.3 19.2201 14.325 19.2351 14.325C19.2501 14.325 19.2701 14.325 19.2851 14.3125C19.3001 14.3063 19.3101 14.2875 19.3201 14.2625C19.3301 14.2375 19.3351 14.2125 19.3301 14.1875C19.324 14.1626 19.3117 14.1408 19.2951 14.125C19.2659 14.1025 19.2359 14.0817 19.2051 14.0625L19.1051 14L19.0251 14.2Z" fill="white"/>
<path d="M21.305 16.1688C21.3373 16.1045 21.3799 16.0492 21.43 16.0063C21.4636 15.9794 21.5009 15.9603 21.54 15.9501C21.5763 15.9408 21.6137 15.9408 21.65 15.9501C21.7 15.9626 21.745 15.9876 21.79 16.0251C21.8289 16.0554 21.8623 16.0955 21.8881 16.1428C21.914 16.1902 21.9316 16.2437 21.94 16.3001C21.955 16.4063 21.93 16.5251 21.87 16.6438C21.8198 16.7471 21.7389 16.8213 21.645 16.8501C21.6002 16.8621 21.5539 16.8623 21.5091 16.8504C21.4643 16.8386 21.422 16.815 21.385 16.7813C21.3461 16.751 21.3126 16.7109 21.2868 16.6636C21.261 16.6162 21.2433 16.5627 21.235 16.5063C21.22 16.3938 21.245 16.2813 21.305 16.1688Z" fill="#309E3A"/>
<path d="M21.43 16.2689C21.38 16.3501 21.365 16.4251 21.375 16.4939C21.3787 16.5255 21.3877 16.5558 21.4015 16.5828C21.4153 16.6097 21.4335 16.6327 21.455 16.6501C21.505 16.6939 21.555 16.7064 21.605 16.6876C21.655 16.6689 21.705 16.6251 21.75 16.5376C21.795 16.4501 21.815 16.3751 21.805 16.3126C21.8 16.2501 21.77 16.1939 21.725 16.1501C21.68 16.1064 21.625 16.1001 21.575 16.1189C21.525 16.1314 21.475 16.1814 21.425 16.2689H21.43Z" fill="white"/>
<path d="M15.0901 12.7812L15.2051 12.1687L15.5651 12.275L15.5501 12.375L15.2851 12.3L15.2601 12.4375L15.5051 12.5062L15.4851 12.6125L15.2401 12.5375L15.2101 12.7062L15.4851 12.7875L15.4651 12.8875L15.0901 12.7812Z" fill="#309E3A"/>
</g>
<defs>
<clipPath id="clip0_317_1054">
<rect width="32" height="30" fill="white"/>
</clipPath>
</defs>
</svg>
