<svg width="32" height="30" viewBox="0 0 32 30" fill="none" xmlns="http://www.w3.org/2000/svg">
<g clip-path="url(#clip0_317_434)">
<path d="M0 0H32V10H0V0Z" fill="#FF9933"/>
<path d="M0 10H32V20H0V10Z" fill="white"/>
<path d="M0 20H32V30H0V20Z" fill="#128807"/>
<path d="M16 19C17.7674 19 19.2 17.2091 19.2 15C19.2 12.7909 17.7674 11 16 11C14.2327 11 12.8 12.7909 12.8 15C12.8 17.2091 14.2327 19 16 19Z" fill="#000088"/>
<path d="M16 18.5C17.5463 18.5 18.8 16.933 18.8 15C18.8 13.067 17.5463 11.5 16 11.5C14.4536 11.5 13.2 13.067 13.2 15C13.2 16.933 14.4536 18.5 16 18.5Z" fill="white"/>
<path d="M15.9999 15.7003C16.3092 15.7003 16.5599 15.3869 16.5599 15.0003C16.5599 14.6137 16.3092 14.3003 15.9999 14.3003C15.6907 14.3003 15.4399 14.6137 15.4399 15.0003C15.4399 15.3869 15.6907 15.7003 15.9999 15.7003Z" fill="#000088"/>
<path d="M18.757 15.6368C18.8359 15.6497 18.9082 15.5804 18.9186 15.4818C18.929 15.3832 18.8735 15.2928 18.7946 15.2798C18.7158 15.2669 18.6434 15.3362 18.6331 15.4348C18.6227 15.5334 18.6782 15.6238 18.757 15.6368Z" fill="#000088"/>
<path d="M15.9998 18.5004L16.0958 16.4004L15.9998 15.4004L15.9038 16.4004L15.9998 18.5004Z" fill="#000088"/>
<path d="M18.5132 16.4652C18.5768 16.5263 18.661 16.5201 18.7014 16.4513C18.7417 16.3825 18.7229 16.2772 18.6593 16.2161C18.5957 16.155 18.5115 16.1612 18.4712 16.23C18.4308 16.2988 18.4497 16.4041 18.5132 16.4652Z" fill="#000088"/>
<path d="M15.2641 18.3504L15.7956 16.4248L15.9279 15.417L15.6321 16.3017L15.2641 18.3504Z" fill="#000088"/>
<path d="M18.1337 17.2615C18.1972 17.3292 18.2876 17.3261 18.3356 17.2544C18.3837 17.1828 18.3712 17.0698 18.3078 17.002C18.2443 16.9343 18.1539 16.9375 18.1059 17.0091C18.0578 17.0808 18.0703 17.1938 18.1337 17.2615Z" fill="#000088"/>
<path d="M14.6077 18.022L15.5281 16.2841L15.8325 15.3549L15.3466 16.1465L14.6077 18.022Z" fill="#000088"/>
<path d="M17.5872 17.8735C17.6344 17.96 17.7248 17.9873 17.7891 17.9345C17.8534 17.8816 17.8673 17.7686 17.8201 17.6821C17.7729 17.5955 17.6825 17.5682 17.6182 17.6211C17.5539 17.6739 17.54 17.7869 17.5872 17.8735Z" fill="#000088"/>
<path d="M14.0173 17.4564L15.2742 16.1004L15.7767 15.3018L15.1441 15.8933L14.0173 17.4564Z" fill="#000088"/>
<path d="M16.9328 18.3131C16.9607 18.3994 17.0449 18.4341 17.1209 18.3905C17.197 18.3469 17.236 18.2416 17.2082 18.1553C17.1803 18.069 17.0961 18.0344 17.02 18.0779C16.944 18.1215 16.9049 18.2268 16.9328 18.3131Z" fill="#000088"/>
<path d="M13.5698 16.7623L15.0746 15.7876L15.728 15.1879L14.9891 15.604L13.5698 16.7623Z" fill="#000088"/>
<path d="M16.2146 18.501C16.2211 18.5957 16.2935 18.6588 16.3762 18.642C16.4589 18.6252 16.5207 18.5347 16.5142 18.44C16.5077 18.3453 16.4354 18.2822 16.3527 18.299C16.2699 18.3159 16.2081 18.4063 16.2146 18.501Z" fill="#000088"/>
<path d="M13.2863 15.8972L14.9372 15.4904L15.7001 15.1126L14.9057 15.2409L13.2863 15.8972Z" fill="#000088"/>
<path d="M15.4791 18.4827C15.4752 18.5872 15.5412 18.6663 15.6265 18.6593C15.7118 18.6523 15.7841 18.5619 15.7881 18.4574C15.792 18.3528 15.726 18.2737 15.6407 18.2807C15.5554 18.2877 15.4831 18.3781 15.4791 18.4827Z" fill="#000088"/>
<path d="M13.2088 14.8869L14.8685 15.0471L15.6715 15.1133L14.8857 15.0334L13.2088 14.8869Z" fill="#000088"/>
<path d="M14.7702 18.2068C14.7532 18.3223 14.8099 18.4276 14.8968 18.442C14.9837 18.4564 15.068 18.3744 15.085 18.2589C15.1019 18.1434 15.0453 18.0381 14.9583 18.0237C14.8714 18.0094 14.7872 18.0913 14.7702 18.2068Z" fill="#000088"/>
<path d="M13.272 14.642L14.9252 14.8132L15.7144 14.3482L14.9279 14.0728L13.272 14.642Z" fill="#000088"/>
<path d="M14.1791 17.6531C14.1313 17.7243 14.1442 17.8373 14.2079 17.9054C14.2715 17.9736 14.3619 17.9712 14.4098 17.8999C14.4576 17.8287 14.4447 17.7157 14.381 17.6476C14.3173 17.5794 14.2269 17.5818 14.1791 17.6531Z" fill="#000088"/>
<path d="M13.5697 13.2381L14.9892 14.3964L15.7281 14.8128L15.0745 14.2132L13.5697 13.2381Z" fill="#000088"/>
<path d="M13.6929 16.97C13.6283 17.0209 13.614 17.1339 13.6609 17.2224C13.7078 17.3109 13.7982 17.3413 13.8628 17.2904C13.9274 17.2395 13.9417 17.1265 13.8948 17.038C13.8479 16.9496 13.7575 16.9191 13.6929 16.97Z" fill="#000088"/>
<path d="M14.0195 12.5097L15.1408 14.0851L15.7742 14.7335L15.2755 13.9472L14.0195 12.5097Z" fill="#000088"/>
<path d="M13.3681 16.1514C13.2887 16.1779 13.2442 16.2832 13.2687 16.3866C13.2932 16.49 13.3774 16.5524 13.4568 16.5259C13.5362 16.4995 13.5807 16.3942 13.5562 16.2908C13.5317 16.1873 13.4475 16.1249 13.3681 16.1514Z" fill="#000088"/>
<path d="M14.6137 11.9528L15.3383 13.8373L15.8263 14.6705L15.5319 13.7503L14.6137 11.9528Z" fill="#000088"/>
<path d="M13.2203 15.2569C13.1329 15.2552 13.0637 15.3428 13.0656 15.4527C13.0674 15.5625 13.1398 15.6529 13.2271 15.6546C13.3145 15.6563 13.3837 15.5687 13.3818 15.4588C13.3799 15.349 13.3076 15.2586 13.2203 15.2569Z" fill="#000088"/>
<path d="M15.3273 11.6016L15.5466 13.6675L15.8649 14.6321L15.8364 13.6416L15.3273 11.6016Z" fill="#000088"/>
<path d="M13.2438 14.3752C13.1654 14.3556 13.0931 14.4143 13.0822 14.5063C13.0713 14.5983 13.126 14.6887 13.2043 14.7082C13.2827 14.7278 13.355 14.6691 13.3659 14.5771C13.3768 14.4851 13.3221 14.3947 13.2438 14.3752Z" fill="#000088"/>
<path d="M16.0841 11.5368L15.9582 13.5504L15.9159 14.5634L15.982 13.6238L16.0841 11.5368Z" fill="#000088"/>
<path d="M13.471 13.5091C13.3988 13.4625 13.3146 13.4922 13.2829 13.5754C13.2511 13.6587 13.2839 13.764 13.3561 13.8106C13.4283 13.8572 13.5125 13.8275 13.5443 13.7443C13.576 13.661 13.5432 13.5557 13.471 13.5091Z" fill="#000088"/>
<path d="M16.7181 11.624L16.193 13.611L16.0896 14.6095L16.3917 13.682L16.7181 11.624Z" fill="#000088"/>
<path d="M13.8699 12.7439C13.8084 12.6737 13.718 12.6729 13.668 12.7422C13.618 12.8114 13.6273 12.9244 13.6887 12.9945C13.7502 13.0647 13.8406 13.0655 13.8906 12.9962C13.9407 12.927 13.9314 12.814 13.8699 12.7439Z" fill="#000088"/>
<path d="M17.4025 11.9871L16.4785 13.7048L16.1579 14.637L16.6402 13.8595L17.4025 11.9871Z" fill="#000088"/>
<path d="M14.4173 12.1346C14.3726 12.0439 14.2822 12.0098 14.2154 12.0585C14.1486 12.1071 14.1307 12.2201 14.1754 12.3108C14.2201 12.4016 14.3105 12.4356 14.3773 12.387C14.4441 12.3383 14.462 12.2253 14.4173 12.1346Z" fill="#000088"/>
<path d="M17.9913 12.5595L16.7315 13.8792L16.2153 14.6833L16.8449 14.1172L17.9913 12.5595Z" fill="#000088"/>
<path d="M15.0675 11.6869C15.0396 11.6006 14.9554 11.566 14.8794 11.6096C14.8033 11.6532 14.7642 11.7584 14.7921 11.8447C14.8199 11.931 14.9042 11.9656 14.9802 11.922C15.0563 11.8784 15.0954 11.7731 15.0675 11.6869Z" fill="#000088"/>
<path d="M18.4305 13.2382L16.9257 14.213L16.2722 14.8126L17.0112 14.3964L18.4305 13.2382Z" fill="#000088"/>
<path d="M15.7858 11.4998C15.7794 11.4049 15.7071 11.3415 15.6242 11.3582C15.5414 11.3748 15.4794 11.4652 15.4858 11.5601C15.4921 11.655 15.5645 11.7184 15.6473 11.7018C15.7302 11.6851 15.7922 11.5947 15.7858 11.4998Z" fill="#000088"/>
<path d="M18.7138 14.1038L17.0629 14.5094L16.2998 14.8875L17.0941 14.7599L18.7138 14.1038Z" fill="#000088"/>
<path d="M16.5192 11.5234C16.5242 11.4158 16.4599 11.3317 16.3756 11.3355C16.2913 11.3394 16.219 11.4298 16.2141 11.5375C16.2091 11.6451 16.2734 11.7293 16.3577 11.7254C16.4419 11.7215 16.5143 11.6311 16.5192 11.5234Z" fill="#000088"/>
<path d="M18.7877 15.1141L17.1368 14.9539L16.3324 14.8871L17.1121 14.9668L18.7877 15.1141Z" fill="#000088"/>
<path d="M17.2303 11.7978C17.2471 11.6848 17.1903 11.5795 17.1032 11.5626C17.0162 11.5456 16.9319 11.6235 16.9151 11.7364C16.8982 11.8494 16.9551 11.9547 17.0421 11.9716C17.1292 11.9885 17.2134 11.9107 17.2303 11.7978Z" fill="#000088"/>
<path d="M18.7281 15.4309L17.0722 15.088L16.286 15.5789L17.0754 15.9742L18.7281 15.4309Z" fill="#000088"/>
<path d="M17.8264 12.3191C17.8712 12.2323 17.8534 12.1193 17.7866 12.0667C17.7199 12.0142 17.6295 12.042 17.5847 12.1289C17.54 12.2157 17.5578 12.3287 17.6245 12.3813C17.6912 12.4338 17.7816 12.406 17.8264 12.3191Z" fill="#000088"/>
<path d="M18.4344 16.7182L17.0053 15.5756L16.2678 15.2316L16.9282 15.8468L18.4344 16.7182Z" fill="#000088"/>
<path d="M18.3157 13.0001C18.3755 12.9322 18.3822 12.8192 18.3306 12.7478C18.2789 12.6763 18.1885 12.6734 18.1286 12.7413C18.0688 12.8092 18.0621 12.9222 18.1138 12.9937C18.1654 13.0652 18.2558 13.0681 18.3157 13.0001Z" fill="#000088"/>
<path d="M17.9888 17.4552L16.8479 15.8925L16.2174 15.3033L16.7299 16.1024L17.9888 17.4552Z" fill="#000088"/>
<path d="M18.6475 13.8159C18.7182 13.7712 18.7485 13.6659 18.7153 13.5807C18.6821 13.4955 18.5978 13.4627 18.5271 13.5074C18.4565 13.5521 18.4261 13.6574 18.4593 13.7426C18.4926 13.8278 18.5768 13.8606 18.6475 13.8159Z" fill="#000088"/>
<path d="M17.409 18.0174L16.6311 16.1436L16.1511 15.36L16.4827 16.2908L17.409 18.0174Z" fill="#000088"/>
<path d="M18.8003 14.7111C18.8764 14.6916 18.9275 14.6012 18.9144 14.5092C18.9012 14.4171 18.8289 14.3583 18.7528 14.3778C18.6767 14.3973 18.6256 14.4877 18.6388 14.5797C18.6519 14.6718 18.7242 14.7306 18.8003 14.7111Z" fill="#000088"/>
<path d="M16.7356 18.3709L16.3682 16.3149L16.0722 15.3961L16.2042 16.3966L16.7356 18.3709Z" fill="#000088"/>
</g>
<defs>
<clipPath id="clip0_317_434">
<rect width="32" height="30" fill="white"/>
</clipPath>
</defs>
</svg>
