<svg width="32" height="30" viewBox="0 0 32 30" fill="none" xmlns="http://www.w3.org/2000/svg">
<g clip-path="url(#clip0_317_685)">
<path fill-rule="evenodd" clip-rule="evenodd" d="M0 0H32V30H0V0Z" fill="#00247D"/>
<path d="M24.5214 6.69922V7.6473L26.0383 6.69922H24.5214Z" fill="white"/>
<path d="M24.8445 7.75334L24.3987 6.98633L26.0717 6.63881L24.8445 7.75334Z" fill="white"/>
<path d="M24.5212 6.69922V7.6473L23.0043 6.69922H24.5212Z" fill="white"/>
<path d="M24.1981 7.75334L24.6439 6.98633L22.9709 6.63881L24.1981 7.75334Z" fill="white"/>
<path d="M24.8875 7.09229L24.2326 7.58985L25.4227 8.69104L24.8875 7.09229Z" fill="white"/>
<path d="M24.2522 8.21731L24.4738 7.03516L25.7036 8.9167L24.2522 8.21731Z" fill="white"/>
<path d="M24.0884 6.8877L24.7432 7.38526L24.6237 5.28894L24.0884 6.8877Z" fill="white"/>
<path d="M24.99 7.32205L23.9625 7.32666L24.8274 5.23033L24.99 7.32205Z" fill="white"/>
<path d="M24.155 7.09229L24.8098 7.58985L23.6197 8.69104L24.155 7.09229Z" fill="white"/>
<path d="M24.7903 8.21731L24.5687 7.03516L23.3389 8.9167L24.7903 8.21731Z" fill="white"/>
<path d="M24.5212 6.89258V7.51906L25.5236 6.89258H24.5212Z" fill="#CC142B"/>
<path d="M24.7348 7.58887L24.4402 7.08203L25.5457 6.85239L24.7348 7.58887Z" fill="#CC142B"/>
<path d="M24.5212 6.89258V7.51906L23.5189 6.89258H24.5212Z" fill="#CC142B"/>
<path d="M24.3077 7.58887L24.6023 7.08203L23.4968 6.85239L24.3077 7.58887Z" fill="#CC142B"/>
<path d="M24.7633 7.15234L24.3306 7.48113L25.117 8.20879L24.7633 7.15234Z" fill="#CC142B"/>
<path d="M24.3434 7.89542L24.4899 7.11426L25.3026 8.35757L24.3434 7.89542Z" fill="#CC142B"/>
<path d="M24.2352 7.01709L24.6679 7.34588L24.5889 5.96064L24.2352 7.01709Z" fill="#CC142B"/>
<path d="M24.8309 7.30408L24.152 7.30713L24.7235 5.92189L24.8309 7.30408Z" fill="#CC142B"/>
<path d="M24.2792 7.15234L24.7119 7.48113L23.9255 8.20879L24.2792 7.15234Z" fill="#CC142B"/>
<path d="M24.699 7.89542L24.5526 7.11426L23.7399 8.35757L24.699 7.89542Z" fill="#CC142B"/>
<path d="M28.4961 11.3481L28.6174 11.9185L29.7246 11.0748L28.4961 11.3481Z" fill="white"/>
<path d="M29.3364 12.0127L28.387 11.8032L29.8757 10.5478L29.3364 12.0127Z" fill="white"/>
<path d="M28.3734 11.0752L28.496 11.6531L27.1462 11.341L28.3734 11.0752Z" fill="white"/>
<path d="M28.6052 11.6587L28.3562 10.3384L27.3654 12.0127L28.6052 11.6587Z" fill="white"/>
<path d="M28.4579 11.4248L28.2392 12.3027L29.2983 12.4123L28.4579 11.4248Z" fill="white"/>
<path d="M28.4394 13.0483L28.2566 11.709L29.7454 12.7133L28.4394 13.0483Z" fill="white"/>
<path d="M28.7075 11.6855L29.1699 11.2609L28.1109 10.2447L28.7075 11.6855Z" fill="white"/>
<path d="M28.455 10.2504L28.9131 11.6333L27.8541 9.76785L28.455 10.2504Z" fill="white"/>
<path d="M27.6937 11.8608L28.177 11.4248L28.2695 13.2902L27.6937 11.8608Z" fill="white"/>
<path d="M28.7354 11.4978L27.7012 11.3735L28.2808 13.0479L28.7354 11.4978Z" fill="white"/>
<path d="M28.4958 11.437L28.5709 11.7899L29.2561 11.2679L28.4958 11.437Z" fill="#CC142B"/>
<path d="M29.0159 11.8484L28.4283 11.7188L29.3496 10.9419L29.0159 11.8484Z" fill="#CC142B"/>
<path d="M28.42 11.2681L28.4959 11.6257L27.6606 11.4325L28.42 11.2681Z" fill="#CC142B"/>
<path d="M28.5635 11.6291L28.4094 10.812L27.7963 11.8481L28.5635 11.6291Z" fill="#CC142B"/>
<path d="M28.4724 11.4844L28.3371 12.0276L28.9925 12.0955L28.4724 11.4844Z" fill="#CC142B"/>
<path d="M28.4609 12.4889L28.3478 11.6602L29.2691 12.2816L28.4609 12.4889Z" fill="#CC142B"/>
<path d="M28.6268 11.646L28.913 11.3832L28.2576 10.7544L28.6268 11.646Z" fill="#CC142B"/>
<path d="M28.4706 10.758L28.754 11.6138L28.0987 10.4594L28.4706 10.758Z" fill="#CC142B"/>
<path d="M27.9994 11.7544L28.2985 11.4846L28.3557 12.6389L27.9994 11.7544Z" fill="#CC142B"/>
<path d="M28.644 11.53L28.004 11.4531L28.3627 12.4892L28.644 11.53Z" fill="#CC142B"/>
<path d="M19.8917 12.8335L20.0281 13.4744L21.2723 12.5263L19.8917 12.8335Z" fill="white"/>
<path d="M20.8362 13.5796L19.7692 13.3442L21.4422 11.9334L20.8362 13.5796Z" fill="white"/>
<path d="M19.754 12.5259L19.8918 13.1753L18.3749 12.8246L19.754 12.5259Z" fill="white"/>
<path d="M20.0144 13.1815L19.7346 11.6978L18.6212 13.5793L20.0144 13.1815Z" fill="white"/>
<path d="M19.849 12.9189L19.6033 13.9055L20.7934 14.0287L19.849 12.9189Z" fill="white"/>
<path d="M19.8284 14.7434L19.6229 13.2383L21.296 14.3669L19.8284 14.7434Z" fill="white"/>
<path d="M20.1295 13.2114L20.6491 12.7343L19.459 11.5923L20.1295 13.2114Z" fill="white"/>
<path d="M19.8458 11.5988L20.3606 13.1528L19.1705 11.0565L19.8458 11.5988Z" fill="white"/>
<path d="M18.9904 13.4092L19.5335 12.9191L19.6373 15.0155L18.9904 13.4092Z" fill="white"/>
<path d="M20.1609 13.0015L18.9987 12.8618L19.6501 14.7434L20.1609 13.0015Z" fill="white"/>
<path d="M19.8917 12.9219L19.9818 13.3454L20.804 12.7189L19.8917 12.9219Z" fill="#CC142B"/>
<path d="M20.5157 13.4153L19.8107 13.2598L20.9162 12.3275L20.5157 13.4153Z" fill="#CC142B"/>
<path d="M19.8007 12.7192L19.8917 13.1484L18.8893 12.9166L19.8007 12.7192Z" fill="#CC142B"/>
<path d="M19.9727 13.1523L19.7878 12.1719L19.0521 13.4152L19.9727 13.1523Z" fill="#CC142B"/>
<path d="M19.8634 12.9785L19.701 13.6304L20.4875 13.7118L19.8634 12.9785Z" fill="#CC142B"/>
<path d="M19.8498 14.184L19.714 13.1895L20.8195 13.9352L19.8498 14.184Z" fill="#CC142B"/>
<path d="M20.0488 13.1719L20.3922 12.8566L19.6058 12.1019L20.0488 13.1719Z" fill="#CC142B"/>
<path d="M19.8612 12.1064L20.2014 13.1333L19.415 11.7481L19.8612 12.1064Z" fill="#CC142B"/>
<path d="M19.296 13.3022L19.6549 12.9784L19.7235 14.3637L19.296 13.3022Z" fill="#CC142B"/>
<path d="M20.0695 13.0332L19.3015 12.9409L19.732 14.1842L20.0695 13.0332Z" fill="#CC142B"/>
<path d="M24.5211 21.6724V22.7249L26.2051 21.6724H24.5211Z" fill="white"/>
<path d="M24.8799 22.8422L24.385 21.9907L26.2423 21.6049L24.8799 22.8422Z" fill="white"/>
<path d="M24.5212 21.6724V22.7249L22.8373 21.6724H24.5212Z" fill="white"/>
<path d="M24.1624 22.8422L24.6573 21.9907L22.8001 21.6049L24.1624 22.8422Z" fill="white"/>
<path d="M24.9277 22.1084L24.2008 22.6608L25.522 23.8832L24.9277 22.1084Z" fill="white"/>
<path d="M24.2225 23.3573L24.4685 22.0449L25.8338 24.1337L24.2225 23.3573Z" fill="white"/>
<path d="M24.0406 21.8813L24.7676 22.4337L24.6349 20.1065L24.0406 21.8813Z" fill="white"/>
<path d="M25.0415 22.3635L23.9009 22.3687L24.861 20.0415L25.0415 22.3635Z" fill="white"/>
<path d="M24.1146 22.1084L24.8415 22.6608L23.5204 23.8832L24.1146 22.1084Z" fill="white"/>
<path d="M24.8198 23.3573L24.5739 22.0449L23.2085 24.1337L24.8198 23.3573Z" fill="white"/>
<path d="M24.5211 21.8652V22.5961L25.6906 21.8652H24.5211Z" fill="#CC142B"/>
<path d="M24.7703 22.6777L24.4266 22.0864L25.7164 21.8185L24.7703 22.6777Z" fill="#CC142B"/>
<path d="M24.5212 21.8652V22.5961L23.3518 21.8652H24.5212Z" fill="#CC142B"/>
<path d="M24.272 22.6777L24.6157 22.0864L23.3259 21.8185L24.272 22.6777Z" fill="#CC142B"/>
<path d="M24.8036 22.1685L24.2988 22.552L25.2163 23.401L24.8036 22.1685Z" fill="#CC142B"/>
<path d="M24.3138 23.0354L24.4846 22.124L25.4328 23.5746L24.3138 23.0354Z" fill="#CC142B"/>
<path d="M24.1875 22.0107L24.6923 22.3943L24.6002 20.7782L24.1875 22.0107Z" fill="#CC142B"/>
<path d="M24.8826 22.3456L24.0905 22.3491L24.7572 20.733L24.8826 22.3456Z" fill="#CC142B"/>
<path d="M24.2388 22.1685L24.7436 22.552L23.8261 23.401L24.2388 22.1685Z" fill="#CC142B"/>
<path d="M24.7286 23.0354L24.5577 22.124L23.6096 23.5746L24.7286 23.0354Z" fill="#CC142B"/>
<path d="M0 0H16V15H0V0Z" fill="#012169"/>
<path d="M1.875 0L7.975 5.65625L14.05 0H16V1.9375L10 7.53125L16 13.0938V15H14L8 9.40625L2.025 15H0V13.125L5.975 7.5625L0 2V0H1.875Z" fill="white"/>
<path d="M10.6 8.78125L16 13.75V15L9.225 8.78125H10.6ZM6 9.40625L6.15 10.5L1.35 15H0L6 9.40625ZM16 0V0.09375L9.775 5.96875L9.825 4.59375L14.75 0H16ZM0 0L5.975 5.5H4.475L0 1.3125V0Z" fill="#C8102E"/>
<path d="M6.025 0V15H10.025V0H6.025ZM0 5V10H16V5H0Z" fill="white"/>
<path d="M0 6.03125V9.03125H16V6.03125H0ZM6.825 0V15H9.225V0H6.825Z" fill="#C8102E"/>
</g>
<defs>
<clipPath id="clip0_317_685">
<rect width="32" height="30" fill="white"/>
</clipPath>
</defs>
</svg>
