<svg width="32" height="30" viewBox="0 0 32 30" fill="none" xmlns="http://www.w3.org/2000/svg">
<g clip-path="url(#clip0_317_71)">
<path d="M12.8 0H32V30H12.8V0Z" fill="#FF0000"/>
<path d="M0 0H12.8V30H0V0Z" fill="#006600"/>
<path fill-rule="evenodd" clip-rule="evenodd" d="M16.9749 19.1372C15.3599 19.0747 7.97493 13.3122 7.92493 12.3872L8.32993 11.5435C9.06493 12.8747 16.6149 18.481 17.3599 18.281L16.9749 19.1372Z" fill="#FFFF00" stroke="black" stroke-width="0.6" stroke-linecap="round" stroke-linejoin="round"/>
<path fill-rule="evenodd" clip-rule="evenodd" d="M8.24495 11.4248C8.09995 11.9123 10.175 13.5123 12.665 15.4123C15.16 17.3061 17.31 18.4748 17.465 18.3123L17.54 18.1373C17.51 18.1998 17.44 18.2186 17.325 18.1748C16.65 17.9311 14.895 16.9248 12.72 15.2748C10.54 13.6248 8.64995 12.1061 8.35495 11.4623C8.33196 11.402 8.32163 11.3353 8.32495 11.2686H8.31495L8.25495 11.4061L8.24495 11.4248ZM17.01 19.1623C16.985 19.2248 16.93 19.2248 16.835 19.2123C16.235 19.1311 14.405 18.0186 12.24 16.3998C9.71995 14.5123 7.63995 12.7998 7.86995 12.3498L7.92995 12.2123L7.93995 12.2186C7.73995 12.9811 12.045 16.0561 12.3 16.2561C14.79 18.1811 16.89 19.3123 17.075 19.0186L17.01 19.1623Z" fill="#FFFF00" stroke="black" stroke-width="0.6" stroke-linecap="round" stroke-linejoin="round"/>
<path fill-rule="evenodd" clip-rule="evenodd" d="M12.81 12.95C14.42 12.9312 16.41 12.675 17.56 12.1L17.31 11.6C16.635 12.0688 14.635 12.3813 12.795 12.425C10.625 12.4 9.08997 12.1438 8.31997 11.5L8.08997 12.0375C9.49997 12.7875 10.95 12.9437 12.81 12.95Z" fill="#FFFF00" stroke="black" stroke-width="0.6" stroke-linecap="round" stroke-linejoin="round"/>
<path fill-rule="evenodd" clip-rule="evenodd" d="M17.625 12.1121C17.585 12.1934 16.835 12.5121 15.735 12.7496C14.7653 12.9333 13.7858 13.0231 12.805 13.0184C11.8654 13.0228 10.9265 12.9476 9.99501 12.7934C8.84001 12.5684 8.24501 12.2559 8.02001 12.1434L8.07501 12.0059C8.71001 12.3184 9.31001 12.5059 10.01 12.6434C10.9347 12.7994 11.8669 12.8767 12.8 12.8746C13.7757 12.8759 14.7501 12.7861 15.715 12.6059C16.84 12.3746 17.455 12.0809 17.545 11.9496L17.625 12.1184V12.1121ZM17.405 11.6059C17.285 11.7309 16.675 11.9996 15.605 12.2121C14.681 12.3792 13.7486 12.4628 12.815 12.4621C11.715 12.4621 10.81 12.3621 10.125 12.2371C9.03501 12.0621 8.45501 11.7371 8.24501 11.6496L8.31001 11.5121C8.47501 11.6184 9.03001 11.8996 10.135 12.0934C11.0233 12.2421 11.9188 12.3131 12.815 12.3059C13.742 12.3062 14.6677 12.2227 15.585 12.0559C16.66 11.8684 17.24 11.5309 17.33 11.4434L17.405 11.6059ZM7.51501 15.3746C8.50501 16.0434 10.71 16.3746 12.795 16.3996C14.695 16.4059 17.165 16.0371 18.09 15.4246L18.065 14.7559C17.775 15.3184 15.125 15.8621 12.775 15.8434C10.425 15.8184 8.24001 15.3684 7.51001 14.7809V15.3746" fill="#FFFF00"/>
<path d="M7.51501 15.3746C8.50501 16.0434 10.71 16.3746 12.795 16.3996C14.695 16.4059 17.165 16.0371 18.09 15.4246L18.065 14.7559C17.775 15.3184 15.125 15.8621 12.775 15.8434C10.425 15.8184 8.24001 15.3684 7.51001 14.7809V15.3746M17.625 12.1121C17.585 12.1934 16.835 12.5121 15.735 12.7496C14.7653 12.9333 13.7858 13.0231 12.805 13.0184C11.8654 13.0228 10.9265 12.9476 9.99501 12.7934C8.84001 12.5684 8.24501 12.2559 8.02001 12.1434L8.07501 12.0059C8.71001 12.3184 9.31001 12.5059 10.01 12.6434C10.9347 12.7994 11.8669 12.8767 12.8 12.8746C13.7757 12.8759 14.7501 12.7861 15.715 12.6059C16.84 12.3746 17.455 12.0809 17.545 11.9496L17.625 12.1184V12.1121ZM17.405 11.6059C17.285 11.7309 16.675 11.9996 15.605 12.2121C14.681 12.3792 13.7486 12.4628 12.815 12.4621C11.715 12.4621 10.81 12.3621 10.125 12.2371C9.03501 12.0621 8.45501 11.7371 8.24501 11.6496L8.31001 11.5121C8.47501 11.6184 9.03001 11.8996 10.135 12.0934C11.0233 12.2421 11.9188 12.3131 12.815 12.3059C13.742 12.3062 14.6677 12.2227 15.585 12.0559C16.66 11.8684 17.24 11.5309 17.33 11.4434L17.405 11.6059Z" stroke="black" stroke-width="0.6" stroke-linecap="round" stroke-linejoin="round"/>
<path fill-rule="evenodd" clip-rule="evenodd" d="M18.14 15.2809V15.4371C18 15.6496 17.13 15.9621 16.04 16.1871C14.9571 16.3817 13.8639 16.4736 12.77 16.4621C11.7326 16.4732 10.6961 16.3833 9.66995 16.1934C8.90423 16.0828 8.156 15.83 7.44995 15.4434V15.2621C7.93495 15.6621 9.24495 15.9621 9.68495 16.0496C10.475 16.1996 11.49 16.3121 12.77 16.3121C14.115 16.3121 15.19 16.1934 16.02 16.0371C16.805 15.8934 17.92 15.5246 18.14 15.2809ZM18.14 14.7184V14.8746C18 15.0809 17.13 15.3934 16.04 15.6184C14.9572 15.815 13.8641 15.909 12.77 15.8996C11.7327 15.9072 10.6964 15.8174 9.66995 15.6309C8.90423 15.5203 8.156 15.2675 7.44995 14.8809V14.6934C7.93495 15.0996 9.24995 15.3934 9.68495 15.4809C10.7064 15.6679 11.7377 15.7577 12.77 15.7496C14.115 15.7496 15.195 15.6246 16.02 15.4684C16.805 15.3309 17.92 14.9621 18.14 14.7184ZM12.79 19.0184C10.51 19.0059 8.55495 18.2434 8.13995 18.1184L8.43995 18.7059C9.84241 19.3267 11.3223 19.6294 12.81 19.5996C14.545 19.5371 16.06 19.3684 17.125 18.7184L17.435 18.1059C16.71 18.5371 14.235 19.0184 12.785 19.0184" fill="#FFFF00"/>
<path d="M12.79 19.0184C10.51 19.0059 8.55495 18.2434 8.13995 18.1184L8.43995 18.7059C9.84241 19.3267 11.3223 19.6294 12.81 19.5996C14.545 19.5371 16.06 19.3684 17.125 18.7184L17.435 18.1059C16.71 18.5371 14.235 19.0184 12.785 19.0184M18.14 15.2809V15.4371C18 15.6496 17.13 15.9621 16.04 16.1871C14.9571 16.3817 13.8639 16.4736 12.77 16.4621C11.7326 16.4732 10.6961 16.3833 9.66995 16.1934C8.90423 16.0828 8.156 15.83 7.44995 15.4434V15.2621C7.93495 15.6621 9.24495 15.9621 9.68495 16.0496C10.475 16.1996 11.49 16.3121 12.77 16.3121C14.115 16.3121 15.19 16.1934 16.02 16.0371C16.805 15.8934 17.92 15.5246 18.14 15.2809ZM18.14 14.7184V14.8746C18 15.0809 17.13 15.3934 16.04 15.6184C14.9572 15.815 13.8641 15.909 12.77 15.8996C11.7327 15.9072 10.6964 15.8174 9.66995 15.6309C8.90423 15.5203 8.156 15.2675 7.44995 14.8809V14.6934C7.93495 15.0996 9.24995 15.3934 9.68495 15.4809C10.7064 15.6679 11.7377 15.7577 12.77 15.7496C14.115 15.7496 15.195 15.6246 16.02 15.4684C16.805 15.3309 17.92 14.9621 18.14 14.7184Z" stroke="black" stroke-width="0.6" stroke-linecap="round" stroke-linejoin="round"/>
<path fill-rule="evenodd" clip-rule="evenodd" d="M17.2449 18.5812C17.1994 18.6655 17.1527 18.7488 17.1049 18.8312C16.6049 19.0562 15.8049 19.2937 15.4749 19.3562C14.5894 19.5624 13.6907 19.667 12.7899 19.6687C10.7699 19.6312 9.11493 19.1374 8.33993 18.7124L8.27493 18.5812L8.28493 18.5562L8.38993 18.6124C9.81294 19.201 11.301 19.5068 12.7999 19.5187C13.7399 19.5187 14.6749 19.3874 15.4299 19.2187C16.5899 18.9249 17.0599 18.7062 17.2049 18.6062L17.2399 18.5812H17.2449ZM17.5099 18.0312C17.477 18.1044 17.4437 18.1773 17.4099 18.2499C17.1399 18.3749 16.4099 18.6374 15.3449 18.8249C14.6449 18.9437 14.2099 19.0624 12.8149 19.0937C11.2202 19.0736 9.63535 18.7792 8.10493 18.2187L8.04993 18.0624C9.60485 18.5996 11.2071 18.8935 12.8199 18.9374C14.0949 18.9062 14.6399 18.7874 15.3349 18.6687C16.5749 18.4312 17.1999 18.1687 17.3849 18.0999C17.385 18.0957 17.385 18.0916 17.3849 18.0874L17.5149 18.0249L17.5099 18.0312Z" fill="#FFFF00" stroke="black" stroke-width="0.6" stroke-linecap="round" stroke-linejoin="round"/>
<path fill-rule="evenodd" clip-rule="evenodd" d="M17.5399 14.85C17.5449 16.725 16.7749 18.4125 16.1599 19.15C15.2516 20.2574 14.0385 20.888 12.7699 20.9125C11.2549 20.9438 9.8299 19.7125 9.4449 19.1688C8.58361 18.027 8.09341 16.5252 8.0699 14.9563C8.1599 12.9062 8.8049 11.4813 9.7349 10.5C10.6383 9.57036 11.7748 9.06807 12.9449 9.08125C13.628 9.12265 14.2966 9.34195 14.9079 9.7251C15.5192 10.1082 16.0598 10.6468 16.4949 11.3062C17.1199 12.2562 17.3949 13.2875 17.5399 14.85ZM12.7799 8.4375C14.1786 8.43745 15.5207 9.12857 16.5135 10.3602C17.5063 11.5918 18.0693 13.2641 18.0799 15.0125C18.0799 15.88 17.9432 16.7391 17.6776 17.5406C17.412 18.3421 17.0227 19.0704 16.532 19.6838C16.0412 20.2973 15.4586 20.7839 14.8174 21.1159C14.1762 21.4479 13.4889 21.6187 12.7949 21.6187C12.1009 21.6187 11.4136 21.4479 10.7724 21.1159C10.1312 20.7839 9.54859 20.2973 9.05784 19.6838C8.56708 19.0704 8.17779 18.3421 7.91219 17.5406C7.6466 16.7391 7.5099 15.88 7.5099 15.0125C7.5049 11.3875 9.8749 8.4375 12.7799 8.4375Z" fill="#FFFF00" stroke="black" stroke-width="0.6" stroke-linecap="round" stroke-linejoin="round"/>
<path fill-rule="evenodd" clip-rule="evenodd" d="M12.7949 8.40625C15.7049 8.40625 18.0749 11.3688 18.0749 15.0063C18.0749 18.6438 15.7049 21.6063 12.7999 21.6063C9.8949 21.6063 7.5199 18.6438 7.5199 15.0063C7.5199 11.3688 9.8899 8.40625 12.7999 8.40625H12.7949ZM7.6299 15C7.6299 18.55 9.9649 21.4562 12.7949 21.4562C15.6249 21.4562 17.9599 18.55 17.9599 15C17.9599 11.45 15.6249 8.54375 12.7949 8.54375C9.9649 8.54375 7.6299 11.45 7.6299 15Z" fill="#FFFF00" stroke="black" stroke-width="0.6" stroke-linecap="round" stroke-linejoin="round"/>
<path fill-rule="evenodd" clip-rule="evenodd" d="M12.8 8.95605C14.0811 8.961 15.3086 9.59934 16.2145 10.7317C17.1203 11.864 17.631 13.3984 17.635 14.9998C17.631 16.6018 17.1205 18.1368 16.2148 19.2701C15.309 20.4035 14.0815 21.0432 12.8 21.0498C10.15 21.0498 7.96497 18.3248 7.96497 14.9998C7.97023 13.3989 8.48132 11.8655 9.38692 10.7335C10.2925 9.6015 11.5193 8.96264 12.8 8.95605ZM8.07997 14.9998C8.07997 18.2498 10.21 20.8998 12.8 20.8998C15.39 20.8998 17.52 18.2436 17.52 14.9998C17.52 11.7498 15.39 9.0998 12.8 9.0998C11.5498 9.10638 10.3523 9.7301 9.46824 10.8351C8.5842 11.9402 8.08523 13.4371 8.07997 14.9998Z" fill="#FFFF00" stroke="black" stroke-width="0.6" stroke-linecap="round" stroke-linejoin="round"/>
<path fill-rule="evenodd" clip-rule="evenodd" d="M13.0149 8.375H12.5599V21.6437H13.0099L13.0149 8.375Z" fill="#FFFF00" stroke="black" stroke-width="0.6" stroke-linecap="round" stroke-linejoin="round"/>
<path fill-rule="evenodd" clip-rule="evenodd" d="M12.9649 8.2998H13.0799V21.7186H12.9699V8.2998H12.9649ZM12.5149 8.2998H12.6349V21.7186H12.5199V8.2998H12.5149Z" fill="#FFFF00" stroke="black" stroke-width="0.6" stroke-linecap="round" stroke-linejoin="round"/>
<path fill-rule="evenodd" clip-rule="evenodd" d="M18.08 15.2625V14.775L17.76 14.4L15.945 13.8L13.335 13.4688L10.185 13.6687L7.945 14.3313L7.495 14.75V15.2437L8.64 14.6L11.36 14.0688H13.975L15.895 14.3313L17.225 14.7312L18.08 15.2625Z" fill="#FFFF00" stroke="black" stroke-width="0.6" stroke-linecap="round" stroke-linejoin="round"/>
<path fill-rule="evenodd" clip-rule="evenodd" d="M12.8 13.9873C14.045 13.9873 15.25 14.1311 16.215 14.3623C17.205 14.6123 17.9 14.9248 18.14 15.2686V15.4436C17.85 15.0061 16.915 14.6936 16.19 14.5061C15.24 14.2811 14.04 14.1311 12.795 14.1311C11.49 14.1311 10.27 14.2936 9.32995 14.5186C8.57995 14.7061 7.57495 15.0811 7.44995 15.4436V15.2623C7.51495 15.0123 8.26495 14.6373 9.31495 14.3686C10.26 14.1373 11.48 13.9873 12.795 13.9873H12.8ZM12.8 13.4186C13.945 13.4157 15.0879 13.5412 16.215 13.7936C17.205 14.0436 17.9 14.3561 18.14 14.7061V14.8748C17.85 14.4436 16.915 14.1248 16.19 13.9436C15.24 13.7123 14.04 13.5686 12.795 13.5686C11.6345 13.564 10.4762 13.6937 9.33495 13.9561C8.60995 14.1248 7.56495 14.5123 7.44995 14.8748V14.6998C7.51995 14.4498 8.27995 14.0561 9.31495 13.8061C10.265 13.5748 11.48 13.4186 12.8 13.4186ZM12.77 10.5311C14.735 10.5186 16.45 10.8748 17.235 11.3748L17.52 11.9998C16.84 11.5373 14.99 11.0623 12.775 11.1248C10.97 11.1436 9.03995 11.3748 8.07495 12.0248L8.41495 11.3123C9.20995 10.7936 11.08 10.5311 12.77 10.5311Z" fill="#FFFF00" stroke="black" stroke-width="0.6" stroke-linecap="round" stroke-linejoin="round"/>
<path fill-rule="evenodd" clip-rule="evenodd" d="M12.7999 11.0437C13.8259 11.0221 14.8514 11.112 15.8649 11.3125C16.6649 11.5 17.4299 11.775 17.5399 11.925L17.6249 12.1125C17.3599 11.9 16.6949 11.6562 15.8449 11.4562C14.9949 11.2562 13.9099 11.1875 12.7949 11.1937C11.5299 11.1875 10.5449 11.2687 9.70492 11.4562C9.12587 11.5577 8.56367 11.775 8.03992 12.1L8.12492 11.9062C8.42492 11.7187 8.88992 11.4875 9.67992 11.3062C10.5549 11.1062 11.5499 11.05 12.7999 11.0437ZM12.7999 10.4812C13.8699 10.4687 14.9299 10.5437 15.7549 10.7312C16.2894 10.8304 16.8067 11.0417 17.2849 11.3562L17.4099 11.6062C17.1999 11.3125 16.4099 11.0312 15.7049 10.8812C14.8849 10.7 13.8699 10.6312 12.7999 10.6187C11.8039 10.6076 10.8088 10.6996 9.82492 10.8937C9.31046 10.9833 8.8108 11.1753 8.34492 11.4625L8.45492 11.2562C8.74492 11.0687 9.21492 10.8937 9.80492 10.75C10.7953 10.5533 11.7972 10.4613 12.7999 10.475V10.4812ZM15.4199 17.75C14.5533 17.5624 13.6743 17.4787 12.7949 17.5C9.51992 17.55 8.46492 18.3437 8.33492 18.5812L8.08492 18.0812C8.92492 17.3312 10.7049 16.9062 12.8149 16.9437C13.9099 16.9687 14.8549 17.0625 15.6449 17.2562L15.4199 17.7562" fill="#FFFF00"/>
<path d="M15.4199 17.75C14.5533 17.5624 13.6743 17.4787 12.7949 17.5C9.51992 17.55 8.46492 18.3437 8.33492 18.5812L8.08492 18.0812C8.92492 17.3312 10.7049 16.9062 12.8149 16.9437C13.9099 16.9687 14.8549 17.0625 15.6449 17.2562L15.4199 17.7562M12.7999 11.0437C13.8259 11.0221 14.8514 11.112 15.8649 11.3125C16.6649 11.5 17.4299 11.775 17.5399 11.925L17.6249 12.1125C17.3599 11.9 16.6949 11.6562 15.8449 11.4562C14.9949 11.2562 13.9099 11.1875 12.7949 11.1937C11.5299 11.1875 10.5449 11.2687 9.70492 11.4562C9.12587 11.5577 8.56367 11.775 8.03992 12.1L8.12492 11.9062C8.42492 11.7187 8.88992 11.4875 9.67992 11.3062C10.5549 11.1062 11.5499 11.05 12.7999 11.0437ZM12.7999 10.4812C13.8699 10.4687 14.9299 10.5437 15.7549 10.7312C16.2894 10.8304 16.8067 11.0417 17.2849 11.3562L17.4099 11.6062C17.1999 11.3125 16.4099 11.0312 15.7049 10.8812C14.8849 10.7 13.8699 10.6312 12.7999 10.6187C11.8039 10.6076 10.8088 10.6996 9.82492 10.8937C9.31046 10.9833 8.8108 11.1753 8.34492 11.4625L8.45492 11.2562C8.74492 11.0687 9.21492 10.8937 9.80492 10.75C10.7953 10.5533 11.7972 10.4613 12.7999 10.475V10.4812Z" stroke="black" stroke-width="0.6" stroke-linecap="round" stroke-linejoin="round"/>
<path fill-rule="evenodd" clip-rule="evenodd" d="M12.7799 17.431C13.6899 17.4497 14.5799 17.4935 15.4449 17.6935L15.3849 17.831C14.5849 17.6435 13.7249 17.581 12.7849 17.581C11.5699 17.5685 10.3499 17.7122 9.28492 18.0935C8.94992 18.2122 8.39492 18.481 8.33492 18.706L8.27492 18.581C8.29492 18.4435 8.62492 18.1685 9.25492 17.956C10.4749 17.5185 11.6149 17.4372 12.7799 17.431ZM12.8199 16.856C13.7804 16.8547 14.7391 16.9593 15.6849 17.1685L15.6199 17.3122C14.6964 17.1004 13.7589 16.9979 12.8199 17.006C11.6099 17.006 10.3249 17.1185 9.15492 17.5435C8.77992 17.681 8.12492 17.981 8.10492 18.2122L8.04492 18.0747C8.05492 17.8622 8.61992 17.581 9.12992 17.3997C10.3049 16.9685 11.5949 16.8622 12.8199 16.856Z" fill="#FFFF00" stroke="black" stroke-width="0.6" stroke-linecap="round" stroke-linejoin="round"/>
<path fill-rule="evenodd" clip-rule="evenodd" d="M17.47 18.1561L17.08 18.9248L15.945 17.6686L13.015 15.1998L9.70499 12.9311L7.98999 12.1998L8.35499 11.3498L8.47999 11.2686L9.54499 11.5998L13.065 13.8686L15.095 15.4686L16.8 16.9998L17.495 17.9998L17.47 18.1561Z" fill="#FFFF00" stroke="black" stroke-width="0.6" stroke-linecap="round" stroke-linejoin="round"/>
<path fill-rule="evenodd" clip-rule="evenodd" d="M7.92999 12.2184C8.22999 11.9684 10.44 13.1934 12.76 14.9434C15.065 16.6934 17.275 18.6684 17.075 19.0371L17.01 19.1684L16.98 19.1996C16.985 19.1934 17.02 19.1371 16.98 19.0059C16.88 18.5996 15.31 17.0371 12.715 15.0746C10.18 13.1934 8.06999 12.0559 7.86499 12.3809L7.92999 12.2184ZM17.55 18.1496C17.74 17.6746 15.69 15.7434 13.145 13.8621C10.545 12.0184 8.66499 10.9309 8.31999 11.2559L8.24999 11.4371C8.24999 11.4434 8.24999 11.4246 8.26999 11.4059C8.32999 11.3434 8.43499 11.3434 8.47999 11.3434C9.06999 11.3559 10.755 12.3246 13.12 14.0184C14.16 14.7684 17.5 17.4559 17.485 18.2059C17.485 18.2684 17.49 18.2809 17.47 18.3184L17.555 18.1559L17.55 18.1496Z" fill="#FFFF00" stroke="black" stroke-width="0.6" stroke-linecap="round" stroke-linejoin="round"/>
<path d="M9.63208 15.7354C9.63287 16.2529 9.71577 16.7651 9.87598 17.2423C10.0362 17.7195 10.2705 18.1522 10.5654 18.5154C10.8567 18.8852 11.2037 19.1792 11.5863 19.3806C11.9689 19.5819 12.3796 19.6867 12.7948 19.6888C13.6349 19.6887 14.4407 19.2714 15.0348 18.5288C15.3286 18.1635 15.5619 17.7293 15.7211 17.2511C15.8804 16.7729 15.9625 16.2601 15.9628 15.7421V10.4621L9.63208 10.4487V15.7354Z" fill="white" stroke="black" stroke-width="0.746669"/>
<path d="M9.74939 15.7421C9.75052 16.2385 9.83027 16.7297 9.98406 17.1874C10.1378 17.6451 10.3626 18.0602 10.6454 18.4088C11.2132 19.1223 11.9843 19.5251 12.7894 19.5288C13.5931 19.5293 14.3642 19.1313 14.9334 18.4221C15.2152 18.073 15.439 17.6577 15.5919 17.2C15.7447 16.7423 15.8236 16.2514 15.8241 15.7554V10.6221H9.76006V15.7421M14.6134 12.1621V15.4221L14.6081 15.7621C14.6099 16.0599 14.5636 16.3551 14.4719 16.6301C14.3803 16.905 14.2452 17.154 14.0747 17.3621C13.7356 17.7875 13.2752 18.0273 12.7947 18.0288C12.2934 18.0288 11.8507 17.7621 11.5201 17.3488C11.1797 16.9248 10.9879 16.3493 10.9867 15.7488V12.1487L14.6134 12.1621Z" fill="#FF0000"/>
<path d="M9.74939 15.7421C9.75052 16.2385 9.83027 16.7297 9.98406 17.1874C10.1378 17.6451 10.3626 18.0602 10.6454 18.4088C11.2132 19.1223 11.9843 19.5251 12.7894 19.5288C13.5931 19.5293 14.3642 19.1313 14.9334 18.4221C15.2152 18.073 15.439 17.6577 15.5919 17.2C15.7447 16.7423 15.8236 16.2514 15.8241 15.7554V10.6221H9.76006V15.7421M14.6134 12.1621V15.4221L14.6081 15.7621C14.6099 16.0599 14.5636 16.3551 14.4719 16.6301C14.3803 16.905 14.2452 17.154 14.0747 17.3621C13.7356 17.7875 13.2752 18.0273 12.7947 18.0288C12.2934 18.0288 11.8507 17.7621 11.5201 17.3488C11.1797 16.9248 10.9879 16.3493 10.9867 15.7488V12.1487L14.6134 12.1621Z" stroke="black" stroke-width="0.533335"/>
<path d="M10.1442 11.9621C10.1495 11.5955 10.3575 11.5088 10.3575 11.5088C10.3628 11.5088 10.5868 11.6021 10.5868 11.9688H10.1442" fill="#FFFF00"/>
<path d="M9.96278 11.5155L9.92544 11.9355H10.1494C10.1494 11.5888 10.3628 11.5355 10.3628 11.5355C10.3681 11.5355 10.5761 11.6088 10.5814 11.9355H10.8054L10.7628 11.5088H9.96278V11.5155ZM9.90944 11.9421H10.8161C10.8321 11.9421 10.8481 11.9621 10.8481 11.9888C10.8481 12.0221 10.8321 12.0421 10.8161 12.0421H9.90944C9.89344 12.0421 9.87744 12.0221 9.87744 11.9888C9.87744 11.9621 9.89344 11.9421 9.91477 11.9421H9.90944Z" fill="#FFFF00" stroke="black" stroke-width="0.533335"/>
<path d="M10.2401 11.9355C10.2401 11.7155 10.3628 11.6555 10.3628 11.6555C10.3628 11.6555 10.4855 11.7222 10.4855 11.9355H10.2401ZM9.9308 11.3355H10.8001C10.8161 11.3355 10.8321 11.3622 10.8321 11.3888C10.8321 11.4088 10.8161 11.4288 10.8001 11.4288H9.9308C9.9148 11.4288 9.8988 11.4088 9.8988 11.3822C9.8988 11.3622 9.9148 11.3422 9.9308 11.3422V11.3355ZM9.95214 11.4355H10.7735C10.7895 11.4355 10.8055 11.4555 10.8055 11.4822C10.8055 11.5088 10.7895 11.5288 10.7735 11.5288H9.9468C9.92547 11.5288 9.9148 11.5088 9.9148 11.4822C9.9148 11.4555 9.92547 11.4355 9.9468 11.4355H9.95214ZM10.2188 10.7288H10.2828V10.7822H10.3308V10.7288H10.4001V10.7888H10.4481V10.7222H10.5121V10.8555C10.5121 10.8822 10.5015 10.8955 10.4855 10.8955H10.2508C10.2348 10.8955 10.2188 10.8822 10.2188 10.8622V10.7288ZM10.4641 10.9088L10.4801 11.3355H10.2508L10.2668 10.9022H10.4641" fill="#FFFF00"/>
<path d="M10.4641 10.9088L10.4801 11.3355H10.2508L10.2668 10.9022H10.4641M10.2401 11.9355C10.2401 11.7155 10.3628 11.6555 10.3628 11.6555C10.3628 11.6555 10.4855 11.7222 10.4855 11.9355H10.2401ZM9.9308 11.3355H10.8001C10.8161 11.3355 10.8321 11.3622 10.8321 11.3888C10.8321 11.4088 10.8161 11.4288 10.8001 11.4288H9.9308C9.9148 11.4288 9.8988 11.4088 9.8988 11.3822C9.8988 11.3622 9.9148 11.3422 9.9308 11.3422V11.3355ZM9.95214 11.4355H10.7735C10.7895 11.4355 10.8055 11.4555 10.8055 11.4822C10.8055 11.5088 10.7895 11.5288 10.7735 11.5288H9.9468C9.92547 11.5288 9.9148 11.5088 9.9148 11.4822C9.9148 11.4555 9.92547 11.4355 9.9468 11.4355H9.95214ZM10.2188 10.7288H10.2828V10.7822H10.3308V10.7288H10.4001V10.7888H10.4481V10.7222H10.5121V10.8555C10.5121 10.8822 10.5015 10.8955 10.4855 10.8955H10.2508C10.2348 10.8955 10.2188 10.8822 10.2188 10.8622V10.7288Z" stroke="black" stroke-width="0.533335"/>
<path d="M10.1867 11.1089V11.3356H9.97339V11.1089H10.1867Z" fill="#FFFF00" stroke="black" stroke-width="0.533335"/>
<path d="M10.7522 11.1089V11.3356H10.5388V11.1089H10.7522Z" fill="#FFFF00" stroke="black" stroke-width="0.533335"/>
<path d="M9.93616 10.9355H10.0002V11.0022H10.0482V10.9355H10.1122V11.0022H10.1602V10.9355H10.2242V11.0689C10.2242 11.0955 10.2135 11.1089 10.1975 11.1089H9.96816C9.95967 11.1089 9.95153 11.1047 9.94553 11.0972C9.93953 11.0897 9.93616 11.0795 9.93616 11.0689V10.9355Z" fill="#FFFF00" stroke="black" stroke-width="0.533335"/>
<path d="M10.5015 10.9355H10.5655V11.0022H10.6135V10.9355H10.6775V11.0022H10.7255V10.9355H10.7895V11.0689C10.7895 11.0955 10.7788 11.1089 10.7628 11.1089H10.5335C10.525 11.1089 10.5168 11.1047 10.5108 11.0972C10.5048 11.0897 10.5015 11.0795 10.5015 11.0689V10.9355Z" fill="#FFFF00" stroke="black" stroke-width="0.533335"/>
<path d="M10.3414 11.0422C10.3414 11.0022 10.3894 11.0022 10.3894 11.0422V11.1489H10.3414V11.0422Z" fill="black"/>
<path d="M10.0587 11.1887C10.0587 11.1487 10.1014 11.1487 10.1014 11.1887V11.2687H10.0587V11.1887Z" fill="black"/>
<path d="M10.6241 11.1887C10.6241 11.1487 10.6668 11.1487 10.6668 11.1887V11.2687H10.6241V11.1887Z" fill="black"/>
<path d="M10.1442 15.049C10.1495 14.6824 10.3575 14.5957 10.3575 14.5957C10.3628 14.5957 10.5868 14.689 10.5868 15.0557H10.1442" fill="#FFFF00"/>
<path d="M9.96278 14.6024L9.92544 15.0224H10.1494C10.1494 14.6757 10.3628 14.6224 10.3628 14.6224C10.3681 14.6224 10.5761 14.6957 10.5814 15.0224H10.8054L10.7628 14.5957H9.96278V14.6024ZM9.90944 15.029H10.8161C10.8321 15.029 10.8481 15.049 10.8481 15.0757C10.8481 15.109 10.8321 15.129 10.8161 15.129H9.90944C9.89344 15.129 9.87744 15.109 9.87744 15.0757C9.87744 15.049 9.89344 15.029 9.91477 15.029H9.90944Z" fill="#FFFF00" stroke="black" stroke-width="0.533335"/>
<path d="M10.2401 15.0224C10.2401 14.8024 10.3628 14.7424 10.3628 14.7424C10.3628 14.7424 10.4855 14.8091 10.4855 15.0224H10.2401ZM9.9308 14.4224H10.8001C10.8161 14.4224 10.8321 14.4491 10.8321 14.4758C10.8321 14.4958 10.8161 14.5158 10.8001 14.5158H9.9308C9.9148 14.5158 9.8988 14.4958 9.8988 14.4691C9.8988 14.4491 9.9148 14.4291 9.9308 14.4291V14.4224ZM9.95214 14.5224H10.7735C10.7895 14.5224 10.8055 14.5424 10.8055 14.5691C10.8055 14.5958 10.7895 14.6158 10.7735 14.6158H9.9468C9.92547 14.6158 9.9148 14.5958 9.9148 14.5691C9.9148 14.5424 9.92547 14.5224 9.9468 14.5224H9.95214ZM10.2188 13.8157H10.2828V13.8691H10.3308V13.8157H10.4001V13.8757H10.4481V13.8091H10.5121V13.9424C10.5121 13.9691 10.5015 13.9824 10.4855 13.9824H10.2508C10.2348 13.9824 10.2188 13.9691 10.2188 13.9491V13.8157ZM10.4641 13.9957L10.4801 14.4224H10.2508L10.2668 13.9891H10.4641" fill="#FFFF00"/>
<path d="M10.4641 13.9957L10.4801 14.4224H10.2508L10.2668 13.9891H10.4641M10.2401 15.0224C10.2401 14.8024 10.3628 14.7424 10.3628 14.7424C10.3628 14.7424 10.4855 14.8091 10.4855 15.0224H10.2401ZM9.9308 14.4224H10.8001C10.8161 14.4224 10.8321 14.4491 10.8321 14.4758C10.8321 14.4958 10.8161 14.5158 10.8001 14.5158H9.9308C9.9148 14.5158 9.8988 14.4958 9.8988 14.4691C9.8988 14.4491 9.9148 14.4291 9.9308 14.4291V14.4224ZM9.95214 14.5224H10.7735C10.7895 14.5224 10.8055 14.5424 10.8055 14.5691C10.8055 14.5958 10.7895 14.6158 10.7735 14.6158H9.9468C9.92547 14.6158 9.9148 14.5958 9.9148 14.5691C9.9148 14.5424 9.92547 14.5224 9.9468 14.5224H9.95214ZM10.2188 13.8157H10.2828V13.8691H10.3308V13.8157H10.4001V13.8757H10.4481V13.8091H10.5121V13.9424C10.5121 13.9691 10.5015 13.9824 10.4855 13.9824H10.2508C10.2348 13.9824 10.2188 13.9691 10.2188 13.9491V13.8157Z" stroke="black" stroke-width="0.533335"/>
<path d="M10.1867 14.1958V14.4225H9.97339V14.1958H10.1867Z" fill="#FFFF00" stroke="black" stroke-width="0.533335"/>
<path d="M10.7522 14.1958V14.4225H10.5388V14.1958H10.7522Z" fill="#FFFF00" stroke="black" stroke-width="0.533335"/>
<path d="M9.93616 14.0225H10.0002V14.0891H10.0482V14.0225H10.1122V14.0891H10.1602V14.0225H10.2242V14.1558C10.2242 14.1825 10.2135 14.1958 10.1975 14.1958H9.96816C9.95967 14.1958 9.95153 14.1916 9.94553 14.1841C9.93953 14.1766 9.93616 14.1664 9.93616 14.1558V14.0225Z" fill="#FFFF00" stroke="black" stroke-width="0.533335"/>
<path d="M10.5015 14.0225H10.5655V14.0891H10.6135V14.0225H10.6775V14.0891H10.7255V14.0225H10.7895V14.1558C10.7895 14.1825 10.7788 14.1958 10.7628 14.1958H10.5335C10.525 14.1958 10.5168 14.1916 10.5108 14.1841C10.5048 14.1766 10.5015 14.1664 10.5015 14.1558V14.0225Z" fill="#FFFF00" stroke="black" stroke-width="0.533335"/>
<path d="M10.3414 14.1291C10.3414 14.0891 10.3894 14.0891 10.3894 14.1291V14.2358H10.3414V14.1291Z" fill="black"/>
<path d="M10.0587 14.2756C10.0587 14.2356 10.1014 14.2356 10.1014 14.2756V14.3556H10.0587V14.2756Z" fill="black"/>
<path d="M10.6241 14.2756C10.6241 14.2356 10.6668 14.2356 10.6668 14.2756V14.3556H10.6241V14.2756Z" fill="black"/>
<path d="M11.1068 18.2655C10.9022 18.0022 10.9995 17.7567 10.9995 17.7567C11.0032 17.752 11.214 17.6193 11.4223 17.8778L11.1106 18.2702" fill="#FFFF00"/>
<path d="M10.7253 18.1112L10.9376 18.4405L11.0954 18.242C10.8984 17.9974 11.0184 17.7707 11.0184 17.7707C11.0221 17.7659 11.2103 17.6333 11.3997 17.859L11.5574 17.6604L11.2849 17.3972L10.7215 18.1065L10.7253 18.1112ZM10.9302 18.4594L11.5687 17.6556C11.58 17.6414 11.6026 17.6414 11.6178 17.6602C11.6367 17.6837 11.6368 17.712 11.6256 17.7262L10.987 18.53C10.9757 18.5442 10.9531 18.5442 10.9341 18.5207C10.919 18.5019 10.9189 18.4736 10.9339 18.4547L10.9302 18.4594Z" fill="#FFFF00" stroke="black" stroke-width="0.533335"/>
<path d="M11.1595 18.162C11.0345 18.0068 11.0868 17.8558 11.0868 17.8558C11.0868 17.8558 11.211 17.7941 11.3322 17.9445L11.1595 18.162ZM10.6008 18.013L11.2129 17.2426C11.2242 17.2284 11.2506 17.233 11.2657 17.2518C11.2771 17.2659 11.2772 17.2942 11.2659 17.3084L10.6538 18.0788C10.6426 18.093 10.6199 18.0931 10.6048 18.0743C10.5934 18.0602 10.5933 18.0319 10.6046 18.0177L10.6008 18.013ZM10.6726 18.0646L11.2509 17.3367C11.2622 17.3225 11.2848 17.3225 11.3 17.3413C11.3151 17.3601 11.3152 17.3883 11.304 17.4025L10.7219 18.1352C10.7069 18.1541 10.688 18.1494 10.6729 18.1306C10.6577 18.1118 10.6539 18.0883 10.6689 18.0694L10.6726 18.0646ZM10.459 17.33L10.504 17.2733L10.5343 17.3109L10.5681 17.2683L10.5378 17.2307L10.5866 17.1693L10.6207 17.2116L10.6545 17.169L10.6166 17.122L10.6617 17.0653L10.7374 17.1593C10.7526 17.1781 10.7527 17.197 10.7414 17.2112L10.5762 17.4191C10.5649 17.4333 10.5461 17.4381 10.5347 17.424L10.459 17.33ZM10.7339 17.2395L10.9876 17.5262L10.8261 17.7294L10.5912 17.4097L10.7302 17.2348" fill="#FFFF00"/>
<path d="M10.7339 17.2395L10.9876 17.5262L10.8261 17.7294L10.5912 17.4097L10.7302 17.2348M11.1595 18.162C11.0345 18.0068 11.0868 17.8558 11.0868 17.8558C11.0868 17.8558 11.211 17.7941 11.3322 17.9445L11.1595 18.162ZM10.6008 18.013L11.2129 17.2426C11.2242 17.2284 11.2506 17.233 11.2657 17.2518C11.2771 17.2659 11.2772 17.2942 11.2659 17.3084L10.6538 18.0788C10.6426 18.093 10.6199 18.0931 10.6048 18.0743C10.5934 18.0602 10.5933 18.0319 10.6046 18.0177L10.6008 18.013ZM10.6726 18.0646L11.2509 17.3367C11.2622 17.3225 11.2848 17.3225 11.3 17.3413C11.3151 17.3601 11.3152 17.3883 11.304 17.4025L10.7219 18.1352C10.7069 18.1541 10.688 18.1494 10.6729 18.1306C10.6577 18.1118 10.6539 18.0883 10.6689 18.0694L10.6726 18.0646ZM10.459 17.33L10.504 17.2733L10.5343 17.3109L10.5681 17.2683L10.5378 17.2307L10.5866 17.1693L10.6207 17.2116L10.6545 17.169L10.6166 17.122L10.6617 17.0653L10.7374 17.1593C10.7526 17.1781 10.7527 17.197 10.7414 17.2112L10.5762 17.4191C10.5649 17.4333 10.5461 17.4381 10.5347 17.424L10.459 17.33Z" stroke="black" stroke-width="0.533335"/>
<path d="M10.6522 17.6263L10.7809 17.7862L10.6307 17.9753L10.502 17.8154L10.6522 17.6263Z" fill="#FFFF00" stroke="black" stroke-width="0.533335"/>
<path d="M11.0505 17.1249L11.1793 17.2847L11.029 17.4738L10.9003 17.314L11.0505 17.1249Z" fill="#FFFF00" stroke="black" stroke-width="0.533335"/>
<path d="M10.3773 17.7266L10.4224 17.6698L10.4603 17.7168L10.4941 17.6743L10.4562 17.6273L10.5013 17.5705L10.5392 17.6176L10.573 17.575L10.5351 17.528L10.5802 17.4712L10.6559 17.5653C10.6711 17.5841 10.6711 17.603 10.6599 17.6171L10.4984 17.8205C10.4924 17.828 10.4842 17.8322 10.4758 17.8323C10.4673 17.8323 10.4591 17.8281 10.4531 17.8206L10.3773 17.7266Z" fill="#FFFF00" stroke="black" stroke-width="0.533335"/>
<path d="M10.7756 17.2251L10.8207 17.1684L10.8586 17.2154L10.8924 17.1728L10.8545 17.1258L10.8996 17.0691L10.9375 17.1161L10.9713 17.0735L10.9334 17.0265L10.9785 16.9698L11.0542 17.0638C11.0694 17.0826 11.0695 17.1015 11.0582 17.1157L10.8967 17.319C10.8907 17.3265 10.8826 17.3308 10.8741 17.3308C10.8656 17.3308 10.8574 17.3266 10.8514 17.3191L10.7756 17.2251Z" fill="#FFFF00" stroke="black" stroke-width="0.533335"/>
<path d="M10.7235 17.4425C10.7007 17.4143 10.7345 17.3718 10.7572 17.4L10.8178 17.4752L10.784 17.5177L10.7235 17.4425Z" fill="black"/>
<path d="M10.6075 17.7965C10.5848 17.7683 10.6148 17.7305 10.6375 17.7587L10.683 17.8151L10.6529 17.8529L10.6075 17.7965Z" fill="black"/>
<path d="M11.0058 17.2951C10.9831 17.2669 11.0131 17.2291 11.0358 17.2573L11.0813 17.3137L11.0512 17.3515L11.0058 17.2951Z" fill="black"/>
<path d="M12.5814 11.9621C12.5868 11.5955 12.7948 11.5088 12.7948 11.5088C12.8001 11.5088 13.0241 11.6021 13.0241 11.9688H12.5814" fill="#FFFF00"/>
<path d="M12.4 11.5155L12.3627 11.9355H12.5867C12.5867 11.5888 12.8 11.5355 12.8 11.5355C12.8054 11.5355 13.0134 11.6088 13.0187 11.9355H13.2427L13.2 11.5088H12.4V11.5155ZM12.3467 11.9421H13.2534C13.2694 11.9421 13.2854 11.9621 13.2854 11.9888C13.2854 12.0221 13.2694 12.0421 13.2534 12.0421H12.3467C12.3307 12.0421 12.3147 12.0221 12.3147 11.9888C12.3147 11.9621 12.3307 11.9421 12.352 11.9421H12.3467Z" fill="#FFFF00" stroke="black" stroke-width="0.533335"/>
<path d="M12.6774 11.9355C12.6774 11.7155 12.8001 11.6555 12.8001 11.6555C12.8001 11.6555 12.9227 11.7222 12.9227 11.9355H12.6774ZM12.3681 11.3355H13.2374C13.2534 11.3355 13.2694 11.3622 13.2694 11.3888C13.2694 11.4088 13.2534 11.4288 13.2374 11.4288H12.3681C12.3521 11.4288 12.3361 11.4088 12.3361 11.3822C12.3361 11.3622 12.3521 11.3422 12.3681 11.3422V11.3355ZM12.3894 11.4355H13.2107C13.2267 11.4355 13.2427 11.4555 13.2427 11.4822C13.2427 11.5088 13.2267 11.5288 13.2107 11.5288H12.3841C12.3627 11.5288 12.3521 11.5088 12.3521 11.4822C12.3521 11.4555 12.3627 11.4355 12.3841 11.4355H12.3894ZM12.6561 10.7288H12.7201V10.7822H12.7681V10.7288H12.8374V10.7888H12.8854V10.7222H12.9494V10.8555C12.9494 10.8822 12.9387 10.8955 12.9227 10.8955H12.6881C12.6721 10.8955 12.6561 10.8822 12.6561 10.8622V10.7288ZM12.9014 10.9088L12.9174 11.3355H12.6881L12.7041 10.9022H12.9014" fill="#FFFF00"/>
<path d="M12.9014 10.9088L12.9174 11.3355H12.6881L12.7041 10.9022H12.9014M12.6774 11.9355C12.6774 11.7155 12.8001 11.6555 12.8001 11.6555C12.8001 11.6555 12.9227 11.7222 12.9227 11.9355H12.6774ZM12.3681 11.3355H13.2374C13.2534 11.3355 13.2694 11.3622 13.2694 11.3888C13.2694 11.4088 13.2534 11.4288 13.2374 11.4288H12.3681C12.3521 11.4288 12.3361 11.4088 12.3361 11.3822C12.3361 11.3622 12.3521 11.3422 12.3681 11.3422V11.3355ZM12.3894 11.4355H13.2107C13.2267 11.4355 13.2427 11.4555 13.2427 11.4822C13.2427 11.5088 13.2267 11.5288 13.2107 11.5288H12.3841C12.3627 11.5288 12.3521 11.5088 12.3521 11.4822C12.3521 11.4555 12.3627 11.4355 12.3841 11.4355H12.3894ZM12.6561 10.7288H12.7201V10.7822H12.7681V10.7288H12.8374V10.7888H12.8854V10.7222H12.9494V10.8555C12.9494 10.8822 12.9387 10.8955 12.9227 10.8955H12.6881C12.6721 10.8955 12.6561 10.8822 12.6561 10.8622V10.7288Z" stroke="black" stroke-width="0.533335"/>
<path d="M12.624 11.1089V11.3356H12.4106V11.1089H12.624Z" fill="#FFFF00" stroke="black" stroke-width="0.533335"/>
<path d="M13.1894 11.1089V11.3356H12.9761V11.1089H13.1894Z" fill="#FFFF00" stroke="black" stroke-width="0.533335"/>
<path d="M12.3734 10.9355H12.4374V11.0022H12.4854V10.9355H12.5494V11.0022H12.5974V10.9355H12.6614V11.0689C12.6614 11.0955 12.6507 11.1089 12.6347 11.1089H12.4054C12.3969 11.1089 12.3888 11.1047 12.3828 11.0972C12.3768 11.0897 12.3734 11.0795 12.3734 11.0689V10.9355Z" fill="#FFFF00" stroke="black" stroke-width="0.533335"/>
<path d="M12.9387 10.9355H13.0027V11.0022H13.0507V10.9355H13.1147V11.0022H13.1627V10.9355H13.2267V11.0689C13.2267 11.0955 13.2161 11.1089 13.2001 11.1089H12.9707C12.9622 11.1089 12.9541 11.1047 12.9481 11.0972C12.9421 11.0897 12.9387 11.0795 12.9387 11.0689V10.9355Z" fill="#FFFF00" stroke="black" stroke-width="0.533335"/>
<path d="M12.7787 11.0422C12.7787 11.0022 12.8267 11.0022 12.8267 11.0422V11.1489H12.7787V11.0422Z" fill="black"/>
<path d="M12.496 11.1887C12.496 11.1487 12.5386 11.1487 12.5386 11.1887V11.2687H12.496V11.1887Z" fill="black"/>
<path d="M13.0614 11.1887C13.0614 11.1487 13.1041 11.1487 13.1041 11.1887V11.2687H13.0614V11.1887Z" fill="black"/>
<path d="M15.4456 11.9621C15.4402 11.5955 15.2322 11.5088 15.2322 11.5088C15.2269 11.5088 15.0029 11.6021 15.0029 11.9688H15.4456" fill="#FFFF00"/>
<path d="M15.6268 11.5155L15.6642 11.9355H15.4402C15.4402 11.5888 15.2268 11.5355 15.2268 11.5355C15.2215 11.5355 15.0135 11.6088 15.0082 11.9355H14.7842L14.8268 11.5088H15.6268V11.5155ZM15.6802 11.9421H14.7735C14.7575 11.9421 14.7415 11.9621 14.7415 11.9888C14.7415 12.0221 14.7575 12.0421 14.7735 12.0421H15.6802C15.6962 12.0421 15.7122 12.0221 15.7122 11.9888C15.7122 11.9621 15.6962 11.9421 15.6748 11.9421H15.6802Z" fill="#FFFF00" stroke="black" stroke-width="0.533335"/>
<path d="M15.3495 11.9355C15.3495 11.7155 15.2268 11.6555 15.2268 11.6555C15.2268 11.6555 15.1041 11.7222 15.1041 11.9355H15.3495ZM15.6588 11.3355H14.7895C14.7735 11.3355 14.7575 11.3622 14.7575 11.3888C14.7575 11.4088 14.7735 11.4288 14.7895 11.4288H15.6588C15.6748 11.4288 15.6908 11.4088 15.6908 11.3822C15.6908 11.3622 15.6748 11.3422 15.6588 11.3422V11.3355ZM15.6375 11.4355H14.8161C14.8001 11.4355 14.7841 11.4555 14.7841 11.4822C14.7841 11.5088 14.8001 11.5288 14.8161 11.5288H15.6428C15.6641 11.5288 15.6748 11.5088 15.6748 11.4822C15.6748 11.4555 15.6641 11.4355 15.6428 11.4355H15.6375ZM15.3708 10.7288H15.3068V10.7822H15.2588V10.7288H15.1895V10.7888H15.1415V10.7222H15.0775V10.8555C15.0775 10.8822 15.0881 10.8955 15.1041 10.8955H15.3388C15.3548 10.8955 15.3708 10.8822 15.3708 10.8622V10.7288ZM15.1255 10.9088L15.1095 11.3355H15.3388L15.3228 10.9022H15.1255" fill="#FFFF00"/>
<path d="M15.1255 10.9088L15.1095 11.3355H15.3388L15.3228 10.9022H15.1255M15.3495 11.9355C15.3495 11.7155 15.2268 11.6555 15.2268 11.6555C15.2268 11.6555 15.1041 11.7222 15.1041 11.9355H15.3495ZM15.6588 11.3355H14.7895C14.7735 11.3355 14.7575 11.3622 14.7575 11.3888C14.7575 11.4088 14.7735 11.4288 14.7895 11.4288H15.6588C15.6748 11.4288 15.6908 11.4088 15.6908 11.3822C15.6908 11.3622 15.6748 11.3422 15.6588 11.3422V11.3355ZM15.6375 11.4355H14.8161C14.8001 11.4355 14.7841 11.4555 14.7841 11.4822C14.7841 11.5088 14.8001 11.5288 14.8161 11.5288H15.6428C15.6641 11.5288 15.6748 11.5088 15.6748 11.4822C15.6748 11.4555 15.6641 11.4355 15.6428 11.4355H15.6375ZM15.3708 10.7288H15.3068V10.7822H15.2588V10.7288H15.1895V10.7888H15.1415V10.7222H15.0775V10.8555C15.0775 10.8822 15.0881 10.8955 15.1041 10.8955H15.3388C15.3548 10.8955 15.3708 10.8822 15.3708 10.8622V10.7288Z" stroke="black" stroke-width="0.533335"/>
<path d="M15.4029 11.1089V11.3356H15.6162V11.1089H15.4029Z" fill="#FFFF00" stroke="black" stroke-width="0.533335"/>
<path d="M14.8374 11.1089V11.3356H15.0508V11.1089H14.8374Z" fill="#FFFF00" stroke="black" stroke-width="0.533335"/>
<path d="M15.6536 10.9355H15.5896V11.0022H15.5416V10.9355H15.4776V11.0022H15.4296V10.9355H15.3656V11.0689C15.3656 11.0955 15.3762 11.1089 15.3922 11.1089H15.6216C15.6301 11.1089 15.6382 11.1047 15.6442 11.0972C15.6502 11.0897 15.6536 11.0795 15.6536 11.0689V10.9355Z" fill="#FFFF00" stroke="black" stroke-width="0.533335"/>
<path d="M15.0881 10.9355H15.0241V11.0022H14.9761V10.9355H14.9121V11.0022H14.8641V10.9355H14.8001V11.0689C14.8001 11.0955 14.8108 11.1089 14.8268 11.1089H15.0561C15.0646 11.1089 15.0728 11.1047 15.0788 11.0972C15.0848 11.0897 15.0881 11.0795 15.0881 11.0689V10.9355Z" fill="#FFFF00" stroke="black" stroke-width="0.533335"/>
<path d="M15.2482 11.0422C15.2482 11.0022 15.2002 11.0022 15.2002 11.0422V11.1489H15.2482V11.0422Z" fill="black"/>
<path d="M15.5309 11.1887C15.5309 11.1487 15.4882 11.1487 15.4882 11.1887V11.2687H15.5309V11.1887Z" fill="black"/>
<path d="M14.9655 11.1887C14.9655 11.1487 14.9228 11.1487 14.9228 11.1887V11.2687H14.9655V11.1887Z" fill="black"/>
<path d="M15.4454 15.049C15.4401 14.6824 15.2321 14.5957 15.2321 14.5957C15.2268 14.5957 15.0028 14.689 15.0028 15.0557H15.4454" fill="#FFFF00"/>
<path d="M15.6268 14.6024L15.6642 15.0224H15.4402C15.4402 14.6757 15.2268 14.6224 15.2268 14.6224C15.2215 14.6224 15.0135 14.6957 15.0082 15.0224H14.7842L14.8268 14.5957H15.6268V14.6024ZM15.6802 15.029H14.7735C14.7575 15.029 14.7415 15.049 14.7415 15.0757C14.7415 15.109 14.7575 15.129 14.7735 15.129H15.6802C15.6962 15.129 15.7122 15.109 15.7122 15.0757C15.7122 15.049 15.6962 15.029 15.6748 15.029H15.6802Z" fill="#FFFF00" stroke="black" stroke-width="0.533335"/>
<path d="M15.3495 15.0224C15.3495 14.8024 15.2268 14.7424 15.2268 14.7424C15.2268 14.7424 15.1041 14.8091 15.1041 15.0224H15.3495ZM15.6588 14.4224H14.7895C14.7735 14.4224 14.7575 14.4491 14.7575 14.4758C14.7575 14.4958 14.7735 14.5158 14.7895 14.5158H15.6588C15.6748 14.5158 15.6908 14.4958 15.6908 14.4691C15.6908 14.4491 15.6748 14.4291 15.6588 14.4291V14.4224ZM15.6375 14.5224H14.8161C14.8001 14.5224 14.7841 14.5424 14.7841 14.5691C14.7841 14.5958 14.8001 14.6158 14.8161 14.6158H15.6428C15.6641 14.6158 15.6748 14.5958 15.6748 14.5691C15.6748 14.5424 15.6641 14.5224 15.6428 14.5224H15.6375ZM15.3708 13.8157H15.3068V13.8691H15.2588V13.8157H15.1895V13.8757H15.1415V13.8091H15.0775V13.9424C15.0775 13.9691 15.0881 13.9824 15.1041 13.9824H15.3388C15.3548 13.9824 15.3708 13.9691 15.3708 13.9491V13.8157ZM15.1255 13.9957L15.1095 14.4224H15.3388L15.3228 13.9891H15.1255" fill="#FFFF00"/>
<path d="M15.1255 13.9957L15.1095 14.4224H15.3388L15.3228 13.9891H15.1255M15.3495 15.0224C15.3495 14.8024 15.2268 14.7424 15.2268 14.7424C15.2268 14.7424 15.1041 14.8091 15.1041 15.0224H15.3495ZM15.6588 14.4224H14.7895C14.7735 14.4224 14.7575 14.4491 14.7575 14.4758C14.7575 14.4958 14.7735 14.5158 14.7895 14.5158H15.6588C15.6748 14.5158 15.6908 14.4958 15.6908 14.4691C15.6908 14.4491 15.6748 14.4291 15.6588 14.4291V14.4224ZM15.6375 14.5224H14.8161C14.8001 14.5224 14.7841 14.5424 14.7841 14.5691C14.7841 14.5958 14.8001 14.6158 14.8161 14.6158H15.6428C15.6641 14.6158 15.6748 14.5958 15.6748 14.5691C15.6748 14.5424 15.6641 14.5224 15.6428 14.5224H15.6375ZM15.3708 13.8157H15.3068V13.8691H15.2588V13.8157H15.1895V13.8757H15.1415V13.8091H15.0775V13.9424C15.0775 13.9691 15.0881 13.9824 15.1041 13.9824H15.3388C15.3548 13.9824 15.3708 13.9691 15.3708 13.9491V13.8157Z" stroke="black" stroke-width="0.533335"/>
<path d="M15.4029 14.1958V14.4225H15.6162V14.1958H15.4029Z" fill="#FFFF00" stroke="black" stroke-width="0.533335"/>
<path d="M14.8374 14.1958V14.4225H15.0508V14.1958H14.8374Z" fill="#FFFF00" stroke="black" stroke-width="0.533335"/>
<path d="M15.6534 14.0225H15.5894V14.0891H15.5414V14.0225H15.4774V14.0891H15.4294V14.0225H15.3654V14.1558C15.3654 14.1825 15.3761 14.1958 15.3921 14.1958H15.6214C15.6299 14.1958 15.6381 14.1916 15.6441 14.1841C15.6501 14.1766 15.6534 14.1664 15.6534 14.1558V14.0225Z" fill="#FFFF00" stroke="black" stroke-width="0.533335"/>
<path d="M15.0881 14.0225H15.0241V14.0891H14.9761V14.0225H14.9121V14.0891H14.8641V14.0225H14.8001V14.1558C14.8001 14.1825 14.8108 14.1958 14.8268 14.1958H15.0561C15.0646 14.1958 15.0728 14.1916 15.0788 14.1841C15.0848 14.1766 15.0881 14.1664 15.0881 14.1558V14.0225Z" fill="#FFFF00" stroke="black" stroke-width="0.533335"/>
<path d="M15.2482 14.1291C15.2482 14.0891 15.2002 14.0891 15.2002 14.1291V14.2358H15.2482V14.1291Z" fill="black"/>
<path d="M15.5309 14.2756C15.5309 14.2356 15.4882 14.2356 15.4882 14.2756V14.3556H15.5309V14.2756Z" fill="black"/>
<path d="M14.9655 14.2756C14.9655 14.2356 14.9228 14.2356 14.9228 14.2756V14.3556H14.9655V14.2756Z" fill="black"/>
<path d="M14.4828 18.2655C14.6874 18.0022 14.5901 17.7567 14.5901 17.7567C14.5864 17.752 14.3756 17.6193 14.1673 17.8778L14.479 18.2702" fill="#FFFF00"/>
<path d="M14.8643 18.1112L14.652 18.4405L14.4942 18.242C14.6912 17.9974 14.5712 17.7707 14.5712 17.7707C14.5675 17.7659 14.3793 17.6333 14.1899 17.859L14.0322 17.6604L14.3047 17.3972L14.8681 18.1065L14.8643 18.1112ZM14.6594 18.4594L14.0209 17.6556C14.0096 17.6414 13.987 17.6414 13.9718 17.6602C13.9529 17.6837 13.9528 17.712 13.964 17.7262L14.6026 18.53C14.6139 18.5442 14.6365 18.5442 14.6555 18.5207C14.6706 18.5019 14.6707 18.4736 14.6557 18.4547L14.6594 18.4594Z" fill="#FFFF00" stroke="black" stroke-width="0.533335"/>
<path d="M14.4301 18.162C14.5551 18.0068 14.5028 17.8558 14.5028 17.8558C14.5028 17.8558 14.3786 17.7941 14.2574 17.9445L14.4301 18.162ZM14.9888 18.013L14.3767 17.2426C14.3654 17.2284 14.339 17.233 14.3239 17.2518C14.3125 17.2659 14.3124 17.2942 14.3237 17.3084L14.9358 18.0788C14.947 18.093 14.9697 18.0931 14.9848 18.0743C14.9962 18.0602 14.9963 18.0319 14.985 18.0177L14.9888 18.013ZM14.917 18.0646L14.3387 17.3367C14.3274 17.3225 14.3048 17.3225 14.2896 17.3413C14.2745 17.3601 14.2744 17.3883 14.2856 17.4025L14.8677 18.1352C14.8827 18.1541 14.9016 18.1494 14.9167 18.1306C14.9319 18.1118 14.9357 18.0883 14.9207 18.0694L14.917 18.0646ZM15.1306 17.33L15.0856 17.2733L15.0553 17.3109L15.0215 17.2683L15.0518 17.2307L15.003 17.1693L14.9689 17.2116L14.9351 17.169L14.973 17.122L14.9279 17.0653L14.8522 17.1593C14.837 17.1781 14.8369 17.197 14.8482 17.2112L15.0134 17.4191C15.0247 17.4333 15.0435 17.4381 15.0549 17.424L15.1306 17.33ZM14.8557 17.2395L14.602 17.5262L14.7635 17.7294L14.9984 17.4097L14.8594 17.2348" fill="#FFFF00"/>
<path d="M14.8557 17.2395L14.602 17.5262L14.7635 17.7294L14.9984 17.4097L14.8594 17.2348M14.4301 18.162C14.5551 18.0068 14.5028 17.8558 14.5028 17.8558C14.5028 17.8558 14.3786 17.7941 14.2574 17.9445L14.4301 18.162ZM14.9888 18.013L14.3767 17.2426C14.3654 17.2284 14.339 17.233 14.3239 17.2518C14.3125 17.2659 14.3124 17.2942 14.3237 17.3084L14.9358 18.0788C14.947 18.093 14.9697 18.0931 14.9848 18.0743C14.9962 18.0602 14.9963 18.0319 14.985 18.0177L14.9888 18.013ZM14.917 18.0646L14.3387 17.3367C14.3274 17.3225 14.3048 17.3225 14.2896 17.3413C14.2745 17.3601 14.2744 17.3883 14.2856 17.4025L14.8677 18.1352C14.8827 18.1541 14.9016 18.1494 14.9167 18.1306C14.9319 18.1118 14.9357 18.0883 14.9207 18.0694L14.917 18.0646ZM15.1306 17.33L15.0856 17.2733L15.0553 17.3109L15.0215 17.2683L15.0518 17.2307L15.003 17.1693L14.9689 17.2116L14.9351 17.169L14.973 17.122L14.9279 17.0653L14.8522 17.1593C14.837 17.1781 14.8369 17.197 14.8482 17.2112L15.0134 17.4191C15.0247 17.4333 15.0435 17.4381 15.0549 17.424L15.1306 17.33Z" stroke="black" stroke-width="0.533335"/>
<path d="M14.9374 17.6263L14.8087 17.7862L14.9589 17.9753L15.0876 17.8154L14.9374 17.6263Z" fill="#FFFF00" stroke="black" stroke-width="0.533335"/>
<path d="M14.5391 17.1249L14.4103 17.2847L14.5606 17.4738L14.6893 17.314L14.5391 17.1249Z" fill="#FFFF00" stroke="black" stroke-width="0.533335"/>
<path d="M15.2123 17.7266L15.1672 17.6698L15.1293 17.7168L15.0955 17.6743L15.1334 17.6273L15.0883 17.5705L15.0504 17.6176L15.0166 17.575L15.0545 17.528L15.0094 17.4712L14.9337 17.5653C14.9185 17.5841 14.9185 17.603 14.9297 17.6171L15.0912 17.8205C15.0972 17.828 15.1054 17.8322 15.1138 17.8323C15.1223 17.8323 15.1305 17.8281 15.1365 17.8206L15.2123 17.7266Z" fill="#FFFF00" stroke="black" stroke-width="0.533335"/>
<path d="M14.814 17.2251L14.7689 17.1684L14.731 17.2154L14.6972 17.1728L14.7351 17.1258L14.69 17.0691L14.6521 17.1161L14.6183 17.0735L14.6562 17.0265L14.6111 16.9698L14.5354 17.0638C14.5202 17.0826 14.5201 17.1015 14.5314 17.1157L14.6929 17.319C14.6989 17.3265 14.707 17.3308 14.7155 17.3308C14.724 17.3308 14.7322 17.3266 14.7382 17.3191L14.814 17.2251Z" fill="#FFFF00" stroke="black" stroke-width="0.533335"/>
<path d="M14.8661 17.4425C14.8889 17.4143 14.8551 17.3718 14.8324 17.4L14.7718 17.4752L14.8056 17.5177L14.8661 17.4425Z" fill="black"/>
<path d="M14.9821 17.7965C15.0048 17.7683 14.9748 17.7305 14.9521 17.7587L14.9066 17.8151L14.9367 17.8529L14.9821 17.7965Z" fill="black"/>
<path d="M14.5838 17.2951C14.6065 17.2669 14.5765 17.2291 14.5538 17.2573L14.5083 17.3137L14.5384 17.3515L14.5838 17.2951Z" fill="black"/>
<path d="M12.4054 15.1619C12.4044 15.3026 12.4464 15.4385 12.5227 15.5419C12.5584 15.5917 12.6019 15.6316 12.6506 15.6592C12.6992 15.6867 12.752 15.7013 12.8054 15.7019C12.9174 15.7019 13.0187 15.6352 13.0881 15.5419C13.1644 15.4385 13.2064 15.3026 13.2054 15.1619V14.4419H12.4054V15.1619Z" fill="#003399"/>
<path d="M12.5921 14.8152C12.6363 14.8152 12.6721 14.7705 12.6721 14.7152C12.6721 14.66 12.6363 14.6152 12.5921 14.6152C12.5479 14.6152 12.5121 14.66 12.5121 14.7152C12.5121 14.7705 12.5479 14.8152 12.5921 14.8152Z" fill="white"/>
<path d="M13.0347 14.8152C13.0789 14.8152 13.1147 14.7705 13.1147 14.7152C13.1147 14.66 13.0789 14.6152 13.0347 14.6152C12.9905 14.6152 12.9547 14.66 12.9547 14.7152C12.9547 14.7705 12.9905 14.8152 13.0347 14.8152Z" fill="white"/>
<path d="M12.8107 15.0818C12.8549 15.0818 12.8907 15.0371 12.8907 14.9818C12.8907 14.9266 12.8549 14.8818 12.8107 14.8818C12.7665 14.8818 12.7307 14.9266 12.7307 14.9818C12.7307 15.0371 12.7665 15.0818 12.8107 15.0818Z" fill="white"/>
<path d="M12.5921 15.3621C12.6363 15.3621 12.6721 15.3173 12.6721 15.2621C12.6721 15.2069 12.6363 15.1621 12.5921 15.1621C12.5479 15.1621 12.5121 15.2069 12.5121 15.2621C12.5121 15.3173 12.5479 15.3621 12.5921 15.3621Z" fill="white"/>
<path d="M13.0347 15.3621C13.0789 15.3621 13.1147 15.3173 13.1147 15.2621C13.1147 15.2069 13.0789 15.1621 13.0347 15.1621C12.9905 15.1621 12.9547 15.2069 12.9547 15.2621C12.9547 15.3173 12.9905 15.3621 13.0347 15.3621Z" fill="white"/>
<path d="M12.4054 13.4285C12.4044 13.5692 12.4464 13.7051 12.5227 13.8085C12.5584 13.8583 12.6019 13.8982 12.6506 13.9258C12.6992 13.9533 12.752 13.9679 12.8054 13.9685C12.9174 13.9685 13.0187 13.9018 13.0881 13.8085C13.1644 13.7051 13.2064 13.5692 13.2054 13.4285V12.7085H12.4054V13.4285Z" fill="#003399"/>
<path d="M12.5921 13.0818C12.6363 13.0818 12.6721 13.0371 12.6721 12.9818C12.6721 12.9266 12.6363 12.8818 12.5921 12.8818C12.5479 12.8818 12.5121 12.9266 12.5121 12.9818C12.5121 13.0371 12.5479 13.0818 12.5921 13.0818Z" fill="white"/>
<path d="M13.0347 13.0818C13.0789 13.0818 13.1147 13.0371 13.1147 12.9818C13.1147 12.9266 13.0789 12.8818 13.0347 12.8818C12.9905 12.8818 12.9547 12.9266 12.9547 12.9818C12.9547 13.0371 12.9905 13.0818 13.0347 13.0818Z" fill="white"/>
<path d="M12.8107 13.3484C12.8549 13.3484 12.8907 13.3037 12.8907 13.2484C12.8907 13.1932 12.8549 13.1484 12.8107 13.1484C12.7665 13.1484 12.7307 13.1932 12.7307 13.2484C12.7307 13.3037 12.7665 13.3484 12.8107 13.3484Z" fill="white"/>
<path d="M12.5921 13.6287C12.6363 13.6287 12.6721 13.5839 12.6721 13.5287C12.6721 13.4735 12.6363 13.4287 12.5921 13.4287C12.5479 13.4287 12.5121 13.4735 12.5121 13.5287C12.5121 13.5839 12.5479 13.6287 12.5921 13.6287Z" fill="white"/>
<path d="M13.0347 13.6287C13.0789 13.6287 13.1147 13.5839 13.1147 13.5287C13.1147 13.4735 13.0789 13.4287 13.0347 13.4287C12.9905 13.4287 12.9547 13.4735 12.9547 13.5287C12.9547 13.5839 12.9905 13.6287 13.0347 13.6287Z" fill="white"/>
<path d="M11.296 15.1619C11.2951 15.3026 11.337 15.4385 11.4134 15.5419C11.449 15.5917 11.4925 15.6316 11.5412 15.6592C11.5899 15.6867 11.6426 15.7013 11.696 15.7019C11.808 15.7019 11.9094 15.6352 11.9787 15.5419C12.055 15.4385 12.097 15.3026 12.096 15.1619V14.4419H11.296V15.1619Z" fill="#003399"/>
<path d="M11.4827 14.8152C11.5269 14.8152 11.5627 14.7705 11.5627 14.7152C11.5627 14.66 11.5269 14.6152 11.4827 14.6152C11.4385 14.6152 11.4027 14.66 11.4027 14.7152C11.4027 14.7705 11.4385 14.8152 11.4827 14.8152Z" fill="white"/>
<path d="M11.9253 14.8152C11.9695 14.8152 12.0053 14.7705 12.0053 14.7152C12.0053 14.66 11.9695 14.6152 11.9253 14.6152C11.8812 14.6152 11.8453 14.66 11.8453 14.7152C11.8453 14.7705 11.8812 14.8152 11.9253 14.8152Z" fill="white"/>
<path d="M11.7013 15.0818C11.7455 15.0818 11.7813 15.0371 11.7813 14.9818C11.7813 14.9266 11.7455 14.8818 11.7013 14.8818C11.6572 14.8818 11.6213 14.9266 11.6213 14.9818C11.6213 15.0371 11.6572 15.0818 11.7013 15.0818Z" fill="white"/>
<path d="M11.4827 15.3621C11.5269 15.3621 11.5627 15.3173 11.5627 15.2621C11.5627 15.2069 11.5269 15.1621 11.4827 15.1621C11.4385 15.1621 11.4027 15.2069 11.4027 15.2621C11.4027 15.3173 11.4385 15.3621 11.4827 15.3621Z" fill="white"/>
<path d="M11.9253 15.3621C11.9695 15.3621 12.0053 15.3173 12.0053 15.2621C12.0053 15.2069 11.9695 15.1621 11.9253 15.1621C11.8812 15.1621 11.8453 15.2069 11.8453 15.2621C11.8453 15.3173 11.8812 15.3621 11.9253 15.3621Z" fill="white"/>
<path d="M13.5148 15.1619C13.5138 15.3026 13.5558 15.4385 13.6321 15.5419C13.6677 15.5917 13.7113 15.6316 13.7599 15.6592C13.8086 15.6867 13.8614 15.7013 13.9148 15.7019C14.0268 15.7019 14.1281 15.6352 14.1975 15.5419C14.2738 15.4385 14.3158 15.3026 14.3148 15.1619V14.4419H13.5148V15.1619Z" fill="#003399"/>
<path d="M13.7015 14.8152C13.7456 14.8152 13.7815 14.7705 13.7815 14.7152C13.7815 14.66 13.7456 14.6152 13.7015 14.6152C13.6573 14.6152 13.6215 14.66 13.6215 14.7152C13.6215 14.7705 13.6573 14.8152 13.7015 14.8152Z" fill="white"/>
<path d="M14.1441 14.8152C14.1883 14.8152 14.2241 14.7705 14.2241 14.7152C14.2241 14.66 14.1883 14.6152 14.1441 14.6152C14.0999 14.6152 14.0641 14.66 14.0641 14.7152C14.0641 14.7705 14.0999 14.8152 14.1441 14.8152Z" fill="white"/>
<path d="M13.9201 15.0818C13.9643 15.0818 14.0001 15.0371 14.0001 14.9818C14.0001 14.9266 13.9643 14.8818 13.9201 14.8818C13.8759 14.8818 13.8401 14.9266 13.8401 14.9818C13.8401 15.0371 13.8759 15.0818 13.9201 15.0818Z" fill="white"/>
<path d="M13.7015 15.3621C13.7456 15.3621 13.7815 15.3173 13.7815 15.2621C13.7815 15.2069 13.7456 15.1621 13.7015 15.1621C13.6573 15.1621 13.6215 15.2069 13.6215 15.2621C13.6215 15.3173 13.6573 15.3621 13.7015 15.3621Z" fill="white"/>
<path d="M14.1441 15.3621C14.1883 15.3621 14.2241 15.3173 14.2241 15.2621C14.2241 15.2069 14.1883 15.1621 14.1441 15.1621C14.0999 15.1621 14.0641 15.2069 14.0641 15.2621C14.0641 15.3173 14.0999 15.3621 14.1441 15.3621Z" fill="white"/>
<path d="M12.4054 16.8821C12.4044 17.0228 12.4464 17.1587 12.5227 17.2621C12.5584 17.3119 12.6019 17.3518 12.6506 17.3794C12.6992 17.4069 12.752 17.4215 12.8054 17.4221C12.9174 17.4221 13.0187 17.3554 13.0881 17.2621C13.1644 17.1587 13.2064 17.0228 13.2054 16.8821V16.1621H12.4054V16.8821Z" fill="#003399"/>
<path d="M12.5921 16.5354C12.6363 16.5354 12.6721 16.4907 12.6721 16.4354C12.6721 16.3802 12.6363 16.3354 12.5921 16.3354C12.5479 16.3354 12.5121 16.3802 12.5121 16.4354C12.5121 16.4907 12.5479 16.5354 12.5921 16.5354Z" fill="white"/>
<path d="M13.0347 16.5354C13.0789 16.5354 13.1147 16.4907 13.1147 16.4354C13.1147 16.3802 13.0789 16.3354 13.0347 16.3354C12.9905 16.3354 12.9547 16.3802 12.9547 16.4354C12.9547 16.4907 12.9905 16.5354 13.0347 16.5354Z" fill="white"/>
<path d="M12.8107 16.8021C12.8549 16.8021 12.8907 16.7573 12.8907 16.7021C12.8907 16.6468 12.8549 16.6021 12.8107 16.6021C12.7665 16.6021 12.7307 16.6468 12.7307 16.7021C12.7307 16.7573 12.7665 16.8021 12.8107 16.8021Z" fill="white"/>
<path d="M12.5921 17.0823C12.6363 17.0823 12.6721 17.0376 12.6721 16.9823C12.6721 16.9271 12.6363 16.8823 12.5921 16.8823C12.5479 16.8823 12.5121 16.9271 12.5121 16.9823C12.5121 17.0376 12.5479 17.0823 12.5921 17.0823Z" fill="white"/>
<path d="M13.0347 17.0823C13.0789 17.0823 13.1147 17.0376 13.1147 16.9823C13.1147 16.9271 13.0789 16.8823 13.0347 16.8823C12.9905 16.8823 12.9547 16.9271 12.9547 16.9823C12.9547 17.0376 12.9905 17.0823 13.0347 17.0823Z" fill="white"/>
</g>
<defs>
<clipPath id="clip0_317_71">
<rect width="32" height="30" fill="white"/>
</clipPath>
</defs>
</svg>
