<svg width="213" height="100" viewBox="0 0 213 100" fill="none" xmlns="http://www.w3.org/2000/svg">
<g clip-path="url(#clip0_317_1278)">
<path d="M0 0H213V100H0V0Z" fill="white"/>
<mask id="mask0_317_1278" style="mask-type:luminance" maskUnits="userSpaceOnUse" x="0" y="17" width="213" height="70">
<path d="M0 17.5H213V86.36H0V17.5Z" fill="white"/>
</mask>
<g mask="url(#mask0_317_1278)">
<path d="M156.395 83.2751H175.661L212.617 17.7426H37.3389L0.383423 83.2751H99.077" stroke="black" stroke-width="0.193"/>
<path d="M174.062 38.5251L166.73 42.7376C168.221 43.4076 169.71 44.0776 171.197 44.7526C172.119 45.1701 173.212 45.6951 173.616 46.9726C174.03 48.2876 173.42 49.4551 172.884 50.4526L170.443 54.9376C167.546 60.2576 164.649 65.5751 161.746 70.8876C161.746 69.2476 161.744 67.6076 161.737 65.9676C163.163 60.7014 164.537 55.416 165.859 50.1126C166.034 49.4051 165.921 48.9826 165.341 48.6451C163.861 47.7876 162.378 46.9326 160.894 46.0776L156.446 48.6451C155.867 48.9826 155.752 49.4051 155.927 50.1126C157.244 55.418 158.618 60.7034 160.05 65.9676C160.05 67.6076 160.046 69.2476 160.04 70.8876C157.134 65.5758 154.235 60.2591 151.343 54.9376L148.904 50.4526C148.365 49.4626 147.752 48.2926 148.171 46.9726C148.574 45.6951 149.669 45.1726 150.589 44.7526L155.058 42.7376L147.726 38.5251L150.012 43.0226L146.222 44.7301C143.578 39.8645 140.934 34.9979 138.292 30.1301C145.816 33.2601 153.33 36.4176 160.887 39.4451C168.443 36.4176 175.957 33.2576 183.482 30.1276C180.846 35.0002 178.202 39.8669 175.55 44.7276L171.772 43.0226L174.055 38.5251" fill="black"/>
<path d="M127.736 70.8825V30.125" stroke="black" stroke-width="0.193"/>
<path d="M104.679 86.2775V80.285H107.128V81.1825H105.556V82.7275H106.732V83.6275H105.556V86.2775H104.679ZM107.823 81.7325C107.823 80.8825 108.249 80.195 109.169 80.195C110.089 80.195 110.515 80.885 110.515 81.73V84.825C110.515 85.6725 110.089 86.36 109.169 86.36C108.249 86.36 107.823 85.6725 107.823 84.825V81.7325ZM108.7 84.8075C108.7 85.2575 108.815 85.475 109.169 85.475C109.522 85.475 109.638 85.2575 109.638 84.81V81.7575C109.638 81.3075 109.522 81.0925 109.169 81.0925C108.815 81.0925 108.7 81.3075 108.7 81.7575V84.8075ZM112.453 86.2775H111.574V80.285H112.809C113.795 80.285 114.289 80.775 114.289 82.055C114.289 83.02 113.97 83.405 113.672 83.5675L114.417 86.285H113.529L112.907 83.8C112.756 83.8182 112.605 83.8266 112.453 83.825V86.2775ZM112.453 82.97H112.764C113.239 82.97 113.416 82.7625 113.416 82.045C113.416 81.33 113.239 81.125 112.764 81.125H112.453V82.97ZM118.918 80.2775V86.27H118.155V81.59H118.14L117.348 86.2775H116.922L116.128 81.59H116.115V86.2775H115.348V80.285H116.502L117.137 83.785L117.759 80.2775H118.918ZM119.968 80.2775H120.846V84.81C120.846 85.25 120.995 85.4675 121.314 85.4675C121.634 85.4675 121.783 85.25 121.783 84.8075V80.2775H122.66V84.7675C122.66 85.7975 122.149 86.3625 121.314 86.3625C120.479 86.3625 119.968 85.7975 119.968 84.765V80.2775ZM123.708 86.2775V80.285H124.586V85.39H125.968V86.285L123.708 86.2775ZM127.559 86.2775H126.709L127.653 80.285H128.744L129.685 86.2775H128.833L128.678 84.9475H127.713L127.559 86.2775ZM127.843 84.0525H128.552L128.205 81.475H128.192L127.843 84.0525ZM131.962 86.2775V80.285H134.314V81.1825H132.831V82.7275H133.964V83.6275H132.831V85.39H134.403V86.285L131.962 86.2775ZM137.86 81.175H137.01V80.2775H139.587V81.175H138.738V86.2775H137.86V81.175ZM140.448 86.2775V80.285H142.797V81.1825H141.326V82.7275H142.459V83.6275H141.326V85.39H142.895V86.285L140.446 86.2775H140.448ZM144.442 86.2775H143.59L144.533 80.285H145.632L146.574 86.2775H145.724L145.56 84.9475H144.595L144.442 86.2775ZM144.725 84.0525H145.432L145.085 81.475H145.07L144.725 84.0525ZM150.936 80.2775V86.27H150.169V81.59H150.156L149.362 86.2775H148.936L148.146 81.59H148.131V86.2775H147.366V80.285H148.519L149.143 83.7925H149.158L149.779 80.285L150.936 80.2775ZM69.4018 41.3H78.1753C79.613 41.3 80.3457 40.6125 80.3457 39.2575C80.3457 37.505 78.957 37.2425 78.1284 37.2425H69.3954V41.3025L69.3997 41.2975L69.4018 41.3ZM54.0765 47.62H58.9073V38.845L54.0765 47.62ZM69.4167 53.5H79.6002C81.0486 53.5 81.9858 52.425 81.9858 50.755C81.9858 49.1325 81.0231 47.955 79.6961 47.955H69.4167V53.5ZM28.4036 70.88L51.4289 30.125H106.837V60.2075H96.489V37.69H91.4409C91.3467 38.5634 91.1732 39.4224 90.9233 40.2525C90.5335 41.5275 90.263 41.98 89.3961 43.2125C90.4356 44.555 90.8445 45.31 91.3557 46.8425C91.8776 48.32 92.1566 49.9 92.18 51.4975C92.18 53.64 91.6262 55.4625 90.4398 57.2375C89.9026 58.0738 89.2364 58.7844 88.4759 59.3325C87.5324 59.99 86.6442 60.2075 84.9444 60.2075H58.9073V54.9H49.497L40.4381 70.8825H28.4036V70.88ZM107.991 37.69V30.125H117.214V37.69H107.991Z" fill="black"/>
</g>
</g>
<defs>
<clipPath id="clip0_317_1278">
<rect width="213" height="100" fill="white"/>
</clipPath>
</defs>
</svg>
