<svg width="213" height="100" viewBox="0 0 213 100" fill="none" xmlns="http://www.w3.org/2000/svg">
<g clip-path="url(#clip0_317_1241)">
<path d="M213 0H0V100H213V0Z" fill="white"/>
<path d="M75.2185 69.7422H75.0694L67.952 57.6782H64.8965V76.8682H68.3805V64.7825H68.5109L75.6841 76.8682H78.7025V57.6782H75.2185V69.7422Z" fill="#1A1A1A"/>
<path d="M87.7198 57.6782H81.8137V76.8682H87.664C92.6946 76.8682 95.7316 73.251 95.7316 67.2515C95.7316 61.252 92.7131 57.6782 87.7198 57.6782ZM87.5336 73.381H85.3163V61.1437H87.5336C90.6264 61.1437 92.2661 62.9847 92.2661 67.23C92.2661 71.475 90.6451 73.381 87.5336 73.381Z" fill="#1A1A1A"/>
<path d="M111.272 63.9377C111.272 60.1257 109.11 57.6782 105.365 57.6782H98.8629V66.7967H97.7449V70.0455H98.8629V76.8465H102.347V70.0455H104.9L108.03 76.8465H111.886L108.384 69.3957C110.247 68.4645 111.29 66.58 111.272 63.9377ZM104.713 66.7967H102.347V60.992H104.695C106.707 60.992 107.676 62.0317 107.676 63.9377C107.676 65.8437 106.707 66.7967 104.713 66.7967Z" fill="#1A1A1A"/>
<path d="M117.755 68.941H124.817V65.5837H117.755V61.0137H125.394V57.6782H114.271V76.8682H125.413V73.511H117.755V68.941Z" fill="#1A1A1A"/>
<path d="M127.798 61.0137H132.847V76.8682H136.294V61.0137H141.343V57.6782H127.798V61.0137Z" fill="#1A1A1A"/>
<path d="M143.746 61.0137H148.795V76.8682H152.242V61.0137H157.291V57.6782H143.746V61.0137Z" fill="#1A1A1A"/>
<path d="M163.347 57.6782H159.862V76.8682H163.347V57.6782Z" fill="#1A1A1A"/>
<path d="M58.021 76.8683H61.8778L57.3317 57.635H51.5373L47.0098 76.8683H50.8666L51.9098 72.428H56.9777L58.021 76.8683ZM52.6924 69.1793L54.4439 61.7718L56.1952 69.1793H52.6924Z" fill="#1A1A1A"/>
<path d="M105.177 10.6996L111.568 37.6217L117.344 35.391L109.053 0.194932C109.053 0.194932 106.649 0 105.215 0C103.78 0 101.321 0.194932 101.321 0.194932L93.0107 35.391L98.7865 37.6217L105.177 10.6996Z" fill="white"/>
<path d="M94.6505 1.38623C92.7501 1.97103 90.3839 2.85905 89.8808 3.0973C89.7317 3.16227 89.6386 3.33555 89.6386 3.50882L87.8499 33.0952C87.8499 33.29 87.9617 33.4417 88.1108 33.5067L91.7627 34.9145L93.4954 2.96735C93.5512 2.18762 94.0171 1.5595 94.6505 1.38623Z" fill="#14377D"/>
<path d="M94.6506 1.3862C93.9983 1.55947 93.5325 2.20924 93.4954 2.96731L91.7627 34.9144L93.0109 35.3909L101.321 0.194946C98.7681 0.433197 96.4391 0.888037 94.6506 1.3862Z" fill="#EE3124"/>
<path d="M115.704 1.38623C117.605 1.97103 119.971 2.85905 120.474 3.0973C120.623 3.16227 120.716 3.33555 120.716 3.50882L122.505 33.0952C122.505 33.29 122.412 33.4417 122.244 33.5067L118.592 34.9145L116.859 2.96735C116.822 2.18762 116.356 1.5595 115.704 1.38623Z" fill="#14377D"/>
<path d="M115.704 1.3862C116.356 1.55947 116.822 2.20924 116.859 2.96731L118.592 34.9144L117.343 35.3909L109.052 0.194946C111.586 0.433197 113.915 0.888037 115.704 1.3862Z" fill="#EE3124"/>
<path d="M105.178 10.6996L98.7871 37.6217L105.178 40.091L111.568 37.6217L105.178 10.6996Z" fill="#EE3124"/>
<path d="M164.723 76.11H165.32V76.305H165.115V76.8682H164.91V76.305H164.705L164.723 76.11ZM165.413 76.11H165.674L165.767 76.565L165.86 76.11H166.121V76.8465H165.953V76.2832L165.823 76.8465H165.674L165.543 76.2832V76.8465H165.376V76.11H165.413Z" fill="#1A1A1A"/>
<path d="M68.8276 86.3982H73.6906V87.4162H69.7966V90.5999H73.3179V91.6179H69.7966V95.8414H68.8091V86.3982H68.8276Z" fill="#1A1A1A"/>
<path d="M79.8764 95.993C77.7896 95.993 76.2805 94.1305 76.2805 91.1415C76.2805 88.1525 77.7896 86.2898 79.8764 86.2898C81.9631 86.2898 83.4722 88.1525 83.4722 91.1415C83.4722 94.1305 81.9631 95.993 79.8764 95.993ZM79.8764 87.351C78.4046 87.351 77.2495 88.6723 77.2495 91.1415C77.2495 93.6105 78.4046 94.9318 79.8764 94.9318C81.3484 94.9318 82.5035 93.6105 82.5035 91.1415C82.5035 88.6723 81.3484 87.351 79.8764 87.351Z" fill="#1A1A1A"/>
<path d="M85.7822 91.1415H86.3414V86.4198H89.0801C90.9805 86.4198 91.8376 87.6545 91.8376 89.3223C91.8376 90.5783 91.3532 91.553 90.3098 91.9645L92.1543 95.8633H91.0178L89.3038 92.1595C89.2292 92.1595 89.1732 92.1595 89.0989 92.1595H87.3288V95.8415H86.3599V92.1595H85.801V91.1415H85.7822ZM90.8874 89.3005C90.8874 88.1743 90.3843 87.4163 89.0616 87.4163H87.3288V91.1198H89.0801C90.3843 91.1415 90.8874 90.4485 90.8874 89.3005Z" fill="#1A1A1A"/>
<path d="M95.8985 86.3982L98.656 94.2387H98.7491L101.507 86.3982H102.68V95.8414H101.768V88.6722H101.693L99.1591 95.8414H98.2647L95.7309 88.6722H95.6563V95.8414H94.7434V86.3982H95.8985Z" fill="#1A1A1A"/>
<path d="M112.221 86.3982V92.6577C112.221 94.5852 110.973 96.0147 109.054 96.0147C107.135 96.0147 105.886 94.5852 105.886 92.6577V86.3982H106.874V92.5709C106.874 93.9572 107.694 94.9534 109.054 94.9534C110.414 94.9534 111.234 93.9572 111.234 92.5709V86.3982H112.221Z" fill="#1A1A1A"/>
<path d="M115.407 86.3982H116.394V94.8234H120.176V95.8414H115.407V86.3982Z" fill="#1A1A1A"/>
<path d="M122.747 95.8633L125.728 86.4198H126.753L129.734 95.8633H128.71L127.89 93.1775H124.611L123.791 95.8633H122.747ZM127.573 92.1595L126.269 87.8928H126.213L124.909 92.1595H127.573Z" fill="#1A1A1A"/>
<path d="M136.609 86.3982H141.509V87.4162H137.597V90.5999H141.267V91.6179H137.597V94.8234H141.584V95.8414H136.609V86.3982Z" fill="#1A1A1A"/>
</g>
<defs>
<clipPath id="clip0_317_1241">
<rect width="213" height="100" fill="white"/>
</clipPath>
</defs>
</svg>
