<svg width="213" height="100" viewBox="0 0 213 100" fill="none" xmlns="http://www.w3.org/2000/svg">
<mask id="mask0_317_1106" style="mask-type:luminance" maskUnits="userSpaceOnUse" x="19" y="0" width="174" height="100">
<path d="M192.933 0H19.17V100H192.933V0Z" fill="white"/>
</mask>
<g mask="url(#mask0_317_1106)">
<path d="M112.681 16.4172C112.664 16.2755 112.616 16.1416 112.541 16.0283C111.778 15.0642 111.106 14.0051 110.538 12.8698C110.157 12.0094 109.896 11.1845 109.185 11.1845H107.326C107.036 11.1845 107.326 11.4968 107.457 11.6146C107.887 12.0271 110.342 14.4785 112.631 16.4643C112.712 16.5292 112.727 16.5056 112.707 16.4172M111.845 28.2558C114.395 25.8988 116.298 24.0542 117.576 22.9994C117.726 22.8757 118.042 22.5103 117.711 22.5103H115.532C114.725 22.5103 114.615 23.1585 114.184 24.1308C113.55 25.4985 112.76 26.7575 111.835 27.8728C111.808 27.935 111.793 28.0033 111.79 28.073C111.79 28.132 111.79 28.3205 111.845 28.2558ZM100.964 16.2876C103.224 14.2133 104.917 12.5634 106.034 11.6323C106.169 11.5262 106.45 11.2021 106.154 11.2021H104.236C103.529 11.2021 103.429 11.7914 103.053 12.6282C102.503 13.8249 101.813 14.9257 101.005 15.8986C100.971 15.9676 100.949 16.0437 100.939 16.1226C100.939 16.1697 100.939 16.3288 100.964 16.2876ZM101.5 13.0053C100.408 16.2345 96.6413 19.6229 95.6845 20.6364C95.6617 20.6955 95.6512 20.7602 95.6544 20.825C95.6544 20.8898 95.6544 21.0018 95.6945 20.9664C96.1503 20.5539 96.8016 19.9175 97.6982 19.122C98.6243 18.268 99.4995 17.3407 100.318 16.3465C101.701 14.6729 102.758 12.8521 102.758 11.043C102.758 9.23392 101.701 7.41897 100.318 5.73952C99.4982 4.74507 98.623 3.8159 97.6982 2.95817C96.8266 2.16264 96.1955 1.53801 95.7296 1.12552C95.6894 1.09016 95.6794 1.19623 95.6794 1.26105C95.6772 1.32768 95.6874 1.39407 95.7094 1.45551C96.6664 2.46317 100.433 5.8515 101.526 9.07483C101.746 9.69522 101.865 10.3589 101.876 11.0312C101.865 11.7016 101.746 12.3635 101.526 12.9817M111.72 16.9711C111.389 16.5115 111.063 16.0754 110.743 15.6688C110.583 15.4626 110.297 15.109 110.272 15.0795C110.212 15.0214 110.139 14.9864 110.062 14.9794C110.027 14.9794 110.032 15.0088 110.062 15.0501C110.092 15.0913 110.357 15.4744 110.613 15.822C111.652 17.1493 112.484 18.6812 113.072 20.3477C113.263 20.9899 113.361 21.6651 113.363 22.3453C113.348 22.9715 113.229 23.5883 113.012 24.1603C112.511 25.551 111.184 27.2892 109.831 28.8745C109.776 28.9392 109.776 29.1042 109.766 29.2103C109.756 29.3165 109.846 29.2103 109.956 29.1103C110.748 28.291 111.364 27.6017 111.7 27.2067C113.022 25.6688 114.029 24.0247 114.029 22.363C114.029 20.5362 112.952 18.6741 111.725 16.9829M117.165 2.05657C117.196 2.01505 117.219 1.9661 117.232 1.91316C117.245 1.86022 117.247 1.80458 117.24 1.75015C117.24 1.75015 117.24 1.67354 117.21 1.703L116.789 2.08014C116.499 2.33942 116.193 2.62818 115.843 2.95817C114.921 3.81872 114.046 4.74565 113.222 5.73365C111.84 7.40717 110.783 9.2693 110.783 11.0371C110.783 12.805 111.785 14.7378 113.188 16.3878C113.483 16.7354 113.719 17.0124 113.904 17.2127L114.064 17.3718C114.064 17.3718 114.099 17.3718 114.094 17.3718C114.083 17.2003 114.033 17.0354 113.949 16.8945C113.784 16.6235 113.673 16.4585 113.448 16.0578C112.881 15.1156 112.408 14.0992 112.04 13.0289C111.809 12.4084 111.69 11.7382 111.69 11.0607C111.69 10.3832 111.809 9.71303 112.04 9.0925C112.877 6.61168 115.357 3.92458 116.895 2.38657C117.055 2.22157 117.13 2.14496 117.19 2.07425M118.327 22.363C118.314 22.5189 118.272 22.6694 118.202 22.8031C118.133 22.9368 118.038 23.0502 117.926 23.1349L106.71 33.3765V32.97C106.71 32.772 106.727 32.5745 106.76 32.3807C106.806 32.1587 106.901 31.9553 107.036 31.7915C107.657 31.0608 109.541 28.845 109.966 28.3088C110.996 27.1235 111.832 25.725 112.431 24.1838C112.629 23.6005 112.734 22.9793 112.742 22.3512C112.736 21.629 112.631 20.9127 112.431 20.2298C111.429 16.6942 107.757 12.5692 106.946 11.6735C106.836 11.5537 106.754 11.4039 106.705 11.2375C106.638 11.4752 106.508 11.6817 106.334 11.8267L95.1886 22.0625V0L106.385 10.2593C106.557 10.4061 106.686 10.6119 106.755 10.8485C106.827 10.6122 106.958 10.4068 107.131 10.2593L118.332 0V0.41838C118.331 0.616193 118.314 0.81344 118.282 1.00765C118.238 1.23012 118.143 1.43401 118.007 1.59693C117.385 2.32763 115.502 4.5433 115.076 5.07365C114.044 6.2581 113.207 7.6565 112.606 9.19858C112.408 9.78178 112.303 10.4031 112.296 11.0312C112.302 11.7534 112.407 12.4697 112.606 13.1526C113.608 16.6883 117.28 20.8132 118.117 21.703C118.272 21.8668 118.367 22.0949 118.382 22.3394" fill="#1D1D1B"/>
<path d="M79.2343 46.376H83.893V56.5055H86.4579V46.376H91.207V43.2822H79.2343V46.376Z" fill="#1D1D1B"/>
<path d="M75.3061 50.2827C75.3061 52.2687 74.3444 53.412 72.6562 53.412H71.1935C69.5102 53.412 68.5434 52.2687 68.5434 50.2827V43.2822H65.9135V50.2827C65.9135 54.119 67.9174 56.5055 71.1935 56.5055H72.6462C75.9023 56.5055 77.9262 54.119 77.9262 50.2827V43.2822H75.2961L75.3061 50.2827Z" fill="#1D1D1B"/>
<path d="M26.9143 43.2822H19.1846V52.3275H21.8195V46.376H26.9143C28.5774 46.376 29.5642 47.5545 29.5642 49.499V50.2827C29.5642 52.2687 28.5974 53.412 26.9143 53.412H19.1846V56.5055H26.9143C30.1753 56.5055 32.1992 54.119 32.1992 50.2827V49.499C32.1992 45.663 30.1753 43.2822 26.9143 43.2822Z" fill="#1D1D1B"/>
<path d="M57.071 43.2822L50.7289 56.5055H53.8598L58.4585 46.806L61.6597 53.7832H56.8105L55.6782 56.5055H66.1881L59.8462 43.2822H57.071Z" fill="#1D1D1B"/>
<path d="M99.5826 43.2822H96.9276C93.6665 43.2822 91.6426 45.6392 91.6426 49.499V50.2827C91.6356 50.8577 91.6877 51.4315 91.7979 51.9917L91.8679 52.3275H94.6182L94.4629 51.7382C94.3387 51.2627 94.2746 50.7685 94.2725 50.271V49.4872C94.2725 47.531 95.2745 46.3642 96.9276 46.3642H99.5826C101.246 46.3642 102.233 47.5427 102.233 49.4872V50.271C102.233 52.257 101.271 53.4 99.5826 53.4H92.1836L92.5845 54.0895C93.481 55.6392 95.0291 56.4937 96.9427 56.4937H99.5977C102.859 56.4937 104.883 54.1072 104.883 50.271V49.4872C104.868 45.663 102.844 43.2822 99.5826 43.2822Z" fill="#1D1D1B"/>
<path d="M178.38 43.2822H167.625V46.376H178.38V43.2822Z" fill="#1D1D1B"/>
<path d="M43.3154 48.3441H36.8784C36.5327 48.3441 36.122 48.1791 36.122 47.3896C36.122 46.7356 36.3925 46.3761 36.8784 46.3761H45.8552V43.2824H36.8784C36.4242 43.2619 35.9716 43.3531 35.5492 43.5501C35.1266 43.7474 34.7439 44.0459 34.4252 44.4269C34.1066 44.8079 33.8589 45.2629 33.6983 45.7629C33.5375 46.2629 33.4672 46.7969 33.4921 47.3306C33.4921 49.7526 34.8847 51.4556 36.8784 51.4556H43.3154C43.6562 51.4556 44.062 51.6146 44.062 52.3866C44.062 53.0644 43.8015 53.4239 43.3154 53.4239H33.9128V56.5174H43.3154C43.7698 56.5364 44.2222 56.4436 44.6441 56.2451C45.0661 56.0466 45.4482 55.7466 45.766 55.3646C46.0838 54.9824 46.3302 54.5264 46.4896 54.0259C46.6491 53.5254 46.7179 52.9911 46.6919 52.4574C46.6919 50.0591 45.3042 48.3441 43.3154 48.3441Z" fill="#1D1D1B"/>
<path d="M113.217 52.4925L108.994 43.2822H106.725V56.5055H109.289V49.9587L111.909 55.7395H114.524L117.144 49.9587V56.5055H119.714V43.2822H117.44L113.217 52.4925Z" fill="#1D1D1B"/>
<path d="M158.75 43.2822H156.185V56.5055H166.058V53.406H158.75V43.2822Z" fill="#1D1D1B"/>
<path d="M170.195 51.4377H177.338V48.344H167.625V56.5055H178.551V53.406H170.195V51.4377Z" fill="#1D1D1B"/>
<path d="M189.541 48.3439H183.099C182.758 48.3439 182.352 48.1789 182.352 47.3894C182.352 46.7294 182.608 46.3759 183.099 46.3759H192.086V43.2822H183.099C182.645 43.2624 182.193 43.3544 181.771 43.5519C181.349 43.7492 180.967 44.0479 180.649 44.4289C180.331 44.8099 180.084 45.2647 179.923 45.7642C179.763 46.2639 179.693 46.7972 179.717 47.3304C179.717 49.7524 181.11 51.4554 183.099 51.4554H189.541C189.882 51.4554 190.287 51.6144 190.287 52.3864C190.287 53.0642 190.027 53.4237 189.541 53.4237H180.138V56.5172H189.541C189.995 56.5362 190.448 56.4434 190.869 56.2449C191.291 56.0464 191.674 55.7464 191.991 55.3644C192.309 54.9822 192.556 54.5262 192.715 54.0257C192.874 53.5252 192.943 52.9909 192.917 52.4572C192.917 50.0589 191.53 48.3439 189.541 48.3439Z" fill="#1D1D1B"/>
<path d="M148.333 49.6348C148.796 48.9381 149.037 48.0731 149.015 47.1893C149.037 46.6638 148.964 46.1386 148.802 45.6486C148.639 45.1583 148.39 44.7141 148.071 44.3451C147.753 43.9761 147.371 43.6908 146.951 43.5076C146.532 43.3243 146.085 43.2476 145.638 43.2823H136.586V56.5058H146.004C148.033 56.5058 149.395 54.9323 149.395 52.5928C149.412 52.0386 149.325 51.4871 149.142 50.9761C148.958 50.4653 148.683 50.0076 148.333 49.6348ZM145.638 48.3443H140.128V51.4438H145.994C146.104 51.4271 146.217 51.4413 146.322 51.4848C146.426 51.5286 146.521 51.6006 146.598 51.6951C146.675 51.7896 146.732 51.9041 146.765 52.0293C146.797 52.1546 146.804 52.2871 146.786 52.4161C146.786 53.0703 146.515 53.4296 146.024 53.4296H139.221V46.3761H145.638C146.139 46.3761 146.385 46.7296 146.385 47.3896C146.4 47.5126 146.391 47.6378 146.36 47.7563C146.329 47.8751 146.276 47.9841 146.204 48.0753C146.133 48.1668 146.045 48.2383 145.947 48.2848C145.849 48.3313 145.744 48.3516 145.638 48.3443Z" fill="#1D1D1B"/>
<path d="M153.795 43.2822H151.23V56.5055H153.795V43.2822Z" fill="#1D1D1B"/>
<path d="M129.448 43.2822H126.798C123.537 43.2822 121.508 45.6392 121.508 49.499V50.2827C121.508 54.119 123.511 56.5055 126.798 56.5055H129.448C131.356 56.5055 132.904 55.6512 133.806 54.1012L134.207 53.412H126.798C125.104 53.412 124.138 52.2687 124.138 50.2827V49.499C124.138 47.5132 125.104 46.376 126.798 46.376H129.448C131.106 46.376 132.098 47.5545 132.098 49.499V50.2827C132.099 50.7782 132.037 51.271 131.912 51.7442L131.742 52.3335H134.502L134.572 51.9975C134.683 51.4375 134.735 50.8637 134.728 50.2887V49.505C134.728 45.663 132.704 43.2822 129.448 43.2822Z" fill="#1D1D1B"/>
<path d="M62.8324 69.5286H19.17V70.1356H62.8324V69.5286Z" fill="#CBA65F"/>
<path d="M192.933 69.5286H149.271V70.1356H192.933V69.5286Z" fill="#CBA65F"/>
<path d="M45.9353 94.2545H52.7933C55.2028 94.2545 56.1446 94.0838 56.9662 93.4885C58.1183 92.6518 58.5892 91.6323 58.5892 88.5268C58.5892 85.05 58.0182 84.5668 56.8961 84.0483C55.9542 83.6123 55.0975 83.459 52.4124 83.459H43.3955C43.1614 83.4158 42.922 83.438 42.6967 83.5243C42.4715 83.6105 42.2666 83.7583 42.0992 83.9553C41.9316 84.1523 41.8061 84.3933 41.7328 84.6583C41.6594 84.9233 41.6404 85.205 41.6772 85.4803V97.908C41.6338 98.1748 41.6453 98.4498 41.7109 98.71C41.7765 98.9703 41.8943 99.2085 42.0543 99.404C42.2142 99.5998 42.4119 99.7475 42.6304 99.8348C42.849 99.922 43.0822 99.9463 43.3103 99.9058H44.2771C44.4793 99.9413 44.6852 99.9253 44.8816 99.8588C45.0778 99.792 45.2597 99.6768 45.4145 99.52C45.5694 99.3635 45.694 99.1695 45.7794 98.9515C45.865 98.7333 45.9096 98.496 45.9102 98.2558L45.9353 94.2545ZM45.9353 90.489V87.0183H52.107C53.9505 87.0183 54.3463 87.4603 54.3463 88.786C54.3463 90.112 53.8453 90.489 52.107 90.489H45.9353ZM67.8818 87.1833H77.4649C78.4668 87.2835 79.1831 86.594 79.1831 85.4568V85.162C79.19 84.907 79.148 84.6533 79.0602 84.4198C78.9725 84.1865 78.8413 83.9793 78.6764 83.8135C78.5116 83.6478 78.3169 83.5275 78.1073 83.4623C77.8975 83.3968 77.6781 83.3878 77.4649 83.4355H65.4121C65.178 83.392 64.9386 83.4145 64.7134 83.5008C64.4881 83.587 64.2834 83.7348 64.1157 83.9318C63.9483 84.1288 63.8226 84.3698 63.7494 84.6348C63.6761 84.8998 63.6569 85.1813 63.6938 85.4568V97.8845C63.6499 98.1603 63.6642 98.4443 63.7353 98.712C63.8065 98.9798 63.9323 99.223 64.1019 99.4203C64.2714 99.6173 64.4798 99.7625 64.7081 99.843C64.9364 99.9238 65.1782 99.937 65.4121 99.882H77.6101C78.637 99.9823 79.3284 99.2928 79.3284 98.1555V97.861C79.3365 97.6393 79.3063 97.4178 79.2392 97.2103C79.1723 97.0028 79.07 96.8138 78.9386 96.6543C78.8074 96.495 78.6498 96.3688 78.4758 96.2833C78.3015 96.198 78.1143 96.1553 77.9258 96.158H67.9067V93.2115H76.8838C77.2372 93.2748 77.5984 93.198 77.9107 92.9935C78.1629 92.8058 78.3569 92.5273 78.4638 92.1998C78.5708 91.872 78.5853 91.5125 78.5047 91.1745C78.4244 90.8363 78.2534 90.5378 78.0174 90.323C77.7814 90.1083 77.4928 89.9888 77.1944 89.9823H67.8818V87.1833ZM99.8071 95.9635L92.348 84.9145C91.5714 83.7065 91.0255 83.3825 89.7281 83.4355H86.2665C86.033 83.3893 85.7936 83.4098 85.5685 83.4955C85.3433 83.5813 85.139 83.7295 84.9729 83.9278C84.8068 84.1263 84.6837 84.3688 84.614 84.6348C84.5446 84.901 84.5305 85.1828 84.5733 85.4568V97.8845C84.5307 98.149 84.542 98.4215 84.6068 98.6798C84.6713 98.938 84.7872 99.1743 84.9448 99.3695C85.1022 99.5645 85.2971 99.7128 85.5129 99.802C85.7288 99.8913 85.9597 99.9185 86.1864 99.882H87.0431C88.0448 99.882 88.6359 99.2398 88.6359 98.2558V97.861L88.5509 87.5015L95.8896 98.3795C96.6662 99.611 97.2121 99.9058 98.5097 99.8585H102.016C102.25 99.9105 102.49 99.895 102.718 99.8135C102.945 99.7318 103.152 99.5865 103.321 99.39C103.49 99.1935 103.616 98.9518 103.688 98.6855C103.76 98.419 103.776 98.1363 103.734 97.861V85.4508C103.775 85.1855 103.762 84.913 103.697 84.6545C103.632 84.3963 103.517 84.1595 103.36 83.963C103.203 83.7665 103.01 83.616 102.795 83.5233C102.579 83.4308 102.349 83.3985 102.121 83.4295H101.3C100.333 83.4295 99.707 84.0718 99.707 85.056V85.4508L99.8071 95.9635ZM110.773 94.6553C109.771 94.6553 109.16 95.2445 109.16 96.3053C109.162 96.7348 109.225 97.1608 109.345 97.5663C109.786 98.8923 110.502 99.4638 112.175 99.782C113.122 99.9588 114.38 100.006 117.566 100.006C120.571 100.006 122.68 99.8585 123.727 99.5875C125.781 99.069 126.538 97.7373 126.538 94.726C126.538 91.3965 125.491 90.0118 122.826 89.8703C122.114 89.8233 120.226 89.7465 119.85 89.7465H115.888C115.313 89.7653 114.738 89.724 114.169 89.6228C113.906 89.579 113.667 89.4198 113.5 89.177C113.333 88.9345 113.25 88.6263 113.267 88.3148C113.267 87.3778 113.648 87.036 114.77 86.9593C115.441 86.8885 117.35 86.8415 118.608 86.8415C120.556 86.8415 121.207 86.9593 121.543 87.3543C122.38 88.3913 122.485 88.4385 123.321 88.462H124.288C125.29 88.462 125.861 87.8255 125.861 86.7413C125.846 86.1138 125.669 85.5063 125.354 84.9993C125.039 84.492 124.602 84.1093 124.098 83.901C123.031 83.4355 121.919 83.3118 117.811 83.3118C114.56 83.3118 112.992 83.4118 111.8 83.7538C109.796 84.343 109.074 85.5805 109.074 88.5385C109.074 90.7838 109.535 92.0743 110.542 92.7048C111.444 93.2528 112.516 93.4238 115.091 93.4238H118.948C120.877 93.4238 121.172 93.4238 121.613 93.6183C121.841 93.723 122.033 93.9118 122.161 94.1563C122.289 94.4005 122.347 94.6875 122.325 94.9735C122.325 96.3288 121.738 96.482 116.789 96.482C114.44 96.482 113.728 96.3288 113.478 95.7925C113.358 95.3978 113.124 95.0643 112.818 94.8493C112.512 94.6343 112.152 94.5513 111.8 94.614L110.773 94.6553ZM136.266 89.5698V85.4448C136.311 85.177 136.3 84.9003 136.235 84.638C136.171 84.3758 136.054 84.1358 135.894 83.9378C135.734 83.7398 135.536 83.5898 135.316 83.5003C135.097 83.411 134.863 83.3845 134.633 83.4238H133.631C132.539 83.4238 131.908 84.1368 131.993 85.4448V97.8728C131.949 98.14 131.961 98.4155 132.027 98.6765C132.092 98.9373 132.211 99.1758 132.371 99.3715C132.532 99.5675 132.73 99.715 132.949 99.8018C133.169 99.8885 133.402 99.912 133.631 99.8703H134.633C134.835 99.9058 135.041 99.8898 135.237 99.8233C135.433 99.7568 135.615 99.6413 135.77 99.4848C135.925 99.3283 136.05 99.1343 136.135 98.916C136.221 98.698 136.265 98.4605 136.266 98.2203V93.5593H138.405L143.229 98.3678C144.446 99.676 145.007 99.9175 146.58 99.8703H149.055C149.556 99.8703 149.791 99.6228 149.791 99.1573C149.788 99.028 149.757 98.9015 149.702 98.7895C149.647 98.6773 149.569 98.583 149.476 98.515L142.097 91.5615L148.719 84.8555C148.97 84.5788 149.055 84.4373 149.055 84.1898C149.055 83.6948 148.764 83.4238 148.279 83.4238H146.034C144.572 83.3705 144.005 83.6475 142.868 84.9263L138.51 89.564L136.266 89.5698ZM159.134 87.1833H168.712C169.739 87.2835 170.43 86.594 170.43 85.4568V85.162C170.437 84.907 170.395 84.6533 170.308 84.4198C170.22 84.1865 170.089 83.9793 169.924 83.8135C169.759 83.6478 169.564 83.5275 169.355 83.4623C169.145 83.3968 168.925 83.3878 168.712 83.4355H156.659C156.425 83.392 156.186 83.4145 155.961 83.5008C155.735 83.587 155.531 83.7348 155.363 83.9318C155.196 84.1288 155.07 84.3698 154.997 84.6348C154.923 84.8998 154.904 85.1813 154.941 85.4568V97.8845C154.897 98.1603 154.911 98.4443 154.983 98.712C155.054 98.9798 155.18 99.223 155.349 99.4203C155.519 99.6173 155.727 99.7625 155.955 99.843C156.184 99.9238 156.426 99.937 156.659 99.882H168.857C169.885 99.9823 170.581 99.2928 170.581 98.1555V97.861C170.588 97.639 170.557 97.4175 170.49 97.21C170.422 97.0025 170.319 96.8133 170.188 96.654C170.056 96.4948 169.898 96.3685 169.724 96.2833C169.549 96.198 169.362 96.1553 169.173 96.158H159.154V93.2115H168.126C168.48 93.2748 168.841 93.198 169.153 92.9935C169.405 92.806 169.599 92.5283 169.706 92.201C169.813 91.874 169.828 91.515 169.748 91.1773C169.668 90.8395 169.498 90.5408 169.263 90.3258C169.028 90.1105 168.74 89.99 168.442 89.9823H159.134V87.1833Z" fill="#1D1D1B"/>
<path d="M68.4678 72.3629V67.1714H71.0728V68.0141H69.2944V69.5521H70.8274V70.3829H69.2944V72.3629H68.4678Z" fill="#1D1D1B"/>
<path d="M77.0001 70.4244C77.0001 71.6736 76.4491 72.4399 75.3519 72.4399C74.255 72.4399 73.6888 71.6736 73.6888 70.4244V69.1161C73.6888 67.8669 74.2499 67.0891 75.3519 67.0891C76.454 67.0891 77.0001 67.8669 77.0001 69.1161V70.4244ZM76.1786 69.0574C76.1786 68.3501 75.9081 67.9731 75.3519 67.9731C74.796 67.9731 74.5155 68.3501 74.5155 69.0574V70.4774C74.5155 71.1904 74.7909 71.5676 75.3519 71.5676C75.913 71.5676 76.1786 71.1904 76.1786 70.4774V69.0574Z" fill="#1D1D1B"/>
<path d="M82.2601 72.363L81.3983 70.4537H80.7572V72.363H79.9457V67.1479H81.4486C82.3754 67.1479 82.8661 67.6899 82.8661 68.6859V68.9335C82.8891 69.218 82.8337 69.5037 82.7085 69.7487C82.583 69.9937 82.3943 70.185 82.1698 70.2947L83.1718 72.3395L82.2601 72.363ZM80.7572 69.67H81.4686C81.5483 69.679 81.6288 69.6672 81.7042 69.6355C81.7796 69.604 81.8484 69.553 81.9053 69.4867C81.9622 69.4202 82.0058 69.3399 82.0335 69.2514C82.061 69.1629 82.0716 69.0684 82.0646 68.9747V68.6917C82.0716 68.5979 82.061 68.5032 82.0335 68.4149C82.0058 68.3264 81.9622 68.246 81.9053 68.1797C81.8484 68.1132 81.7796 68.0625 81.7042 68.031C81.6288 67.9992 81.5483 67.9875 81.4686 67.9965H80.7572V69.67Z" fill="#1D1D1B"/>
<path d="M86.6525 69.2163V72.363H85.901V67.1655H86.5673L88.1303 70.8133L89.6781 67.1655H90.3393V72.363H89.5829V69.2163L88.4057 72.0153H87.8346L86.6525 69.2163Z" fill="#1D1D1B"/>
<path d="M94.1858 67.1479V70.5245C94.1858 71.1902 94.4514 71.5439 94.9824 71.5439C95.5134 71.5439 95.7788 71.1902 95.7788 70.5245V67.1479H96.6004V70.4715C96.6004 71.6795 96.0645 72.416 94.9824 72.416C93.9004 72.416 93.3643 71.6795 93.3643 70.4715V67.1479H94.1858Z" fill="#1D1D1B"/>
<path d="M100.433 67.1655V71.485H102.171V72.357H99.6067V67.1655H100.433Z" fill="#1D1D1B"/>
<path d="M104.516 72.3629L106.018 67.1714H106.805L108.308 72.3629H107.431L107.126 71.2904H105.623L105.332 72.3629H104.516ZM106.92 70.5361L106.374 68.3264L105.823 70.5126L106.92 70.5361Z" fill="#1D1D1B"/>
<path d="M116.633 68.0141H114.81V69.3221H116.343V70.1354H114.81V71.5261H116.648V72.3629H113.988V67.1714H116.633V68.0141Z" fill="#1D1D1B"/>
<path d="M124.172 68.0494H122.945V67.1714H126.216V68.0494H124.994V72.3629H124.172V68.0494Z" fill="#1D1D1B"/>
<path d="M131.587 68.0141H129.763V69.3221H131.296V70.1354H129.763V71.5261H131.602V72.3629H128.942V67.1714H131.587V68.0141Z" fill="#1D1D1B"/>
<path d="M134.061 72.3629L135.564 67.1714H136.355L137.858 72.3629H136.986L136.681 71.2904H135.178L134.888 72.3629H134.061ZM136.461 70.5361L135.92 68.3264L135.368 70.5126L136.461 70.5361Z" fill="#1D1D1B"/>
<path d="M141.3 69.2163V72.363H140.549V67.1655H141.215L142.778 70.8133L144.326 67.1655H144.987V72.363H144.231V69.2163L143.054 72.0153H142.483L141.3 69.2163Z" fill="#1D1D1B"/>
</g>
</svg>
