<svg width="213" height="100" viewBox="0 0 213 100" fill="none" xmlns="http://www.w3.org/2000/svg">
<g clip-path="url(#clip0_317_1426)">
<mask id="mask0_317_1426" style="mask-type:luminance" maskUnits="userSpaceOnUse" x="0" y="0" width="213" height="100">
<path d="M0 0H213V100H0V0Z" fill="white"/>
</mask>
<g mask="url(#mask0_317_1426)">
<path d="M0 0H213V100H0V0Z" fill="white"/>
<mask id="mask1_317_1426" style="mask-type:luminance" maskUnits="userSpaceOnUse" x="0" y="25" width="213" height="49">
<path d="M0 25H213V73.23H0V25Z" fill="white"/>
</mask>
<g mask="url(#mask1_317_1426)">
<path d="M199.204 36.31H208.742C210.908 36.31 212.676 38.2975 212.676 40.7275V50.845H198.414C197.793 50.8591 197.193 50.5844 196.744 50.081C196.295 49.5775 196.034 48.886 196.018 48.1575V44.6425C196.032 43.9657 196.274 43.3231 196.691 42.8547C197.107 42.3864 197.665 42.1304 198.241 42.1425H206.156L205.321 44.185H199.498C199.367 44.1784 199.238 44.2308 199.138 44.3316C199.038 44.4324 198.975 44.5739 198.961 44.7275V47.49C198.975 47.6436 199.038 47.7852 199.138 47.8857C199.238 47.9862 199.367 48.0379 199.498 48.03H209.594V41.3975C209.594 40.1075 208.614 39.13 207.52 39.13H198.047L199.204 36.31ZM142.092 33.1425V30.9925H139.008V35.1875L142.092 33.1425ZM139.008 37.23L142.092 35.1875V50.8525H139.008V37.2275V37.23ZM157.62 36.31C159.784 36.31 161.554 38.2975 161.554 40.7275V50.845H158.481V41.38C158.481 40.0925 157.497 39.1125 156.404 39.1125H149V50.83H145.92V36.31H157.629M197.061 36.31H189.321C187.157 36.31 185.382 38.2975 185.382 40.7275V50.845H188.486V41.38C188.486 40.0925 189.468 39.1125 190.565 39.1125H195.903L197.061 36.31ZM93.5965 50.8475H96.6786V40.725C96.6786 38.295 94.9065 36.3075 92.7445 36.3075H72.5479V50.84H75.63V39.665C75.6444 39.5121 75.708 39.3714 75.8077 39.2716C75.9074 39.1717 76.0358 39.1202 76.1667 39.1275H82.5375C82.6685 39.1202 82.7968 39.1717 82.8966 39.2716C82.9963 39.3714 83.0598 39.5121 83.0743 39.665V50.8425H86.1543V39.6675C86.1678 39.5139 86.231 39.3722 86.3308 39.2718C86.4307 39.1713 86.5597 39.1196 86.691 39.1275H91.5198C92.6124 39.1275 93.5965 40.105 93.5965 41.395V50.845V50.8475ZM119.286 31.025V50.845H122.371V31.025H119.286ZM132.103 50.845H135.187V40.7275C135.187 38.2975 133.415 36.31 131.249 36.31H124.705L123.54 39.125H130.028C131.121 39.125 132.103 40.105 132.103 41.395V50.845ZM180.978 31.025V50.845H167.075C166.454 50.8598 165.853 50.5854 165.404 50.0819C164.954 49.5783 164.693 48.8865 164.677 48.1575V40.7325C164.677 38.3 166.449 36.3125 168.615 36.3125H176.528L175.361 39.13H169.829C168.737 39.13 167.755 40.1075 167.755 41.3975V47.49C167.768 47.6436 167.831 47.7852 167.931 47.8857C168.031 47.9862 168.16 48.0379 168.291 48.03H177.9V31.025H180.978ZM102.581 36.31H112.121C114.285 36.31 116.055 38.2975 116.055 40.7275V50.845H101.793C101.172 50.8591 100.572 50.5844 100.123 50.0808C99.6748 49.5773 99.4143 48.8858 99.3986 48.1575V44.6425C99.4143 43.9661 99.6565 43.3243 100.073 42.8562C100.489 42.3882 101.046 42.1317 101.622 42.1425H109.54L108.705 44.185H102.879C102.747 44.1784 102.618 44.2307 102.518 44.3314C102.418 44.4321 102.355 44.5737 102.34 44.7275V47.49C102.355 47.6436 102.418 47.7849 102.519 47.8852C102.619 47.9855 102.748 48.0373 102.879 48.03H112.975V41.3975C112.975 40.1075 111.993 39.13 110.901 39.13H101.429L102.581 36.31Z" fill="#DD052B"/>
<path d="M59.5101 26.875L59.0926 27.35L57.8615 28.565L56.6261 29.7825L55.3907 30.995L54.1553 32.21L52.9199 33.425L51.6866 34.6425L50.4512 35.855L49.2115 37.0725L47.9761 38.2875L46.7407 39.505L45.5032 40.7225L44.2657 41.94L43.0281 43.165L41.7906 44.38L40.5467 45.5875L39.307 46.805L38.0695 48.0225L36.8341 49.24L35.5923 50.4575L34.3548 51.675L33.1172 52.8925L32.0522 53.9375C32.0522 56.705 32.0565 59.475 32.065 62.245C35.3367 65.67 38.6339 69.11 41.961 72.5675H47.0581C48.155 68.9058 49.2356 65.2374 50.3 61.5625L50.4405 61.065L50.5854 60.57L50.7281 60.0725L50.8729 59.5775L51.0135 59.0775L51.1562 58.5825L51.2989 58.085L51.4395 57.585L51.5822 57.09L51.7228 56.595L51.8655 56.095L52.004 55.5975L52.1467 55.0975L52.2851 54.6L52.4257 54.105L52.5663 53.605L52.7047 53.105L52.8432 52.61L52.9838 52.11L53.1201 51.61L53.2585 51.11L53.397 50.61L53.5333 50.115L53.8251 49.0575L54.102 48L54.381 46.9425L54.6579 45.885L54.937 44.825L55.216 43.7675L55.4929 42.71L55.7719 41.65L56.0488 40.5875L56.3279 39.53L56.6048 38.47L56.8838 37.41L57.1607 36.345L57.4397 35.285L57.7166 34.2225L57.9956 33.16L58.2576 32.1L58.5196 31.035L58.7774 29.97L59.033 28.91L59.2886 27.8475C59.3674 27.52 59.4462 27.1925 59.5207 26.8675M58.4216 28.905L58.2044 29.7925L57.9701 30.75L57.7379 31.7125L57.5036 32.6725L57.2629 33.6325L57.0222 34.59L56.7815 35.5675L56.5366 36.525L56.2916 37.485L56.0467 38.445L55.7996 39.4L55.5504 40.3575L55.2991 41.315L55.0456 42.2725L54.7921 43.23L54.5408 44.185L54.2852 45.1425L54.0253 46.0975L53.7697 47.055L53.5077 48.005L53.25 48.9625L52.9859 49.92L52.8496 50.415L52.7111 50.915L52.5748 51.415L52.4342 51.915L52.2958 52.41L52.1573 52.91L52.0189 53.405L51.8783 53.905L51.7398 54.4L51.6014 54.9L51.4587 55.395L51.3202 55.895L51.1775 56.3925L51.0369 56.8875L50.8942 57.3875L50.7536 57.8825L50.6109 58.38L50.4682 58.875L50.3276 59.375L50.1828 59.87L50.0401 60.3675L49.8974 60.8625L49.7547 61.36L49.6162 61.835L49.4799 62.31L49.3393 62.785L49.203 63.26L49.0624 63.7375L48.9218 64.2125L48.7877 64.6875L48.6471 65.1625L48.5086 65.6375L48.3702 66.1125L48.2275 66.5875L48.089 67.0625L47.9506 67.5375L47.8079 68.0125L47.6694 68.485L47.5267 68.9575L47.3882 69.4325L47.2455 69.9075L47.105 70.3825L46.9644 70.855L46.8238 71.3275L46.6811 71.8025L46.6513 71.9025H42.2017C39.0218 68.5928 35.8452 65.2786 32.6721 61.96L32.6508 54.26L33.6391 53.28L34.8021 52.14L35.9672 50.9925L37.1302 49.85L38.2953 48.7075L39.4583 47.565L40.6234 46.42L41.7842 45.2775L42.9472 44.135L44.1102 42.99L45.271 41.8475L46.434 40.705L47.597 39.56L48.7621 38.42L49.9208 37.275L51.0838 36.1325L52.2425 34.99L53.4055 33.8525L54.5642 32.71L55.7251 31.5675L56.8838 30.425L58.0446 29.2825L58.411 28.9225" fill="white"/>
<path d="M59.1522 26.5L31.7327 53.625L31.7476 62.435L31.8627 62.5575C35.1642 66.0375 38.4955 69.5325 41.8524 73.0425L41.9482 73.1425H47.467L47.548 72.8725C48.6576 69.1533 49.7489 65.4265 50.8218 61.6925L55.5504 44.68L57.7741 36.06L59.8892 27.4175L60.1235 26.44L60.46 25.015L59.1522 26.4975V26.5ZM55.7101 38.92L52.8709 49.6L46.5554 71.6575H42.4381C39.3017 68.365 36.1684 65.0684 33.0384 61.7675L33.0257 54.305L58.0531 29.5375L55.7101 38.92ZM0.00213 25.0825L1.08843 29.6675L3.23334 38.3075L6.07476 49.0775L9.63825 61.7675C10.6393 65.2675 11.7427 69.0325 12.9099 72.95L12.9887 73.22H18.5097L18.6055 73.12C21.9624 69.6025 25.2937 66.1075 28.5952 62.6325L28.7081 62.5125L28.723 53.7L1.33764 26.6L0 25.0825H0.00213ZM27.4429 54.395V61.86C24.2997 65.1487 21.1593 68.4412 18.0219 71.7375H13.9025L10.5669 60.2925L4.75416 39.005L2.41116 29.625L27.4429 54.395Z" fill="#DD052B"/>
<path d="M212.646 60.25H211.304L209.507 65.4025C209.313 65.9525 209.121 66.5125 208.936 67.06H208.917L208.64 66.225L208.363 65.4025L206.552 60.25H205.232V68.2075H205.992V60.96H206.011C206.097 61.21 206.175 61.45 206.267 61.7025L208.576 68.2075H209.349L211.656 61.62C211.76 61.295 211.767 61.295 211.809 61.175C211.845 61.0788 211.875 60.9803 211.901 60.88H211.922V68.2075H212.68L212.646 60.25ZM197.885 65.8H194.897L196.38 60.965L197.885 65.8ZM198.109 66.5125L198.637 68.1975H199.44L196.91 60.24H195.83L193.351 68.1975H194.162L194.682 66.5125H198.109ZM184.279 61.0125H187.87V60.2375H183.521V68.1975H187.87V67.42H184.279V64.46H187.717V63.725H184.279V61.0125ZM175.557 61.0725H177.753V60.24H172.59V61.0725H174.796V68.1975H175.557V61.0725ZM158.453 61.0225H162.04V60.2475H157.694V68.2075H162.044V67.43H158.453V64.47H161.888V63.725H158.451V61.025L158.453 61.0225ZM145.277 65.8075H142.292L143.775 60.975L145.277 65.8075ZM145.498 66.5225L146.026 68.2075H146.831L144.297 60.25H143.221L140.742 68.2075H141.551L142.073 66.5225H145.498ZM132.079 60.2475H131.317V68.2075H135.566V67.37H132.081V60.25L132.079 60.2475ZM124.219 60.2475V65.8225C124.219 67.335 124.017 67.515 122.207 67.515C121.116 67.515 120.722 67.3925 120.52 66.99C120.415 66.7875 120.375 66.4525 120.375 65.82V60.25H119.612V65.82C119.612 67.2175 119.847 67.7525 120.62 68.085C120.965 68.2425 121.344 68.2875 122.245 68.2875C123.742 68.2875 124.239 68.135 124.635 67.5775C124.899 67.1825 124.982 66.7725 124.982 65.82V60.25L124.219 60.2475ZM113.271 60.2475H111.929L110.127 65.4025C109.936 65.9525 109.74 66.5125 109.556 67.06H109.537L109.26 66.225L108.981 65.4025L107.171 60.25H105.85V68.2075H106.613V60.96H106.632C106.713 61.21 106.796 61.45 106.885 61.7025L109.192 68.2075H109.965L112.277 61.62C112.377 61.295 112.387 61.295 112.426 61.175C112.466 61.0575 112.489 60.9975 112.519 60.88H112.541V68.2075H113.303L113.269 60.25L113.271 60.2475ZM95.1811 64.235V61.0225H97.6519C98.1929 61.0225 98.5295 61.1525 98.6807 61.415C98.8341 61.675 98.8618 61.99 98.8618 62.8125C98.8618 63.8875 98.5061 64.235 97.3878 64.235H95.1811ZM94.4207 68.2075H95.1811V65.0075H97.49C98.0268 65.0075 98.2121 65.0525 98.4443 65.27C98.6786 65.485 98.7723 65.795 98.7723 66.3925V68.2075H99.5327V66.19C99.5327 65.21 99.177 64.72 98.4571 64.65C99.3602 64.47 99.6243 63.995 99.6243 62.5475C99.6243 60.865 99.0961 60.2625 97.6413 60.2625H94.425L94.4207 68.2075ZM85.3682 60.9375C86.7612 60.9375 87.0573 61.045 87.2831 61.62C87.4663 62.095 87.4663 62.095 87.4663 65.245C87.4663 66.2875 87.3747 66.7725 87.1191 67.1325C86.8848 67.4425 86.5482 67.515 85.3107 67.515C83.9219 67.515 83.6237 67.4075 83.398 66.835C83.2148 66.355 83.2148 66.355 83.2148 63.205C83.2148 62.1675 83.3064 61.68 83.562 61.32C83.7963 61.01 84.1179 60.9375 85.3703 60.9375H85.3682ZM85.3384 60.1625C84.8828 60.1552 84.4274 60.1845 83.9752 60.25C83.7313 60.287 83.4978 60.3887 83.2922 60.5472C83.0867 60.7057 82.9146 60.9169 82.7888 61.165C82.5119 61.7725 82.4522 62.24 82.4522 63.8975C82.4522 65.7475 82.4522 66.01 82.5758 66.6325C82.6124 66.9361 82.7147 67.2237 82.8727 67.4679C83.0308 67.7121 83.2395 67.9047 83.4789 68.0275C83.9177 68.2425 84.2414 68.2875 85.4257 68.2875C86.4204 68.2875 86.7676 68.2425 87.1958 68.0275C87.4374 67.9081 87.6481 67.7165 87.8069 67.4717C87.9658 67.227 88.0672 66.9376 88.101 66.6325C88.2118 66.0225 88.2224 65.7475 88.2224 63.8875C88.2352 63.365 88.2224 62.8425 88.1798 62.3225C88.0584 61.2975 87.7538 60.7125 87.1744 60.425C86.7804 60.225 86.3714 60.165 85.3341 60.165M73.3167 61.0225H76.7247V60.2475H72.552V68.2075H73.3145V64.54H76.6182V63.7925H73.3294L73.3167 61.0225Z" fill="#1D1D1B"/>
</g>
</g>
<g clip-path="url(#clip1_317_1426)">
<mask id="mask2_317_1426" style="mask-type:luminance" maskUnits="userSpaceOnUse" x="0" y="0" width="213" height="100">
<path d="M0 0H213V100H0V0Z" fill="white"/>
</mask>
<g mask="url(#mask2_317_1426)">
<path d="M0 0H213V100H0V0Z" fill="white"/>
<mask id="mask3_317_1426" style="mask-type:luminance" maskUnits="userSpaceOnUse" x="0" y="0" width="214" height="100">
<path d="M0 0H213.494V100H0V0Z" fill="white"/>
</mask>
<g mask="url(#mask3_317_1426)">
<path fill-rule="evenodd" clip-rule="evenodd" d="M34.783 73.365V76.6925H32.1248V63.9325H42.2146C43.2413 63.9934 44.2074 64.5218 44.9075 65.4056C45.6075 66.2893 45.9863 67.4586 45.9634 68.665C45.9737 69.5598 45.7684 70.4398 45.3712 71.2036C44.974 71.9675 44.4011 72.5841 43.7183 72.9825L46.0699 76.7275H42.7087L40.5936 73.4L34.783 73.365ZM170.381 76.6925C170.009 76.6822 169.642 76.5847 169.303 76.4057C168.963 76.2266 168.658 75.9697 168.404 75.65C167.867 74.982 167.569 74.0964 167.574 73.1775V67.3775C167.574 66.4625 167.872 65.5675 168.404 64.895C168.918 64.2575 169.629 63.8875 170.381 63.8625H181.372V67.17H171.418C171.276 67.169 171.136 67.2038 171.007 67.2719C170.877 67.3401 170.762 67.44 170.668 67.565C170.463 67.812 170.349 68.1446 170.351 68.49V71.7875C170.351 72.215 170.49 72.6325 170.737 72.9475C170.973 73.2475 171.312 73.4225 171.665 73.4225H178.664V70.8725H181.323V76.6725L170.381 76.6925ZM105.148 76.6925H94.2739C93.9018 76.6822 93.5353 76.5847 93.1958 76.4057C92.8564 76.2266 92.5508 75.9697 92.2973 75.65C91.7597 74.9819 91.4622 74.0964 91.4666 73.1775V67.3775C91.4666 66.4975 91.7349 65.6375 92.2291 64.965C92.7403 64.315 93.4538 63.945 94.2057 63.9325H105.186V67.17H95.275C95.1344 67.1688 94.9953 67.2035 94.8673 67.2717C94.7393 67.3399 94.6255 67.44 94.5338 67.565C94.328 67.812 94.2139 68.1446 94.2164 68.49V71.7875C94.2164 72.215 94.3548 72.6325 94.6019 72.9475C94.8405 73.2475 95.177 73.4225 95.5221 73.4225H105.228V76.705H105.15L105.148 76.6925ZM69.1889 69.0375L64.3644 76.6825H60.867C62.5752 73.9675 64.2473 71.045 66.0748 68.4325C68.4668 64.9525 69.2187 63.8975 71.5809 63.8975H76.384V76.66H73.647V67.275H71.7491C71.2479 67.2164 70.7434 67.3413 70.305 67.6325C69.8705 68.0275 69.4956 68.5025 69.1889 69.0375ZM123.402 76.6825H120.239V63.9225H123.402V76.6825ZM148.34 76.6825L141.343 68.4325V76.7075H138.378V63.945H141.679L149.586 73.375V63.8875H152.551V76.6475H148.369L148.34 76.6825ZM34.783 67.1575V70.0825H42.2252C42.5269 70.0376 42.8038 69.8634 43.0027 69.5935C43.2016 69.3235 43.3086 68.9768 43.303 68.62C43.3081 68.4332 43.2817 68.2471 43.2253 68.0723C43.1689 67.8976 43.0836 67.7376 42.9743 67.6017C42.865 67.4658 42.7339 67.3565 42.5886 67.2803C42.4432 67.2041 42.2864 67.1623 42.1272 67.1575H34.783Z" fill="#00BE26"/>
<path fill-rule="evenodd" clip-rule="evenodd" d="M52.0188 98.19V92.0525H55.7356V93.2125H53.1264V94.6625H55.4098V95.73H53.1264V98.25L52.0188 98.19ZM60.4003 98.19L59.6122 97.2725V92.9825L60.4003 92.0525H63.2567L64.0576 92.9825V97.275L63.2567 98.19H60.4003ZM61.0053 97.145H62.6155L62.901 96.81V93.4225L62.6049 93.0975H61.0031L60.7177 93.4225V96.81L61.0031 97.145H61.0053ZM68.3282 98.19V92.0525H71.6382L72.4306 92.9825V95.1275L71.7682 95.8925L72.6074 98.2125H71.4423L70.6904 96.045H69.4337V98.2125L68.3282 98.19ZM69.4358 94.965H71.0546L71.3422 94.64V93.48L71.0653 93.155H69.4379L69.4358 94.965ZM76.8184 98.19V92.0525H78.0836L79.5064 96.1475L80.9399 92.0525H82.1455V98.19H81.0486V94.375L79.7642 98.065H79.1699L77.8855 94.375V98.1925H76.8205L76.8184 98.19ZM87.266 98.19L86.4843 97.2725V92.0525H87.5919V96.81L87.8795 97.145H89.4599L89.7475 96.82V92.0525H90.8551V97.275L90.0627 98.19H87.266ZM95.2429 98.19V92.0525H96.3505V97.0875H98.8405V98.2475L95.2429 98.19ZM102.498 98.19L104.116 92.0525H105.859L107.478 98.19H106.302L105.976 96.8325H103.999L103.673 98.19H102.498ZM104.246 95.7775H105.759L105.137 93.1325H104.919L104.287 95.7775H104.246ZM116.532 98.19V92.0525H120.309V93.2125H117.619V94.5375H120.038V95.6025H117.619V97.145H120.285V98.3075L116.532 98.19ZM130.686 98.19V93.155H129.223V91.995H133.257V93.155H131.794V98.19H130.686ZM137.259 98.19V92.0525H141.034V93.2125H138.375V94.5375H140.797V95.6025H138.375V97.145H141.044V98.3075L137.259 98.19ZM144.821 98.19L146.44 92.0525H148.18L149.803 98.19H148.625L148.261 96.8325H146.284L145.958 98.19H144.821ZM146.569 95.7775H148.043L147.419 93.1325H147.202L146.569 95.7775ZM153.756 98.19V92.0525H154.97L156.395 96.1475L157.827 92.0525H159.043V98.19H157.965V94.375L156.681 98.065H156.167L154.883 94.375V98.1925H153.754L153.756 98.19Z" fill="#383B43"/>
<path fill-rule="evenodd" clip-rule="evenodd" d="M176.775 93.6775H211.023V70.2775H213.494V96.5775H176.775V93.6775ZM36.7191 96.5775H0V70.2775H2.4708V93.6775H36.7212L36.7191 96.5775Z" fill="#00BE26"/>
<path fill-rule="evenodd" clip-rule="evenodd" d="M173.957 90.255C175.058 90.2543 176.114 90.7671 176.893 91.6804C177.672 92.5937 178.11 93.8327 178.111 95.125C178.111 96.4173 177.674 97.6569 176.896 98.5711C176.118 99.4854 175.062 99.9993 173.961 100C172.877 99.9712 171.845 99.4453 171.087 98.5349C170.329 97.6245 169.904 96.4019 169.904 95.1287C169.904 93.8556 170.329 92.633 171.087 91.7226C171.845 90.8122 172.877 90.2863 173.961 90.2575L173.957 90.255ZM173.957 92.575C172.781 92.5875 171.834 93.725 171.844 95.105C171.841 95.7697 172.064 96.4085 172.462 96.8808C172.861 97.3532 173.403 97.6204 173.969 97.6237C174.535 97.6271 175.079 97.3662 175.482 96.8985C175.884 96.4309 176.112 95.7947 176.115 95.13C176.115 93.7475 175.156 92.6225 173.978 92.6225H173.957V92.575ZM39.5349 90.255C38.982 90.2403 38.4321 90.3554 37.9176 90.5936C37.4031 90.8318 36.9344 91.1883 36.5389 91.6421C36.1434 92.0959 35.8292 92.6378 35.6146 93.2362C35.4001 93.8345 35.2896 94.4771 35.2896 95.1262C35.2896 95.7754 35.4001 96.418 35.6146 97.0163C35.8292 97.6147 36.1434 98.1566 36.5389 98.6104C36.9344 99.0642 37.4031 99.4207 37.9176 99.6589C38.4321 99.8971 38.982 100.012 39.5349 99.9975C40.6194 99.9687 41.6512 99.4428 42.4094 98.5324C43.1677 97.622 43.5923 96.3994 43.5923 95.1262C43.5923 93.8531 43.1677 92.6305 42.4094 91.7201C41.6512 90.8097 40.6194 90.2838 39.5349 90.255ZM39.5349 92.575C40.7107 92.5875 41.6607 93.725 41.65 95.105C41.6514 95.4341 41.5976 95.7604 41.4916 96.0651C41.3856 96.3698 41.2294 96.647 41.0321 96.8808C40.6337 97.3532 40.0917 97.6204 39.5254 97.6237C38.959 97.6271 38.4148 97.3662 38.0123 96.8985C37.6099 96.4309 37.3822 95.7947 37.3794 95.13C37.3777 94.4682 37.5996 93.8327 37.9965 93.3627C38.3933 92.8926 38.9328 92.6265 39.4966 92.6225H39.5349V92.575Z" fill="#00A621"/>
<path fill-rule="evenodd" clip-rule="evenodd" d="M173.957 90.255C174.502 90.2548 175.042 90.3807 175.546 90.6254C176.05 90.8701 176.507 91.2289 176.893 91.6812C177.278 92.1336 177.584 92.6706 177.793 93.2617C178.002 93.8528 178.109 94.4864 178.11 95.1262C178.11 95.7661 178.002 96.3997 177.794 96.991C177.585 97.5822 177.28 98.1194 176.894 98.572C176.509 99.0246 176.051 99.3836 175.548 99.6286C175.044 99.8736 174.504 99.9998 173.959 100C172.875 99.9712 171.843 99.4453 171.085 98.5349C170.326 97.6245 169.902 96.4019 169.902 95.1287C169.902 93.8556 170.326 92.633 171.085 91.7226C171.843 90.8122 172.875 90.2863 173.959 90.2575L173.957 90.255ZM39.5349 90.255C38.982 90.2403 38.4321 90.3554 37.9176 90.5936C37.4031 90.8318 36.9344 91.1883 36.5389 91.6421C36.1434 92.0959 35.8292 92.6378 35.6146 93.2362C35.4001 93.8345 35.2896 94.4771 35.2896 95.1262C35.2896 95.7754 35.4001 96.418 35.6146 97.0163C35.8292 97.6147 36.1434 98.1566 36.5389 98.6104C36.9344 99.0642 37.4031 99.4207 37.9176 99.6589C38.4321 99.8971 38.982 100.012 39.5349 99.9975C40.6194 99.9687 41.6512 99.4428 42.4094 98.5324C43.1677 97.622 43.5923 96.3994 43.5923 95.1262C43.5923 93.8531 43.1677 92.6305 42.4094 91.7201C41.6512 90.8097 40.6194 90.2838 39.5349 90.255ZM39.5349 92.575C40.7107 92.5875 41.6607 93.725 41.65 95.105C41.6514 95.4341 41.5976 95.7604 41.4916 96.0651C41.3856 96.3698 41.2294 96.647 41.0321 96.8808C40.6337 97.3532 40.0917 97.6204 39.5254 97.6237C38.959 97.6271 38.4148 97.3662 38.0123 96.8985C37.6099 96.4309 37.3822 95.7947 37.3794 95.13C37.3777 94.4682 37.5996 93.8327 37.9965 93.3627C38.3933 92.8926 38.9328 92.6265 39.4966 92.6225H39.5349V92.575ZM173.959 92.575C172.781 92.5875 171.834 93.725 171.842 95.105C171.839 95.7697 172.061 96.4085 172.46 96.8808C172.858 97.3532 173.4 97.6204 173.967 97.6237C174.533 97.6271 175.077 97.3662 175.48 96.8985C175.882 96.4309 176.11 95.7947 176.113 95.13C176.113 93.7475 175.154 92.6225 173.978 92.6225H173.957L173.959 92.575Z" fill="#00BE26"/>
<path fill-rule="evenodd" clip-rule="evenodd" d="M67.3079 40.0575C62.9009 45.8575 52.7707 43.8525 45.092 41.2175C40.602 39.71 40.2676 42.2625 41.3155 44.9175C42.3635 47.575 45.8716 51.775 52.2957 52.4125C55.7773 52.8034 59.2675 51.7749 62.1789 49.5C62.377 49.325 62.2598 49.05 62.0425 49.1875C57.495 51.925 49.3201 50.8375 47.5032 47.145C47.2561 46.645 47.4222 46.3225 48.6683 46.66C57.6718 49.095 64.1747 46.52 67.5188 40.07V39.92C67.4934 39.9211 67.4686 39.9289 67.4461 39.9427C67.4236 39.9566 67.4041 39.9761 67.3888 40L67.3079 40.0575ZM38.1908 16.2425C37.9842 16.4175 38.112 16.6925 38.3293 16.5675C42.8662 13.805 50.99 14.885 52.809 18.5625C53.0476 19.0625 52.8793 19.385 51.6439 19.0475C42.6297 16.6125 36.1247 19.1875 32.7849 25.6375C32.7061 25.8 32.8445 25.87 32.9638 25.7075C37.3729 19.9075 47.4904 21.915 55.1712 24.49C59.6697 25.9975 59.9956 23.445 58.9477 20.79C57.8997 18.1325 54.3618 13.92 47.9782 13.305C47.5309 13.305 47.0878 13.2375 46.6512 13.2375C43.6363 13.2061 40.685 14.2544 38.1908 16.2425ZM50.1316 11.0925C54.8559 11.0801 59.3938 13.2543 62.7612 17.1434C66.1286 21.0326 68.0539 26.3231 68.1194 31.8675C68.1194 36.125 65.0948 39.28 59.1351 39.28C51.8207 39.28 44.3103 35.395 39.5945 35.395C38.8752 35.3728 38.1779 35.6865 37.6555 36.2673C37.1332 36.848 36.8285 37.6483 36.8084 38.4925V38.77C36.8084 45.37 42.7383 53.2475 50.1316 54.27C50.417 54.27 50.417 54.6875 50.1316 54.6875C45.4087 54.6921 40.8741 52.5151 37.5077 48.6272C34.1414 44.7392 32.2138 39.4526 32.1416 33.91C32.1416 29.6525 35.1769 26.4975 41.1259 26.4975C48.402 26.4975 55.8038 30.3825 60.6666 30.3825C61.3862 30.4053 62.0841 30.0919 62.6069 29.5111C63.1297 28.9303 63.4347 28.1296 63.4547 27.285V27.0075C63.4547 20.4075 57.6143 12.6325 50.1316 11.5075C49.8249 11.4625 49.8334 11.0925 50.1316 11.0925ZM181.352 33.9225C181.352 33.225 181.303 32.54 181.214 31.855C181.124 31.1681 180.926 30.5068 180.63 29.905C180.334 29.3024 179.908 28.8022 179.395 28.455C178.744 28.0536 178.014 27.862 177.28 27.9C176.196 27.8731 175.121 28.1346 174.136 28.665C173.268 29.1417 172.537 29.9043 172.031 30.86V28.2H168.325V44.0825H172.436V34.975C172.662 34.1628 173.093 33.4504 173.672 32.9325C173.927 32.69 174.215 32.4925 174.524 32.34C174.8 32.2025 175.094 32.1325 175.401 32.12C175.655 32.1082 175.907 32.1673 176.138 32.2925C176.368 32.4177 176.57 32.6053 176.726 32.84C177.121 33.5196 177.3 34.341 177.231 35.16V44.0825H181.352V33.9175V33.9225ZM156.267 34.4775C156.406 34.0025 156.623 33.55 156.9 33.155C157.177 32.795 157.511 32.505 157.886 32.31C158.263 32.11 158.668 32.0175 159.083 32.0175C159.914 32.0075 160.693 32.4375 161.228 33.1775C161.82 34.0275 162.118 35.0925 162.078 36.1825C162.078 36.7525 161.999 37.32 161.842 37.865C161.703 38.34 161.486 38.7925 161.209 39.1775C160.951 39.5375 160.634 39.8275 160.27 40.0225C159.9 40.232 159.493 40.3357 159.083 40.325C158.673 40.3328 158.266 40.2327 157.893 40.032C157.52 39.8312 157.19 39.535 156.928 39.165C156.334 38.3188 156.03 37.2425 156.078 36.1475C156.078 35.58 156.148 35.0125 156.306 34.4775H156.267ZM162.127 43.7575C162.983 43.3517 163.758 42.7393 164.4 41.96C165.021 41.2087 165.5 40.3115 165.805 39.3275C166.458 37.3136 166.458 35.0889 165.805 33.075C165.487 32.0954 165.007 31.1997 164.391 30.44C163.745 29.6641 162.972 29.0493 162.118 28.6325C161.148 28.1571 160.104 27.9238 159.053 27.9475C158 27.924 156.953 28.1573 155.98 28.6325C155.126 29.0494 154.353 29.6642 153.707 30.44C153.086 31.1948 152.605 32.0918 152.293 33.075C151.661 35.0923 151.661 37.3077 152.293 39.325C152.61 40.3125 153.083 41.2075 153.707 41.96C154.348 42.7375 155.119 43.3525 155.98 43.76C157.963 44.641 160.152 44.641 162.136 43.76L162.127 43.7575ZM149.773 22.0425H145.649V26.4275H149.771L149.773 22.0425ZM149.773 28.2375H145.649V44.085H149.771V28.235L149.773 28.2375ZM142.182 43.0175C143.161 42.1225 143.715 40.73 143.673 39.2675C143.682 38.6786 143.585 38.094 143.387 37.5525C143.182 37.0436 142.873 36.6016 142.488 36.265C141.993 35.8427 141.451 35.5028 140.876 35.255C140.216 34.955 139.404 34.6525 138.446 34.34C137.801 34.1879 137.174 33.9462 136.578 33.62C136.427 33.5186 136.302 33.3724 136.215 33.1961C136.128 33.0199 136.083 32.8199 136.083 32.6162C136.083 32.4126 136.128 32.2126 136.215 32.0363C136.302 31.8601 136.427 31.7139 136.578 31.6125C136.923 31.38 137.319 31.2775 137.715 31.2875C138.318 31.2875 138.91 31.4375 139.462 31.7175C140.194 32.0775 140.876 32.53 141.519 33.075L143.121 30.175C142.381 29.3883 141.509 28.7914 140.561 28.4225C139.641 28.0975 138.682 27.9225 137.713 27.935C136.982 27.935 136.252 28.0625 135.56 28.33C134.94 28.5742 134.361 28.943 133.849 29.42C132.85 30.37 132.277 31.81 132.307 33.32C132.298 33.8525 132.377 34.385 132.563 34.885C132.763 35.3475 133.048 35.755 133.415 36.045C133.89 36.44 134.403 36.7525 134.948 36.985C135.57 37.26 136.341 37.5525 137.249 37.855C137.93 38.03 138.593 38.305 139.225 38.655C139.389 38.7488 139.527 38.8936 139.624 39.0736C139.722 39.2535 139.776 39.4616 139.779 39.675C139.785 39.8675 139.747 40.0584 139.669 40.2278C139.59 40.3971 139.475 40.5386 139.334 40.6375C138.957 40.882 138.529 40.9989 138.098 40.975C137.325 40.9628 136.561 40.7778 135.847 40.43C135 40.0221 134.194 39.5048 133.444 38.8875L131.973 41.845C132.793 42.7025 133.762 43.3525 134.808 43.735C135.905 44.165 137.053 44.385 138.207 44.385C139.651 44.4791 141.078 43.9874 142.25 42.9925L142.182 43.0175ZM129.977 22.0425H125.853V26.4275H129.975L129.977 22.0425ZM129.977 28.2375H125.853V44.085H129.975V28.235L129.977 28.2375ZM119.518 44.085L124.281 28.2125H120.436L117.472 40.22L114.507 28.2125H110.257L115.028 44.085H119.518ZM109.109 33.935C109.108 33.2427 109.062 32.5515 108.971 31.8675C108.873 31.1834 108.676 30.5239 108.389 29.9175C108.093 29.3149 107.667 28.8148 107.154 28.4675C106.502 28.0656 105.772 27.8741 105.037 27.9125C103.954 27.886 102.88 28.1475 101.895 28.6775C101.043 29.1525 100.323 29.92 99.8287 30.86V28.2H96.0736V44.0825H100.195V34.975C100.312 34.5575 100.481 34.175 100.698 33.815C100.907 33.4775 101.162 33.19 101.439 32.9325C101.697 32.69 101.972 32.4925 102.28 32.34C102.557 32.2025 102.853 32.1325 103.16 32.12C103.414 32.1082 103.666 32.1673 103.896 32.2925C104.127 32.4177 104.328 32.6053 104.485 32.84C104.879 33.525 105.058 34.3375 104.988 35.16V44.0825H109.109V33.9175V33.93V33.935ZM85.2106 39.745V35.1625H92.4163V31.15H85.2106V26.9725H93.6028V22.6225H80.9889V44.0975H93.8392V39.7325H85.2106V39.745Z" fill="#383B43"/>
<path fill-rule="evenodd" clip-rule="evenodd" d="M211.023 26.3V2.9H2.4708V26.3H0V0H213.494V26.3H211.023Z" fill="#00BE26"/>
</g>
</g>
</g>
</g>
<defs>
<clipPath id="clip0_317_1426">
<rect width="213" height="100" fill="white"/>
</clipPath>
<clipPath id="clip1_317_1426">
<rect width="213" height="100" fill="white"/>
</clipPath>
</defs>
</svg>
