<svg width="213" height="100" viewBox="0 0 213 100" fill="none" xmlns="http://www.w3.org/2000/svg">
<path d="M203.644 0H9.2371C6.4879 0 4.26001 2.6149 4.26001 5.84165V94.1582C4.26001 97.385 6.4879 100 9.2371 100H203.644C206.394 100 208.621 97.385 208.621 94.1582V5.84165C208.621 2.6149 206.394 0 203.644 0Z" fill="#3C3C3C"/>
<path d="M134.604 78.1013H125.605V79.7438H134.604V78.1013Z" fill="#B4B4B4"/>
<path d="M134.604 73.7419H125.605V75.3844H134.604V73.7419Z" fill="#B4B4B4"/>
<path d="M123.214 81.0985V72.3835C123.214 71.5567 123.788 70.883 124.489 70.883L134.602 70.923L134.605 69.2805L124.489 69.2405C123.012 69.2405 121.812 70.6497 121.812 72.3835V81.0985C121.812 82.832 123.012 84.2415 124.486 84.2415L134.599 84.2815L134.602 82.639L124.486 82.599C123.788 82.599 123.214 81.9252 123.214 81.0985Z" fill="#B4B4B4"/>
<path d="M19.5276 70.6642V76.1527H25.0942V77.5767H19.5276V84.154H18.1716V69.2402H26.0593V70.6642H19.5276Z" fill="#EAFF1B"/>
<path d="M38.4066 82.73C37.5502 83.7352 36.4268 84.2815 35.1578 84.2815C33.8919 84.2815 32.7653 83.7352 31.9091 82.73C30.7144 81.328 30.7144 79.8602 30.7144 76.699C30.7144 73.5377 30.7144 72.07 31.9091 70.668C32.7653 69.6627 33.8887 69.1165 35.1578 69.1165C36.4238 69.1165 37.5502 69.6627 38.4066 70.668C39.6011 72.07 39.6011 73.5377 39.6011 76.699C39.6043 79.8602 39.6043 81.3242 38.4066 82.73ZM37.3546 71.6075C36.8023 70.9375 35.9987 70.5405 35.1609 70.5405C34.323 70.5405 33.5194 70.9375 32.967 71.6075C32.1634 72.569 32.0735 73.5777 32.0735 76.6952C32.0735 79.8165 32.1634 80.8217 32.967 81.7867C33.5194 82.457 34.323 82.8537 35.1609 82.8537C35.9987 82.8537 36.8023 82.457 37.3546 81.7867C38.1583 80.8217 38.2484 79.8165 38.2484 76.6952C38.2484 73.5777 38.1583 72.569 37.3546 71.6075Z" fill="#EAFF1B"/>
<path d="M53.1293 84.154L50.2374 77.5365H47.1841V84.154H45.8281V69.2402H50.6999C52.9121 69.2402 54.4668 70.81 54.4668 73.3885C54.4668 75.5662 53.3434 76.9902 51.702 77.391L54.7181 84.1575H53.1293V84.154ZM50.5787 70.6642H47.1873V76.1307H50.5787C52.0588 76.1307 53.1138 75.2312 53.1138 73.4067C53.1108 71.5857 52.0588 70.6642 50.5787 70.6642Z" fill="#EAFF1B"/>
<path d="M70.0998 84.154V72.824L66.6183 81.8085H65.4579L61.9238 72.824V84.154H60.5676V69.2402H61.9238L66.063 79.8165L70.0968 69.2402H71.4528V84.154H70.0998Z" fill="#EAFF1B"/>
<path d="M82.4153 84.2777C79.8461 84.2777 77.9905 82.2055 77.9905 79.23V69.2402H79.3464V79.1062C79.3464 81.368 80.5597 82.8537 82.4153 82.8537C84.2708 82.8537 85.5028 81.368 85.5028 79.1062V69.2402H86.8587V79.23C86.8587 82.2055 84.9845 84.2777 82.4153 84.2777Z" fill="#EAFF1B"/>
<path d="M93.3892 84.154V69.2402H94.7451V82.73H101.24V84.154H93.3892Z" fill="#EAFF1B"/>
<path d="M114.052 84.154L113.034 80.7815H107.483L106.465 84.154H105.019L109.698 69.2402H110.84L115.498 84.154H114.052ZM110.288 71.5237L107.895 79.3975H112.643L110.288 71.5237Z" fill="#EAFF1B"/>
<path d="M147.366 70.6645V84.154H146.011V70.6645H142.333V69.2405H151.043V70.6645H147.366Z" fill="#EAFF1B"/>
<path d="M156.449 84.154V69.2405H164.337V70.6645H157.805V75.9232H163.371V77.3472H157.805V82.73H164.337V84.154H156.449Z" fill="#EAFF1B"/>
<path d="M177.596 84.154L176.578 80.7817H171.027L170.009 84.154H168.563L173.242 69.2405H174.384L179.042 84.154H177.596ZM173.829 71.524L171.437 79.3977H176.184L173.829 71.524Z" fill="#EAFF1B"/>
<path d="M193.657 84.154V72.824L190.175 81.8087H189.015L185.48 72.824V84.154H184.125V69.2405H185.48L189.62 79.8165L193.653 69.2405H195.009V84.154H193.657Z" fill="#EAFF1B"/>
<path d="M31.859 32.0124L17.8928 15.9734H37.6616L51.2802 32.0124H31.859Z" fill="#EAFF1B"/>
<path d="M41.689 15.9734L55.3075 32.0124H75.3308V22.4852C75.3308 20.3583 76.1219 18.3407 77.4996 16.9604L78.4832 15.9734H41.689Z" fill="#B4B4B4"/>
<path d="M51.2648 41.6855L37.6058 57.721H17.8928L31.9491 41.6855H51.2648Z" fill="#EAFF1B"/>
<path d="M55.3012 41.6855L41.6389 57.7245H78.4862C76.5375 56.4353 75.3336 54.017 75.3336 51.3913V41.6855H55.3012Z" fill="#B4B4B4"/>
<path d="M114.756 40.4875H89.7368V45.0508H114.756V40.4875Z" fill="#B4B4B4"/>
<path d="M114.756 28.3635H89.7368V32.9268H114.756V28.3635Z" fill="#B4B4B4"/>
<path d="M195.012 15.9592H159.459V20.5226H195.012V15.9592Z" fill="#B4B4B4"/>
<path d="M173.847 57.6738H169.959V32.9344H159.459V28.3708H173.847V57.6738Z" fill="#B4B4B4"/>
<path d="M184.505 57.6738H180.617V28.3708H195.012V32.9344H184.505V57.6738Z" fill="#B4B4B4"/>
<path d="M114.749 57.6556L86.6335 57.5464C82.5346 57.5464 79.199 53.6276 79.199 48.8129V24.5832C79.199 19.7649 82.5378 15.8499 86.6399 15.8499L114.762 15.9591L114.749 20.5225L86.6335 20.4132C84.6818 20.4132 83.0871 22.2852 83.0871 24.5832V48.8129C83.0871 51.1111 84.6818 52.9829 86.6399 52.9829L114.762 53.0921L114.749 57.6556Z" fill="#B4B4B4"/>
<path d="M142.491 28.3525H119.563V32.9158H142.491V28.3525Z" fill="#B4B4B4"/>
<path d="M144.528 53.092H129.743V57.6553H144.528V53.092Z" fill="#B4B4B4"/>
<path d="M155.091 36.2992V24.7069C155.091 19.8813 151.746 15.9553 147.635 15.9553H119.563V20.5186H147.635C149.602 20.5186 151.204 22.3979 151.204 24.7069V36.2992C151.204 38.6082 149.602 40.4872 147.635 40.4872H130.746H119.569V57.6735H123.457V45.0507H130.746H147.635C149.602 45.0507 151.204 46.93 151.204 49.239V57.6735H155.091V49.239C155.091 46.6787 154.148 44.3732 152.653 42.7707C154.151 41.1685 155.091 38.8595 155.091 36.2992Z" fill="#B4B4B4"/>
</svg>
