<svg width="213" height="100" viewBox="0 0 213 100" fill="none" xmlns="http://www.w3.org/2000/svg">
<path d="M66.7755 0H62.3451L51.8655 14.175H54.4641L56.6793 11.15H69.9918L72.207 14.175H77.2338L66.7755 0ZM58.0212 9.325L63.3249 2.075L68.6499 9.325H58.0212Z" fill="black"/>
<path d="M45.156 6.475C45.156 8.375 44.8152 9.65 44.0271 10.55C43.0047 11.75 41.3007 12.25 38.766 12.25H30.5442V14.15H39.4689C43.7076 14.15 46.6896 13.475 48.2445 11.575C49.1391 10.5 49.5651 9.125 49.5651 6.9V0H45.1347V6.475H45.156Z" fill="black"/>
<path d="M106.244 0V7.05C106.244 8.875 106.415 10.325 107.203 11.525C108.481 13.475 110.824 14.625 117.32 14.625H117.384C123.923 14.625 126.245 13.5 127.523 11.525C128.311 10.325 128.482 8.875 128.482 7.05V0H123.987V6.875C123.987 8.65 123.796 9.8 123.22 10.75C122.241 12.35 120.707 12.95 117.555 12.95H117.171C114.147 12.95 112.485 12.375 111.505 10.75C110.93 9.8 110.739 8.725 110.739 6.875V0H106.244Z" fill="black"/>
<path d="M84.8805 3.275C85.8816 2.325 87.1809 1.9 89.5878 1.9H100.813V0H88.182C85.1361 0 83.283 0.4 81.6642 1.475C80.1306 2.475 78.9378 4.35 78.9378 7.05C78.9378 9.9 80.0454 12 82.4523 13.15C83.9007 13.825 85.8177 14.175 88.2672 14.175H101.26V7.675H96.7872V12.275H89.6091C87.2874 12.275 85.9455 11.875 84.9444 10.975C83.9859 10.125 83.496 8.825 83.496 7.075C83.496 5.375 83.9646 4.1 84.8592 3.275H84.8805Z" fill="black"/>
<path d="M175.363 9.15C177.046 9.075 178.473 8.775 179.58 8.1C180.73 7.375 181.284 6 181.284 4.6C181.284 2.7 180.56 1.5 179.24 0.825C178.089 0.2 176.641 0 173.765 0H159.835V14.175H164.33V9.275H170.23L176.96 14.175H182.435L175.363 9.175V9.15ZM164.33 7.45V1.8H173.19C174.873 1.8 175.619 1.975 176.13 2.425C176.62 2.85 176.79 3.5 176.79 4.525V4.8C176.79 5.725 176.598 6.45 176.023 6.925C175.448 7.375 174.66 7.475 173.233 7.475H164.33V7.45Z" fill="black"/>
<path d="M145.372 0H140.942L130.484 14.175H133.082L135.276 11.15H148.589L150.804 14.175H155.852L145.372 0ZM136.618 9.325L141.922 2.075L147.247 9.325H136.618Z" fill="black"/>
<path d="M84.8166 93.55H82.8357L78.1497 99.8751H79.3212L80.301 98.5251H86.2437L87.2448 99.8751H89.5026L84.8166 93.55ZM80.9187 97.7001L83.283 94.4501L85.6686 97.7001H80.9187Z" fill="black"/>
<path d="M112.741 97.3251V99.8751H114.424V97.1751V96.2501V93.55H112.741V96.1V97.3251Z" fill="black"/>
<path d="M103.071 99.0251H99.8757C98.832 99.0251 98.2356 98.8501 97.7883 98.4501C97.3623 98.0751 97.1493 97.5001 97.1493 96.7001C97.1493 95.9501 97.3623 95.3751 97.767 95.0001C98.2143 94.5751 98.7894 94.3751 99.8757 94.3751H104.881V93.5251H99.2367C97.8735 93.5251 97.0428 93.7001 96.3186 94.1751C95.637 94.6251 95.1045 95.4501 95.1045 96.6751C95.1045 97.9501 95.5944 98.8751 96.6807 99.4001C97.3197 99.7001 98.193 99.8501 99.2793 99.8501H104.881V99.0001" fill="black"/>
<path d="M143.668 95.0001C144.116 94.5751 144.691 94.3751 145.777 94.3751H150.783V93.5251H145.138C143.775 93.5251 142.944 93.7001 142.22 94.1751C141.538 94.6251 141.006 95.4501 141.006 96.6751C141.006 97.9501 141.496 98.8751 142.582 99.4001C143.221 99.7001 144.094 99.8501 145.181 99.8501H150.996V96.9501H148.993V99.0001H145.798C144.755 99.0001 144.158 98.8251 143.711 98.4251C143.285 98.0501 143.072 97.4751 143.072 96.6751C143.072 95.9251 143.285 95.3502 143.69 94.9752L143.668 95.0001Z" fill="black"/>
<path d="M68.9268 97.775C69.6723 97.75 70.3113 97.6 70.8225 97.3C71.3337 96.975 71.5893 96.375 71.5893 95.725C71.5893 94.875 71.2698 94.35 70.6734 94.025C70.1622 93.75 69.5019 93.675 68.2239 93.675H62.0043V100H64.0065V97.8H66.6477L69.651 100H72.1005L68.9481 97.775H68.9268ZM64.0065 97.025V94.475H67.9683C68.7138 94.475 69.0546 94.55 69.2889 94.75C69.5019 94.95 69.5871 95.225 69.5871 95.7V95.8251C69.5871 96.2251 69.5019 96.575 69.2463 96.775C68.9907 96.975 68.6499 97.025 67.9896 97.025H64.0065Z" fill="black"/>
<path d="M132.166 98.9751L125.563 93.4751V94.9501L127.097 96.1751L127.949 96.8751L131.549 99.9251L132.166 98.9751Z" fill="black"/>
<path d="M131.549 97.3251V99.9251H133.104V97.1751V96.2251V93.4751H131.549V96.0751V97.3251Z" fill="black"/>
<path d="M123.455 99.9251H125.585V97.5001L125.563 93.4751H123.455" fill="black"/>
<path d="M119.812 71.8752C119.812 72.9502 120.281 73.8252 121.474 74.5002C123.135 75.4502 125.84 76.2502 128.247 76.2502C131.293 76.2502 133.828 75.1752 135.596 73.2752C136.171 72.6752 136.661 71.8502 136.746 70.7752C136.98 68.3252 134.765 64.2252 130.186 61.2002C132.294 62.8002 132.933 64.1752 132.933 66.1252C132.933 69.0252 130.974 70.9752 128.162 70.9752C125.35 70.9752 123.157 69.3502 121.9 69.3502C120.643 69.3502 119.77 70.3502 119.77 71.8502L119.812 71.8752Z" fill="url(#paint0_linear_317_651)"/>
<path d="M88.395 75.4501C90.6954 74.4501 92.4633 72.5501 93.6135 69.8001L91.0362 64.3501C89.886 68.4001 87.8838 70.5501 85.1148 70.5501C82.3458 70.5501 80.3436 68.6001 80.3436 64.1501L80.2797 66.7001C79.7685 72.1251 82.5375 76.9751 88.3737 75.4751L88.395 75.4501Z" fill="url(#paint1_linear_317_651)"/>
<path d="M94.7637 57.85C94.7637 69.925 98.8959 76.65 111.995 74.375C116.192 71.825 119.174 66.625 121.24 58.675L122.454 54C121.304 52.25 121.325 50.275 121.325 48.175C121.325 45.95 121.538 43.975 122.688 42.5C120.963 44.65 119.536 47.825 118.385 52.275L117.065 57.4C114.701 66.425 110.973 70.75 105.179 70.75C98.8107 70.75 94.785 65.55 94.785 57.875L94.7637 57.85Z" fill="url(#paint2_linear_317_651)"/>
<path d="M111.995 74.3751C98.8959 76.6751 94.7637 68.4501 94.7637 57.8751C94.7637 50.2001 98.7894 44.9251 104.583 44.9251C106.479 44.9251 108.374 45.4001 110.1 46.3501C110.845 46.7501 111.484 46.9001 112.059 46.9001C113.444 46.9001 114.36 45.8251 114.36 44.2001C114.36 43.2001 113.849 42.1751 112.634 41.5001C110.462 40.2251 107.629 39.4751 104.604 39.4751C95.5305 39.4751 89.2683 47.0251 89.2683 58.0001C89.2683 68.9751 95.2962 76.2751 105.009 76.2751C107.65 76.2751 109.951 75.6751 112.017 74.4001L111.995 74.3751Z" fill="url(#paint3_linear_317_651)"/>
<path d="M89.247 58.0001C89.247 47.0251 95.5092 39.4751 104.583 39.4751C107.629 39.4751 110.441 40.2251 112.613 41.5001C113.827 42.1751 114.338 43.1751 114.338 44.2001C114.338 45.8251 113.423 46.9001 112.038 46.9001C111.463 46.9001 110.824 46.7751 110.078 46.3501C108.353 45.4001 106.479 44.9251 104.562 44.9251C96.5742 44.9251 89.2257 50.8501 89.2257 58.0001H89.247Z" fill="url(#paint4_linear_317_651)"/>
<path d="M123.54 41.625C123.029 42.2 122.731 43 122.731 43.85C122.731 46.075 124.52 49.375 128.652 52.75L133.359 56.6C136.81 59.425 138.173 62.125 138.173 66.175C138.173 69.075 137.193 71.575 135.596 73.325C136.171 72.725 136.512 71.9 136.512 70.825C136.512 68.475 134.509 64.75 130.186 61.25L125.883 57.75C122.262 54.775 120.835 52.025 120.835 48.25C120.835 46.025 121.517 44 122.667 42.525C122.944 42.225 123.221 41.925 123.54 41.65V41.625Z" fill="url(#paint5_linear_317_651)"/>
<path d="M128.652 52.7501C126.82 51.2001 126.011 49.7751 126.011 48.1001C126.011 45.9501 127.502 44.6001 129.632 44.6001C132.337 44.6001 133.594 46.0751 135.212 46.0751C136.469 46.0751 137.342 45.0751 137.342 43.5751C137.342 42.5001 136.874 41.6251 135.681 40.9501C133.785 39.8751 131.719 39.4751 129.483 39.4751C127.118 39.4751 125.052 40.2751 123.561 41.6251C123.05 42.2001 122.752 43.0001 122.752 43.8501C122.752 46.0751 124.541 49.3751 128.673 52.7501H128.652Z" fill="url(#paint6_linear_317_651)"/>
<path d="M74.8482 46.3251C74.8482 42.2751 77.0847 39.8751 80.3649 39.8751V32.9751C80.3649 30.9501 79.2147 29.6001 77.6172 29.6001C76.0197 29.6001 74.8695 30.9501 74.8695 32.9751V46.3251H74.8482Z" fill="url(#paint7_linear_317_651)"/>
<path d="M84.6036 76.2001C85.9029 76.2001 87.1809 75.9501 88.395 75.4501C82.6014 76.6001 80.4075 71.9001 80.3649 66.6751V45.1001H87.0744C88.6293 45.1001 89.6517 44.0251 89.6517 42.4751C89.6517 40.9251 88.6293 39.8501 87.0744 39.8501H80.3649C77.0847 39.8501 74.8482 42.2751 74.8482 46.3251V64.8501C74.8482 72.2751 78.4692 76.1751 84.6036 76.1751V76.2001Z" fill="url(#paint8_linear_317_651)"/>
<defs>
<linearGradient id="paint0_linear_317_651" x1="135.127" y1="67.1752" x2="119.271" y2="70.7605" gradientUnits="userSpaceOnUse">
<stop stop-color="#EE3984"/>
<stop offset="1" stop-color="#7800DA"/>
</linearGradient>
<linearGradient id="paint1_linear_317_651" x1="79.4064" y1="71.6251" x2="95.7474" y2="67.2139" gradientUnits="userSpaceOnUse">
<stop stop-color="#EE3984"/>
<stop offset="1" stop-color="#7800DA"/>
</linearGradient>
<linearGradient id="paint2_linear_317_651" x1="103.475" y1="68.25" x2="116.883" y2="49.5961" gradientUnits="userSpaceOnUse">
<stop stop-color="#EE3984"/>
<stop offset="1" stop-color="#7800DA"/>
</linearGradient>
<linearGradient id="paint3_linear_317_651" x1="100.877" y1="48.6501" x2="108.497" y2="71.5569" gradientUnits="userSpaceOnUse">
<stop stop-color="#FF0000"/>
<stop offset="1" stop-color="#EE3984"/>
</linearGradient>
<linearGradient id="paint4_linear_317_651" x1="89.247" y1="48.7251" x2="114.36" y2="48.7251" gradientUnits="userSpaceOnUse">
<stop stop-color="#FFC708"/>
<stop offset="1" stop-color="#FA3B00"/>
</linearGradient>
<linearGradient id="paint5_linear_317_651" x1="120.835" y1="57.45" x2="138.173" y2="57.45" gradientUnits="userSpaceOnUse">
<stop stop-color="#FF0000"/>
<stop offset="1" stop-color="#EE3984"/>
</linearGradient>
<linearGradient id="paint6_linear_317_651" x1="122.731" y1="46.1001" x2="137.321" y2="46.1001" gradientUnits="userSpaceOnUse">
<stop stop-color="#FFC708"/>
<stop offset="1" stop-color="#F05731"/>
</linearGradient>
<linearGradient id="paint7_linear_317_651" x1="77.5959" y1="31.4001" x2="77.5959" y2="44.7501" gradientUnits="userSpaceOnUse">
<stop stop-color="#FFC708"/>
<stop offset="1" stop-color="#F05731"/>
</linearGradient>
<linearGradient id="paint8_linear_317_651" x1="83.8581" y1="41.6501" x2="79.7792" y2="66.7216" gradientUnits="userSpaceOnUse">
<stop stop-color="#F80000"/>
<stop offset="1" stop-color="#EE3984"/>
</linearGradient>
</defs>
</svg>
