<svg width="213" height="100" viewBox="0 0 213 100" fill="none" xmlns="http://www.w3.org/2000/svg">
<g clip-path="url(#clip0_482_83)">
<mask id="mask0_482_83" style="mask-type:luminance" maskUnits="userSpaceOnUse" x="0" y="0" width="213" height="100">
<path d="M0 0H213V100H0V0Z" fill="white"/>
</mask>
<g mask="url(#mask0_482_83)">
<path d="M0 0H213V100H0V0Z" fill="white"/>
<mask id="mask1_482_83" style="mask-type:luminance" maskUnits="userSpaceOnUse" x="0" y="25" width="213" height="49">
<path d="M0 25H213V73.23H0V25Z" fill="white"/>
</mask>
<g mask="url(#mask1_482_83)">
<path d="M199.204 36.31H208.742C210.908 36.31 212.676 38.2975 212.676 40.7275V50.845H198.414C197.793 50.8591 197.193 50.5844 196.744 50.081C196.295 49.5775 196.034 48.886 196.018 48.1575V44.6425C196.032 43.9657 196.274 43.3231 196.691 42.8547C197.107 42.3864 197.665 42.1304 198.241 42.1425H206.156L205.321 44.185H199.498C199.367 44.1784 199.238 44.2308 199.138 44.3316C199.038 44.4324 198.975 44.5739 198.961 44.7275V47.49C198.975 47.6436 199.038 47.7852 199.138 47.8857C199.238 47.9862 199.367 48.0379 199.498 48.03H209.594V41.3975C209.594 40.1075 208.614 39.13 207.52 39.13H198.047L199.204 36.31ZM142.092 33.1425V30.9925H139.008V35.1875L142.092 33.1425ZM139.008 37.23L142.092 35.1875V50.8525H139.008V37.2275V37.23ZM157.62 36.31C159.784 36.31 161.554 38.2975 161.554 40.7275V50.845H158.481V41.38C158.481 40.0925 157.497 39.1125 156.404 39.1125H149V50.83H145.92V36.31H157.629M197.061 36.31H189.321C187.157 36.31 185.382 38.2975 185.382 40.7275V50.845H188.486V41.38C188.486 40.0925 189.468 39.1125 190.565 39.1125H195.903L197.061 36.31ZM93.5965 50.8475H96.6786V40.725C96.6786 38.295 94.9065 36.3075 92.7445 36.3075H72.5479V50.84H75.63V39.665C75.6444 39.5121 75.708 39.3714 75.8077 39.2716C75.9074 39.1717 76.0358 39.1202 76.1667 39.1275H82.5375C82.6685 39.1202 82.7968 39.1717 82.8966 39.2716C82.9963 39.3714 83.0598 39.5121 83.0743 39.665V50.8425H86.1543V39.6675C86.1678 39.5139 86.231 39.3722 86.3308 39.2718C86.4307 39.1713 86.5597 39.1196 86.691 39.1275H91.5198C92.6124 39.1275 93.5965 40.105 93.5965 41.395V50.845V50.8475ZM119.286 31.025V50.845H122.371V31.025H119.286ZM132.103 50.845H135.187V40.7275C135.187 38.2975 133.415 36.31 131.249 36.31H124.705L123.54 39.125H130.028C131.121 39.125 132.103 40.105 132.103 41.395V50.845ZM180.978 31.025V50.845H167.075C166.454 50.8598 165.853 50.5854 165.404 50.0819C164.954 49.5783 164.693 48.8865 164.677 48.1575V40.7325C164.677 38.3 166.449 36.3125 168.615 36.3125H176.528L175.361 39.13H169.829C168.737 39.13 167.755 40.1075 167.755 41.3975V47.49C167.768 47.6436 167.831 47.7852 167.931 47.8857C168.031 47.9862 168.16 48.0379 168.291 48.03H177.9V31.025H180.978ZM102.581 36.31H112.121C114.285 36.31 116.055 38.2975 116.055 40.7275V50.845H101.793C101.172 50.8591 100.572 50.5844 100.123 50.0808C99.6748 49.5773 99.4143 48.8858 99.3986 48.1575V44.6425C99.4143 43.9661 99.6565 43.3243 100.073 42.8562C100.489 42.3882 101.046 42.1317 101.622 42.1425H109.54L108.705 44.185H102.879C102.747 44.1784 102.618 44.2307 102.518 44.3314C102.418 44.4321 102.355 44.5737 102.34 44.7275V47.49C102.355 47.6436 102.418 47.7849 102.519 47.8852C102.619 47.9855 102.748 48.0373 102.879 48.03H112.975V41.3975C112.975 40.1075 111.993 39.13 110.901 39.13H101.429L102.581 36.31Z" fill="#DD052B"/>
<path d="M59.5101 26.875L59.0926 27.35L57.8615 28.565L56.6261 29.7825L55.3907 30.995L54.1553 32.21L52.9199 33.425L51.6866 34.6425L50.4512 35.855L49.2115 37.0725L47.9761 38.2875L46.7407 39.505L45.5032 40.7225L44.2657 41.94L43.0281 43.165L41.7906 44.38L40.5467 45.5875L39.307 46.805L38.0695 48.0225L36.8341 49.24L35.5923 50.4575L34.3548 51.675L33.1172 52.8925L32.0522 53.9375C32.0522 56.705 32.0565 59.475 32.065 62.245C35.3367 65.67 38.6339 69.11 41.961 72.5675H47.0581C48.155 68.9058 49.2356 65.2374 50.3 61.5625L50.4405 61.065L50.5854 60.57L50.7281 60.0725L50.8729 59.5775L51.0135 59.0775L51.1562 58.5825L51.2989 58.085L51.4395 57.585L51.5822 57.09L51.7228 56.595L51.8655 56.095L52.004 55.5975L52.1467 55.0975L52.2851 54.6L52.4257 54.105L52.5663 53.605L52.7047 53.105L52.8432 52.61L52.9838 52.11L53.1201 51.61L53.2585 51.11L53.397 50.61L53.5333 50.115L53.8251 49.0575L54.102 48L54.381 46.9425L54.6579 45.885L54.937 44.825L55.216 43.7675L55.4929 42.71L55.7719 41.65L56.0488 40.5875L56.3279 39.53L56.6048 38.47L56.8838 37.41L57.1607 36.345L57.4397 35.285L57.7166 34.2225L57.9956 33.16L58.2576 32.1L58.5196 31.035L58.7774 29.97L59.033 28.91L59.2886 27.8475C59.3674 27.52 59.4462 27.1925 59.5207 26.8675M58.4216 28.905L58.2044 29.7925L57.9701 30.75L57.7379 31.7125L57.5036 32.6725L57.2629 33.6325L57.0222 34.59L56.7815 35.5675L56.5366 36.525L56.2916 37.485L56.0467 38.445L55.7996 39.4L55.5504 40.3575L55.2991 41.315L55.0456 42.2725L54.7921 43.23L54.5408 44.185L54.2852 45.1425L54.0253 46.0975L53.7697 47.055L53.5077 48.005L53.25 48.9625L52.9859 49.92L52.8496 50.415L52.7111 50.915L52.5748 51.415L52.4342 51.915L52.2958 52.41L52.1573 52.91L52.0189 53.405L51.8783 53.905L51.7398 54.4L51.6014 54.9L51.4587 55.395L51.3202 55.895L51.1775 56.3925L51.0369 56.8875L50.8942 57.3875L50.7536 57.8825L50.6109 58.38L50.4682 58.875L50.3276 59.375L50.1828 59.87L50.0401 60.3675L49.8974 60.8625L49.7547 61.36L49.6162 61.835L49.4799 62.31L49.3393 62.785L49.203 63.26L49.0624 63.7375L48.9218 64.2125L48.7877 64.6875L48.6471 65.1625L48.5086 65.6375L48.3702 66.1125L48.2275 66.5875L48.089 67.0625L47.9506 67.5375L47.8079 68.0125L47.6694 68.485L47.5267 68.9575L47.3882 69.4325L47.2455 69.9075L47.105 70.3825L46.9644 70.855L46.8238 71.3275L46.6811 71.8025L46.6513 71.9025H42.2017C39.0218 68.5928 35.8452 65.2786 32.6721 61.96L32.6508 54.26L33.6391 53.28L34.8021 52.14L35.9672 50.9925L37.1302 49.85L38.2953 48.7075L39.4583 47.565L40.6234 46.42L41.7842 45.2775L42.9472 44.135L44.1102 42.99L45.271 41.8475L46.434 40.705L47.597 39.56L48.7621 38.42L49.9208 37.275L51.0838 36.1325L52.2425 34.99L53.4055 33.8525L54.5642 32.71L55.7251 31.5675L56.8838 30.425L58.0446 29.2825L58.411 28.9225" fill="white"/>
<path d="M59.1522 26.5L31.7327 53.625L31.7476 62.435L31.8627 62.5575C35.1642 66.0375 38.4955 69.5325 41.8524 73.0425L41.9482 73.1425H47.467L47.548 72.8725C48.6576 69.1533 49.7489 65.4265 50.8218 61.6925L55.5504 44.68L57.7741 36.06L59.8892 27.4175L60.1235 26.44L60.46 25.015L59.1522 26.4975V26.5ZM55.7101 38.92L52.8709 49.6L46.5554 71.6575H42.4381C39.3017 68.365 36.1684 65.0684 33.0384 61.7675L33.0257 54.305L58.0531 29.5375L55.7101 38.92ZM0.00213 25.0825L1.08843 29.6675L3.23334 38.3075L6.07476 49.0775L9.63825 61.7675C10.6393 65.2675 11.7427 69.0325 12.9099 72.95L12.9887 73.22H18.5097L18.6055 73.12C21.9624 69.6025 25.2937 66.1075 28.5952 62.6325L28.7081 62.5125L28.723 53.7L1.33764 26.6L0 25.0825H0.00213ZM27.4429 54.395V61.86C24.2997 65.1487 21.1593 68.4412 18.0219 71.7375H13.9025L10.5669 60.2925L4.75416 39.005L2.41116 29.625L27.4429 54.395Z" fill="#DD052B"/>
<path d="M212.646 60.25H211.304L209.507 65.4025C209.313 65.9525 209.121 66.5125 208.936 67.06H208.917L208.64 66.225L208.363 65.4025L206.552 60.25H205.232V68.2075H205.992V60.96H206.011C206.097 61.21 206.175 61.45 206.267 61.7025L208.576 68.2075H209.349L211.656 61.62C211.76 61.295 211.767 61.295 211.809 61.175C211.845 61.0788 211.875 60.9803 211.901 60.88H211.922V68.2075H212.68L212.646 60.25ZM197.885 65.8H194.897L196.38 60.965L197.885 65.8ZM198.109 66.5125L198.637 68.1975H199.44L196.91 60.24H195.83L193.351 68.1975H194.162L194.682 66.5125H198.109ZM184.279 61.0125H187.87V60.2375H183.521V68.1975H187.87V67.42H184.279V64.46H187.717V63.725H184.279V61.0125ZM175.557 61.0725H177.753V60.24H172.59V61.0725H174.796V68.1975H175.557V61.0725ZM158.453 61.0225H162.04V60.2475H157.694V68.2075H162.044V67.43H158.453V64.47H161.888V63.725H158.451V61.025L158.453 61.0225ZM145.277 65.8075H142.292L143.775 60.975L145.277 65.8075ZM145.498 66.5225L146.026 68.2075H146.831L144.297 60.25H143.221L140.742 68.2075H141.551L142.073 66.5225H145.498ZM132.079 60.2475H131.317V68.2075H135.566V67.37H132.081V60.25L132.079 60.2475ZM124.219 60.2475V65.8225C124.219 67.335 124.017 67.515 122.207 67.515C121.116 67.515 120.722 67.3925 120.52 66.99C120.415 66.7875 120.375 66.4525 120.375 65.82V60.25H119.612V65.82C119.612 67.2175 119.847 67.7525 120.62 68.085C120.965 68.2425 121.344 68.2875 122.245 68.2875C123.742 68.2875 124.239 68.135 124.635 67.5775C124.899 67.1825 124.982 66.7725 124.982 65.82V60.25L124.219 60.2475ZM113.271 60.2475H111.929L110.127 65.4025C109.936 65.9525 109.74 66.5125 109.556 67.06H109.537L109.26 66.225L108.981 65.4025L107.171 60.25H105.85V68.2075H106.613V60.96H106.632C106.713 61.21 106.796 61.45 106.885 61.7025L109.192 68.2075H109.965L112.277 61.62C112.377 61.295 112.387 61.295 112.426 61.175C112.466 61.0575 112.489 60.9975 112.519 60.88H112.541V68.2075H113.303L113.269 60.25L113.271 60.2475ZM95.1811 64.235V61.0225H97.6519C98.1929 61.0225 98.5295 61.1525 98.6807 61.415C98.8341 61.675 98.8618 61.99 98.8618 62.8125C98.8618 63.8875 98.5061 64.235 97.3878 64.235H95.1811ZM94.4207 68.2075H95.1811V65.0075H97.49C98.0268 65.0075 98.2121 65.0525 98.4443 65.27C98.6786 65.485 98.7723 65.795 98.7723 66.3925V68.2075H99.5327V66.19C99.5327 65.21 99.177 64.72 98.4571 64.65C99.3602 64.47 99.6243 63.995 99.6243 62.5475C99.6243 60.865 99.0961 60.2625 97.6413 60.2625H94.425L94.4207 68.2075ZM85.3682 60.9375C86.7612 60.9375 87.0573 61.045 87.2831 61.62C87.4663 62.095 87.4663 62.095 87.4663 65.245C87.4663 66.2875 87.3747 66.7725 87.1191 67.1325C86.8848 67.4425 86.5482 67.515 85.3107 67.515C83.9219 67.515 83.6237 67.4075 83.398 66.835C83.2148 66.355 83.2148 66.355 83.2148 63.205C83.2148 62.1675 83.3064 61.68 83.562 61.32C83.7963 61.01 84.1179 60.9375 85.3703 60.9375H85.3682ZM85.3384 60.1625C84.8828 60.1552 84.4274 60.1845 83.9752 60.25C83.7313 60.287 83.4978 60.3887 83.2922 60.5472C83.0867 60.7057 82.9146 60.9169 82.7888 61.165C82.5119 61.7725 82.4522 62.24 82.4522 63.8975C82.4522 65.7475 82.4522 66.01 82.5758 66.6325C82.6124 66.9361 82.7147 67.2237 82.8727 67.4679C83.0308 67.7121 83.2395 67.9047 83.4789 68.0275C83.9177 68.2425 84.2414 68.2875 85.4257 68.2875C86.4204 68.2875 86.7676 68.2425 87.1958 68.0275C87.4374 67.9081 87.6481 67.7165 87.8069 67.4717C87.9658 67.227 88.0672 66.9376 88.101 66.6325C88.2118 66.0225 88.2224 65.7475 88.2224 63.8875C88.2352 63.365 88.2224 62.8425 88.1798 62.3225C88.0584 61.2975 87.7538 60.7125 87.1744 60.425C86.7804 60.225 86.3714 60.165 85.3341 60.165M73.3167 61.0225H76.7247V60.2475H72.552V68.2075H73.3145V64.54H76.6182V63.7925H73.3294L73.3167 61.0225Z" fill="#1D1D1B"/>
</g>
</g>
</g>
<defs>
<clipPath id="clip0_482_83">
<rect width="213" height="100" fill="white"/>
</clipPath>
</defs>
</svg>
