<svg width="213" height="100" viewBox="0 0 213 100" fill="none" xmlns="http://www.w3.org/2000/svg">
<mask id="mask0_317_580" style="mask-type:luminance" maskUnits="userSpaceOnUse" x="10" y="5" width="191" height="90">
<path d="M200.332 5H10.6499V95H200.332V5Z" fill="white"/>
</mask>
<g mask="url(#mask0_317_580)">
<path d="M86.4062 83.1108C86.8729 82.4113 87.2052 81.4036 87.3396 80.2381V78.7646C87.3396 78.2213 87.2011 77.5218 86.8729 76.6691C86.5685 75.9088 86.111 75.2451 85.5393 74.7346C84.6909 73.9963 83.6641 73.5888 82.605 73.5706H72.8713V94.5971H75.0054V85.3613H80.9391C81.3394 86.0593 82.4056 88.3098 85.3387 94.2086L85.6058 94.8308L87.5445 93.7443L83.411 85.2841C84.6059 85.0503 85.6058 84.2748 86.4062 83.1108ZM75.0718 75.9693H82.605C83.1394 75.9693 83.6728 76.2031 84.2668 76.6691C84.9329 77.4443 85.2667 78.2988 85.2667 79.3853C85.2667 80.3156 85.0006 81.0151 84.4662 81.7906C84.0673 82.4903 83.2006 82.7998 81.9334 82.7998H75.0054V75.9693H75.0718Z" fill="black"/>
<path d="M108.607 74.9601C107.536 74.1986 106.325 73.7466 105.073 73.6414C103.807 73.7189 103.474 73.7189 103.273 73.8026C101.611 74.1911 100.34 74.9666 99.4732 75.9759C98.0731 77.6056 97.3391 79.7786 97.3391 82.3404V94.5971H99.5464V85.4386H109.68V94.5971H111.814V81.8616C111.807 78.9194 110.741 76.5916 108.607 74.9601ZM109.607 81.7906V82.9546H99.4732V82.3291C99.4732 80.6219 99.8734 79.2241 100.74 78.1376C101.74 76.8189 103.007 76.2031 104.741 76.2031C105.874 76.2031 107.007 76.6684 108.141 77.5991C109.14 78.9194 109.607 80.2334 109.607 81.7906Z" fill="black"/>
<path d="M127.208 74.4166C125.269 75.4259 123.807 77.0556 122.741 79.3076C122.073 81.0149 121.741 82.6449 121.741 84.0409C121.741 85.2064 121.94 86.5251 122.407 88.0711C122.674 88.9254 123.207 89.9331 123.94 91.0211C125.878 93.4264 128.141 94.5904 130.607 94.5904H136.207V92.1141H131.274C129.873 92.1141 129.207 91.9531 128.94 91.8031L128.802 91.7256C128.068 91.5644 127.269 91.0276 126.335 90.1731C124.735 88.3891 123.934 86.3714 123.934 84.1199C123.924 82.4746 124.368 80.8689 125.201 79.5399C126.734 77.2121 128.602 76.1254 130.936 76.1254H136.268V73.5639H131.069C129.742 73.4866 128.418 73.7791 127.208 74.4166Z" fill="black"/>
<path d="M149.343 73.4851H147.209V94.5181H149.343V73.4851Z" fill="black"/>
<path d="M170.386 89.5527L169.784 88.5435C162.519 75.8917 161.451 74.1072 161.251 73.7962L161.051 73.564H159.184V94.597H161.318V78.5307L170.651 94.597H172.452V73.564H170.319V89.5527H170.386Z" fill="black"/>
<path d="M186.912 79.6947C187.295 79.0882 187.719 78.5174 188.179 77.9874C189.431 76.7089 191.047 76.0194 192.712 76.0529H197.912V73.4092H192.712C191.744 73.4217 190.781 73.5777 189.846 73.8734C187.513 74.8827 185.779 76.5129 184.645 78.7644C184.607 78.9337 184.539 79.0919 184.445 79.2287H184.379L184.24 79.6172C183.706 81.3244 183.44 82.5674 183.44 83.5767C183.44 86.3704 184.172 88.7757 185.64 90.7167C185.973 91.3372 186.64 91.9579 187.64 92.8122C189.239 93.8989 190.707 94.4422 191.973 94.4422L193.507 94.3647H193.574C194.374 94.2034 195.107 94.0537 195.774 93.7442V94.4422H197.907V84.6632H192.645V87.1457H195.778V90.9487C194.711 91.6484 193.644 92.0352 192.512 92.0352L191.244 91.8032C190.325 91.5207 189.448 91.0759 188.644 90.4844L187.978 89.8622C187.177 89.0094 186.578 87.9277 186.111 86.7589C185.844 85.5934 185.644 84.6632 185.644 84.0409L185.711 83.1882C185.845 82.1789 186.245 80.9377 186.912 79.6947Z" fill="black"/>
<path d="M53.9869 79.4868C53.3956 79.0273 52.8708 78.5308 52.3127 78.1875C51.4865 77.67 50.5531 77.4296 49.6166 77.4928C48.2289 77.5556 46.9089 78.2081 45.9067 79.3273C45.0609 80.2116 44.4852 81.3918 44.2658 82.6901C44.027 83.8946 44.0832 85.1528 44.4279 86.3221C44.7725 87.4911 45.3921 88.5243 46.2158 89.3043C47.0397 90.084 48.0348 90.5793 49.0883 90.7338C50.1418 90.8883 51.2113 90.6958 52.1755 90.1783C52.3721 90.0638 52.3721 89.9493 52.3721 89.7203V84.1861H55.7872V92.1338C55.7893 92.2286 55.7729 92.3226 55.7388 92.4088C55.7045 92.4948 55.6538 92.5708 55.5906 92.6303C54.3816 93.7856 52.9323 94.5495 51.3889 94.8453C49.637 95.2003 47.8342 94.9481 46.2043 94.1198C44.8583 93.4751 43.7422 92.4383 42.7577 91.1778C42.4525 90.7508 42.1677 90.3048 41.9047 89.8413C41.6748 90.4523 41.4448 91.0633 41.1817 91.6743C40.4271 93.2026 39.279 94.0811 37.8347 94.5406C37.4261 94.6508 37.0078 94.7048 36.5884 94.7018H25.0338V79.9833C25.0338 78.8373 24.5741 78.0731 23.7528 77.7668C22.605 77.3461 21.3904 78.1875 21.3904 79.7915C21.3572 84.6068 21.3904 89.3818 21.3904 94.1973V94.6938H17.844V79.9833C17.844 78.6453 16.9578 77.5766 15.8098 77.6911C15.0869 77.7668 14.3322 78.6083 14.2671 79.448C14.2339 79.9833 14.2007 80.5555 14.2007 81.0908V94.7308H10.6584V94.2731C10.6584 89.3818 10.6252 84.4538 10.6902 79.5626C10.7235 77.2316 11.708 75.513 13.4473 74.328C14.2244 73.8003 15.1081 73.5221 16.0078 73.5221C17.2541 73.5221 18.4035 73.9428 19.3548 74.8988C19.5847 75.1278 19.7162 75.1278 19.9461 74.8988C20.7472 74.1333 21.7342 73.6788 22.7683 73.5996C23.789 73.4966 24.8138 73.7348 25.722 74.2863C26.7727 74.9091 27.6073 75.9336 28.0859 77.1881C28.1048 77.2073 28.1168 77.2346 28.1191 77.2638C28.5125 76.7286 28.8738 76.1176 29.3321 75.5823C30.1032 74.6348 31.1392 74.0386 32.2541 73.9011C32.5589 73.8573 32.8652 73.8321 33.1721 73.8253H41.2137V77.9893H33.2053C32.2541 77.9893 31.433 78.6018 31.2364 79.7481C31.0728 80.7411 31.6308 81.8873 32.5158 82.1548C32.7299 82.2193 32.9514 82.2448 33.1721 82.2306H36.7837C37.9968 82.2693 39.0811 82.69 39.9992 83.6058C40.1958 83.7975 40.3606 83.9508 40.5532 84.141C40.8812 79.021 43.0457 75.4678 47.3136 73.9011C50.4321 72.7548 53.3208 73.6333 55.913 75.9965C55.2133 77.114 54.5662 78.2751 53.9743 79.4741M28.5775 90.4911C28.6439 90.528 28.6439 90.5281 28.6759 90.5281H36.4555C36.746 90.5388 37.0344 90.4688 37.2968 90.3233C37.5593 90.178 37.788 89.9621 37.9642 89.6928C38.1403 89.4238 38.2588 89.1096 38.3094 88.7766C38.3601 88.4433 38.3418 88.101 38.2558 87.7778C38.0592 86.9363 37.2711 86.2865 36.4555 86.2865H32.578C31.7465 86.2845 30.9347 85.992 30.2476 85.4468C29.6244 84.9503 29.0663 84.3763 28.5415 83.8798V90.4893L28.5775 90.4911Z" fill="black"/>
<path d="M192.261 27.1614H188.938C189.017 26.9776 189.094 26.7906 189.173 26.6069C189.716 25.3171 190.281 24.906 191.527 24.906H193.225L192.274 27.1629" fill="black"/>
<path d="M161.916 34.3399C161.391 35.4684 160.774 35.8924 159.637 35.8909H157.756L159.785 31.5139C160.299 30.4064 160.938 29.9744 162.061 29.9744H163.939L161.911 34.3399M86.4951 34.3399C85.969 35.4684 85.3513 35.8924 84.2143 35.8909H82.3395C83.0179 34.4334 83.6961 32.9752 84.3737 31.5157C84.8889 30.4082 85.5273 29.9762 86.6517 29.9762H88.5295L86.5007 34.3417M121.079 31.0079C121.415 29.8794 122.186 29.7779 122.894 29.7779H126.697C126.61 30.0819 126.522 30.3857 126.434 30.6887C126.126 31.7559 125.428 31.8444 124.798 31.8444H120.831C120.912 31.5662 120.995 31.2872 121.079 31.0079ZM188.667 35.8797C189.688 33.4647 190.708 31.0492 191.728 28.6332H188.404L185.762 34.8882C185.466 35.5909 185.059 35.8797 184.359 35.8812H176.269C177.359 33.3019 178.449 30.7187 179.542 28.1319C180.003 27.0404 180.176 26.9632 181.255 26.9632H182.224C183.168 26.9632 183.609 26.6649 183.987 25.7799C184.138 25.4219 184.287 25.0642 184.438 24.7078H180.989C181.484 23.5363 181.979 22.3638 182.473 21.1902H180.298C179.349 21.1902 178.905 21.4868 178.535 22.3638L177.546 24.7078H175.735C175.418 25.4602 175.101 26.2124 174.783 26.9647H176.595C176.222 27.8449 173.619 34.0112 173.248 34.8929C172.95 35.5959 172.544 35.8829 171.846 35.8844H164.658L168.48 27.6627H165.84C165.226 27.6627 164.96 27.8997 164.576 28.4414C164.576 27.8497 164.392 27.6627 163.909 27.6627H162.07C159.066 27.6627 157.388 28.7557 156.083 31.5624C155.566 32.6802 155.047 33.7957 154.528 34.9092C154.203 35.6087 153.798 35.8942 153.13 35.8942H148.499C146.821 35.8942 146.164 35.6104 145.979 34.5754C145.779 33.4599 146.204 32.5539 148.449 30.8014L149.72 29.8084C150.313 29.3474 150.551 29.1072 150.472 28.6059C150.402 28.1577 150.172 27.6644 148.337 27.6644H139.625C138.703 27.6644 138.274 27.9529 137.858 28.8492L135.039 34.9172C134.716 35.6137 134.312 35.8974 133.641 35.8974H119.655L120.252 33.8322H127.242C128.619 33.8322 129.191 33.4132 129.687 32.0364L130.354 30.1889C130.522 29.7247 130.662 29.0604 130.378 28.5622C130.049 27.9772 129.205 27.6692 127.936 27.6692H121.234C119.09 27.6692 118.113 28.3722 117.356 30.4582C116.895 31.7477 116.431 33.0337 115.963 34.3159C115.488 35.6329 114.735 35.8974 113.672 35.8974H108.876L109.178 35.3637C110.126 33.6854 109.944 31.8172 108.678 30.2404C107.432 28.6912 105.784 28.1447 104.322 27.6612H100.595L98.0236 33.1874C96.96 35.4894 95.7969 35.9004 93.7459 35.9004H89.2328L93.0562 27.6789H90.4071C89.7909 27.6789 89.5266 27.9159 89.1415 28.4574C89.1415 27.8659 88.9587 27.6789 88.4754 27.6789H86.6545C83.6507 27.6789 81.9725 28.7719 80.6681 31.5784L79.113 34.9252C78.7848 35.6297 78.3928 35.9054 77.7142 35.9054H70.8375L76.6673 23.3536C76.7459 23.1867 76.786 22.9989 76.7834 22.8086C76.7811 22.6183 76.7363 22.4319 76.6537 22.2678C76.5708 22.1036 76.453 21.9672 76.3116 21.8718C76.17 21.7765 76.0096 21.7255 75.8462 21.7238H48.5356C46.6827 21.7238 45.7659 22.2751 44.8879 24.0323H56.696L50.1101 38.1817H53.5095L60.0902 24.0227H64.8192L58.2401 38.1799H61.6383C63.8309 33.4619 66.0235 28.7434 68.2161 24.0243H72.9452C71.1357 27.9222 69.3263 31.8192 67.5166 35.7152C67.2689 36.2487 67.0278 36.9952 67.2896 37.5159C67.5098 37.9512 68.0623 38.1817 68.8862 38.1817H77.8431C78.2821 38.1817 78.4716 38.0204 78.7445 37.6287C78.7445 38.0512 79.0478 38.1817 79.3912 38.1817H94.7943C97.8491 38.1817 99.4734 37.1307 100.787 34.3127L102.816 29.9357L103.025 29.9827C105.453 30.5259 106.683 31.5849 106.788 33.2212C106.812 33.5402 106.779 33.8617 106.69 34.1649C106.602 34.4682 106.459 34.7464 106.273 34.9817C106.026 35.2797 105.729 35.5154 105.401 35.6734C105.073 35.8317 104.72 35.9089 104.364 35.9004C102.812 35.9004 102.19 36.6164 101.595 38.1864H114.634C115.074 38.1864 115.263 38.0252 115.536 37.6334C115.536 38.0559 115.839 38.1864 116.182 38.1864H135.471C136.773 38.1864 137.336 37.7819 137.986 36.3842L140.245 31.5237C140.761 30.4147 141.399 29.9827 142.525 29.9827H145.924C145.316 30.4754 144.745 31.0299 144.22 31.6397C143.574 32.4199 142.953 33.4954 142.835 34.8882C142.756 35.8554 142.958 36.6922 143.421 37.2902C143.883 37.8882 144.54 38.1864 145.346 38.1864H153.276C153.717 38.1864 153.905 38.0252 154.178 37.6334C154.178 38.0559 154.481 38.1864 154.824 38.1864H171.508C171.947 38.1864 172.137 38.0252 172.41 37.6334C172.41 38.0559 172.713 38.1864 173.057 38.1864H197.728C199.214 38.1864 199.969 37.6174 200.249 36.2842C200.277 36.1489 200.306 36.0117 200.334 35.8764H188.67" fill="black"/>
<path d="M20.0747 44.7753V43.1423H23.628H27.18V44.7753H23.628H20.0747Z" fill="black"/>
<path d="M23.6243 48.1574H25.8648V45.6201H23.6243H21.385V48.1574H23.6243Z" fill="black"/>
<path d="M21.389 42.2991C21.3822 40.8984 21.0733 39.5296 20.1206 38.5994H27.136C26.1845 39.5296 25.8744 40.8984 25.8689 42.2991H21.389Z" fill="black"/>
<path d="M15.4529 35.9037V34.698H23.6245H31.7975V35.9037H23.6259H15.4529Z" fill="black"/>
<path d="M16.1834 40.2533C17.1825 39.9885 18.1031 39.4188 18.8505 38.6025H16.0103C16.0698 39.1523 16.128 39.7035 16.1861 40.2533" fill="black"/>
<path d="M31.0664 40.2533C30.067 39.9893 29.1462 39.4193 28.3992 38.6025H31.2408L31.0664 40.2533Z" fill="black"/>
<path d="M15.1782 32.0557C14.2822 25.809 12.5471 19.3073 10.6499 15.0288C12.6929 16.3346 14.8887 18.4061 17.2373 21.2434C16.2753 20.937 15.2994 20.6932 14.314 20.5131C15.6468 24.29 16.8156 28.1425 17.8162 32.0557H15.1782Z" fill="black"/>
<path d="M32.074 32.0557C32.9699 25.809 34.6981 19.3073 36.6021 15.0288C34.5582 16.3346 32.362 18.4061 30.0134 21.2434C30.9758 20.937 31.9521 20.6932 32.9379 20.5131C31.6052 24.2897 30.4367 28.1422 29.4373 32.0557H32.074Z" fill="black"/>
<path d="M14.5874 34.0709V32.8491H23.626H32.6657V34.0709H23.6273H14.5874Z" fill="black"/>
<path d="M20.5806 14.3695C21.975 11.5419 23.1729 8.32898 23.627 5C24.0798 8.32898 25.2777 11.5419 26.6735 14.3695C26.1764 14.1051 25.6503 13.8262 25.0658 13.5215C24.5618 13.2571 24.3471 13.4135 24.3638 14.0261C24.5314 20.0295 25.282 26.8568 27.9434 32.0557H24.807C24.3307 30.725 23.936 29.3567 23.6257 27.961C23.3158 29.3567 22.9215 30.725 22.4459 32.0557H19.3093C21.9722 26.8568 22.7215 20.0295 22.8889 14.0261C22.907 13.4135 22.6923 13.2571 22.1869 13.5215C21.6039 13.8262 21.0791 14.1051 20.5806 14.3695Z" fill="black"/>
<path d="M14.5874 37.7545V36.5325H23.626H32.6657V37.7545H23.6273H14.5874Z" fill="black"/>
<path d="M197.914 54.4719H10.6499V56.8899H197.914V54.4719Z" fill="black"/>
</g>
</svg>
