<svg width="213" height="100" viewBox="0 0 213 100" fill="none" xmlns="http://www.w3.org/2000/svg">
<mask id="mask0_317_361" style="mask-type:luminance" maskUnits="userSpaceOnUse" x="0" y="0" width="213" height="100">
<path d="M0 0H213V100H0V0Z" fill="white"/>
</mask>
<g mask="url(#mask0_317_361)">
<path d="M26.4838 35.4532H26.2731C23.1133 35.5767 19.6026 36.5382 18.678 35.0649C19.1227 36.0707 20.2111 38.5936 21.1357 40.8784C22.0601 43.1632 22.7155 45.2892 23.5931 45.8096C26.2846 47.2828 31.7031 45.9155 34.9096 47.6709C38.1162 49.4263 37.25 55.0015 40.047 55.2486C42.844 55.4955 42.6333 52.3109 43.5579 49.8057C44.5257 47.0099 46.108 44.3563 48.239 41.9546C46.8892 40.6211 45.2794 39.4492 43.4643 38.479C41.7071 37.5628 39.7619 36.8715 37.7066 36.4324C34.0653 35.6328 30.2711 35.3017 26.4838 35.4532Z" fill="#036291"/>
<path d="M43.5915 49.7526V49.9026C42.7724 52.1872 42.9128 54.9924 40.7242 55.1953H48.8344C51.9822 55.1953 54.9313 55.4424 55.856 54.9661C58.5593 53.4839 58.5123 49.1791 61.7073 47.4238C64.9021 45.6682 71.6778 48.0059 72.8598 46.0828C74.0418 44.1597 69.9576 43.3128 67.0903 41.8663C63.8548 40.3022 60.9975 38.3332 58.6411 36.0439C56.5463 36.6055 54.5741 37.3993 52.7898 38.3993C51.0855 39.3851 49.6104 40.5776 48.4246 41.928C46.2402 44.3122 44.6062 46.9578 43.5915 49.7526Z" fill="#FDE8D2"/>
<path d="M66.9263 41.9109L67.1019 41.9903C69.7349 43.2782 73.3043 44.0457 72.9532 45.6865C73.3861 44.6721 74.4745 42.1578 75.4928 39.8907C76.5108 37.6236 77.6928 35.5947 77.3533 34.8184C76.3235 32.4278 70.8702 31.1311 69.653 28.2906C68.4828 25.6441 73.468 21.3216 71.3968 19.8837C69.3253 18.4458 66.9966 21.1276 64.2815 22.7154C61.3042 24.5465 57.937 25.9842 54.3226 26.9673C54.3847 28.6458 54.7792 30.3079 55.4929 31.8986C56.1947 33.4209 57.231 34.8432 58.559 36.1063C60.8966 38.3811 63.7252 40.3434 66.9263 41.9109Z" fill="#C0DEC1"/>
<path d="M39.2507 18.7632C39.2187 18.7178 39.1912 18.6706 39.1689 18.622C38.0572 16.4167 35.7634 14.2113 37.3432 13.0469C36.173 13.682 33.3409 15.2522 30.7546 16.5755C28.1683 17.8987 25.6405 19.0808 25.301 19.857C24.2714 22.2477 27.6417 25.7145 26.4715 28.5462C25.301 31.1926 17.9518 32.4982 18.502 34.5713C19.0519 36.6443 23.0076 35.5239 26.4597 35.4534C30.2924 35.287 34.1346 35.6122 37.8231 36.4149C39.0678 35.0324 40.0265 33.5155 40.6668 31.9161C41.3053 30.3666 41.594 28.7474 41.5211 27.1259C41.3838 24.2628 40.6168 21.4367 39.2507 18.7632Z" fill="#FACEB2"/>
<path d="M64.2354 22.7594L64.3994 22.6535C66.845 21.1715 68.9281 18.8515 70.8707 19.6278C69.7005 19.0014 66.8568 17.4312 64.3409 16.0021C61.8246 14.5731 59.6597 13.1087 58.4895 13.1087C55.1542 13.1087 51.8306 16.6373 47.8752 16.6373C44.1184 16.6373 40.2567 11.7502 37.8108 12.7823C35.3649 13.8144 37.9982 16.3109 39.1917 18.7456C40.598 21.4431 41.3892 24.3003 41.5322 27.1966C43.666 27.675 45.8833 27.907 48.1092 27.8846C50.2431 27.8564 52.3554 27.5582 54.3583 27.0025C57.9432 26.0159 61.2821 24.5815 64.2354 22.7594Z" fill="#17162B"/>
<path d="M41.5093 26.9581C41.5034 27.0256 41.5034 27.0934 41.5093 27.161V27.6991C41.1167 27.8293 40.7769 28.0353 40.5241 28.2963C40.2711 28.5573 40.1143 28.864 40.0691 29.1854C40.024 29.5068 40.0922 29.8314 40.267 30.1266C40.4418 30.4217 40.7169 30.6768 41.0646 30.866C40.9943 31.1129 40.9242 31.3424 40.8305 31.5804C40.3229 31.3566 39.9008 31.0374 39.6057 30.654C39.3103 30.2706 39.1517 29.8361 39.1453 29.3928C39.1424 28.8498 39.3703 28.3204 39.7958 27.8823C40.2213 27.4441 40.8218 27.1202 41.5093 26.9581ZM37.2144 29.4016V29.7809L37.3781 29.8339C37.497 29.8691 37.6106 29.9134 37.7177 29.9662L37.8932 30.0368L38.0102 30.0897L38.1973 30.1779C38.1031 29.9163 38.0559 29.6463 38.0569 29.3752C38.0546 28.6338 38.3803 27.913 38.9821 27.3267C39.5841 26.7404 40.4279 26.322 41.3805 26.1377C41.3805 25.8995 41.322 25.6702 41.2986 25.4408C40.1233 25.6546 39.0791 26.1629 38.3369 26.8825C37.595 27.6021 37.1993 28.4903 37.2144 29.4016ZM35.2718 29.2517C35.5759 29.3134 35.8802 29.3752 36.1846 29.4546C36.1756 28.3477 36.6758 27.2727 37.5994 26.4123C38.5232 25.552 39.8138 24.9593 41.2517 24.7351C41.2517 24.5057 41.1698 24.2764 41.1231 24.0558C39.5143 24.2993 38.0618 24.9446 36.9999 25.8874C35.938 26.8303 35.3292 28.0156 35.2718 29.2517ZM33.3291 29.0399H33.6802C33.8675 29.0399 34.0664 29.0399 34.2419 29.0929C34.3258 27.691 35.0328 26.3512 36.249 25.2888C37.4651 24.2264 39.1201 23.5032 40.9476 23.2354C40.8891 22.9973 40.8305 22.7767 40.7602 22.5562C38.7398 22.8573 36.9108 23.6591 35.5643 24.8339C34.2178 26.0088 33.431 27.4893 33.3291 29.0399ZM33.1184 15.8078C35.2114 15.8719 37.1921 16.538 38.6538 17.6691C38.3495 17.1751 38.0218 16.6899 37.7292 16.2224C36.4409 15.5951 34.9641 15.222 33.4343 15.1373L33.1887 15.2697V15.3579C33.1887 15.3843 33.1418 15.6578 33.1184 15.843V15.8078ZM32.2759 29.7721H32.0067C31.7909 29.7637 31.5761 29.746 31.3631 29.7192C31.2856 31.0658 30.633 32.3574 29.5028 33.4018C28.3723 34.446 26.8249 35.1874 25.0904 35.5149C25.5351 35.5149 25.9916 35.4443 26.4361 35.4354C26.8808 35.4266 27.3256 35.4354 27.7937 35.4354C29.1045 34.8451 30.2 34.0185 30.9825 33.0301C31.7647 32.0414 32.2092 30.922 32.2759 29.7721ZM36.0791 14.7757C36.0781 14.761 36.0781 14.7462 36.0791 14.7315C36.0783 14.3629 36.1374 13.9956 36.2546 13.6377L35.2132 14.2111C35.2012 14.3344 35.2012 14.4583 35.2132 14.5816C35.4706 14.6433 35.775 14.7139 36.0791 14.7757ZM32.8377 34.1829C32.2597 34.1878 31.6931 34.3037 31.1914 34.5197C30.6894 34.7358 30.2693 35.0451 29.9704 35.4179L31.0705 35.4708C31.3382 35.2539 31.671 35.0889 32.0413 34.9897C32.4114 34.8903 32.8079 34.8597 33.1972 34.9004C33.5862 34.941 33.9568 35.0518 34.2771 35.2233C34.5976 35.3947 34.8583 35.6218 35.0377 35.8854C35.3888 35.9383 35.7514 35.9912 36.1143 36.0618C35.9185 35.5204 35.4914 35.0429 34.8989 34.7031C34.3066 34.3635 33.5819 34.1806 32.8377 34.1829ZM33.3057 29.7721V30.0191C33.3057 30.0985 33.3057 30.3191 33.2354 30.4602C34.5919 30.5083 35.9125 30.806 37.0812 31.3272C38.2502 31.8485 39.232 32.5776 39.9411 33.4506C40.0814 33.1949 40.2218 32.9391 40.3506 32.6656C39.5353 31.8226 38.4786 31.1287 37.2591 30.6355C36.0396 30.1422 34.6884 29.8622 33.3057 29.8162V29.7721ZM33.0365 31.2364C32.9547 31.4747 32.8725 31.7041 32.7673 31.9245H32.8258C34.1436 31.9222 35.4298 32.2279 36.5074 32.7999C37.5847 33.372 38.4 34.1818 38.8409 35.1179C39.0283 34.871 39.2156 34.6062 39.3911 34.3328C38.8052 33.4335 37.9024 32.6733 36.7817 32.1349C35.6608 31.5966 34.3651 31.301 33.0365 31.2806V31.2364ZM32.8377 32.7008H32.3344L32.2641 32.8243L32.0886 33.0714L31.9949 33.2037L31.9248 33.292L31.8078 33.4329C32.156 33.3664 32.5133 33.3308 32.8726 33.3272C33.9399 33.3256 34.972 33.6149 35.7783 34.1418C36.5849 34.6687 37.1115 35.3976 37.2611 36.1941L37.8347 36.3089C37.9399 36.2118 38.0336 36.0972 38.1388 35.9824C37.8958 35.061 37.2326 34.2329 36.2641 33.6416C35.2959 33.0503 34.0836 32.7331 32.8377 32.7449V32.7008ZM22.5392 33.3006L22.6095 33.4154H23.1125C24.5219 33.406 25.869 32.977 26.86 32.2216C27.8509 31.4664 28.4054 30.4463 28.4021 29.384C28.4021 29.2517 28.4021 29.1282 28.4021 29.0047L28.2502 28.9517H28.1799L27.7937 28.89L27.6066 28.8018H27.5129L27.314 28.7047C27.3967 28.968 27.4436 29.237 27.4544 29.5075C27.4393 30.3728 26.9773 31.1995 26.1666 31.8122C25.356 32.4249 24.2604 32.7754 23.1125 32.7891C22.754 32.7876 22.3965 32.7551 22.0478 32.692C22.0909 32.737 22.1299 32.7841 22.1648 32.8331L22.2349 32.9214L22.3403 33.0537L22.5159 33.3006H22.5392ZM23.1125 34.1829C23.2219 34.4064 23.3155 34.6356 23.3935 34.8708C25.2472 34.822 27.0061 34.2414 28.311 33.2479C29.616 32.2543 30.3686 30.9228 30.4151 29.5251C30.0992 29.4634 29.7948 29.4016 29.5023 29.3222C29.5259 29.965 29.3778 30.6047 29.0668 31.2035C28.756 31.8022 28.2887 32.3478 27.6928 32.8078C27.0967 33.2678 26.3843 33.6328 25.5974 33.881C24.8106 34.1295 23.9656 34.256 23.1125 34.2535V34.1829ZM29.3734 22.0357C29.3688 21.5311 29.5631 21.0368 29.9314 20.6155C30.2996 20.1941 30.8254 19.8646 31.4424 19.6687C32.0593 19.4728 32.7394 19.4193 33.3966 19.5149C34.0541 19.6106 34.6587 19.8511 35.1345 20.206C35.6102 20.561 35.9356 21.0144 36.0693 21.5088C36.2031 22.0032 36.1391 22.5164 35.8859 22.9835C35.6323 23.4505 35.2007 23.8503 34.6456 24.1323C34.0905 24.4143 33.4366 24.5657 32.7673 24.5675C31.8881 24.5702 31.0423 24.3147 30.4087 23.8553C29.7753 23.3959 29.404 22.7685 29.3734 22.1063V22.0357ZM30.2863 22.0357C30.2863 22.4046 30.4318 22.7652 30.7043 23.0716C30.9766 23.3781 31.3636 23.6166 31.8163 23.757C32.2687 23.8973 32.7663 23.9331 33.2459 23.8599C33.7256 23.7866 34.1657 23.6076 34.5101 23.3455C34.8542 23.0834 35.0877 22.7501 35.1804 22.3879C35.2728 22.0257 35.2207 21.6509 35.0303 21.3111C34.8396 20.9713 34.5196 20.6818 34.1105 20.4795C33.7012 20.2771 33.2216 20.1709 32.7322 20.1744C32.4029 20.1766 32.0775 20.2284 31.7752 20.3269C31.4729 20.4253 31.1999 20.5683 30.9717 20.7475C30.7438 20.9267 30.566 21.1384 30.4482 21.3703C30.3304 21.6021 30.2755 21.8494 30.2863 22.0975V22.0357ZM33.3524 25.9083V25.8554C33.3524 25.776 33.4579 25.6878 33.5164 25.6084C33.5511 25.5594 33.5901 25.5123 33.6335 25.4673V25.3967L33.762 25.2467C33.4179 25.3134 33.0643 25.3489 32.7088 25.3526C32.1294 25.3549 31.555 25.2712 31.0187 25.1062C30.4823 24.9412 29.9942 24.6982 29.5823 24.391C29.1705 24.0838 28.8427 23.7185 28.6182 23.3159C28.3936 22.9133 28.2766 22.4813 28.2735 22.0445C28.2746 21.777 28.3177 21.5105 28.4021 21.2506L28.215 21.3388L28.098 21.3918L27.9225 21.4711L27.5948 21.6035L27.431 21.6652C27.419 21.7885 27.419 21.9124 27.431 22.0357C27.4403 23.0987 28.0085 24.1155 29.0111 24.863C30.0137 25.6105 31.369 26.0277 32.7791 26.023H33.2706C33.2939 26.0407 33.3291 26.0054 33.3524 25.9701V25.9083ZM22.5159 35.7883C22.2718 34.5512 21.5884 33.3868 20.5381 32.4185C20.2817 32.5424 20.0353 32.6779 19.8008 32.8243C20.7464 33.6837 21.3652 34.7203 21.5912 35.8237C21.9423 35.8412 22.1997 35.8237 22.5159 35.7883ZM29.432 17.2633C27.3841 18.3042 25.5818 19.2128 25.301 19.848V19.9538C27.0815 19.5043 28.5617 18.5527 29.432 17.2986V17.2633ZM20.5381 35.7883C20.3194 34.8866 19.8044 34.0404 19.0401 33.3272C18.8138 33.5108 18.6388 33.7268 18.5253 33.9624C19.0358 34.4712 19.4022 35.0537 19.6019 35.6737C19.9003 35.7679 20.216 35.8276 20.5381 35.8501V35.7883ZM32.58 27.5668C32.6503 27.3334 32.7404 27.1035 32.8492 26.8787H32.7907C31.9561 26.8822 31.129 26.7617 30.3563 26.5242C29.5836 26.2867 28.8805 25.9368 28.2871 25.4944C27.6938 25.0521 27.2219 24.526 26.8983 23.9462C26.5747 23.3663 26.4056 22.7441 26.4012 22.1151V22.071C26.1125 22.1533 25.8081 22.2239 25.4884 22.2827C25.5107 22.6209 25.5695 22.9573 25.6639 23.2883L25.8743 23.8441C26.3514 24.9078 27.2504 25.8354 28.4498 26.5013C29.6491 27.1671 31.091 27.5391 32.58 27.5668ZM32.7206 18.7453C33.3019 18.743 33.878 18.8273 34.4162 18.9934C34.954 19.1595 35.4432 19.4041 35.8553 19.7131C36.2675 20.0222 36.5947 20.3896 36.8177 20.7942C37.0409 21.1989 37.1559 21.6328 37.1559 22.071C37.1587 22.3411 37.1195 22.6105 37.0389 22.8738L37.2378 22.7767H37.3196L37.5185 22.6885L37.8347 22.5562H37.9047L38.0569 22.5033C38.0685 22.3799 38.0685 22.2561 38.0569 22.1328C38.0538 21.6057 37.9132 21.0842 37.6427 20.5981C37.3722 20.112 36.9775 19.6708 36.4807 19.2998C35.9841 18.9287 35.3954 18.635 34.7482 18.4354C34.101 18.2358 33.4081 18.1343 32.7088 18.1366C32.5451 18.128 32.3809 18.128 32.2174 18.1366L32.1353 18.2513V18.2954L31.9597 18.5424L31.8545 18.6747L31.7842 18.7629L31.679 18.9041C32.018 18.8291 32.3675 18.7847 32.7206 18.7718V18.7453ZM32.0534 15.8872L30.9417 16.4782C30.5467 17.52 29.8 18.4668 28.7745 19.2259C27.7487 19.9851 26.4795 20.5308 25.0904 20.8095C25.0909 21.0458 25.1145 21.2816 25.1607 21.5153C26.9091 21.19 28.4932 20.4864 29.7178 19.4911C30.9425 18.4958 31.7544 17.2523 32.0534 15.9136V15.8872ZM32.3226 28.7665C32.3339 28.6156 32.3572 28.4653 32.3929 28.3166C31.3028 28.2846 30.2319 28.0904 29.2418 27.7453C28.2515 27.4001 27.3617 26.9107 26.6234 26.3053C26.6814 26.6416 26.705 26.9808 26.6938 27.3198C28.2502 28.3478 30.2208 28.9506 32.2874 29.0311C32.311 28.9517 32.3111 28.89 32.3226 28.7929V28.7665ZM26.4713 29.4281C26.4646 29.2073 26.4215 28.988 26.3427 28.7753C26.1238 29.1435 25.823 29.4806 25.4532 29.7721C25.3611 30.1941 25.0773 30.5789 24.6502 30.8604C24.2235 31.1422 23.6797 31.3031 23.1125 31.3158H22.9136L21.8371 31.8364C22.2474 31.957 22.6837 32.0199 23.1243 32.0216C24.0171 32.0124 24.8691 31.7372 25.4938 31.2562C26.1187 30.7754 26.4659 30.1277 26.4597 29.4546L26.4713 29.4281ZM32.7322 17.2721C34.4156 17.2674 36.0326 17.7664 37.2283 18.6595C38.4242 19.5526 39.1009 20.7668 39.1101 22.0357L40.0229 21.824C39.958 20.4268 39.1879 19.1009 37.8698 18.1172C36.5518 17.1335 34.7854 16.5662 32.9311 16.5311C32.8592 16.7671 32.7694 16.9998 32.6621 17.228H32.7322V17.2721Z" fill="#E00C19"/>
<path d="M59.392 36.9085L57.426 36.4233C56.9813 36.5645 56.5132 36.7231 56.0217 36.9085C57.5528 37.0541 59.0517 37.3506 60.4804 37.7906C60.1216 37.5318 59.7587 37.2378 59.392 36.9085Z" fill="#C86D14"/>
<path d="M66.6588 43.8865C66.4025 42.9738 66.0098 42.0861 65.4886 41.2402L65.3716 41.0813C64.8799 40.8167 64.3767 40.5256 63.8734 40.1992L64.0022 40.3756C64.8609 41.5181 65.4956 42.7483 65.8864 44.0277C66.1207 44.9575 66.1207 45.9121 65.8864 46.8417H66.7289C66.9355 45.8611 66.9119 44.861 66.6588 43.8865Z" fill="#C86D14"/>
<path d="M50.9532 51.2614L51.199 51.0849C52.2776 50.2807 53.0809 49.2907 53.5395 48.2003C53.7032 47.8299 53.8087 47.4153 53.4458 47.2035C53.0829 46.9918 52.5096 47.2035 51.9245 47.4505L51.7256 47.5387C50.6583 48.1764 49.6957 48.908 48.8583 49.7176L48.2732 50.2205C47.5649 50.7718 47.0432 51.4435 46.7519 52.1787C46.7229 52.2191 46.706 52.2635 46.7019 52.3093C46.6981 52.3549 46.7073 52.4007 46.7289 52.4433C46.7507 52.4862 46.7843 52.5249 46.8277 52.557C46.871 52.5889 46.9231 52.6135 46.9803 52.6289C47.0376 52.6443 47.0984 52.6503 47.159 52.6464C47.2195 52.6424 47.278 52.6285 47.3309 52.606C47.3835 52.5833 47.4292 52.5524 47.4646 52.5151C47.5 52.478 47.5244 52.4355 47.5359 52.3905C47.7892 51.7272 48.2555 51.1212 48.8935 50.6262L49.4786 50.1233C50.2744 49.3782 51.1641 48.6928 52.1352 48.0768L52.3459 47.9799L52.8255 47.7857C52.8255 47.8387 52.8255 47.9093 52.7437 47.9974C52.3282 49.0007 51.5883 49.9101 50.5903 50.6439L50.3563 50.8114C48.5419 52.0076 47.1472 53.5226 46.2954 55.2222H47.1849C48.0151 53.6989 49.3054 52.3428 50.9532 51.2614Z" fill="#2D2A66"/>
<path d="M52.6038 51.8878C53.2015 51.3922 53.7602 50.8709 54.2773 50.3262C56.1263 48.3237 55.8455 46.9389 55.2838 46.1272C55.1562 45.9143 54.9635 45.7274 54.7215 45.5816C54.4792 45.4359 54.1946 45.3357 53.891 45.2893C53.5197 45.2622 53.145 45.2997 52.796 45.3991C52.447 45.4985 52.1329 45.6572 51.8781 45.8626C51.5155 46.1186 51.0356 46.4184 50.4386 46.7978C49.6547 47.2741 48.6951 47.8828 47.5834 48.6503C46.869 49.1014 46.2854 49.6584 45.8689 50.2866C45.4521 50.9149 45.2112 51.6009 45.1609 52.3024V52.5139C44.9743 53.4455 44.6443 54.3572 44.1777 55.231H45.0672C45.4586 54.372 45.7329 53.4853 45.8864 52.5845V52.3728C45.9279 51.7416 46.1414 51.1237 46.5138 50.5576C46.8864 49.9914 47.4099 49.4893 48.0515 49.0824C49.1514 48.3326 50.0994 47.7328 50.8718 47.2476C51.644 46.7624 51.9717 46.5595 52.358 46.2949C52.5184 46.1562 52.719 46.0474 52.9444 45.977C53.1697 45.9066 53.4137 45.8766 53.657 45.8891C53.832 45.9211 53.995 45.9832 54.133 46.0703C54.2709 46.1576 54.3804 46.2676 54.4528 46.392C55.0964 47.3359 54.7687 48.562 53.4933 49.9205C52.997 50.4482 52.4575 50.952 51.8781 51.4289C50.9301 52.1837 50.1407 53.0435 49.5376 53.9784C49.2684 54.4195 49.0344 54.8605 48.8122 55.2222H49.7132C49.8887 54.9134 50.0876 54.5782 50.2983 54.2341C50.8985 53.3657 51.6766 52.5737 52.6038 51.8878Z" fill="#E00C19"/>
<path d="M54.5811 51.1733C54.5288 51.1612 54.4739 51.1571 54.4195 51.1612C54.3651 51.1654 54.3125 51.1775 54.2645 51.1973C54.2165 51.2171 54.1741 51.2439 54.14 51.276C54.1061 51.3083 54.081 51.3454 54.0661 51.385C53.3398 52.7575 52.4712 54.085 51.4683 55.3546H52.4044C53.3606 54.1496 54.1826 52.8868 54.8619 51.5791C54.8799 51.5385 54.887 51.4958 54.8824 51.4531C54.8781 51.4106 54.8624 51.3691 54.836 51.3312C54.8098 51.2933 54.7736 51.2598 54.73 51.2327C54.6861 51.2056 54.6355 51.1854 54.5811 51.1733Z" fill="#C86D14"/>
<path d="M57.4825 47.6621C57.7985 46.3919 57.9388 45.1832 56.3121 44.3365C55.6166 43.9813 54.7908 43.7996 53.9509 43.8171C53.1112 43.8344 52.2997 44.05 51.6312 44.4334C50.4102 45.0521 49.2379 45.7236 48.1203 46.4448C47.0194 47.1067 46.0188 47.8582 45.1362 48.6853C44.0635 49.7357 43.4538 51.0128 43.3925 52.3375L43.3106 52.7698C43.1874 53.6273 42.85 54.4594 42.3159 55.2221H43.2403C43.7325 54.4811 44.0494 53.6811 44.1765 52.8578L44.2468 52.4257C44.2963 51.2225 44.8401 50.0603 45.8032 49.1C46.6544 48.2963 47.6242 47.5682 48.6939 46.93C49.8127 46.2238 50.985 45.5669 52.2045 44.9626C52.7303 44.6665 53.3624 44.4969 54.0183 44.4765C54.674 44.4559 55.3228 44.5855 55.8791 44.848C57.0494 45.439 57.0494 46.189 56.7219 47.5475C56.3942 48.9059 56.2536 49.444 56.0313 50.7232C55.6253 52.3082 55.0141 53.8594 54.2057 55.3544C54.5167 55.34 54.8257 55.3075 55.1303 55.2575C55.8807 53.8326 56.4412 52.355 56.8038 50.8467C57.0494 49.5411 57.1548 49.003 57.4825 47.6621Z" fill="#F5A507"/>
<path d="M59.5325 47.3181C59.9654 45.4568 59.6259 44.1955 58.479 43.3397C57.3322 42.4841 56.5482 42.5545 54.6992 42.6516H53.7278C52.7606 42.6372 51.8037 42.8039 50.9427 43.1368C49.551 43.5205 48.2655 44.0947 47.151 44.8305L46.4019 45.3068L45.3254 45.9774C45.021 46.5243 44.7403 47.0447 44.5062 47.5476C45.2479 46.9103 46.058 46.3201 46.9285 45.7832L47.6892 45.3068C48.746 44.6099 49.9639 44.0656 51.2819 43.7014C52.0487 43.4047 52.9012 43.2562 53.763 43.2691H54.7577C56.63 43.172 57.0981 43.2074 57.8939 43.7808C58.6897 44.3541 59.2048 45.0776 58.7131 47.2035C58.5845 47.7945 58.4205 48.4385 58.245 49.1089C57.8824 50.5203 57.4843 52.0906 57.2388 53.608C57.7548 52.8095 58.2044 51.9874 58.5845 51.1466C58.7367 50.4939 58.9004 49.841 59.0641 49.2324C59.2281 48.6237 59.3918 47.9093 59.5325 47.3181Z" fill="#036291"/>
<path d="M61.2863 44.7686C61.099 42.6603 59.8584 41.9369 58.8637 41.7076C57.6245 41.3407 56.2972 41.1724 54.9669 41.2136C53.0968 41.323 51.2463 41.5742 49.443 41.9634C48.9123 42.1122 48.3926 42.283 47.8865 42.4751C47.5824 42.828 47.3014 43.1807 47.0322 43.5247C47.8776 43.1388 48.7714 42.8167 49.7006 42.5632C51.44 42.1924 53.2233 41.9501 55.0254 41.8399C56.2474 41.813 57.4646 41.969 58.6063 42.2986C59.7062 42.5632 60.3265 43.4013 60.4553 44.8128C60.5408 46.1844 60.3794 47.5582 59.9754 48.8971C60.2788 48.5197 60.6445 48.1728 61.0638 47.8649C61.2935 46.8426 61.3679 45.8038 61.2863 44.7686Z" fill="#18152C"/>
<path d="M62.5863 42.8369C62.3295 42.2715 61.9099 41.7561 61.3576 41.3275C60.8051 40.899 60.1338 40.5679 59.3916 40.3581C57.8819 39.7846 56.115 39.9698 53.8798 40.2081H53.5051C52.6859 40.2963 52.0657 40.3315 51.5039 40.3667C50.9422 40.4021 50.3922 40.4373 49.7838 40.5079C49.5027 40.755 49.2338 41.0107 48.9646 41.2754C49.823 41.1307 50.6958 41.0392 51.5742 41.0019C52.136 41.0019 52.7445 40.9225 53.6106 40.8344L53.9968 40.7902C56.0914 40.5698 57.7415 40.3932 59.0172 40.8784C59.6572 41.0588 60.2372 41.3425 60.7166 41.7098C61.1957 42.0771 61.5621 42.519 61.7905 43.0044C62.2135 44.3771 62.3828 45.7871 62.2938 47.1946C62.5614 47.1046 62.8396 47.0336 63.1247 46.9829C63.202 45.5886 63.0208 44.1932 62.5863 42.8369Z" fill="#E00C19"/>
<path d="M57.519 39.4761C57.5762 39.4911 57.637 39.4967 57.6973 39.4922C57.7576 39.4876 57.8161 39.4736 57.8685 39.4505C57.9208 39.4276 57.966 39.3963 58.0009 39.359C58.0361 39.3217 58.0597 39.279 58.0707 39.234C58.082 39.1892 58.08 39.1428 58.0651 39.0986C58.0504 39.0544 58.023 39.0128 57.985 38.9772C57.9473 38.9417 57.8995 38.9126 57.8451 38.892C57.791 38.8717 57.7315 38.8603 57.6709 38.8586C56.8594 38.7469 56.038 38.6821 55.2134 38.6646C54.0958 38.6874 52.9816 38.767 51.8781 38.9028C51.4921 39.1497 51.1292 39.4055 50.7664 39.6792C52.2273 39.4534 53.7111 39.3236 55.2016 39.2909C55.979 39.3107 56.7535 39.3726 57.519 39.4761Z" fill="#DE8508"/>
<path d="M64.7505 43.5513C64.5067 42.4811 63.8887 41.4792 62.96 40.649C62.7844 40.4638 62.6089 40.2875 62.4567 40.1109C61.1969 39.0404 59.6105 38.2169 57.8344 37.7115L54.4756 37.5615C53.9957 37.7733 53.4925 38.0204 52.9893 38.2938H53.4692C54.819 38.1227 56.1989 38.1377 57.5418 38.3379C59.1411 38.7833 60.5772 39.509 61.7312 40.455C61.895 40.6404 62.0823 40.8256 62.2696 41.0196C63.1109 41.7798 63.6754 42.6917 63.9079 43.6659C64.0961 44.7271 64.1507 45.7994 64.0717 46.8683C64.3409 46.8683 64.6219 46.8683 64.9026 46.824C64.9924 45.7321 64.9416 44.6359 64.7505 43.5513Z" fill="#406F43"/>
<path d="M72.0307 44.301V44.1775C71.665 43.9569 71.2731 43.7621 70.8605 43.5952V43.71C71.3588 44.7179 71.5038 45.8056 71.2819 46.8681C71.606 46.82 71.9132 46.7208 72.1829 46.5769C72.3127 45.8175 72.2614 45.0468 72.0307 44.301Z" fill="#18152C"/>
<path d="M68.567 44.3362C68.4572 43.7004 68.2529 43.0762 67.9583 42.4749V42.3689C67.6308 42.2278 67.3147 42.0778 67.0221 41.9279L66.6829 41.7603L66.7529 41.8837C66.9051 42.1749 67.0221 42.3601 67.1158 42.5189C67.4771 43.1316 67.706 43.7837 67.7946 44.4508C67.9642 45.2633 67.9642 46.0906 67.7946 46.9031H68.6255C68.7757 46.0501 68.7559 45.1849 68.567 44.3362Z" fill="#036291"/>
<path d="M70.03 43.3221V43.2164L68.9884 42.8018V42.9075V43.0046C69.477 43.9731 69.7154 45.0033 69.6905 46.0393C69.6905 46.3744 69.6205 46.6831 69.5735 46.9743H70.4163C70.4163 46.6919 70.4863 46.4096 70.5215 46.0921C70.5862 45.1539 70.4194 44.2146 70.03 43.3221Z" fill="#2D2A66"/>
<path d="M68.7521 19.804C69.1329 19.5841 69.6062 19.4747 70.0853 19.4957C70.5641 19.5168 71.0173 19.6669 71.3617 19.9186L71.5139 20.051C71.7831 20.3575 71.8914 20.7285 71.818 21.0919L68.7521 19.804ZM71.0925 23.1208C69.7701 22.2387 68.4126 21.4271 67.1957 20.7038C66.8328 20.9508 66.4699 21.2242 66.0955 21.4889C67.5467 22.2916 69.1732 23.0679 70.7766 23.7913L71.0925 23.1208ZM65.2412 35.7178C65.2412 35.7178 65.2412 35.6561 65.2412 35.6296C64.3284 34.3065 62.2805 31.8894 61.5666 30.6632L60.5601 29.0489C60.732 31.0328 61.4411 32.9692 62.6434 34.7386C62.7134 34.8623 62.7837 34.9769 62.8538 35.074C63.7666 36.4148 65.1945 38.2584 65.8148 39.5463C66.1661 40.2703 66.444 41.0136 66.6455 41.7694L66.9147 41.9105L67.0201 41.9546C67.3573 39.7848 66.7319 37.5917 65.2412 35.7178ZM59.8112 29.1988C59.5538 27.9285 59.3899 26.5524 59.2613 25.2997L58.7932 25.4938V28.352C58.6546 31.4728 59.1358 34.5919 60.2208 37.6057C60.4431 37.7998 60.6771 37.9761 60.8996 38.1526C60.8996 37.5263 60.8996 36.9 60.8059 36.2736C61.9761 37.7998 63.006 39.07 63.8487 40.1992C64.3987 40.5344 64.9253 40.8344 65.4285 41.0813C64.8316 39.0788 62.9826 36.8823 60.6537 34.5623C60.4315 32.5951 60.1271 30.7249 59.8112 29.1988ZM70.6245 43.4807C71.6309 43.3573 72.766 43.2601 74.0183 43.1809C74.1703 42.8192 74.3458 42.4309 74.5098 42.0428C72.7976 42.1586 71.1218 42.4832 69.5479 43.0044L70.6245 43.4807ZM72.9649 45.5098C72.9708 45.5655 72.9708 45.6215 72.9649 45.6773C73.1171 45.3244 73.3511 44.7951 73.6203 44.16C73.0704 44.16 72.5438 44.16 72.0287 44.16C72.3123 44.3142 72.5427 44.5171 72.7016 44.7517C72.8604 44.9865 72.9426 45.2463 72.9415 45.5098H72.9649ZM76.3236 33.5655C76.1134 33.3863 75.8907 33.2155 75.6566 33.0538C75.5748 33.1509 75.4459 33.2921 75.3756 33.389C74.5098 34.5005 73.5503 35.6296 72.5671 36.6794C70.8585 38.5142 69.2435 40.3755 67.7223 42.2898L68.2137 42.4928C68.8691 41.6105 69.5361 40.7284 70.2267 39.8463C72.0261 37.6298 74.0656 35.529 76.3236 33.5655ZM68.6117 42.6603L68.7637 42.7221C70.6922 42.0044 72.7506 41.505 74.8726 41.2401C75.0597 40.8344 75.2353 40.4286 75.4108 40.0315C72.8438 40.3688 70.4728 41.2855 68.6117 42.6603ZM56.909 26.1907C56.3588 26.3848 55.7386 26.57 55.1535 26.7553L54.3577 27.6374C54.4008 28.1726 54.4826 28.7057 54.6035 29.2341C55.5189 28.3073 56.3034 27.311 56.9439 26.2613L56.909 26.1907ZM68.4829 31.9688C69.3275 34.2878 69.7486 36.6828 69.735 39.0876C70.4589 37.2667 70.6717 35.3519 70.3594 33.4655C70.047 31.5792 69.2166 29.7625 67.9211 28.1314C68.6936 28.5725 69.5594 29.0136 70.3319 29.3664C70.0791 29.0906 69.8674 28.7948 69.6998 28.4843C67.7808 26.9582 65.3467 25.1145 63.3455 23.3149C62.9826 23.5266 62.5964 23.7383 62.175 23.9501C63.5254 25.3033 65.0983 26.5216 66.8561 27.5757C67.3127 28.7489 67.6871 29.7899 68.0264 30.7249L67.5819 30.1868C65.4737 28.2775 63.5195 26.2744 61.7305 24.1882C61.4495 24.3294 61.1803 24.4705 60.8878 24.6028C62.552 27.503 65.1652 30.0373 68.4829 31.9688ZM64.071 32.5509C65.4165 33.9498 66.5397 35.4628 67.4179 37.0588C67.9717 38.1948 68.322 39.3815 68.4595 40.5873C69.5243 37.7557 68.2604 34.818 66.1189 32.1894V32.1451C66.0714 32.0746 66.0165 32.0067 65.9551 31.9423C64.5391 30.178 62.2805 28.0961 61.508 27.0023C60.9581 26.226 60.4667 25.4938 60.1038 24.9204L59.7527 25.0792C60.4197 27.7822 61.8966 30.3347 64.071 32.5421V32.5509ZM54.9546 30.5573C55.1068 30.9896 55.2705 31.4394 55.4696 31.9159L55.5281 32.0217C56.7764 30.3559 57.654 28.547 58.126 26.6671C56.9044 27.8817 55.8458 29.1848 54.9664 30.5573H54.9546ZM58.1026 29.2253C58.1026 29.2253 57.2483 31.2013 56.2888 33.4155C56.5228 33.7684 56.7684 34.1211 57.0494 34.4651C57.8255 32.7823 58.1865 31.0063 58.1144 29.2253H58.1026ZM72.5905 31.1573C72.0908 30.8478 71.6179 30.515 71.1744 30.1604C71.2447 31.713 71.3266 33.9359 71.5021 37.0763C72.3693 35.1748 72.7429 33.1651 72.6023 31.1573H72.5905ZM69.9223 25.5291C68.3425 24.3382 66.7391 23.2091 65.2412 22.1417C64.9371 22.3534 64.6209 22.5563 64.305 22.7503L64.0828 22.8827C65.8022 24.1265 67.6666 25.2513 69.6531 26.2436C69.7234 25.9878 69.8053 25.7585 69.9223 25.5291ZM73.714 34.5094C74.0561 33.824 74.3527 33.1261 74.6034 32.4186L73.597 31.81C73.5659 32.7103 73.5972 33.6113 73.6906 34.5094H73.714ZM69.5713 41.293C71.4998 40.408 73.5893 39.7394 75.7737 39.3082C75.9725 38.8671 76.1832 38.4261 76.3706 38.0378C73.7081 38.5715 71.3268 39.7076 69.5479 41.293H69.5713ZM70.9404 39.7228C72.729 38.6728 74.6971 37.8094 76.7917 37.1557C76.9711 36.759 77.1235 36.3557 77.2482 35.9473C74.7813 36.8228 72.6151 38.1148 70.917 39.7228H70.9404ZM73.1171 37.2705C73.9247 36.8382 75.5163 36.1325 77.4004 35.3475C77.4451 35.1755 77.4451 34.9988 77.4004 34.8269C77.3388 34.6698 77.2523 34.5186 77.1428 34.3771C75.604 35.179 74.2383 36.155 73.0937 37.2705H73.1171Z" fill="#084022"/>
<path d="M66.4937 17.7749C66.4966 17.6102 66.5571 17.4489 66.6693 17.3074C67.3365 17.6867 67.9917 18.0396 68.577 18.366C68.4669 18.4628 68.3307 18.5406 68.1772 18.5938C68.0235 18.6472 67.8567 18.6747 67.6876 18.6747C67.53 18.6771 67.3732 18.6555 67.2269 18.6111C67.0806 18.5668 66.948 18.5006 66.8363 18.4165C66.725 18.3325 66.6372 18.2324 66.5782 18.1221C66.5194 18.0118 66.4907 17.8938 66.4937 17.7749ZM44.0833 17.872H46.9152L48.1909 18.8247H51.3271L51.9007 19.257C51.8285 19.3759 51.7926 19.5055 51.7952 19.6363C51.7952 19.8107 51.864 19.9813 51.9925 20.1264C52.1211 20.2714 52.3038 20.3845 52.5178 20.4513C52.7316 20.518 52.9669 20.5355 53.1938 20.5015C53.4209 20.4674 53.6293 20.3834 53.793 20.26C53.9568 20.1367 54.0681 19.9795 54.1133 19.8084C54.1585 19.6372 54.1354 19.4599 54.0468 19.2987C53.9583 19.1375 53.8082 18.9997 53.6157 18.9028C53.4232 18.8059 53.1971 18.7541 52.9657 18.7541C52.796 18.7534 52.6285 18.7805 52.474 18.8335L51.6548 18.216H48.5304L47.2665 17.2457H44.4344L42.679 15.9224H38.8053L37.9394 16.5752C38.0564 16.7781 38.1968 16.9722 38.3256 17.1751L39.1448 16.5576H42.3395L44.0833 17.872ZM47.7813 23.3942C47.6117 23.3935 47.4441 23.4206 47.2899 23.4736L45.4876 22.1239H43.5683L42.9364 22.6003H40.7713C40.7713 22.8032 40.8886 23.0149 40.9353 23.2266H43.2757L43.9078 22.7502H45.078L46.6344 23.9235C46.5641 24.0398 46.5282 24.1662 46.5292 24.294C46.5292 24.4685 46.5977 24.639 46.7263 24.7841C46.8549 24.9292 47.0376 25.0422 47.2516 25.109C47.4654 25.1758 47.7007 25.1932 47.9276 25.1592C48.1547 25.1252 48.3633 25.0412 48.5268 24.9178C48.6905 24.7944 48.8019 24.6372 48.8471 24.4661C48.8922 24.295 48.8691 24.1176 48.7806 23.9564C48.6921 23.7952 48.5419 23.6575 48.3495 23.5605C48.157 23.4636 47.9309 23.4119 47.6994 23.4119L47.7813 23.3942ZM61.0756 21.577V14.1229C60.783 13.9553 60.502 13.8141 60.2328 13.6818V21.6211C60.0154 21.6884 59.8299 21.8035 59.7006 21.9514C59.5712 22.0993 59.5037 22.2732 59.5073 22.4503C59.5073 22.6843 59.6308 22.9087 59.8502 23.0741C60.0696 23.2395 60.3673 23.3325 60.6775 23.3325C60.9881 23.3325 61.2858 23.2395 61.5052 23.0741C61.7246 22.9087 61.8478 22.6843 61.8478 22.4503C61.8601 22.2616 61.7918 22.0749 61.6527 21.9177C61.5136 21.7604 61.3114 21.641 61.0756 21.577ZM45.2302 25.0262C45.2302 24.8517 45.1614 24.6812 45.0328 24.5361C44.9043 24.391 44.7215 24.278 44.5078 24.2112C44.2937 24.1444 44.0587 24.127 43.8316 24.161C43.6044 24.195 43.3961 24.279 43.2323 24.4024C43.0686 24.5258 42.9572 24.683 42.9121 24.8541C42.8669 25.0252 42.89 25.2026 42.9788 25.3638C43.0673 25.525 43.2172 25.6627 43.4097 25.7597C43.6021 25.8566 43.8285 25.9083 44.0599 25.9083C44.2042 25.9075 44.3469 25.8866 44.4811 25.8466L45.5461 26.6405V27.752C45.8153 27.752 46.0845 27.7961 46.377 27.8049V26.4023L45.1131 25.4408C45.1937 25.3112 45.2338 25.1693 45.2302 25.0262ZM55.7626 23.2001C55.5186 23.199 55.2804 23.2554 55.081 23.3614C54.8816 23.4673 54.7312 23.6176 54.6507 23.7912H52.6613L49.2559 26.3582V27.8314L50.0868 27.7697V26.614L53.0006 24.4175H54.6391C54.7187 24.5624 54.8483 24.6887 55.0143 24.7833C55.1803 24.878 55.3767 24.9375 55.5835 24.9558C55.7901 24.9742 55.9995 24.9506 56.1902 24.8876C56.3808 24.8246 56.5456 24.7244 56.6678 24.5973C56.7899 24.4703 56.8648 24.321 56.8849 24.1649C56.9051 24.0087 56.8695 23.8514 56.782 23.709C56.6947 23.5667 56.5584 23.4444 56.3873 23.355C56.2163 23.2656 56.0169 23.2121 55.8093 23.2001H55.7626ZM41.0289 19.107C41.2604 19.107 41.4865 19.0552 41.679 18.9583C41.8714 18.8614 42.0216 18.7236 42.1101 18.5624C42.1986 18.4012 42.2217 18.2239 42.1766 18.0527C42.1314 17.8816 42.02 17.7244 41.8563 17.6011C41.6928 17.4777 41.4842 17.3937 41.2571 17.3597C41.0302 17.3256 40.7949 17.3431 40.5811 17.4098C40.3671 17.4766 40.1844 17.5897 40.0558 17.7347C39.9272 17.8798 39.8587 18.0504 39.8587 18.2248C39.861 18.3392 39.8887 18.4525 39.9406 18.5601L39.3555 18.9747C39.4607 19.1776 39.5544 19.3893 39.6596 19.6098L40.5023 19.0276C40.6684 19.0819 40.8478 19.109 41.0289 19.107ZM50.2154 22.9355C50.3814 22.9212 50.5416 22.8802 50.6848 22.8154C50.828 22.7506 50.9511 22.6634 51.0461 22.5597C51.1408 22.456 51.2049 22.3382 51.2345 22.2142C51.264 22.0902 51.2576 21.963 51.2165 21.8409C51.1752 21.7189 51.0995 21.6049 50.995 21.5067C50.8903 21.4085 50.7589 21.3284 50.6098 21.2716C50.4607 21.2148 50.2973 21.1828 50.1302 21.1777C49.9634 21.1725 49.7968 21.1944 49.6421 21.2418L47.1495 19.3628H42.9364L41.1927 20.6684H40.1043C40.1862 20.8801 40.2683 21.083 40.3384 21.3035H41.5086L43.2405 19.9891H46.7514L49.0919 21.7534C49.039 21.8546 49.0113 21.9622 49.01 22.071C49.0131 22.1876 49.0467 22.3026 49.1091 22.4093C49.1714 22.5161 49.2613 22.6124 49.3734 22.6928C49.4856 22.7732 49.6177 22.8361 49.7622 22.8777C49.9067 22.9194 50.0609 22.939 50.2154 22.9355ZM57.1084 15.402V13.3025C56.7981 13.3775 56.4966 13.4719 56.2071 13.5847L56.2774 14.7757H54.7092L54.2763 14.4493L53.539 14.7757L54.3466 15.3843L57.1084 15.402ZM54.8732 17.5809C54.9566 17.7618 55.1159 17.9174 55.3271 18.024C55.5381 18.1306 55.7896 18.1825 56.0434 18.1719C56.3616 18.1719 56.6667 18.0767 56.8915 17.9071C57.1166 17.7375 57.2429 17.5075 57.2429 17.2677C57.2429 17.0279 57.1166 16.7979 56.8915 16.6283C56.6667 16.4588 56.3616 16.3635 56.0434 16.3635C55.7896 16.3529 55.5381 16.4048 55.3271 16.5114C55.1159 16.6181 54.9566 16.7736 54.8732 16.9546H53.2464L51.6197 15.7284L50.8475 16.0371L52.8953 17.5809H54.8732ZM58.302 13.1172V18.9482L56.2307 20.5184C56.0113 20.4399 55.7652 20.4147 55.5263 20.4464C55.2874 20.478 55.0672 20.5648 54.8965 20.6948C54.7815 20.7773 54.6897 20.8765 54.6271 20.9864C54.5644 21.0963 54.5324 21.2147 54.5324 21.3344C54.5324 21.4541 54.5644 21.5725 54.6271 21.6824C54.6897 21.7924 54.7815 21.8916 54.8965 21.974C55.0056 22.0593 55.1365 22.1272 55.2815 22.1736C55.4262 22.22 55.5817 22.2439 55.739 22.2439C55.8963 22.2439 56.0521 22.22 56.1968 22.1736C56.3416 22.1272 56.4725 22.0593 56.5818 21.974C56.7568 21.8446 56.8736 21.6772 56.9154 21.4951C56.9575 21.3131 56.9226 21.1258 56.8158 20.9595L59.1563 19.1952V13.2231C58.964 13.1578 58.758 13.119 58.5478 13.1084L58.302 13.1172ZM39.0511 15.2697C39.3049 15.2803 39.5564 15.2284 39.7674 15.1217C39.9786 15.0151 40.1379 14.8596 40.2213 14.6786H43.0065L41.9885 14.0523H40.1628C40.0794 13.8714 39.9201 13.7158 39.7088 13.6092C39.4979 13.5026 39.2464 13.4506 38.9926 13.4612C38.6823 13.4612 38.3847 13.5542 38.165 13.7196C37.9456 13.8851 37.8224 14.1094 37.8224 14.3434C37.8224 14.5774 37.9456 14.8017 38.165 14.9672C38.3847 15.1326 38.6823 15.2256 38.9926 15.2256L39.0511 15.2697ZM63.0298 15.2697L62.1991 14.7757V20.1391L65.0194 22.2739L65.6397 21.8505L63.0298 19.8833V15.2697ZM64.9139 16.3547L64.3406 16.0283L64.0714 15.8607V18.463L67.2077 20.6948C67.4184 20.5449 67.6406 20.4037 67.8513 20.2714L64.9024 18.1984L64.9139 16.3547Z" fill="#62C1D8"/>
<path d="M43.5449 40.2168H46.2951C46.0493 40.0315 45.7801 39.8463 45.4993 39.6522H43.5449V38.4701C43.3578 38.3643 43.1587 38.2672 42.9482 38.1701V39.6522H42.4098L41.2396 38.7701V37.438L40.5139 37.1822V38.7965L39.3437 39.6786H38.8404V36.697L38.3256 36.5382V39.6522H35.0606V35.9472L34.4636 35.859V39.6522H33.9255L32.755 38.7701V35.6295L32.0413 35.559V38.7965L30.8711 39.6786H30.3794V35.462H29.7828V39.6522H26.6229V35.4443H26.2719H25.9793V39.6522H25.4527L24.2825 38.7701V35.612L23.5568 35.6826V38.7965L22.3865 39.6786H21.9418V35.8324H21.3451V39.6522H20.6428C20.7131 39.8463 20.7949 40.0315 20.8768 40.2168H21.3451V41.3901C21.5556 41.9193 21.7547 42.4397 21.9418 42.9338V40.2168H22.4451L23.6153 41.099V44.6274L22.9835 45.1038C23.1182 45.3703 23.3394 45.6068 23.6271 45.7918C24.0846 46.0305 24.5963 46.2039 25.1368 46.3036L25.4761 46.0389H26.0145V46.4447L26.6229 46.533V46.0653H29.8646V46.6741H30.4613V46.0389H30.953L31.9592 46.8065C32.252 46.8065 32.5446 46.8859 32.8135 46.9388L33.984 46.0566H34.5221V47.4151C34.6743 47.4857 34.8265 47.5474 34.9669 47.6268C35.0228 47.6543 35.0739 47.6868 35.1191 47.7238V46.0389H38.3256V51.3318H37.3661C37.4361 51.5259 37.4947 51.7111 37.565 51.8965H38.3256V53.8636C38.4752 54.1751 38.6756 54.4714 38.9225 54.7457V51.8699H39.4255L40.596 52.752V55.2663C40.8511 55.2505 41.0985 55.1934 41.3215 55.0986V52.708L42.4917 51.8259H43.0301V52.0816C43.2056 51.3582 43.3693 50.582 43.6385 49.8586V46.0389H45.3472C45.4524 45.8538 45.5694 45.6684 45.6867 45.4832H43.58L43.5449 40.2168ZM25.9911 45.5097H25.4527L24.2825 44.6274V41.099L25.4527 40.2168H25.9911V45.5097ZM29.8413 45.5097H26.6229V40.2168H29.8646L29.8413 45.5097ZM32.0765 44.6274L30.906 45.5097H30.4146V40.2168H30.906L32.0765 41.099V44.6274ZM34.4754 45.5097H33.937L32.7668 44.6274V41.099L33.937 40.2168H34.4754V45.5097ZM38.3138 45.5097H35.0606V40.2168H38.3256L38.3138 45.5097ZM40.549 50.4761L39.3788 51.3582H38.8756V46.0653H39.3788L40.549 46.9476V50.4761ZM40.549 44.6539L39.3788 45.5361H38.8756V40.2432H39.3788L40.549 41.1253V44.6539ZM42.8897 51.3318H42.3513L41.1811 50.4497V46.9211L42.3513 46.0389H42.8897V51.3318ZM42.8897 45.5097H42.3513L41.1811 44.6274V41.099L42.3513 40.2168H42.8897V45.5097ZM47.3365 41.099V43.0043C47.1261 43.2601 46.927 43.5247 46.7399 43.7718V40.5872L47.3365 41.099Z" fill="#BAE1F7"/>
<path d="M64.2354 22.7594L64.3994 22.6535C66.845 21.1715 68.9281 18.8515 70.8707 19.6278C69.7005 19.0014 66.8568 17.4312 64.3409 16.0021C61.8246 14.5731 59.6597 13.1087 58.4895 13.1087C55.1542 13.1087 51.8306 16.6373 47.8752 16.6373C44.1184 16.6373 40.2567 11.7502 37.8108 12.7823C35.3649 13.8144 37.9982 16.3109 39.1917 18.7456C40.598 21.4431 41.3892 24.3003 41.5322 27.1966C43.666 27.675 45.8833 27.907 48.1092 27.8846C50.2431 27.8564 52.3554 27.5582 54.3583 27.0025C57.9432 26.0159 61.2821 24.5815 64.2354 22.7594Z" fill="url(#paint0_linear_317_361)"/>
<path d="M39.2507 18.7632C39.2187 18.7178 39.1912 18.6706 39.1689 18.622C38.0572 16.4167 35.7634 14.2113 37.3432 13.0469C36.173 13.682 33.3409 15.2522 30.7546 16.5755C28.1683 17.8987 25.6405 19.0808 25.301 19.857C24.2714 22.2477 27.6417 25.7145 26.4715 28.5462C25.301 31.1926 17.9518 32.4982 18.502 34.5713C19.0519 36.6443 23.0076 35.5239 26.4597 35.4534C30.2924 35.287 34.1346 35.6122 37.8231 36.4149C39.0678 35.0324 40.0265 33.5155 40.6668 31.9161C41.3053 30.3666 41.594 28.7474 41.5211 27.1259C41.3838 24.2628 40.6168 21.4367 39.2507 18.7632Z" fill="url(#paint1_linear_317_361)"/>
<path d="M26.4838 35.4532H26.2731C23.1133 35.5767 19.6026 36.5382 18.678 35.0649C19.1227 36.0707 20.2111 38.5936 21.1357 40.8784C22.0601 43.1632 22.7155 45.2892 23.5931 45.8096C26.2846 47.2828 31.7031 45.9155 34.9096 47.6709C38.1162 49.4263 37.25 55.0015 40.047 55.2486C42.844 55.4955 42.6333 52.3109 43.5579 49.8057C44.5257 47.0099 46.108 44.3563 48.239 41.9546C46.8892 40.6211 45.2794 39.4492 43.4643 38.479C41.7071 37.5628 39.7619 36.8715 37.7066 36.4324C34.0653 35.6328 30.2711 35.3017 26.4838 35.4532Z" fill="url(#paint2_linear_317_361)"/>
<path d="M43.5915 49.7526V49.9026C42.7724 52.1872 42.9128 54.9924 40.7242 55.1953H48.8344C51.9822 55.1953 54.9313 55.4424 55.856 54.9661C58.5593 53.4839 58.5123 49.1791 61.7073 47.4238C64.9021 45.6682 71.6778 48.0059 72.8598 46.0828C74.0418 44.1597 69.9576 43.3128 67.0903 41.8663C63.8548 40.3022 60.9975 38.3332 58.6411 36.0439C56.5463 36.6055 54.5741 37.3993 52.7898 38.3993C51.0855 39.3851 49.6104 40.5776 48.4246 41.928C46.2402 44.3122 44.6062 46.9578 43.5915 49.7526Z" fill="url(#paint3_linear_317_361)"/>
<path d="M66.9263 41.9109L67.1019 41.9903C69.7349 43.2782 73.3043 44.0457 72.9532 45.6865C73.3861 44.6721 74.4745 42.1578 75.4928 39.8907C76.5108 37.6236 77.6928 35.5947 77.3533 34.8184C76.3235 32.4278 70.8702 31.1311 69.653 28.2906C68.4828 25.6441 73.468 21.3216 71.3968 19.8837C69.3253 18.4458 66.9966 21.1276 64.2815 22.7154C61.3042 24.5465 57.937 25.9842 54.3226 26.9673C54.3847 28.6458 54.7792 30.3079 55.4929 31.8986C56.1947 33.4209 57.231 34.8432 58.559 36.1063C60.8966 38.3811 63.7252 40.3434 66.9263 41.9109Z" fill="url(#paint4_linear_317_361)"/>
<path d="M102.785 13.9023H102.199V54.0487H102.785V13.9023Z" fill="black"/>
<path d="M183.803 20.0688C176.582 20.0688 166.389 21.7008 155.354 24.7442C145.491 27.4522 136.047 30.9571 127.185 35.1977C135.684 32.835 144.647 31.5591 153.704 31.4221C166.366 31.4221 175.377 35.0741 162.059 47.8829C201.333 28.5022 200.245 20.0688 183.803 20.0688Z" fill="#FF8000"/>
<path d="M36.1027 74.2762H33.8559L30.2164 69.5125V70.3947C30.2164 70.677 30.2164 70.9945 30.2749 71.2768V74.2408H28.6949V67.9775H30.9301L34.558 72.6972C34.558 72.406 34.558 72.1237 34.558 71.8148C34.558 71.5062 34.558 71.2327 34.558 70.9327V67.9775H36.1027V74.2762Z" fill="black"/>
<path d="M47.9927 74.2762H43.1827V67.9775H47.9927V69.0714H44.9499V70.4564H47.782V71.5502H44.9499V73.1735H47.9927V74.2762Z" fill="black"/>
<path d="M62.2935 71.1187C62.3131 71.7058 62.1655 72.2894 61.8606 72.83C61.5968 73.3004 61.1421 73.6956 60.5616 73.9591C59.8813 74.2489 59.107 74.3894 58.3264 74.3648C57.5421 74.3893 56.764 74.2487 56.0796 73.9591C55.4783 73.6954 55 73.2979 54.7102 72.8212C54.4151 72.2787 54.2717 71.696 54.2889 71.1098C54.2717 70.5264 54.4151 69.9468 54.7102 69.4073C54.9812 68.9398 55.4396 68.5481 56.0211 68.2869C56.7096 67.9971 57.4916 67.8566 58.2797 67.8812C59.0603 67.8566 59.8346 67.9971 60.5149 68.2869C61.0961 68.5494 61.5514 68.945 61.8137 69.416C62.1344 69.951 62.2982 70.5318 62.2935 71.1187ZM56.1966 71.1187C56.1553 71.6652 56.3303 72.2087 56.6996 72.68C56.8795 72.8727 57.1233 73.0264 57.4069 73.1256C57.6902 73.2246 58.0035 73.2658 58.3148 73.2446C58.6276 73.2654 58.9423 73.2244 59.2276 73.1254C59.513 73.0264 59.7591 72.8729 59.9413 72.68C60.3008 72.206 60.4715 71.6639 60.4328 71.1187C60.472 70.5762 60.3011 70.0367 59.9413 69.566C59.7622 69.3723 59.5189 69.2173 59.2353 69.1168C58.952 69.0162 58.6387 68.9733 58.3264 68.9927C58.0125 68.9727 57.6971 69.0152 57.4115 69.1158C57.1261 69.2164 56.8808 69.3716 56.6996 69.566C56.3306 70.0342 56.1553 70.5748 56.1966 71.1187Z" fill="black"/>
<path d="M72.5327 74.2762L70.5197 69.3362V69.8654V70.6241V71.3473V74.2762H68.9984V67.9775H71.4092L73.4337 72.7941L75.5285 67.9775H77.9393V74.2762H76.2776V71.2945C76.2776 71.0916 76.2776 70.8622 76.2776 70.6064C76.2776 70.3506 76.2776 70.1035 76.2776 69.8743C76.2776 69.6448 76.2776 69.4597 76.2776 69.3448L74.1243 74.2762H72.5327Z" fill="black"/>
<path d="M96.5588 74.2762L94.4991 69.3362V69.8654V70.6241V71.3473V74.2762H93.0245V67.9775H95.4353L97.4131 72.7941L99.5079 67.9775H101.919V74.2762H100.35V71.2945C100.35 71.0916 100.35 70.8622 100.35 70.6064C100.35 70.3506 100.35 70.1035 100.35 69.8743C100.35 69.6448 100.35 69.4597 100.35 69.3448L98.1971 74.2762H96.5588Z" fill="black"/>
<path d="M111.491 74.3646C111.089 74.3844 110.685 74.3423 110.305 74.2406C109.924 74.139 109.576 73.9802 109.28 73.7736C108.724 73.2415 108.46 72.569 108.542 71.8946C108.513 71.3979 108.65 70.9034 108.94 70.4567C109.181 70.1015 109.566 69.814 110.04 69.6363C110.552 69.4538 111.113 69.3632 111.678 69.3717C112.072 69.3661 112.466 69.3988 112.849 69.4688C113.143 69.5234 113.429 69.6004 113.703 69.698L113.188 70.7127C112.907 70.6332 112.662 70.5627 112.416 70.5098C112.188 70.4575 111.952 70.4307 111.714 70.4304C110.801 70.4304 110.356 70.9155 110.356 71.8857C110.319 72.2607 110.442 72.6348 110.707 72.9532C110.824 73.0686 110.978 73.1604 111.153 73.2204C111.329 73.2805 111.521 73.3069 111.714 73.2973C112.043 73.3011 112.371 73.2656 112.685 73.1913C112.972 73.1117 113.247 73.0082 113.504 72.8827V74.0031C113.244 74.1292 112.96 74.2246 112.662 74.2854C112.277 74.3479 111.884 74.3744 111.491 74.3646Z" fill="black"/>
<path d="M120.023 74.2762V67.9775H121.79V73.1735H125.184V74.2762H120.023Z" fill="black"/>
<path d="M136.722 74.2767L136.113 72.7769H133.117L132.509 74.2767H130.601L133.55 67.9517H135.715L138.676 74.2767H136.722ZM135.692 71.6301L135.084 70.1657C135.084 70.0688 134.99 69.9365 134.931 69.7865C134.873 69.6365 134.803 69.4776 134.744 69.319C134.686 69.1601 134.627 69.019 134.592 68.9044C134.592 69.019 134.498 69.169 134.428 69.3453C134.358 69.5219 134.299 69.6807 134.241 69.8394L134.112 70.1657L133.515 71.6301H135.692Z" fill="black"/>
<path d="M147.09 67.9779C147.973 67.9283 148.854 68.092 149.606 68.4454C149.885 68.6141 150.106 68.8316 150.249 69.0791C150.391 69.3266 150.452 69.5966 150.425 69.8658C150.429 70.1281 150.353 70.3877 150.203 70.6245C150.066 70.8358 149.87 71.0224 149.629 71.1714C149.397 71.316 149.141 71.4375 148.868 71.5329L151.326 74.2766H149.36L147.37 71.8595H146.423V74.2766H144.656V67.9779H147.09ZM146.961 69.0718H146.423V70.7745H146.996C147.434 70.8047 147.873 70.7274 148.248 70.5539C148.378 70.4768 148.481 70.3772 148.548 70.2633C148.616 70.1497 148.645 70.0252 148.634 69.901C148.649 69.7772 148.618 69.6527 148.546 69.5408C148.474 69.4291 148.363 69.3341 148.225 69.2658C147.834 69.1168 147.398 69.0497 146.961 69.0718Z" fill="black"/>
<path d="M162.164 74.2762H157.354V67.9775H162.164V69.0714H159.121V70.4564H161.953V71.5502H159.121V73.1735H162.164V74.2762Z" fill="black"/>
<path d="M176.288 74.2762H174.077L170.437 69.5125V70.3947V71.2768V74.2408H168.857V67.9775H171.092L174.72 72.6972C174.72 72.406 174.72 72.1237 174.72 71.8148C174.72 71.5062 174.72 71.2327 174.72 70.9327V67.9775H176.312L176.288 74.2762Z" fill="black"/>
<path d="M21.4042 85.7443H19.6604V79.4458H24.447V80.5396H21.4042V82.1627H24.283V83.2566H21.4042V85.7443Z" fill="black"/>
<path d="M38.6433 82.5864C38.6628 83.1736 38.515 83.7572 38.2101 84.2978C37.9432 84.7693 37.4844 85.1649 36.8995 85.4268C36.2192 85.7166 35.445 85.8572 34.6643 85.8326C33.8996 85.8488 33.1433 85.7086 32.4758 85.4268C31.8963 85.1563 31.4393 84.7593 31.1652 84.2889C30.8701 83.7464 30.7266 83.1638 30.7438 82.5776C30.7266 81.9941 30.8701 81.4143 31.1652 80.8749C31.4362 80.4076 31.8945 80.0159 32.4758 79.7547C33.1646 79.4647 33.9465 79.3243 34.7346 79.349C35.5153 79.3243 36.2895 79.4649 36.9698 79.7547C37.5511 80.0172 38.0063 80.4128 38.2686 80.8838C38.5535 81.4247 38.681 82.0053 38.6433 82.5864ZM32.5461 82.5864C32.5048 83.133 32.6801 83.6765 33.0493 84.1478C33.229 84.3405 33.4728 84.4941 33.7564 84.5934C34.0399 84.6924 34.353 84.7334 34.6643 84.7124C34.9771 84.7332 35.292 84.6922 35.5774 84.5932C35.8625 84.4941 36.1086 84.3405 36.2911 84.1478C36.6506 83.6738 36.8212 83.1316 36.7825 82.5864C36.8215 82.0439 36.6508 81.5045 36.2911 81.0338C36.1119 80.8401 35.8684 80.6851 35.5851 80.5845C35.3018 80.4839 34.9882 80.4411 34.6761 80.4603C34.362 80.4405 34.0466 80.4828 33.7612 80.5836C33.4759 80.6841 33.2303 80.8393 33.0493 81.0338C32.6803 81.502 32.505 82.0426 32.5461 82.5864Z" fill="black"/>
<path d="M47.7824 79.4457C48.6657 79.3961 49.5469 79.5597 50.2986 79.9134C50.5781 80.0819 50.7988 80.2994 50.9414 80.5469C51.0844 80.7944 51.1447 81.0645 51.1177 81.3336C51.127 81.5963 51.0508 81.8569 50.8952 82.0922C50.7587 82.3036 50.5632 82.4901 50.3219 82.6392C50.09 82.7838 49.8344 82.9053 49.5613 83.0009L52.0188 85.7444H50.0294L48.0398 83.3272H47.092V85.7444H45.3483V79.4457H47.7824ZM47.6887 80.5397H47.1506V82.2422H47.6887C48.1268 82.2726 48.5661 82.1951 48.941 82.0217C49.0709 81.9446 49.1738 81.8449 49.241 81.7313C49.3083 81.6174 49.3378 81.4932 49.3273 81.3688C49.3414 81.2449 49.3108 81.1205 49.2387 81.0086C49.1666 80.8969 49.0555 80.8019 48.9177 80.7338C48.5376 80.5892 48.1139 80.5222 47.6887 80.5397Z" fill="black"/>
<path d="M61.5783 85.7443L59.5656 80.8043V81.3335V82.0921V82.8154V85.7443H58.0443V79.4458H60.4551L62.4326 84.2621L64.5275 79.4458H66.9382V85.7443H65.3233V82.7625C65.3233 82.5596 65.3233 82.3304 65.3233 82.0745C65.3233 81.8187 65.3233 81.5718 65.3233 81.3423C65.3233 81.1129 65.3233 80.9277 65.3233 80.8131L63.1699 85.7443H61.5783Z" fill="black"/>
<path d="M80.854 79.4458V83.5212C80.8576 83.9345 80.7206 84.3414 80.4562 84.7033C80.1878 85.0633 79.7793 85.3527 79.2858 85.5325C78.6837 85.7481 78.0211 85.851 77.3549 85.8325C76.4344 85.8793 75.5262 85.6512 74.8271 85.1973C74.5354 84.9754 74.3075 84.7104 74.1584 84.4189C74.0095 84.1273 73.9423 83.8156 73.9613 83.5035V79.4458H75.7751V83.3006C75.7212 83.6954 75.8721 84.0906 76.1965 84.4033C76.5435 84.6266 76.9936 84.7375 77.4486 84.7121C77.678 84.7283 77.9095 84.7058 78.1261 84.6462C78.3424 84.5868 78.5387 84.4918 78.7007 84.3681C79.0009 84.0571 79.1423 83.675 79.0987 83.292V79.4458H80.854Z" fill="black"/>
<path d="M87.8746 85.7443V79.4458H89.6418V84.6416H93.0354V85.7443H87.8746Z" fill="black"/>
<path d="M104.575 85.7444L103.967 84.2448H100.924L100.35 85.7444H98.4078L101.357 79.4194H103.522L106.483 85.7444H104.575ZM103.545 83.0979L102.937 81.6337C102.937 81.5366 102.843 81.4042 102.785 81.2542C102.726 81.1042 102.656 80.9456 102.597 80.7867C102.539 80.6279 102.48 80.4867 102.445 80.3721C102.445 80.4867 102.352 80.6367 102.281 80.8133C102.211 80.9896 102.153 81.1485 102.094 81.3071L101.965 81.6337L101.369 83.0979H103.545Z" fill="black"/>
<path d="M125.337 85.7443H120.527V79.4458H125.337V80.5396H122.294V81.9245H125.126V83.0185H122.294V84.6416H125.337V85.7443Z" fill="black"/>
<path d="M143.287 85.7443H141.52V80.5571H139.25V79.4458H145.558V80.5571H143.287V85.7443Z" fill="black"/>
<path d="M156.63 85.7443H151.843V79.4458H156.653V80.5396H153.61V81.9245H156.442V83.0185H153.61V84.6416H156.653L156.63 85.7443Z" fill="black"/>
<path d="M168.459 85.7444L167.85 84.2448H164.807L164.199 85.7444H162.291L165.24 79.4194H167.405L170.366 85.7444H168.459ZM167.429 83.0979L166.82 81.6337C166.82 81.5366 166.726 81.4042 166.668 81.2542C166.609 81.1042 166.539 80.9456 166.481 80.7867C166.422 80.6279 166.364 80.4867 166.329 80.3721C166.329 80.4867 166.235 80.6367 166.165 80.8133C166.094 80.9896 166.036 81.1485 165.977 81.3071L165.849 81.6337L165.252 83.0979H167.429Z" fill="black"/>
<path d="M179.929 85.7443L177.916 80.8043V81.3335V82.0921V82.8154V85.7443H176.418V79.4458H178.759L180.736 84.2621L182.831 79.4458H185.242V85.7443H183.674V82.7625C183.674 82.5596 183.674 82.3304 183.674 82.0745C183.674 81.8187 183.674 81.5718 183.674 81.3423C183.674 81.1129 183.674 80.9277 183.674 80.8131L181.521 85.7443H179.929Z" fill="black"/>
</g>
<defs>
<linearGradient id="paint0_linear_317_361" x1="35.8448" y1="15.3317" x2="63.6941" y2="31.784" gradientUnits="userSpaceOnUse">
<stop offset="0.09" stop-opacity="0.8"/>
<stop offset="0.42" stop-opacity="0"/>
</linearGradient>
<linearGradient id="paint1_linear_317_361" x1="21.1116" y1="36.8295" x2="37.2849" y2="13.0008" gradientUnits="userSpaceOnUse">
<stop offset="0.09" stop-opacity="0.85"/>
<stop offset="0.42" stop-opacity="0"/>
</linearGradient>
<linearGradient id="paint2_linear_317_361" x1="43.6749" y1="54.0311" x2="32.7467" y2="28.9228" gradientUnits="userSpaceOnUse">
<stop offset="0.09" stop-opacity="0.8"/>
<stop offset="0.42" stop-opacity="0"/>
</linearGradient>
<linearGradient id="paint3_linear_317_361" x1="72.3565" y1="43.1718" x2="39.8621" y2="52.3403" gradientUnits="userSpaceOnUse">
<stop offset="0.09" stop-opacity="0.85"/>
<stop offset="0.42" stop-opacity="0"/>
</linearGradient>
<linearGradient id="paint4_linear_317_361" x1="67.5114" y1="19.2574" x2="65.467" y2="45.1023" gradientUnits="userSpaceOnUse">
<stop offset="0.09" stop-opacity="0.8"/>
<stop offset="0.42" stop-opacity="0"/>
</linearGradient>
</defs>
</svg>
