<svg width="213" height="100" viewBox="0 0 213 100" fill="none" xmlns="http://www.w3.org/2000/svg">
<g clip-path="url(#clip0_317_285)">
<path d="M0 0H213V100H0V0Z" fill="white"/>
<mask id="mask0_317_285" style="mask-type:luminance" maskUnits="userSpaceOnUse" x="0" y="16" width="213" height="67">
<path d="M0 16.6675H213V82.8975H0V16.6675Z" fill="white"/>
</mask>
<g mask="url(#mask0_317_285)">
<path d="M27.0382 59.9L5.18016 25.7325V59.9H0V17.44H6.03003L26.2863 49.175V17.44H31.4644V59.9H27.0382ZM44.9366 59.9V17.44H50.1168V59.9H44.9366ZM88.6463 18.8775V24.7375C83.939 23.08 80.8292 22.1975 77.155 22.1975C72.4456 22.1975 67.6403 23.5225 67.6403 28.2775C67.6403 31.3725 69.9023 33.1425 72.9142 34.1375L82.0519 37.2325C86.478 38.67 90.1523 41.8775 90.1523 48.29C90.1523 56.14 84.5014 60.675 74.7992 60.675C70.0898 60.675 65.9427 59.68 61.7977 57.8V51.61C66.0364 53.2675 69.9939 55.0375 74.7992 55.0375C80.8271 55.0375 84.7847 52.495 84.7847 48.5125C84.7847 45.085 82.5226 43.3175 79.4128 42.3225L70.9354 39.5575C66.3218 38.12 62.3621 35.025 62.3621 28.28C62.3643 19.9825 69.0503 16.6675 77.155 16.6675C81.5811 16.6675 85.2554 17.66 88.6463 18.8775ZM126.897 18.8775V24.7375C122.187 23.08 119.08 22.1975 115.403 22.1975C110.696 22.1975 105.889 23.5225 105.889 28.2775C105.889 31.3725 108.151 33.1425 111.165 34.1375L120.302 37.2325C124.729 38.67 128.403 41.8775 128.403 48.29C128.403 56.14 122.75 60.675 113.048 60.675C108.34 60.675 104.193 59.68 100.046 57.8V51.61C104.285 53.2675 108.242 55.0375 113.048 55.0375C119.078 55.0375 123.035 52.495 123.035 48.5125C123.035 45.085 120.773 43.3175 117.663 42.3225L109.186 39.5575C104.57 38.12 100.613 35.025 100.613 28.28C100.613 19.9875 107.301 16.67 115.401 16.67C119.923 16.67 123.504 17.6625 126.895 18.88L126.897 18.8775ZM167.218 59.9C166.21 56.2129 165.111 52.5613 163.921 48.95H144.231C142.819 53.265 141.594 57.135 140.934 59.9H135.283C140.746 40.55 148.472 22.085 150.921 17.44H157.045C158.551 20.205 166.278 37.2325 172.683 59.9H167.218ZM162.035 43.425C159.492 35.905 156.572 28.275 154.027 22.9675C151.767 27.9425 148.657 35.905 146.114 43.425H162.035ZM208.572 59.9L186.716 25.7325V59.9H181.536V17.44H187.564L207.82 49.175V17.44H213V59.9H208.572ZM2.26206 74.165V76.82H6.78405V79.03H2.26206V82.79H0.09372V72.065H7.25265V74.2775H2.26206V74.165ZM25.0595 77.26C25.0595 81.3525 22.61 82.9 20.0667 82.9C17.5235 82.9 15.1677 81.35 15.1677 77.26C15.1677 73.5 17.711 71.7325 20.1605 71.7325C22.4225 71.8425 25.0595 73.5 25.0595 77.26ZM17.4277 77.26C17.4277 79.6925 18.842 80.6875 20.0667 80.6875C21.3852 80.6875 22.7037 79.805 22.7037 77.26C22.7037 75.16 21.4789 74.055 20.0667 74.055C18.6545 74.055 17.4277 75.27 17.4277 77.26ZM39.192 82.7875C38.438 81.35 37.684 80.1325 37.0237 79.36H35.5177V82.7875H33.3515V72.0625H37.6861C39.4753 72.0625 41.5478 72.7275 41.5478 75.7125C41.5478 77.37 40.6063 78.5875 39.2857 78.9175C40.4168 80.355 41.4519 82.015 41.9227 82.8975H39.192V82.7875ZM37.3069 77.1475C38.5317 77.1475 39.1899 76.705 39.1899 75.5975C39.1899 74.605 38.5296 74.1625 37.2132 74.1625H35.5156V77.1475H37.3069ZM60.1043 71.9525C60.6688 75.7125 61.0458 79.14 61.3291 82.6775H59.1629C58.9729 79.9379 58.6901 77.2082 58.3151 74.495C57.5611 76.9275 56.9967 79.3625 56.4322 81.6825H54.3597C53.7932 79.25 53.135 76.93 52.4747 74.495C52.1935 76.7075 51.9102 78.92 51.6269 82.6775H49.4629C49.744 79.0275 50.1232 75.6 50.6876 71.9525H53.889C54.1723 73.17 55.1138 76.4875 55.397 78.035C55.6782 76.485 56.6218 73.1675 56.903 71.9525H60.1043ZM78.0986 77.8125C78.0986 81.0175 76.8738 82.8975 73.764 82.8975C70.6542 82.8975 69.5253 80.9075 69.5253 77.8125V71.95H71.6915V77.8125C71.6915 79.8025 72.5372 80.6875 73.7619 80.6875C75.0825 80.6875 75.8344 79.8025 75.8344 77.8125V71.95H78.0006V77.8125H78.0986ZM93.2642 80.575V82.7875H86.7656V72.0625H88.9318V80.6875H93.2642V80.575ZM107.111 80.7975H102.683C102.496 81.46 102.306 82.1225 102.212 82.7875H99.9503C100.892 79.0275 102.212 74.9375 103.437 72.0625H106.451C107.822 75.5522 109.018 79.1333 110.032 82.7875H107.582L107.111 80.7975ZM106.451 78.6975C105.967 77.0898 105.433 75.5037 104.849 73.9425C104.283 75.49 103.812 77.0375 103.343 78.695H106.453L106.451 78.6975ZM130.005 74.165V76.265H134.527V78.365H130.005V80.69H135.093V82.9H127.84V72.175H134.997V74.3875H130.005V74.165ZM157.982 74.165V82.79H155.818V74.165H152.802V71.9525H160.998V74.165H157.982ZM171.267 74.165V76.265H175.789V78.365H171.267V80.69H176.353V82.9H169.101V72.175H176.26V74.3875H171.267V74.165ZM190.58 80.7975H186.247C186.06 81.46 185.87 82.1225 185.779 82.7875H183.514C184.456 79.0275 185.776 74.9375 187.001 72.0625H190.017C191.388 75.5523 192.583 79.1334 193.596 82.7875H191.146L190.58 80.7975ZM190.015 78.6975C189.531 77.0898 188.996 75.5037 188.411 73.9425C187.847 75.49 187.374 77.0375 186.905 78.695L190.015 78.6975ZM211.211 71.9525C211.775 75.7125 212.15 79.14 212.436 82.6775H210.269C210.079 79.9378 209.797 77.2082 209.422 74.495C208.668 76.9275 208.101 79.3625 207.537 81.6825H205.466C204.9 79.25 204.241 76.93 203.581 74.495C203.3 76.7075 203.015 78.92 202.733 82.6775H200.661C200.944 79.0275 201.321 75.6 201.888 71.9525H205.089C205.37 73.17 206.314 76.4875 206.595 78.035C206.878 76.485 207.822 73.1675 208.103 71.9525H211.211Z" fill="black"/>
</g>
</g>
<defs>
<clipPath id="clip0_317_285">
<rect width="213" height="100" fill="white"/>
</clipPath>
</defs>
</svg>
