<svg width="213" height="100" viewBox="0 0 213 100" fill="none" xmlns="http://www.w3.org/2000/svg">
<g clip-path="url(#clip0_317_6)">
<path d="M0 0H213V100H0V0Z" fill="white"/>
<mask id="mask0_317_6" style="mask-type:luminance" maskUnits="userSpaceOnUse" x="62" y="0" width="91" height="100">
<path d="M62.1236 0H152.649V100H62.1236V0Z" fill="white"/>
</mask>
<g mask="url(#mask0_317_6)">
<path d="M152.649 15.7173L62.1236 15.7223V68.8998L107.41 100.005L152.651 68.9148L152.649 15.7173Z" fill="black"/>
<path d="M113.642 59.22V62.575C113.641 62.9266 113.757 63.2647 113.966 63.5175C114.068 63.6412 114.19 63.7398 114.325 63.8076C114.46 63.8754 114.605 63.9111 114.752 63.9125H122.765V62.5875H114.905C114.868 62.5869 114.832 62.5699 114.805 62.54C114.778 62.5103 114.762 62.4704 114.758 62.4275V59.405C114.764 59.3535 114.786 59.3064 114.82 59.2725C114.853 59.2391 114.895 59.2213 114.939 59.2225H122.767V57.8975H114.786C114.638 57.8971 114.492 57.9311 114.356 57.9977C114.22 58.0642 114.097 58.1619 113.993 58.285C113.782 58.5368 113.662 58.8761 113.661 59.23M111.209 60.3375H104.148C104.113 60.3398 104.077 60.329 104.046 60.3066C104.016 60.2843 103.992 60.2514 103.978 60.2125C103.969 60.1872 103.964 60.16 103.963 60.1325V59.2325C103.963 59.1895 103.974 59.1476 103.995 59.112C104.015 59.0765 104.044 59.0488 104.078 59.0325C104.1 59.0219 104.124 59.0168 104.148 59.0175H112.157V57.8925H103.961C103.815 57.8945 103.671 57.9309 103.538 57.9997C103.404 58.0684 103.284 58.168 103.184 58.2925C102.977 58.5437 102.864 58.8808 102.868 59.23V60.13C102.864 60.4808 102.976 60.8197 103.181 61.075C103.282 61.2 103.403 61.3004 103.536 61.3704C103.67 61.4403 103.815 61.4784 103.961 61.4825H111.022C111.046 61.4818 111.069 61.4868 111.091 61.4971C111.113 61.5074 111.133 61.5228 111.15 61.5425C111.167 61.5617 111.182 61.5849 111.191 61.6107C111.201 61.6364 111.207 61.6642 111.207 61.6925V62.5975C111.206 62.6545 111.185 62.7084 111.15 62.7475C111.133 62.7667 111.113 62.7817 111.091 62.7915C111.069 62.8014 111.045 62.806 111.022 62.805H103.003V63.9275H111.209C111.356 63.9281 111.502 63.8941 111.637 63.8275C111.772 63.7609 111.895 63.6632 111.998 63.54C112.209 63.2893 112.328 62.9505 112.328 62.5975V61.6925C112.327 61.3401 112.21 61.0019 112 60.75C111.897 60.6266 111.774 60.5283 111.639 60.4609C111.504 60.3936 111.359 60.3584 111.212 60.3575M100.449 60.775C100.449 60.8301 100.433 60.8835 100.402 60.925C100.371 60.9653 100.328 60.9903 100.283 60.995H93.179V59.1925H100.265C100.291 59.1932 100.315 59.1998 100.339 59.2118C100.362 59.2238 100.382 59.241 100.4 59.2625C100.434 59.305 100.453 59.3625 100.455 59.4225L100.449 60.775ZM100.487 61.85C100.776 61.837 101.05 61.6906 101.247 61.4425C101.448 61.1921 101.558 60.8609 101.556 60.5175V59.21C101.555 58.8597 101.439 58.5235 101.23 58.2725C101.128 58.1502 101.005 58.0529 100.87 57.9864C100.736 57.9199 100.591 57.8854 100.444 57.885H92.0735V63.8975H93.1811V62.315H99.3474C99.4944 62.3158 99.6398 62.3509 99.7751 62.4182C99.9104 62.4856 100.033 62.584 100.136 62.7075C100.346 62.96 100.464 63.2992 100.464 63.6525V63.89H101.575C101.575 63.4655 101.473 63.0497 101.281 62.69C101.091 62.3322 100.818 62.0459 100.493 61.865M89.6389 62.3575C89.6375 62.4135 89.6185 62.4669 89.5857 62.5075C89.5538 62.5492 89.5097 62.5752 89.4621 62.58H82.693C82.6562 62.5781 82.6213 62.5603 82.595 62.53C82.5679 62.4996 82.5513 62.4587 82.5481 62.415V59.395C82.5535 59.3437 82.5747 59.2965 82.6078 59.2625C82.6407 59.2287 82.6833 59.2108 82.7271 59.2125H89.4344C89.485 59.2133 89.5332 59.2376 89.5686 59.28C89.6048 59.3225 89.624 59.38 89.6261 59.44L89.6389 62.3575ZM89.6389 57.885H82.5652C82.4176 57.8842 82.2713 57.9183 82.1352 57.9853C81.999 58.0523 81.8758 58.1509 81.7728 58.275C81.561 58.5266 81.4423 58.8662 81.4427 59.22V62.575C81.4449 62.9271 81.5641 63.2644 81.7749 63.515C81.8783 63.6368 82.0011 63.7335 82.1363 63.7996C82.2716 63.8657 82.4166 63.8998 82.563 63.9H89.6325C89.7787 63.9006 89.9234 63.8666 90.0581 63.8C90.1928 63.7334 90.3146 63.6356 90.4164 63.5125C90.6262 63.2619 90.7426 62.9238 90.7401 62.5725V59.215C90.7415 58.8664 90.6269 58.5309 90.4206 58.28C90.3201 58.1572 90.1998 58.0591 90.0667 57.9913C89.9336 57.9235 89.7904 57.8874 89.6453 57.885M79.0272 60.775C79.028 60.8301 79.0113 60.8835 78.9804 60.925C78.9497 60.9653 78.907 60.9903 78.8611 60.995H71.7767V59.1925H78.8377C78.8875 59.194 78.9349 59.2182 78.9697 59.26C79.0059 59.305 79.0251 59.36 79.0251 59.42V60.7725L79.0272 60.775ZM79.0272 57.885H70.6691V63.9H71.7767V62.315H79.0187C79.1655 62.3157 79.3109 62.2818 79.4463 62.2152C79.5817 62.1486 79.7043 62.0508 79.8068 61.9275C80.0176 61.6773 80.1355 61.3394 80.1348 60.9875V59.2125C80.1345 58.8601 80.0168 58.5219 79.8068 58.27C79.7039 58.1475 79.5812 58.0503 79.4459 57.9842C79.3105 57.9181 79.1653 57.8844 79.0187 57.885M144.107 59.0125V57.8875H134.296V63.905H144.105V62.78H135.404V61.455H144.105V60.335H135.404V59.0125H144.107ZM131.885 60.325H125.163V57.8775H124.058V63.8925H125.163V61.6475H131.885V63.8925H132.993V57.8775H131.885V60.3275V60.325ZM123.723 36.7225C123.553 37.22 123.259 37.6425 122.886 37.9425C122.511 38.24 122.07 38.3975 121.621 38.3925C120.155 38.3925 119.936 37.04 119.936 36.23V30.9325H118.679V36.0225C118.679 39.46 120.835 39.715 121.497 39.715C122.324 39.735 123.127 39.365 123.734 38.6925V39.51H125.01V30.9325H123.753L123.723 36.7225ZM139.315 31.8525C139.283 31.8075 138.503 30.7725 137.498 30.7725C136.612 30.7725 135.747 31.7925 135.261 32.5025V30.9325H133.983V39.525H135.259V34.3925C135.579 33.735 136.49 32.2375 137.244 32.2375C137.883 32.2375 138.522 33.09 138.544 33.0975L139.315 31.8525ZM114.249 30.7725C112.274 30.7725 110.786 32.5325 110.786 35.21C110.786 37.055 111.829 39.6975 114.62 39.6975C115.672 39.71 116.694 39.2825 117.512 38.49L117.585 38.405V36.66L117.195 37.1075C116.51 37.8359 115.63 38.2612 114.707 38.31C113.165 38.31 112.087 37.235 112.087 35.255H117.725V34.9425C117.725 32.8275 116.639 30.7725 114.249 30.7725ZM112.266 33.885C112.375 33.3742 112.633 32.9241 112.994 32.6125C113.353 32.3051 113.793 32.158 114.236 32.1975C115.74 32.1975 116.153 33.28 116.277 33.885H112.266ZM129.51 30.7725C127.536 30.7725 126.047 32.5325 126.047 35.21C126.047 37.055 127.089 39.6975 129.881 39.6975C130.933 39.71 131.956 39.2825 132.774 38.49L132.846 38.405V36.66L132.456 37.1075C131.771 37.8359 130.892 38.2612 129.968 38.31C128.426 38.31 127.351 37.235 127.351 35.255H132.98V34.9425C132.98 32.8275 131.892 30.7725 129.502 30.7725M127.529 33.885C127.638 33.3732 127.896 32.9222 128.258 32.61C128.617 32.3033 129.057 32.157 129.5 32.1975C131.004 32.1975 131.417 33.28 131.54 33.885H127.529ZM108.545 33.88H103.852V29.625H102.591V39.5075H103.852V35.2125H108.545L108.541 39.5075H109.804V29.625H108.541L108.545 33.8825V33.88ZM86.5589 35.795L87.7496 32.0775L89.0276 35.7775L86.5589 35.795ZM88.919 29.6375H86.4993L83.1105 39.54H85.347L85.986 37.5975H89.6772L90.3567 39.54H92.5932L88.9168 29.64L88.919 29.6375ZM80.5481 39.48V31.425H83.5258V29.55H75.4638V31.425H78.4372V39.48H80.5481ZM100.425 39.38C98.8022 39.81 96.719 39.94 95.2174 39.1125C93.9394 38.44 93.1406 36.8225 92.9809 35.2675C92.8808 34.3625 92.9873 33.4425 93.2897 32.6075C93.5922 31.77 94.0778 31.0475 94.6998 30.5175C96.2057 29.23 98.5956 29.2675 100.238 30.165V32.1275C98.9939 31.445 97.128 31.0425 95.9352 32.1275C95.5666 32.4827 95.2845 32.9458 95.1173 33.47C94.949 33.9968 94.9005 34.5659 94.9767 35.1213C95.0529 35.6768 95.2511 36.1993 95.5518 36.6375C95.8542 37.0725 96.2462 37.4025 96.6892 37.5975C97.292 37.8125 97.9246 37.8775 98.5508 37.7825V36.1825H97.7329V34.275H100.419V39.39L100.425 39.38Z" fill="white"/>
<path d="M106.398 47.8624H90.2481V49.6474H106.398V47.8599V47.8624Z" fill="#007E53"/>
<path d="M124.528 47.8624H108.374V49.6474H124.526V47.8599L124.528 47.8624Z" fill="#D5001C"/>
<path d="M152.649 0L62.1236 0.005V13.335L152.649 13.35V0Z" fill="black"/>
<path d="M79.7046 3.66988H82.6355V4.71738H80.6716V6.17988H82.4651V7.15488H80.6716V9.67988H79.7131L79.7067 3.66988H79.7046ZM83.2702 6.65988C83.2702 4.19988 83.7239 3.56738 85.2128 3.56738C86.6995 3.56738 87.1532 4.19988 87.1532 6.65988C87.1532 9.02488 86.7741 9.78488 85.2128 9.78488C83.6515 9.78488 83.2702 9.02488 83.2702 6.65988ZM86.1457 6.63988C86.1457 4.90238 86.0264 4.61488 85.2128 4.61488C84.397 4.61488 84.2798 4.90238 84.2798 6.63988C84.2798 8.62738 84.4012 8.85238 85.2128 8.85238C86.0222 8.85238 86.1457 8.62738 86.1457 6.63988ZM87.9946 3.66988H89.8072C90.8594 3.66988 91.3408 4.11738 91.3408 5.60238C91.3408 6.71738 91.0554 7.23238 90.4909 7.39238L91.4878 9.68488H90.4228L89.558 7.59988H88.9509V9.68488H87.9924L87.9946 3.66988ZM88.9531 4.71738V6.62488H89.673C90.1629 6.62488 90.3376 6.53738 90.3376 5.64988C90.3376 4.84238 90.1672 4.72488 89.6453 4.72488L88.9531 4.71738ZM92.18 9.67988L92.4079 3.66988H93.5496L94.6146 7.66988L95.6327 3.66988H96.7765L97.0321 9.67988H96.0992L95.9437 5.72988L94.9043 9.68738H94.2461L93.196 5.72738L93.0554 9.68738L92.18 9.67988ZM97.9523 3.66988H98.9108V7.76988C98.9108 8.59238 99.1579 8.85238 99.75 8.85238C100.34 8.85238 100.591 8.59238 100.591 7.77238V3.66988H101.55V7.74738C101.55 9.08988 101.071 9.78488 99.75 9.78488C98.4273 9.78488 97.9417 9.08988 97.9417 7.74738L97.9523 3.66988ZM102.591 3.66988H103.55V8.75238H105.484V9.67988H102.583L102.591 3.66988ZM107.599 3.66988H108.792L110.247 9.67988H109.25L108.981 8.53488H107.297L107.035 9.67988H106.142L107.599 3.66988ZM107.522 7.57988H108.751L108.129 4.90488L107.522 7.57988ZM112.528 3.66988H115.506V4.71738H113.495V6.17988H115.337V7.15488H113.495V8.75488H115.506V9.67988H112.528V3.66988ZM117.591 3.66988H121.105V4.71738H119.827V9.67988H118.869V4.71738H117.591V3.66988ZM121.906 3.66988H124.886V4.71738H122.873V6.17988H124.72V7.15488H122.878V8.75488H124.888V9.67988H121.908L121.906 3.66988ZM127.016 3.66988H128.209L129.664 9.67988H128.667L128.399 8.53488H126.714L126.452 9.67988H125.559L127.016 3.66988ZM126.935 7.57988H128.181L127.542 4.90488L126.935 7.57988ZM130.328 9.67988L130.552 3.66988H131.687L132.754 7.66988L133.775 3.66988H134.916L135.17 9.67988H134.237L134.081 5.72988L133.042 9.68738H132.384L131.334 5.72738L131.193 9.68738L130.328 9.67988Z" fill="white"/>
</g>
</g>
<defs>
<clipPath id="clip0_317_6">
<rect width="213" height="100" fill="white"/>
</clipPath>
</defs>
</svg>
