<svg width="256" height="353" viewBox="0 0 256 353" fill="none" xmlns="http://www.w3.org/2000/svg">
<path d="M77.6992 122.202L77.6983 122.202C72.1221 124.108 69.1465 130.174 71.052 135.746C79.3166 159.93 101.834 176.17 127.091 176.17C152.316 176.17 174.846 159.931 183.138 135.763C185.061 130.19 182.084 124.124 176.501 122.21L176.5 122.21C170.9 120.297 164.87 123.26 162.957 128.832L162.957 128.832C157.621 144.388 143.199 154.828 127.095 154.828C110.976 154.828 96.5658 144.392 91.2501 128.841L90.9382 128.947L91.2501 128.84C89.3442 123.271 83.2739 120.314 77.6992 122.202ZM228.713 102.673C228.713 159.106 183.117 205.024 127.091 205.024C71.0738 205.024 25.502 159.106 25.502 102.673C25.502 46.2398 71.0737 0.32967 127.091 0.32967C183.113 0.32967 228.713 46.2399 228.713 102.673ZM174.627 79.2074H160.668C154.771 79.2074 149.993 83.9813 149.993 89.8826C149.993 95.7838 154.767 100.558 160.668 100.558H174.627C180.512 100.558 185.294 95.7838 185.294 89.8826C185.294 83.9814 180.512 79.2074 174.627 79.2074ZM95.3172 79.2074H81.3505C75.4411 79.2074 70.6753 83.9816 70.6753 89.8826C70.6753 95.7836 75.4411 100.558 81.3505 100.558H95.3172C101.21 100.558 105.992 95.7839 105.992 89.8826C105.992 83.9812 101.21 79.2074 95.3172 79.2074Z" fill="black" stroke="black" stroke-width="0.659341"/>
<path d="M127.093 226.366C161.07 226.366 191.846 212.421 214.115 189.945C228.012 196.447 238.379 204.591 245.282 214.505C252.217 224.466 255.67 236.236 255.67 249.973V307.359C255.66 307.368 255.65 307.379 255.638 307.389C255.549 307.473 255.415 307.599 255.237 307.762C254.88 308.09 254.344 308.571 253.633 309.184C252.21 310.41 250.083 312.163 247.273 314.267C241.652 318.477 233.296 324.091 222.362 329.707C200.495 340.937 168.319 352.17 127.093 352.17C86.2356 352.17 54.5131 341.312 33.007 330.456C22.2537 325.028 14.0548 319.6 8.54614 315.532C5.79183 313.497 3.7102 311.803 2.31821 310.618C1.62223 310.026 1.09867 309.561 0.749667 309.244C0.575164 309.086 0.444301 308.965 0.357342 308.884C0.347563 308.875 0.338339 308.866 0.32967 308.858V249.989C0.32967 236.509 3.68825 224.919 10.4331 215.063C17.1449 205.255 27.2243 197.143 40.7325 190.596C62.9557 212.684 93.4561 226.366 127.093 226.366Z" fill="black" stroke="black" stroke-width="0.659341"/>
</svg>
