<svg width="419" height="435" viewBox="0 0 419 435" fill="none" xmlns="http://www.w3.org/2000/svg">
<path d="M159.699 188.202L159.698 188.202C154.122 190.108 151.147 196.174 153.052 201.746C161.317 225.93 183.834 242.17 209.091 242.17C234.316 242.17 256.846 225.931 265.138 201.763C267.061 196.19 264.084 190.124 258.501 188.21L258.5 188.21C252.9 186.297 246.87 189.26 244.957 194.832L244.957 194.832C239.621 210.388 225.199 220.828 209.095 220.828C192.976 220.828 178.566 210.392 173.25 194.841L172.938 194.947L173.25 194.84C171.344 189.271 165.274 186.314 159.699 188.202ZM310.713 168.673C310.713 225.106 265.117 271.024 209.091 271.024C153.074 271.024 107.502 225.106 107.502 168.673C107.502 112.24 153.074 66.3297 209.091 66.3297C265.113 66.3297 310.713 112.24 310.713 168.673ZM256.627 145.207H242.668C236.771 145.207 231.993 149.981 231.993 155.883C231.993 161.784 236.767 166.558 242.668 166.558H256.627C262.512 166.558 267.294 161.784 267.294 155.883C267.294 149.981 262.512 145.207 256.627 145.207ZM177.317 145.207H163.35C157.441 145.207 152.675 149.982 152.675 155.883C152.675 161.784 157.441 166.558 163.35 166.558H177.317C183.21 166.558 187.992 161.784 187.992 155.883C187.992 149.981 183.21 145.207 177.317 145.207Z" fill="black" stroke="black" stroke-width="0.659341"/>
<path d="M209.093 292.366C243.07 292.366 273.846 278.421 296.115 255.945C310.012 262.447 320.379 270.591 327.282 280.505C334.217 290.466 337.67 302.236 337.67 315.973V373.359C337.66 373.368 337.65 373.379 337.638 373.389C337.549 373.473 337.415 373.599 337.237 373.762C336.88 374.09 336.344 374.571 335.633 375.184C334.21 376.41 332.083 378.163 329.273 380.267C323.652 384.477 315.296 390.091 304.362 395.707C282.495 406.937 250.319 418.17 209.093 418.17C168.236 418.17 136.513 407.312 115.007 396.456C104.254 391.028 96.0548 385.6 90.5461 381.532C87.7918 379.497 85.7102 377.803 84.3182 376.618C83.6222 376.026 83.0987 375.561 82.7497 375.244C82.5752 375.086 82.4443 374.965 82.3573 374.884C82.3476 374.875 82.3383 374.866 82.3297 374.858V315.989C82.3297 302.509 85.6883 290.919 92.4331 281.063C99.1449 271.255 109.224 263.143 122.733 256.596C144.956 278.684 175.456 292.366 209.093 292.366Z" fill="black" stroke="black" stroke-width="0.659341"/>
<path d="M209.5 416.5C95.1771 416.5 2.5 323.823 2.5 209.5C2.5 95.1771 95.1771 2.5 209.5 2.5C323.823 2.5 416.5 95.1771 416.5 209.5C416.5 323.823 323.823 416.5 209.5 416.5Z" stroke="#505050" stroke-width="5"/>
<circle cx="338" cy="385" r="50" fill="#27C1B8"/>
<path d="M357.334 371.619C358.222 370.619 358.222 368.951 357.334 368.002L352.005 362C351.162 361 349.682 361 348.793 362L344.603 366.694L353.143 376.313M317 397.809V407.428H325.54L350.729 379.032L342.189 369.413L317 397.809Z" fill="black"/>
</svg>
