<svg width="20" height="23" viewBox="0 0 20 23" fill="none" xmlns="http://www.w3.org/2000/svg">
<path fill-rule="evenodd" clip-rule="evenodd" d="M13.0769 0.5H8.91651C7.03162 0.49998 5.53866 0.49997 4.37024 0.656702C3.16775 0.817987 2.19447 1.15783 1.42691 1.92359C0.659365 2.68937 0.318729 3.66039 0.157067 4.86007C-3.02455e-05 6.02578 -2.0048e-05 7.51526 4.64776e-07 9.39575V15.593C4.64776e-07 17.5088 1.40723 19.0967 3.24668 19.3839C3.38819 20.1656 3.65901 20.8329 4.20344 21.3762C4.82079 21.9921 5.59809 22.257 6.52128 22.3808C7.41048 22.5 8.54103 22.5 9.94369 22.5H13.1332C14.5359 22.5 15.6665 22.5 16.5557 22.3808C17.4789 22.257 18.2561 21.9921 18.8735 21.3762C19.4909 20.7602 19.7564 19.9847 19.8805 19.0637C20 18.1765 20 17.0486 20 15.6492V10.4206C20 9.0212 20 7.89325 19.8805 7.00612C19.7564 6.08507 19.4909 5.30958 18.8735 4.69366C18.329 4.1505 17.6602 3.88031 16.8766 3.73913C16.5887 1.90396 14.9971 0.5 13.0769 0.5ZM15.2608 3.59143C14.9503 2.68591 14.0898 2.03488 13.0769 2.03488H8.97436C7.01865 2.03488 5.62924 2.03651 4.57523 2.17789C3.54334 2.3163 2.94883 2.57587 2.51477 3.00892C2.08071 3.44197 1.82053 4.0351 1.68181 5.06459C1.54009 6.11615 1.53846 7.50232 1.53846 9.45349V15.593C1.53846 16.6036 2.19102 17.462 3.09864 17.7718C3.0769 17.1478 3.07691 16.442 3.07692 15.6492V10.4206C3.0769 9.0212 3.07688 7.89325 3.19643 7.00612C3.32055 6.08507 3.58608 5.30958 4.20344 4.69366C4.82079 4.07774 5.59809 3.81283 6.52128 3.689C7.41048 3.56973 8.54103 3.56975 9.94369 3.56977H13.1332C13.9279 3.56976 14.6353 3.56975 15.2608 3.59143ZM5.29129 5.77899C5.57515 5.49579 5.97369 5.31114 6.72628 5.2102C7.501 5.10628 8.5278 5.10465 10 5.10465H13.0769C14.5491 5.10465 15.5759 5.10628 16.3507 5.2102C17.1033 5.31114 17.5017 5.49579 17.7856 5.77899C18.0695 6.06218 18.2546 6.4598 18.3558 7.21063C18.4599 7.98355 18.4615 9.00794 18.4615 10.4767V15.593C18.4615 17.0618 18.4599 18.0862 18.3558 18.8592C18.2546 19.61 18.0695 20.0076 17.7856 20.2908C17.5017 20.574 17.1033 20.7586 16.3507 20.8596C15.5759 20.9635 14.5491 20.9651 13.0769 20.9651H10C8.5278 20.9651 7.501 20.9635 6.72628 20.8596C5.97369 20.7586 5.57515 20.574 5.29129 20.2908C5.00744 20.0076 4.82236 19.61 4.72118 18.8592C4.61702 18.0862 4.61539 17.0618 4.61539 15.593V10.4767C4.61539 9.00794 4.61702 7.98355 4.72118 7.21063C4.82236 6.4598 5.00744 6.06218 5.29129 5.77899Z" fill="#1C274C"/>
</svg>
