<svg width="36" height="36" viewBox="0 0 36 36" fill="none" xmlns="http://www.w3.org/2000/svg">
<path d="M31.9199 9.59995L17.6099 23.9099C16.1849 25.3349 11.9548 25.9949 11.0098 25.0499C10.0648 24.1049 10.7098 19.8749 12.1348 18.4499L26.4599 4.12491C26.8131 3.7395 27.2408 3.42969 27.7172 3.21414C28.1934 2.99859 28.7085 2.88174 29.2313 2.87073C29.7539 2.85973 30.2735 2.95474 30.7584 3.15006C31.2434 3.34537 31.6838 3.63697 32.0529 4.00717C32.4221 4.37737 32.7125 4.81852 32.9064 5.30401C33.1004 5.78952 33.1941 6.30927 33.1817 6.83194C33.1692 7.35462 33.0509 7.8694 32.8341 8.34513C32.6172 8.82085 32.3063 9.24774 31.9199 9.59995Z" stroke="black" stroke-width="3" stroke-linecap="round" stroke-linejoin="round"/>
<path d="M16.5 6H9C7.40869 6 5.88267 6.63213 4.75744 7.75735C3.63223 8.88258 3 10.4087 3 12V27C3 28.5913 3.63223 30.1174 4.75744 31.2426C5.88267 32.3679 7.40869 33 9 33H25.5C28.815 33 30 30.3 30 27V19.5" stroke="black" stroke-width="3" stroke-linecap="round" stroke-linejoin="round"/>
</svg>
