<svg width="65" height="64" viewBox="0 0 65 64" fill="none" xmlns="http://www.w3.org/2000/svg">
<path d="M13 42.5H22.25V21.75H43V12.5H17.625C14.5417 12.5 13 13.9583 13 16.875" fill="#4285F4"/>
<path d="M42.75 12.5V22H52V16.875C52 13.9583 50.5417 12.5 47.625 12.5" fill="#1967D2"/>
<path d="M42.75 21.75H52V42.25H42.75" fill="#FBBC04"/>
<path d="M13 42.25V47.125C13 50.0417 14.4583 51.5 17.375 51.5H22.5V42.25" fill="#188038"/>
<path d="M22.25 42.25H42.75V51.5H22.25" fill="#34A853"/>
<path d="M42.75 51.5V42.25H52" fill="#EA4335"/>
<path d="M26 28.625C26.1305 28.1238 26.4182 27.6656 26.8307 27.3023C27.2431 26.9391 27.7635 26.6854 28.3329 26.5702C28.9022 26.4549 29.4976 26.4828 30.0513 26.6505C30.605 26.8182 31.0949 27.1191 31.4651 27.519C31.8353 27.9188 32.0711 28.4015 32.1456 28.9123C32.2201 29.423 32.1303 29.9413 31.8866 30.4081C31.6428 30.875 31.2547 31.2716 30.7665 31.553C30.2783 31.8345 29.7096 31.9893 29.125 32M29.125 32H28M29.125 32C29.7081 32.0163 30.275 32.1759 30.7617 32.4607C31.2484 32.7456 31.6355 33.1442 31.879 33.6116C32.1226 34.079 32.2129 34.5965 32.1398 35.1055C32.0668 35.6145 31.8332 36.0946 31.4655 36.4917C31.0979 36.8888 30.6108 37.1869 30.0595 37.3522C29.5082 37.5176 28.9145 37.5437 28.3458 37.4275C27.7771 37.3113 27.256 37.0574 26.8414 36.6947C26.4268 36.332 26.1354 35.8748 26 35.375M34.25 28.875L37.625 26.5H38.125V25.625V38.5" stroke="#4285F4" stroke-width="1.875" stroke-linejoin="bevel"/>
</svg>
