<svg width="36" height="36" viewBox="0 0 36 36" fill="none" xmlns="http://www.w3.org/2000/svg">
<path fill-rule="evenodd" clip-rule="evenodd" d="M18 36C9.51471 36 5.27207 36 2.63605 33.3639C-2.14577e-07 30.728 0 26.4852 0 18C0 9.51471 -2.14577e-07 5.27207 2.63605 2.63605C5.27207 -2.14577e-07 9.51471 0 18 0C26.4852 0 30.728 -2.14577e-07 33.3639 2.63605C36 5.27207 36 9.51471 36 18C36 26.4852 36 30.728 33.3639 33.3639C30.728 36 26.4852 36 18 36ZM25.2545 12.5454C25.7818 13.0726 25.7818 13.9274 25.2545 14.4545L16.2545 23.4545C15.7273 23.9818 14.8727 23.9818 14.3454 23.4545L10.7454 19.8545C10.2182 19.3273 10.2182 18.4727 10.7454 17.9455C11.2726 17.4182 12.1274 17.4182 12.6546 17.9455L15.3 20.5907L23.3455 12.5454C23.8727 12.0182 24.7273 12.0182 25.2545 12.5454Z" fill="#27C1B8"/>
</svg>
