<svg width="28" height="28" viewBox="0 0 28 28" fill="none" xmlns="http://www.w3.org/2000/svg">
<path d="M4.70999 5L28.2895 28M13.6758 13.8341C12.9912 14.524 12.5698 15.464 12.5698 16.5C12.5698 18.6172 14.3294 20.3333 16.4997 20.3333C17.5772 20.3333 18.5534 19.9104 19.2632 19.2255M9.2949 9.66025C6.80687 11.2615 4.91177 13.6684 4 16.5C5.66923 21.6841 10.6344 25.4444 16.5 25.4444C19.1054 25.4444 21.5332 24.7026 23.5733 23.4235M15.1897 7.61866C15.6207 7.57693 16.0579 7.55556 16.5 7.55556C22.3656 7.55556 27.3308 11.3159 29 16.5C28.6323 17.6423 28.1044 18.7154 27.4422 19.6944" stroke="black" stroke-width="3" stroke-linecap="round" stroke-linejoin="round"/>
</svg>
