<svg width="34" height="42" viewBox="0 0 34 42" fill="none" xmlns="http://www.w3.org/2000/svg">
<path d="M16.9915 35.755V22.0018M18.5435 36.1448L24.4086 38.4255C27.6029 39.6677 29.1998 40.2887 30.1847 39.843C31.0399 39.456 31.6888 38.6245 31.9364 37.5978C32.2216 36.4155 31.5331 34.6303 30.1557 31.0595L21.3122 8.1326C19.9652 4.64072 19.2918 2.89477 18.3536 2.35379C17.5385 1.88377 16.5815 1.88199 15.7652 2.34895C14.8255 2.88645 14.1472 4.62988 12.7907 8.1167L3.86216 31.0661C2.47394 34.6342 1.77983 36.4185 2.06207 37.6019C2.3072 38.6297 2.95415 39.4637 3.80872 39.8536C4.79276 40.3027 6.39241 39.6858 9.59169 38.4524L15.5884 36.1403C16.1368 35.9289 16.4111 35.823 16.6917 35.7814C16.9405 35.7443 17.1924 35.7448 17.4412 35.7825C17.7215 35.8251 17.9956 35.9316 18.5435 36.1448Z" stroke="white" stroke-width="3" stroke-linecap="round" stroke-linejoin="round"/>
</svg>
