<svg width="111" height="111" viewBox="0 0 111 111" fill="none" xmlns="http://www.w3.org/2000/svg">
<circle cx="55.5" cy="55.5" r="55" fill="white" stroke="black"/>
<g clip-path="url(#clip0_3_6)">
<rect width="66.6" height="75.48" transform="translate(22.2 17.76)" fill="white"/>
<path d="M74.142 24.335C75.0191 22.3153 74.365 19.9566 72.5662 18.6593C70.7674 17.362 68.3145 17.4799 66.6346 18.9246L28.5775 51.9471C27.0909 53.2444 26.5557 55.3231 27.2544 57.1511C27.9531 58.9792 29.737 60.2175 31.7142 60.2175H48.2899L36.8579 86.665C35.9808 88.6847 36.6349 91.0434 38.4337 92.3407C40.2325 93.638 42.6854 93.5201 44.3653 92.0754L82.4224 59.0529C83.909 57.7556 84.4442 55.6769 83.7455 53.8489C83.0468 52.0208 81.2777 50.7972 79.2857 50.7972H62.71L74.142 24.335Z" fill="black"/>
</g>
<defs>
<clipPath id="clip0_3_6">
<rect width="66.6" height="75.48" fill="white" transform="translate(22.2 17.76)"/>
</clipPath>
</defs>
</svg>
