<svg width="43" height="43" viewBox="0 0 43 43" fill="none" xmlns="http://www.w3.org/2000/svg">
<circle cx="21.5" cy="21.5" r="21" fill="white" stroke="black"/>
<g clip-path="url(#clip0_3_11)">
<rect width="25.8" height="29.24" transform="translate(8.59998 6.88)" fill="white"/>
<path d="M28.7217 9.42711C29.0614 8.64471 28.808 7.73096 28.1112 7.2284C27.4144 6.72584 26.4642 6.77153 25.8134 7.3312L11.0705 20.1237C10.4946 20.6263 10.2873 21.4315 10.558 22.1397C10.8287 22.8478 11.5197 23.3275 12.2857 23.3275H18.7069L14.2783 33.573C13.9385 34.3554 14.1919 35.2691 14.8887 35.7717C15.5855 36.2742 16.5358 36.2285 17.1865 35.6689L31.9294 22.8764C32.5053 22.3738 32.7126 21.5686 32.4419 20.8604C32.1713 20.1523 31.4859 19.6782 30.7142 19.6782H24.293L28.7217 9.42711Z" fill="#27C1B8"/>
</g>
<defs>
<clipPath id="clip0_3_11">
<rect width="25.8" height="29.24" fill="white" transform="translate(8.59998 6.88)"/>
</clipPath>
</defs>
</svg>
